<svg xmlns="http://www.w3.org/2000/svg" width="33.957" height="33.751" viewBox="0 0 33.957 33.751">
  <g id="Icon_awesome-facebook" data-name="Icon awesome-facebook" transform="translate(-0.563 -0.563)" fill="none" stroke-linejoin="round">
    <path d="M34.519,17.541A16.978,16.978,0,1,0,14.888,34.314V22.449H10.575V17.541h4.313V13.8c0-4.255,2.533-6.605,6.413-6.605a26.129,26.129,0,0,1,3.8.331V11.7H22.96a2.454,2.454,0,0,0-2.767,2.652v3.187H24.9l-.753,4.908H20.194V34.314A16.985,16.985,0,0,0,34.519,17.541Z" stroke="none"/>
    <path d="M 22.69379615783691 31.07497024536133 C 24.92071723937988 30.22525596618652 26.92523574829102 28.82779884338379 28.50761604309082 26.99398231506348 C 30.77219581604004 24.36956214904785 32.01935577392578 21.01240158081055 32.01935577392578 17.54092216491699 C 32.01935577392578 13.67249202728271 30.51363563537598 10.03633213043213 27.77957534790039 7.302272319793701 C 27.70832061767578 7.231017112731934 27.63627815246582 7.160430431365967 27.56381034851074 7.090848922729492 C 27.58880805969238 7.232637405395508 27.6017951965332 7.378165245056152 27.6017951965332 7.526392459869385 L 27.6017951965332 11.70253276824951 C 27.6017951965332 13.08324241638184 26.48250579833984 14.20253276824951 25.1017951965332 14.20253276824951 L 22.96032524108887 14.20253276824951 C 22.84712982177734 14.20253276824951 22.76189994812012 14.20986366271973 22.70030784606934 14.21868705749512 C 22.69645690917969 14.25613784790039 22.69379615783691 14.30129146575928 22.69379615783691 14.35404205322266 L 22.69379615783691 15.04092216491699 L 24.9025764465332 15.04092216491699 C 25.63182640075684 15.04092216491699 26.32471656799316 15.35934257507324 26.7996654510498 15.91272258758545 C 27.27461624145508 16.46610260009766 27.48425674438477 17.19927215576172 27.37365531921387 17.92008209228516 L 26.62057685852051 22.82808303833008 C 26.43337631225586 24.0481128692627 25.38379669189453 24.94892311096191 24.14949607849121 24.94892311096191 L 22.69379615783691 24.94892311096191 L 22.69379615783691 31.07497024536133 M 12.38804626464844 31.07497024536133 L 12.38804626464844 24.94892311096191 L 10.57497596740723 24.94892311096191 C 9.194266319274902 24.94892311096191 8.074975967407227 23.82963180541992 8.074975967407227 22.44892311096191 L 8.074975967407227 17.54092216491699 C 8.074975967407227 16.16021156311035 9.194266319274902 15.04092216491699 10.57497596740723 15.04092216491699 L 12.38804626464844 15.04092216491699 L 12.38804626464844 13.80019283294678 C 12.38804626464844 8.269021987915039 15.88651561737061 4.695042610168457 21.30082511901855 4.695042610168457 C 22.57792663574219 4.695042610168457 23.87100791931152 4.832144260406494 24.68399620056152 4.938848972320557 C 22.53062438964844 3.71417760848999 20.08619499206543 3.062502384185791 17.54092597961426 3.062502384185791 C 13.67249584197998 3.062502384185791 10.03633594512939 4.568212509155273 7.302276134490967 7.302272319793701 C 4.568215847015381 10.03633213043213 3.062495946884155 13.67249202728271 3.062495946884155 17.54092216491699 C 3.062495946884155 21.01240158081055 4.309656143188477 24.36956214904785 6.574235916137695 26.99398231506348 C 8.156615257263184 28.82779884338379 10.1611270904541 30.22525405883789 12.38804626464844 31.07497024536133 M 20.19379615783691 34.31396102905273 L 20.19379615783691 22.44892311096191 L 24.14949607849121 22.44892311096191 L 24.9025764465332 17.54092216491699 L 20.19379615783691 17.54092216491699 L 20.19379615783691 14.35404205322266 C 20.19379615783691 13.01151275634766 20.85171508789062 11.70253276824951 22.96032524108887 11.70253276824951 L 25.1017951965332 11.70253276824951 L 25.1017951965332 7.526392459869385 C 25.1017951965332 7.526392459869385 23.15886688232422 7.195042610168457 21.30082511901855 7.195042610168457 C 17.42111587524414 7.195042610168457 14.88804626464844 9.545312881469727 14.88804626464844 13.80019283294678 L 14.88804626464844 17.54092216491699 L 10.57497596740723 17.54092216491699 L 10.57497596740723 22.44892311096191 L 14.88804626464844 22.44892311096191 L 14.88804626464844 34.31396102905273 C 6.771265983581543 33.03921127319336 0.5624960064888 26.01507186889648 0.5624960064888 17.54092216491699 C 0.5624960064888 8.161712646484375 8.161715507507324 0.5625024437904358 17.54092597961426 0.5625024437904358 C 26.92013549804688 0.5625024437904358 34.51935577392578 8.161712646484375 34.51935577392578 17.54092216491699 C 34.51935577392578 26.01507186889648 28.31058692932129 33.03921127319336 20.19379615783691 34.31396102905273 Z" stroke="none" fill="#007a70"/>
  </g>
</svg>
