<svg id="icon_condo_excel_plus" data-name="icon condo excel plus" xmlns="http://www.w3.org/2000/svg" width="104.052" height="115" viewBox="0 0 104.052 115">
  <defs>
    <style>
      .cls-1 {
        fill: #e4509a;
      }
    </style>
  </defs>
  <path id="Path_1703" data-name="Path 1703" class="cls-1" d="M985.561,648.632c.017-.516.046-.989.046-1.463q.005-13.248,0-26.495c0-.368-.009-.737,0-1.1a1.728,1.728,0,0,1,2.394-1.718c.592.195,1.169.441,1.747.675l50.46,20.457c.647.263,1.3.515,1.946.775a1.956,1.956,0,0,1,1.378,2.033c-.01.257,0,.515,0,.773q0,43.661,0,87.322c0,.368.02.738-.011,1.1a1.818,1.818,0,0,1-1.8,1.735c-.257.014-.516.005-.773.005l-98.8,0c-.258,0-.516.008-.773,0a1.811,1.811,0,0,1-1.831-1.584,7.078,7.078,0,0,1-.053-1.21q0-9.825,0-19.65,0-19.816,0-39.632c0-.331,0-.662,0-.994a2.217,2.217,0,0,1,1.54-2.285c2.353-.944,4.681-1.95,7.019-2.93l33.852-14.2c.881-.369,1.765-.733,2.642-1.111C984.882,648.991,985.2,648.813,985.561,648.632Zm44.393,80.384a2.672,2.672,0,0,0,.2-1.5q.01-6.458.005-12.916a11.467,11.467,0,0,1,.033-1.213,1.589,1.589,0,0,1,1.718-1.495,1.632,1.632,0,0,1,1.695,1.536c.033.365.019.735.019,1.1q0,6.4,0,12.806c0,.368-.012.738.02,1.1a3.945,3.945,0,0,0,.191.683c.681.011,1.338.025,2,.03.7,0,1.4.021,2.1,0a5.671,5.671,0,0,0,1.958-.127,4.733,4.733,0,0,0,.173-1.876q.008-38.969.008-77.939c0-1.693,0-3.385,0-5.078a2.931,2.931,0,0,0-.23-1.465c-1.014-.421-2.06-.865-3.113-1.292q-20.43-8.277-40.862-16.549c-1.941-.786-3.886-1.563-5.828-2.346-.271-.109-.534-.268-.853-.023a4.021,4.021,0,0,0-.125,1.6q-.009,25.446-.007,50.892c0,.478.012.958-.026,1.434a1.644,1.644,0,0,1-1.65,1.587,1.679,1.679,0,0,1-1.753-1.608c-.03-.366-.015-.735-.015-1.1q0-10.432,0-20.865c0-.368.008-.737-.017-1.1a2.019,2.019,0,0,0-.135-.461,1.677,1.677,0,0,0-1.219.27q-8.287,3.47-16.566,6.957-11.74,4.924-23.483,9.843a2.273,2.273,0,0,0-1.1.669c-.009.4-.03.872-.03,1.346q0,21.03,0,42.061c0,.331-.011.663.011.993a4.775,4.775,0,0,0,.128.634,19.478,19.478,0,0,0,2.9.08c.956.018,1.914.025,2.87,0a13.347,13.347,0,0,0,2.806-.1,2.921,2.921,0,0,0,.209-1.565q.01-6.789.006-13.579a9.789,9.789,0,0,1,.052-1.322,1.527,1.527,0,0,1,1.395-1.342,10.056,10.056,0,0,1,1.1-.035q9.715,0,19.429,0c.331,0,.663,0,.993.023a1.515,1.515,0,0,1,1.5,1.23,5.312,5.312,0,0,1,.142,1.306c.012,2.576.006,5.151.006,7.727,0,2.134-.006,4.269.006,6.4a1.769,1.769,0,0,0,.181,1.181,2.957,2.957,0,0,0,.433.066q3.864.007,7.728,0a3.262,3.262,0,0,0,.658-.149c.012-.445.032-.845.033-1.246q0-4.25,0-8.5,0-6.237,0-12.474a5.325,5.325,0,0,1,.1-1.2,1.7,1.7,0,0,1,1.851-1.383,1.75,1.75,0,0,1,1.605,1.671c.029.366.012.735.012,1.1q0,16.835,0,33.67c0,.4-.008.81.01,1.214a5.082,5.082,0,0,0,.1.613,1.331,1.331,0,0,0,.36.133c1.435.007,2.869.009,4.3,0,.129,0,.258-.109.436-.19.011-.449.03-.887.031-1.325q0-6.624,0-13.247a5.112,5.112,0,0,1,.03-.991,1.684,1.684,0,0,1,1.546-1.479,1.634,1.634,0,0,1,1.841,1.225,4.95,4.95,0,0,1,.146,1.305c.013,2.686.006,5.372.006,8.059,0,1.84,0,3.68.005,5.52,0,.355-.088.739.184,1.042a30.219,30.219,0,0,0,5.511-.019,2.489,2.489,0,0,0,.195-1.487q.011-10.984.006-21.969a11.028,11.028,0,0,1,.028-1.213,1.648,1.648,0,0,1,1.525-1.484c.292-.025.588-.013.883-.013h15.124c.257,0,.516-.007.772.009a1.652,1.652,0,0,1,1.633,1.611c.032.4.018.809.018,1.214q0,10.819,0,21.637c0,.368-.011.738.019,1.1a3.222,3.222,0,0,0,.16.6A31.952,31.952,0,0,0,1029.954,729.016Zm-86.795.108c.589.01,1.062.026,1.536.026h39.27c.331,0,.663.015.992-.012a3.88,3.88,0,0,0,.632-.159c.02-.337.05-.628.053-.919.008-.7,0-1.4,0-2.1,0-1.839,0-3.677,0-5.516a1.255,1.255,0,0,0-.3-1.117c-.424-.017-.932-.053-1.44-.053q-19.524-.005-39.049,0c-.257,0-.515,0-.772,0-.932.027-1.014.092-1.018,1.015q-.016,3.971,0,7.942A8.857,8.857,0,0,0,943.16,729.125Zm77.073-.076a1.707,1.707,0,0,0,.231-1.126q.005-10.151,0-20.3c0-1.168-.093-1.246-1.247-1.279-.074,0-.147,0-.221,0q-5.075,0-10.15,0a6.725,6.725,0,0,0-.88.052c-.372.05-.528.2-.561.564s-.033.734-.033,1.1q0,9.709,0,19.419a7.334,7.334,0,0,0,.019.881,4.578,4.578,0,0,0,.181.683C1008.57,729.188,1019.253,729.19,1020.233,729.049ZM972.955,715.6c.032-.383.082-.7.083-1.024q.008-6.069,0-12.139c0-1.2-.039-1.244-1.243-1.246q-7.559-.01-15.118,0c-1.168,0-1.23.073-1.234,1.271-.008,2.133,0,4.267,0,6.4,0,1.839-.005,3.679,0,5.518a1.859,1.859,0,0,0,.169,1.162c.817.177,8.234.24,16.32.138C972.255,715.678,972.575,715.632,972.955,715.6Z" transform="translate(-939.492 -617.734)"/>
  <path id="Path_1704" data-name="Path 1704" class="cls-1" d="M984.912,775.542q-4.853,0-9.706,0a3.377,3.377,0,0,1-1.405-.2,1.579,1.579,0,0,1-1.061-1.411c-.021-.33-.031-.661-.031-.992q0-6.121,0-12.243c0-.257.01-.514.011-.772a1.755,1.755,0,0,1,1.082-1.652c.131-.066.265-.128.4-.188,4.226-1.883,8.456-3.757,12.675-5.656a5.94,5.94,0,0,1,2.66-.562c1.653.044,3.309.012,4.963.012.22,0,.441-.007.662,0A1.992,1.992,0,0,1,997.322,754c.013.22.005.441.005.662q0,9.044,0,18.088a6.6,6.6,0,0,1-.053,1.1,1.872,1.872,0,0,1-1.771,1.675,7.548,7.548,0,0,1-.882.015Zm8.7-19.993c-.368-.032-.689-.079-1.01-.083-1.029-.01-2.058.011-3.087-.01a3.349,3.349,0,0,0-1.489.324c-1.268.578-2.545,1.139-3.818,1.709-2.412,1.079-4.818,2.171-7.239,3.232a1.116,1.116,0,0,0-.813,1.255,2.777,2.777,0,0,1,0,.331q0,4.133,0,8.268c0,1.379.009,1.384,1.431,1.385q7.386,0,14.771,0a5.3,5.3,0,0,0,.661-.013,5.95,5.95,0,0,0,.666-.162c.025-.36.062-.683.066-1.007C993.862,763.574,993.806,756.6,993.617,755.549Z" transform="translate(-960.213 -701.406)"/>
  <path id="Path_1705" data-name="Path 1705" class="cls-1" d="M1085.53,685.292q0-6.237,0-12.474a9.371,9.371,0,0,1,.03-1.1,1.615,1.615,0,0,1,1.542-1.46c.918-.037,1.84-.033,2.759,0a2.425,2.425,0,0,1,.938.277q5.19,2.562,10.367,5.149a4.243,4.243,0,0,1,.57.333,1.539,1.539,0,0,1,.7,1.2c.018.293.031.588.031.882q0,9.825,0,19.651c0,.331-.026.661-.037.992a1.616,1.616,0,0,1-1.461,1.41c-.33-.012-.662.023-.992.023q-5.962,0-11.923,0c-.257,0-.516,0-.772-.012a1.659,1.659,0,0,1-1.741-1.73c-.017-.33-.009-.662-.009-.993Q1085.529,691.364,1085.53,685.292Zm13.439-6.692c-.35-.2-.659-.4-.984-.557q-3.849-1.92-7.7-3.828a6.6,6.6,0,0,0-.7-.312.392.392,0,0,0-.552.356,12.055,12.055,0,0,0-.055,1.21q0,9.768,0,19.536c0,.221,0,.442,0,.662.033.9.144,1.017,1.024,1.05.073,0,.147,0,.221,0,2.5,0,5,.006,7.505,0,1.238,0,1.29-.059,1.291-1.322q.006-7.837,0-15.673C1099.014,679.359,1098.985,679,1098.968,678.6Z" transform="translate(-1030.591 -650.481)"/>
  <path id="Path_1706" data-name="Path 1706" class="cls-1" d="M1161.4,775.136q0,4.412,0,8.824a7.6,7.6,0,0,1-.017.881,1.733,1.733,0,0,1-1.677,1.591c-.22.014-.441.008-.662.008H1146.8c-.147,0-.294,0-.441,0a1.821,1.821,0,0,1-1.99-1.877c-.019-.219-.01-.441-.01-.661q0-8.823,0-17.647a5.981,5.981,0,0,1,.026-.771,1.919,1.919,0,0,1,1.869-1.832,6.839,6.839,0,0,1,.771-.013q5.9,0,11.8,0a4.6,4.6,0,0,1,1.09.094,1.79,1.79,0,0,1,1.477,1.807c.015.257.006.514.006.772Zm-13.422,7.589a1.8,1.8,0,0,0,.369.164,5.394,5.394,0,0,0,.765.077c.736.01,1.472.005,2.208.005,1.73,0,3.46,0,5.189,0a1.823,1.823,0,0,0,1.341-.305c.025-.414.077-.885.078-1.356q.011-4.361,0-8.723c0-1.325.005-2.65,0-3.975a1.905,1.905,0,0,0-.271-1.291,2,2,0,0,0-.409-.083q-4.306-.01-8.611,0a2.316,2.316,0,0,0-.588.154c-.174.963-.225,6.968-.128,14.392C1147.925,782.1,1147.96,782.429,1147.979,782.725Z" transform="translate(-1067.29 -708.747)"/>
  <path id="Path_1707" data-name="Path 1707" class="cls-1" d="M1085.531,775.136c0-3.054,0-6.109,0-9.164,0-1.666.664-2.329,2.34-2.333,4.085-.009,8.17,0,12.255-.007a3.123,3.123,0,0,1,1.291.231,1.536,1.536,0,0,1,1.009,1.332c.028.329.037.661.037.992q0,8.888,0,17.775a8.089,8.089,0,0,1-.038.992,1.624,1.624,0,0,1-1.529,1.473c-.256.021-.515.013-.772.013h-12.255c-.258,0-.516.008-.773-.013a1.642,1.642,0,0,1-1.54-1.466,8.426,8.426,0,0,1-.028-.992Q1085.529,779.552,1085.531,775.136Zm13.422,7.517c.018-.259.061-.583.061-.907q.006-6.67,0-13.339a2.717,2.717,0,0,0-.065-.763.751.751,0,0,0-.356-.366.936.936,0,0,0-.431-.055q-4.189,0-8.378,0c-.037,0-.073,0-.11,0-.477.043-.63.192-.684.686a4.007,4.007,0,0,0-.017.44q0,6.725,0,13.449c0,1.022.125,1.152,1.144,1.159,2.572.017,5.144.009,7.716,0A1.5,1.5,0,0,0,1098.953,782.653Z" transform="translate(-1030.592 -708.747)"/>
  <path id="Path_1708" data-name="Path 1708" class="cls-1" d="M1144.359,702.923c0-2.759,0-5.517,0-8.275a4.835,4.835,0,0,1,.108-1.2,1.686,1.686,0,0,1,2.389-1.2c2.18.878,4.346,1.792,6.515,2.7q3.1,1.294,6.2,2.6c.068.028.139.048.208.071a2.226,2.226,0,0,1,1.634,2.426c-.042,3.825-.015,7.65-.016,11.475a2.718,2.718,0,0,1-.184,1.295,1.568,1.568,0,0,1-1.36.971c-.33.019-.661.029-.992.029q-5.958,0-11.917,0c-.331,0-.662-.007-.992-.028a1.478,1.478,0,0,1-1.43-1.167,5.129,5.129,0,0,1-.159-1.3C1144.353,708.513,1144.359,705.718,1144.359,702.923Zm3.6-6.1c-.016.4-.042.758-.043,1.121q-.006,3.14,0,6.28c0,1.726-.007,3.452.006,5.178.006.79.124.9.874.941.073,0,.147,0,.22,0,2.607,0,5.215,0,7.822,0a6.462,6.462,0,0,0,.8-.094,1.967,1.967,0,0,0,.287-1.34q.01-3.47,0-6.941c0-.257-.013-.514-.033-.77a.8.8,0,0,0-.541-.754c-.41-.158-.809-.346-1.215-.516-2.3-.963-4.6-1.93-6.9-2.882A1.581,1.581,0,0,0,1147.964,696.826Z" transform="translate(-1067.29 -664.115)"/>
  <path id="Path_1709" data-name="Path 1709" class="cls-1" d="M1065.55,791.293a1.762,1.762,0,0,1-1.664,1.723,1.874,1.874,0,0,1-1.747-1.791,1.825,1.825,0,0,1,1.761-1.756A1.708,1.708,0,0,1,1065.55,791.293Z" transform="translate(-1016.001 -724.864)"/>
</svg>
