<svg id="icon_over_the_counter" data-name="icon over the counter" xmlns="http://www.w3.org/2000/svg" width="120.472" height="122.713" viewBox="0 0 120.472 122.713">
  <defs>
    <style>
      .cls-1 {
        fill: #e4509a;
      }
    </style>
  </defs>
  <path id="Path_1728" data-name="Path 1728" class="cls-1" d="M1024.367,623.373a3.687,3.687,0,0,0-.184,1.559q-.008,5.258,0,10.516v25.286c0,.2,0,.394,0,.591-.009,1.452.059,1.231,1.2,1.641a8.653,8.653,0,0,1,5.755,6.234,14.426,14.426,0,0,1,.337,2.8c.056.942.031,1.89.009,2.835a.978.978,0,0,0,.632,1.02,5.375,5.375,0,0,1,.723.4A8.758,8.758,0,0,1,1037,682.67a17.051,17.051,0,0,1-.019,4.705,8.832,8.832,0,0,1-7.42,7.384,19.12,19.12,0,0,1-2.468.179q-48.741.013-97.482.011a11.655,11.655,0,0,1-3.733-.466,8.851,8.851,0,0,1-6.2-7.226,23.21,23.21,0,0,1,.152-5.3,8.645,8.645,0,0,1,4.264-5.824c1.179-.688,1.206-.435,1.2-2.115,0-.906.012-1.812,0-2.718a8.85,8.85,0,0,1,5.691-8.222c1.52-.582,1.418-.244,1.419-2.081q0-17.961,0-35.921c0-.505-.031-1.01-.044-1.415a1.03,1.03,0,0,0-.959-.333c-1.339-.008-2.679,0-4.017-.009a10.184,10.184,0,0,1-3.029-.42,8.7,8.7,0,0,1-6.3-7.25,23.077,23.077,0,0,1-.082-3.538,8.845,8.845,0,0,1,5.08-7.906,34,34,0,0,0,3.334-1.77q25.4-14.832,50.789-29.672c1.215-.71,1.066-.722,2.336.02q25.5,14.892,50.994,29.789c1.019.6,2.052,1.168,3.091,1.729a8.831,8.831,0,0,1,4.629,5.961,5.542,5.542,0,0,1,.16,1.165c.022,1.22.052,2.443,0,3.661a8.819,8.819,0,0,1-7.51,8.071,44.141,44.141,0,0,1-4.953.164C1025.42,623.343,1024.915,623.358,1024.367,623.373Zm-46.236-3.855h50.1c.433,0,.868-.021,1.3,0a5.161,5.161,0,0,0,5.206-5.049c.033-.668.021-1.339.007-2.008a5.109,5.109,0,0,0-2.687-4.661c-2.94-1.679-5.853-3.4-8.777-5.113q-21.672-12.66-43.346-25.316c-1.865-1.088-1.31-1.114-3.252.017q-12.4,7.219-24.782,14.477Q937.977,600,924.049,608.12a4.4,4.4,0,0,0-2.243,3.146,10.267,10.267,0,0,0,.008,4.1,5,5,0,0,0,3.87,4.013,7.458,7.458,0,0,0,1.875.13Q952.845,619.523,978.13,619.518Zm.153,71.623h48.328c.552,0,1.1-.028,1.654,0a5.14,5.14,0,0,0,5.073-5.031c0-.788.014-1.576,0-2.363a5.16,5.16,0,0,0-3.663-4.842,7.7,7.7,0,0,0-2.339-.236H929.378c-.354,0-.71-.014-1.063.011a5.224,5.224,0,0,0-4.853,4.122,11.252,11.252,0,0,0-.1,3.644,5.118,5.118,0,0,0,5.292,4.691c.433.005.867,0,1.3,0ZM962.6,674.706c.023-.368.056-.678.06-.989.009-.787-.006-1.575.006-2.362a8.911,8.911,0,0,1,5.674-8.247,7.844,7.844,0,0,1,.888-.318.814.814,0,0,0,.66-.856c.022-.432.024-.866.024-1.3q0-17.6,0-35.205c0-.394.013-.789-.019-1.181a5.713,5.713,0,0,0-.175-.792,2.538,2.538,0,0,0-.5-.11q-9.628-.008-19.256,0a1.832,1.832,0,0,0-.425.1,1.961,1.961,0,0,0-.254,1.393q-.009,18.193-.007,36.387c0,1.6.119,1.37,1.24,1.736a8.964,8.964,0,0,1,6.06,8.574c0,.748-.007,1.5,0,2.245,0,.309.048.618.069.866a1.5,1.5,0,0,0,1.17.338C960.9,675.08,961.65,675.04,962.6,674.706Zm44.539-51.189a2.618,2.618,0,0,0-1.433-.182q-5.669-.012-11.338,0c-2.047,0-4.094,0-6.142,0a2.625,2.625,0,0,0-1.293.158,4.169,4.169,0,0,0-.121,1.518q-.006,18.011,0,36.023c0,.236-.011.473.005.708.019.268.062.534.1.863.424.149.829.285,1.229.435a8.879,8.879,0,0,1,5.8,8.265c-.01.748-.006,1.5,0,2.244a2.168,2.168,0,0,0,.16,1.149,1.5,1.5,0,0,0,1.117.284q1.831.01,3.661,0a4.438,4.438,0,0,0,.7-.061.6.6,0,0,0,.524-.556,7.75,7.75,0,0,0,.054-.823c.01-.787-.013-1.576.019-2.362a9.123,9.123,0,0,1,.188-1.754,8.783,8.783,0,0,1,5.591-6.389c.255-.1.517-.189.78-.271a.7.7,0,0,0,.534-.694c.016-.393.022-.787.022-1.18q0-17.834,0-35.668c0-.354.011-.71-.018-1.062A4.177,4.177,0,0,0,1007.14,623.517Zm13.169-.109c-.384-.032-.654-.074-.925-.074q-3.6-.008-7.2,0a5.512,5.512,0,0,0-.589.021.557.557,0,0,0-.587.6c-.036.43-.035.865-.035,1.3q0,17.65,0,35.3c0,.236,0,.472,0,.708.025,1.117.12,1.213,1.212,1.242.079,0,.157,0,.236,0h6.611c.157,0,.315,0,.472-.007.784-.045.928-.187.979-1.008.021-.353.013-.708.013-1.062q0-17.532,0-35.064c0-.354.013-.71-.015-1.062A8.645,8.645,0,0,0,1020.309,623.408ZM936.3,662.293a2.1,2.1,0,0,0,1.225.208q3.365.009,6.729,0c.2,0,.394,0,.59-.017.53-.051.712-.215.75-.724.03-.391.021-.786.021-1.18q0-17.65,0-35.3c0-.393.012-.789-.022-1.179a3.9,3.9,0,0,0-.2-.708,16.456,16.456,0,0,0-2.254-.064c-.748-.009-1.5,0-2.243,0-.787,0-1.575-.017-2.361.005a7.46,7.46,0,0,0-2.2.122,3.135,3.135,0,0,0-.236,1.758q-.009,17.65,0,35.3a9.882,9.882,0,0,0,.023,1.061A4.526,4.526,0,0,0,936.3,662.293Zm37.36-38.759c-.022.4-.058.747-.058,1.1q0,18.248,0,36.5c0,.275.006.552.034.825a.524.524,0,0,0,.44.487,2.912,2.912,0,0,0,.585.059c2.441,0,4.882.008,7.323,0a5.082,5.082,0,0,0,.854-.14,3.376,3.376,0,0,0,.172-1.6q.009-17.835,0-35.67c0-.315.011-.631-.011-.944a6.658,6.658,0,0,0-.124-.7,4.216,4.216,0,0,0-.618-.1q-4.074,0-8.149.022A1.839,1.839,0,0,0,973.66,623.535Zm-32.754,51.451h10.034c.354,0,.71.008,1.062-.02.657-.052.845-.2.849-.883a28.294,28.294,0,0,0-.115-3.414,4.987,4.987,0,0,0-3.854-4.276,8.4,8.4,0,0,0-1.867-.2c-4.053-.018-8.106-.009-12.159-.009-.275,0-.552-.006-.826.016a5.2,5.2,0,0,0-4.936,4.442,16.846,16.846,0,0,0-.122,2.7c-.01,1.589.049,1.641,1.665,1.644Q935.771,674.992,940.906,674.986Zm37.393,0q5.017,0,10.034,0c.393,0,.789,0,1.179-.034.511-.05.723-.24.734-.747a26.382,26.382,0,0,0-.022-3.184,5.2,5.2,0,0,0-4.506-4.757,8.495,8.495,0,0,0-1.175-.08q-6.2-.009-12.4,0c-.236,0-.473,0-.708.014a5.2,5.2,0,0,0-4.965,4.672,20.737,20.737,0,0,0-.106,2.472c-.005,1.6.047,1.645,1.66,1.648Q973.164,674.991,978.3,674.986Zm49.291-.277c.029-.279.077-.549.079-.819.009-.865.014-1.731,0-2.6a5.049,5.049,0,0,0-4.105-4.933,9.455,9.455,0,0,0-1.87-.175c-3.933-.015-7.866-.008-11.8-.007-.314,0-.63-.008-.943.014a5.28,5.28,0,0,0-5.084,5.325c-.015.786-.01,1.573,0,2.36,0,.27.055.539.082.783a1.808,1.808,0,0,0,1.378.321c2.4.006,4.8,0,7.2,0q6.726,0,13.451,0A2.713,2.713,0,0,0,1027.589,674.709Z" transform="translate(-917.943 -572.236)"/>
  <path id="Path_1729" data-name="Path 1729" class="cls-1" d="M1085.442,701.943h-13.463c-.315,0-.63.01-.945-.007a3.356,3.356,0,0,1-.7-.1,1.89,1.89,0,0,1-1.469-2.007,1.962,1.962,0,0,1,1.841-1.7c.274-.023.551-.01.827-.01h27.87a7.792,7.792,0,0,1,.944.019,1.858,1.858,0,0,1,1.668,1.709,1.775,1.775,0,0,1-1.361,1.946,5.541,5.541,0,0,1-1.4.143Q1092.351,701.951,1085.442,701.943Z" transform="translate(-1024.371 -661.01)"/>
</svg>
