<svg id="icon_covid_19" data-name="icon covid 19" xmlns="http://www.w3.org/2000/svg" width="46.936" height="55" viewBox="0 0 46.936 55">
  <path id="Path_1688" data-name="Path 1688" d="M1364.459,654.465c.212-.09.295-.276.409-.425q1.355-1.78,2.7-3.564a2.409,2.409,0,0,1,.342-.4.809.809,0,0,1,1.227.22.849.849,0,0,1,0,.854,3.179,3.179,0,0,1-.271.388q-5.476,7.239-10.957,14.478c-.062.084-.133.164-.193.25a.871.871,0,0,1-1.333.038c-.239-.3-.506-.583-.742-.888a23.209,23.209,0,0,1-3.878-7.184,32.73,32.73,0,0,1-.89-3.568c-.155-.772-.294-1.549-.4-2.33a14.142,14.142,0,0,1-.125-1.783q-.013-5.843,0-11.686c0-.053,0-.105,0-.158a.924.924,0,0,1,.877-1c.224-.037.449-.06.672-.1a11.45,11.45,0,0,0,5.312-2.626,12.69,12.69,0,0,0,3.328-4.612,15.932,15.932,0,0,0,.87-2.532c.021-.084.05-.168.077-.251a.931.931,0,0,1,.915-.726c.123-.009.246,0,.369,0q7.395,0,14.791,0a6.561,6.561,0,0,1,.834.077,1.486,1.486,0,0,1,1.153.894,3.869,3.869,0,0,1,.29,1.007,12.036,12.036,0,0,0,1.807,4.282.884.884,0,0,1-.017,1.2c-.5.68-1.009,1.349-1.515,2.022l-8.949,11.905a3.83,3.83,0,0,1-.29.374.782.782,0,0,1-1.12.174.836.836,0,0,1-.214-1.165c.092-.149.2-.286.31-.425q1.392-1.852,2.783-3.7c.125-.166.241-.339.348-.489-.054-.177-.173-.2-.291-.236a7.895,7.895,0,0,0-4.647.228,7.554,7.554,0,0,0-4.823,5.621,7.371,7.371,0,0,0,.883,5.421C1364.185,654.2,1364.246,654.377,1364.459,654.465Zm-7.492,9.858a.838.838,0,0,0,.4-.37q2.859-3.776,5.718-7.555c.063-.083.127-.167.184-.255a.268.268,0,0,0,0-.3c-.035-.061-.078-.117-.118-.174a9.26,9.26,0,0,1-1.457-3.072,4.642,4.642,0,0,0-.176-.455,14.59,14.59,0,0,0-2.079.347c-.067.171-.125.316-.181.462a2.816,2.816,0,0,1-3.161,1.808,2.879,2.879,0,1,1,2.877-4.44,2.491,2.491,0,0,1,.139.223.363.363,0,0,0,.447.179c.171-.036.348-.04.516-.086a5.993,5.993,0,0,0,1.229-.261.531.531,0,0,0,.061-.146,4.505,4.505,0,0,0,.029-.472,7.41,7.41,0,0,1,.171-1.407,9.192,9.192,0,0,1,1.014-2.751c.074-.134.133-.276.207-.433a16.642,16.642,0,0,0-1.486-1.211c-.182.081-.34.152-.5.221a2.808,2.808,0,0,1-2.045.119,2.889,2.889,0,1,1,3.673-2.1c-.027.134-.038.272-.054.387a5.742,5.742,0,0,0,1.529,1.167,2.832,2.832,0,0,0,.235-.188,9.291,9.291,0,0,1,4.143-2.4,2.486,2.486,0,0,0,.382-.177c-.017-.183-.026-.339-.048-.494-.049-.346-.133-.691-.149-1.039a.809.809,0,0,0-.537-.8,2.481,2.481,0,0,1-1.294-2.635,2.434,2.434,0,1,1,3.95,2.336c-.158.135-.327.259-.479.377a.822.822,0,0,0-.02.182c.069.521.137,1.042.217,1.562.047.3.131.361.465.374a8.464,8.464,0,0,1,.946.031,10.039,10.039,0,0,1,2.044.462,2.362,2.362,0,0,0,.382.079c.406-.413,5.605-7.354,5.806-7.753-.071-.136-.15-.289-.229-.444a15.036,15.036,0,0,1-1.509-4.023c-.12-.635-.128-.635-.785-.635q-6.921,0-13.845,0c-.594,0-.6-.057-.8.582a16.385,16.385,0,0,1-1.8,3.965,13.443,13.443,0,0,1-8.434,6.091c-.15.037-.3.094-.43.136a1.443,1.443,0,0,0-.067.65q0,4.264,0,8.529c0,.561-.055,1.123-.035,1.683a21.514,21.514,0,0,0,.247,2.773,38.074,38.074,0,0,0,1.024,4.507,20.886,20.886,0,0,0,3.411,6.544A3.545,3.545,0,0,0,1356.967,664.324Zm3.869-22.776a1.212,1.212,0,0,0-2.424,0,1.212,1.212,0,0,0,2.424,0Zm-4.247,11.537a1.142,1.142,0,0,0,1.186-1.149,1.2,1.2,0,1,0-2.407-.016A1.148,1.148,0,0,0,1356.589,653.084Zm11.685-16.579a.775.775,0,0,0,.738.748.807.807,0,0,0,.775-.778.8.8,0,0,0-.752-.742A.762.762,0,0,0,1368.273,636.506Z" transform="translate(-1347.042 -623.594)" fill="#fff"/>
  <path id="Path_1689" data-name="Path 1689" d="M1429.512,680.656a3.114,3.114,0,0,0-.354-.138,14.919,14.919,0,0,1-3.624-1.516,1.663,1.663,0,0,0-.7-.3c-.1.119-.22.245-.322.382q-2.473,3.278-4.937,6.559c-.084.111-.156.23-.245.364.236.492.492.97.7,1.467.2.481.355.982.539,1.5.16,0,.3.008.436,0,.384-.028.767-.063,1.15-.1a2.079,2.079,0,0,0,.26-.037.355.355,0,0,0,.273-.223c.045-.114.081-.231.129-.344a2.515,2.515,0,0,1,1.657-1.5,2.682,2.682,0,0,1,1.727,5.077,2.605,2.605,0,0,1-3.019-.868c-.279-.377-.538-.554-1-.4a2.153,2.153,0,0,1-.575.03,1.8,1.8,0,0,0-.77.145.686.686,0,0,0-.079.455,9.744,9.744,0,0,1-.493,2.837,9.868,9.868,0,0,1-.7,1.586c-.083.152-.163.305-.237.445a5.069,5.069,0,0,0,1.313,1.178c.148-.052.312-.114.477-.164a2.459,2.459,0,0,1,1.648.041,2.351,2.351,0,0,1,1.47,2.437,2.4,2.4,0,0,1-1.713,2.054,2.344,2.344,0,0,1-2.983-2.188,1.24,1.24,0,0,1,.006-.263.8.8,0,0,0-.35-.861c-.279-.213-.535-.453-.8-.678a.69.69,0,0,0-.14-.069c-.217.031-.322.207-.461.333a9.221,9.221,0,0,1-3.605,2.1l-.773.236a1.592,1.592,0,0,0-.037.3c.032.472.076.943.112,1.415a.313.313,0,0,0,.289.317,2.6,2.6,0,0,1,.353.1,3.2,3.2,0,0,1,2.191,3.292,3.206,3.206,0,1,1-4.911-2.968c.113-.08.233-.152.366-.237a7.4,7.4,0,0,0-.064-1.412c-.089-.629-.09-.634-.741-.64a7.678,7.678,0,0,1-1.865-.274.486.486,0,0,0-.584.208c-.764,1.028-1.537,2.049-2.307,3.072q-1.963,2.607-3.925,5.215c-.135.18-.261.367-.386.542a.976.976,0,0,0,.4.448c.291.226.588.445.892.654a42.219,42.219,0,0,0,6.146,3.537c.4.184.812.332,1.221.486a1.679,1.679,0,0,0,1.082.018,10.14,10.14,0,0,0,1.611-.632,37.761,37.761,0,0,0,4.273-2.48c1.587-1.035,3.132-2.131,4.649-3.265a3.948,3.948,0,0,1,.473-.333.827.827,0,0,1,1.206.453.785.785,0,0,1-.183.827,1.662,1.662,0,0,1-.279.239,74.651,74.651,0,0,1-7.771,5.217,19.522,19.522,0,0,1-2.836,1.375,5.419,5.419,0,0,1-1.521.379,2.7,2.7,0,0,1-1.136-.163c-.443-.166-.895-.314-1.321-.512a42.6,42.6,0,0,1-7.206-4.222c-.353-.258-.681-.553-1.017-.833-.08-.067-.151-.147-.225-.221a1.044,1.044,0,0,1-.1-1.615q5.44-7.2,10.857-14.42,6.28-8.348,12.562-16.7a4.724,4.724,0,0,1,.36-.453.8.8,0,0,1,1.051-.158c.382.213.749.454,1.132.668a14.187,14.187,0,0,0,3.069,1.355,4.348,4.348,0,0,0,1.03.186.829.829,0,0,1,.865.861c0,.069,0,.14,0,.21,0,4.141.033,8.282-.019,12.422a21.593,21.593,0,0,1-3.978,12.375c-.372.532-.782,1.037-1.178,1.551a.9.9,0,0,1-.6.394.783.783,0,0,1-.815-.365.853.853,0,0,1-.013-.9,2.572,2.572,0,0,1,.283-.378,20.985,20.985,0,0,0,3.278-5.609,19.741,19.741,0,0,0,1.116-4.261,26.39,26.39,0,0,0,.274-3.72c.013-3.439.006-6.878,0-10.317C1429.544,681.064,1429.523,680.874,1429.512,680.656Zm-11.322,6.964a1.033,1.033,0,0,0-.427.424q-1.645,2.181-3.287,4.367-2.1,2.793-4.2,5.586a.9.9,0,0,0-.276.513,2.084,2.084,0,0,0,1.263.193,7.144,7.144,0,0,0,3.07-.563,7.791,7.791,0,0,0,2.77-1.952A7.486,7.486,0,0,0,1418.189,687.621Zm-6.6,17.794a1.53,1.53,0,0,0,3.06,0,1.53,1.53,0,1,0-3.06,0Zm13.662-15.083a1.012,1.012,0,0,0,.053-2.022,1.012,1.012,0,1,0-.053,2.022Zm-3.367,9.687a.75.75,0,0,0,.7-.71.7.7,0,1,0-.7.71Z" transform="translate(-1387.727 -664.459)" fill="#fff"/>
  <path id="Path_1690" data-name="Path 1690" d="M1395.789,629.875c0,1.982-.006,3.966,0,5.948a21.323,21.323,0,0,1-.192,2.778,30.762,30.762,0,0,1-.658,3.511,28.24,28.24,0,0,1-4,9.215,21.576,21.576,0,0,1-7.29,6.792q-3.71,2.1-7.445,4.147c-.674.372-1.378.692-2.081,1.005a4.016,4.016,0,0,1-1.836.384,3.69,3.69,0,0,1-.875-.151,20.342,20.342,0,0,1-3.1-1.165c-1.663-.794-3.266-1.7-4.864-2.616-.517-.3-1.024-.611-1.548-.9a20.016,20.016,0,0,1-5.03-4.03,34.029,34.029,0,0,1-4.1-5.466,1.346,1.346,0,0,1-.224-.74.8.8,0,0,1,1.243-.614,1.379,1.379,0,0,1,.29.3c.1.14.189.294.282.443a30.632,30.632,0,0,0,4.555,5.771,16.986,16.986,0,0,0,3.629,2.769c1.747.972,3.48,1.968,5.234,2.927a17.827,17.827,0,0,0,3.016,1.357c.333.108.669.205,1,.314a1.976,1.976,0,0,0,1.389-.037,16.364,16.364,0,0,0,1.536-.683c1.333-.7,2.656-1.43,3.976-2.16,1.257-.7,2.5-1.421,3.76-2.114a20.547,20.547,0,0,0,8.032-7.986,27.923,27.923,0,0,0,3.049-8.143q.316-1.493.485-3.008a17.218,17.218,0,0,0,.11-1.89q.016-6.107,0-12.214c0-.4-.05-.8-.084-1.205a.8.8,0,0,0-.663-.779c-.595-.144-1.188-.293-1.787-.422a11.536,11.536,0,0,1-3.3-1.188,10.1,10.1,0,0,1-4.27-4.72,13,13,0,0,1-1.052-3.568c-.037-.26-.067-.522-.114-.78a.587.587,0,0,0-.627-.58c-.175-.016-.351-.009-.526-.009h-10.581c-.158,0-.316.006-.474,0a.86.86,0,0,1-.808-.766.873.873,0,0,1,.573-.854,1.624,1.624,0,0,1,.621-.084h5.106c1.842,0,3.686-.007,5.528,0a5.955,5.955,0,0,1,1.2.118,1.915,1.915,0,0,1,1.5,1.4,7.743,7.743,0,0,1,.216,1.134,11.4,11.4,0,0,0,1.277,3.928,8.248,8.248,0,0,0,5.323,4.142c.761.2,1.535.35,2.3.539a5.28,5.28,0,0,1,.843.289,2.145,2.145,0,0,1,1.222,1.369,3.956,3.956,0,0,1,.205,1.187q.006,1.447.01,2.9Q1395.791,627.768,1395.789,629.875Z" transform="translate(-1348.857 -608.661)" fill="#fff"/>
  <path id="Path_1691" data-name="Path 1691" d="M1331.94,629.776q0-3.026,0-6.053c0-.421,0-.842.026-1.262a2.662,2.662,0,0,1,1.771-2.5,5.643,5.643,0,0,1,1.157-.335,11.089,11.089,0,0,0,4.815-2.107,7.964,7.964,0,0,0,1.515-1.453,5.447,5.447,0,0,0,1.087-2.139c.193-.8.4-1.6.6-2.4a7.185,7.185,0,0,1,.514-1.432,2.363,2.363,0,0,1,1.929-1.356,10.01,10.01,0,0,1,1.311-.078c1.193,0,2.387,0,3.579,0a1.623,1.623,0,0,1,.669.112.805.805,0,0,1,.467.953.8.8,0,0,1-.734.64c-.14.011-.28,0-.422,0h-4.053a4.7,4.7,0,0,0-.524.016.872.872,0,0,0-.772.549,5.857,5.857,0,0,0-.247.691c-.209.778-.435,1.554-.6,2.341a7.9,7.9,0,0,1-2.783,4.469,12.772,12.772,0,0,1-5.4,2.718c-.255.059-.515.1-.77.159-.171.038-.341.079-.509.126a1.168,1.168,0,0,0-.948,1.116c-.014.209-.033.419-.033.629q0,6.448,0,12.9a14.606,14.606,0,0,0,.264,2.507,39.274,39.274,0,0,0,1.906,6.878,3.519,3.519,0,0,1,.16.554.81.81,0,0,1-.11.606.8.8,0,0,1-1.333.036,1.563,1.563,0,0,1-.191-.373,42.109,42.109,0,0,1-1.975-6.806,19.444,19.444,0,0,1-.374-3.918C1331.95,633.635,1331.94,631.706,1331.94,629.776Z" transform="translate(-1331.935 -608.659)" fill="#fff"/>
</svg>
