<svg id="icon_home_excel_plus" data-name="icon home excel plus" xmlns="http://www.w3.org/2000/svg" width="67.734" height="48.485" viewBox="0 0 67.734 48.485">
  <path id="Path_1698" data-name="Path 1698" d="M426.327,289.542a1.214,1.214,0,0,0-.559-.069q-1.917,0-3.834,0a1.351,1.351,0,0,1-.549-.08.731.731,0,0,1-.41-1,3.421,3.421,0,0,1,.228-.4c.631-1.032,1.286-2.051,1.885-3.1.276-.483.589-.94.878-1.412q2.664-4.344,5.322-8.691c.073-.119.143-.24.226-.352a.723.723,0,0,1,.637-.323c.171.006.343,0,.514,0q10.03,0,20.061,0c.813,0,.651.1,1.169-.544q.586-.724,1.172-1.449c.088-.108.182-.212.272-.319a.771.771,0,0,1,1.053,0c.079.1.162.188.24.285.469.58.942,1.155,1.4,1.742a.635.635,0,0,0,.594.29c.139-.013.28,0,.421,0h19.827c.171,0,.343.006.514,0a.726.726,0,0,1,.637.323c.083.112.157.231.232.348l8.309,13.137c.075.118.153.234.219.357a.76.76,0,0,1-.583,1.182,2.31,2.31,0,0,1-.373.011H482.04c-.169,0-.337.011-.522.017a2.167,2.167,0,0,0-.059.288c-.009.154,0,.31,0,.465q0,13.733,0,27.466a2.057,2.057,0,0,0,.046.691,1.107,1.107,0,0,0,.514.057q2.385,0,4.77,0a1.465,1.465,0,0,1,.638.107.751.751,0,0,1,.152,1.244.639.639,0,0,1-.381.157c-.14,0-.281,0-.421,0h-5.05a2.673,2.673,0,0,0-.787.072.843.843,0,0,1-.461,0,2.958,2.958,0,0,0-.88-.073H421.331c-.171,0-.343.005-.514,0a.73.73,0,0,1-.2-1.425,1.584,1.584,0,0,1,.455-.079c.358-.011.717,0,1.075,0,.154,0,.308-.008.428-.011a.407.407,0,0,0,.121-.375c0-.511,0-1.022,0-1.534,0-.186,0-.372,0-.558.007-.661.3-.95.977-.96.265,0,.53,0,.8,0,.107,0,.214-.014.336-.022a1.3,1.3,0,0,0-.008-.643,5.415,5.415,0,0,1,.57-3.24,3.619,3.619,0,0,1,.77-.987.565.565,0,0,0,.208-.49c-.009-.108,0-.217,0-.325q0-9.55,0-19.1C426.341,289.993,426.332,289.778,426.327,289.542Zm39.124-4.109c.08.125.136.232.21.326.484.607.969,1.213,1.461,1.814.358.438.29.39.822.39q2.782,0,5.564,0c.125,0,.25-.005.374,0a.739.739,0,0,1,.249,1.407,1.4,1.4,0,0,1-.593.1q-2.058-.005-4.115,0c-.14,0-.281,0-.421,0-.074,0-.159-.007-.2.084a.238.238,0,0,0,.015.089c.068.1.141.2.214.3a3.546,3.546,0,0,1,.27.377.739.739,0,0,1-.557,1.09,2.318,2.318,0,0,1-.327.008c-.733,0-1.465,0-2.2,0a.805.805,0,0,0-.456.059,1.07,1.07,0,0,0-.09.634q0,4.67,0,9.341a5.49,5.49,0,0,1-.015.557.717.717,0,0,1-.723.652.738.738,0,0,1-.72-.663c-.017-.169-.01-.34-.01-.511,0-3.176,0-6.351.005-9.527a1.314,1.314,0,0,0-.313-.888q-3.884-4.8-7.75-9.607-.935-1.161-1.872-2.32c-.1-.127-.191-.279-.354-.329a1.168,1.168,0,0,0-.378.376c-.334.409-.663.822-.994,1.233q-4.224,5.24-8.447,10.481c-.522.65-.436.375-.436,1.255q0,12.733,0,25.467c0,.17,0,.341,0,.511a1.8,1.8,0,0,0,.053.265,1.209,1.209,0,0,0,.2.037q2.011,0,4.021,0a1.09,1.09,0,0,0,.2-.039,1.558,1.558,0,0,0,.064-.265c.011-.17.007-.34.007-.511q0-7.645,0-15.29c0-.186.008-.372.006-.558a.711.711,0,0,1,.634-.637c.156,0,.312-.009.467-.009h9.352c.125,0,.25.009.374,0a.7.7,0,0,1,.731.734c0,.186,0,.372,0,.558q0,7.552,0,15.1c0,.17-.006.341,0,.511a3.3,3.3,0,0,0,.057.348,42.309,42.309,0,0,0,4.29.005,1.406,1.406,0,0,0,.065-.252c.012-.154.008-.31.008-.465q0-5.553,0-11.107c0-.17-.006-.342.008-.511a.689.689,0,0,1,.72-.644.67.67,0,0,1,.726.631,5.464,5.464,0,0,1,.014.557q0,5.507,0,11.014c0,.155-.005.31.007.464a2.333,2.333,0,0,0,.06.3,1.2,1.2,0,0,0,.572.059q6.5,0,13,0c.109,0,.219.006.327,0a2.58,2.58,0,0,0,.285-.06c0-.217.013-.416.013-.615q0-13.8,0-27.6c0-.139.006-.279-.005-.418a1.87,1.87,0,0,0-.071-.283h-.48c-.561,0-1.122,0-1.683,0a1.315,1.315,0,0,1-.547-.095.74.74,0,0,1,.236-1.41c.14-.01.28,0,.421,0q3.18,0,6.359,0a.984.984,0,0,0,.5-.048c.073-.146-.023-.246-.087-.347q-.53-.848-1.068-1.692c-.369-.582-.286-.558-1-.558H466.15a4.412,4.412,0,0,0-.467.016A.95.95,0,0,0,465.45,285.433Zm-37.54,23.694a2.761,2.761,0,0,0,.327-.033,6.94,6.94,0,0,1,2.37-.1,5.166,5.166,0,0,1,2.852,1.278,1.833,1.833,0,0,0,.21.184.523.523,0,0,0,.248.1q.7.008,1.4-.015a.4.4,0,0,0,.24-.116,2.064,2.064,0,0,0,.222-.3,5.29,5.29,0,0,1,.839-.934,4.14,4.14,0,0,1,3.6-.993,6.83,6.83,0,0,1,1.469.445c.124.052.242.153.421.085a1.192,1.192,0,0,0,.047-.527q0-8.086,0-16.172c0-.093,0-.186,0-.279s-.027-.176-.041-.262a1.169,1.169,0,0,0-.527-.061c-.81,0-1.621,0-2.432,0a.78.78,0,0,1-.759-.439.722.722,0,0,1,.123-.821c.112-.149.235-.289.342-.441a.984.984,0,0,0,.078-.243c-.225,0-.409-.01-.594-.01h-9.82c-.125,0-.25-.006-.374,0a2.194,2.194,0,0,0-.282.062c0,.233-.013.448-.013.663q0,9.109,0,18.217c0,.155,0,.31.005.465A1.738,1.738,0,0,0,427.911,309.128Zm21.837,9.317c.211,0,.381.012.55.012h7.382c.109,0,.219.006.327,0a2.692,2.692,0,0,0,.286-.057c.01-.172.028-.323.028-.475q0-7.383,0-14.767c0-.108,0-.217-.013-.324a.22.22,0,0,0-.207-.215,4.268,4.268,0,0,0-.466-.02h-7.289c-.125,0-.25,0-.373.008-.2.017-.272.088-.289.294-.012.154-.009.309-.009.464q0,7.174,0,14.349c0,.139,0,.279.007.418A2.745,2.745,0,0,0,449.748,318.444Zm.39-42.768a1.3,1.3,0,0,0-.685-.1q-9.116,0-18.233,0c-.14,0-.28.006-.42.009a.464.464,0,0,0-.416.25c-.2.334-.407.66-.6,1a.862.862,0,0,0-.059.246.99.99,0,0,0,.574.081q2.525,0,5.049,0a4.267,4.267,0,0,1,.513.018.719.719,0,0,1,.606.716.709.709,0,0,1-.611.709,4.85,4.85,0,0,1-.56.018H429.4c-.125,0-.25.006-.374,0a.536.536,0,0,0-.534.3c-.241.416-.5.821-.75,1.232a.864.864,0,0,0-.062.124.144.144,0,0,0,.114.208c.17.015.342.021.513.021h17.344c.109,0,.218,0,.327,0a.591.591,0,0,0,.522-.248c.334-.428.682-.846,1.02-1.271a1.689,1.689,0,0,0,.138-.259.921.921,0,0,0-.228-.091c-.17-.015-.342-.014-.514-.014H439.86a5.511,5.511,0,0,1-.56-.016.723.723,0,0,1,.007-1.432,5.546,5.546,0,0,1,.56-.014h8.415c.14,0,.281,0,.421,0a.554.554,0,0,0,.482-.231c.276-.355.563-.7.843-1.055A1.67,1.67,0,0,0,450.138,275.677Zm-9.4,14.2a1.617,1.617,0,0,0,.234.044c.592,0,1.185,0,1.777,0a.463.463,0,0,0,.4-.19c.084-.111.175-.217.263-.326l4.618-5.731q2.513-3.119,5.028-6.238c.117-.145.236-.288.364-.424a.721.721,0,0,1,1.01,0,3.7,3.7,0,0,1,.277.314l8.419,10.444c.507.629,1.016,1.255,1.517,1.888a.623.623,0,0,0,.555.27c.5-.016,1,0,1.5-.007.087,0,.191.019.248-.112a1.151,1.151,0,0,0-.3-.442q-5.04-6.257-10.083-12.513-1.155-1.433-2.311-2.863c-.115-.141-.2-.316-.407-.389a.7.7,0,0,0-.142.105q-6.434,7.976-12.863,15.955A1.338,1.338,0,0,0,440.74,289.872Zm1.533-4.447a.613.613,0,0,0-.174-.09,3.734,3.734,0,0,0-.419-.018H425.19c-.109,0-.218,0-.327,0a.46.46,0,0,0-.426.234c-.434.715-.874,1.427-1.3,2.144a.591.591,0,0,0-.027.219,1.7,1.7,0,0,0,.578.044q8.011,0,16.022,0c.093,0,.187-.006.28,0a.531.531,0,0,0,.485-.218c.56-.7,1.127-1.4,1.689-2.1A1.364,1.364,0,0,0,442.273,285.426Zm-.137,29.552c.009-.173.021-.3.021-.419q0-1.765,0-3.53c0-.062,0-.124,0-.186a.354.354,0,0,0-.192-.346c-.325-.181-.646-.375-.983-.53a3.634,3.634,0,0,0-1.441-.344,2.642,2.642,0,0,0-1.435.327,2.89,2.89,0,0,0-.819.683c-.221.279-.419.576-.623.868-.071.1-.115.223-.195.316a.754.754,0,0,1-.778.292,4.1,4.1,0,0,0-1.575-.042,1.665,1.665,0,0,0-1.455,1.2,3.393,3.393,0,0,0-.094,1.289.719.719,0,0,0,.132.42c.382.049,8.215.081,9.174.038C441.945,315.011,442.019,314.994,442.135,314.978ZM460.064,278.7a1.07,1.07,0,0,0,.26.445q.363.455.731.906c.389.476.316.459.981.459h17.294a3.227,3.227,0,0,0,.42-.012,1.11,1.11,0,0,0,.257-.11c-.081-.15-.14-.275-.212-.392-.163-.264-.329-.526-.5-.786-.408-.633-.283-.584-1.074-.584H460.835c-.171,0-.343,0-.514.009A1.579,1.579,0,0,0,460.064,278.7Zm-34.448,5.079a1.016,1.016,0,0,0,.561.076q8.433,0,16.867,0c.109,0,.218,0,.327,0a.5.5,0,0,0,.4-.2c.377-.473.758-.943,1.133-1.418a.522.522,0,0,0,.052-.17.877.877,0,0,0-.56-.086q-8.574,0-17.147,0c-.125,0-.249,0-.374.007a.434.434,0,0,0-.383.225q-.431.716-.861,1.434C425.616,283.66,425.623,283.7,425.616,283.777Zm37.109-1.708c.12.173.193.29.278.4.24.3.482.608.73.907.4.483.28.482,1.016.482h16.736a3.5,3.5,0,0,0,.42-.013.785.785,0,0,0,.211-.1c-.058-.12-.1-.22-.151-.31q-.255-.416-.521-.826c-.441-.677-.283-.632-1.142-.632q-8.391,0-16.783,0c-.171,0-.343,0-.514.012A1.545,1.545,0,0,0,462.725,282.069Zm-20.648,34.478c-.218-.007-.418-.019-.618-.019h-16.6c-.125,0-.25,0-.374.006a1.977,1.977,0,0,0-.246.049,3.777,3.777,0,0,0-.071,1.152,1.225,1.225,0,0,0,.087.68,1.675,1.675,0,0,0,.606.042q8.3,0,16.6,0c.125,0,.25,0,.374,0,.089,0,.178-.023.257-.034A6.013,6.013,0,0,0,442.077,316.547Zm15.507-40.873a2.52,2.52,0,0,0,.153.257c.191.244.389.484.583.726.434.54.366.505,1.053.506h17.809a4.537,4.537,0,0,0,.467-.015.7.7,0,0,0,.194-.081c0-.056.012-.093,0-.115q-.362-.6-.73-1.188a.364.364,0,0,0-.316-.168c-.2-.008-.4-.016-.607-.016H458.333c-.171,0-.343,0-.513.014A1.09,1.09,0,0,0,457.584,275.673Zm-25.376,35.57a.964.964,0,0,0-.066-.1.366.366,0,0,0-.07-.06,4.177,4.177,0,0,0-2.57-.66,6.594,6.594,0,0,0-1.057.16,2.483,2.483,0,0,0-1.934,1.571,4.288,4.288,0,0,0-.15,2.552c.065.287.091.308.372.308q2.054,0,4.108,0a1.338,1.338,0,0,0,.24-.048c.005-.155.013-.291.014-.427,0-.263-.01-.526,0-.788a3.324,3.324,0,0,1,.932-2.263A2.315,2.315,0,0,0,432.208,311.244Z" transform="translate(-420.105 -271.589)" fill="#fff"/>
  <path id="Path_1699" data-name="Path 1699" d="M729.21,420q0-2.579,0-5.158c0-.155-.006-.311.01-.464a.7.7,0,0,1,.673-.647c.093-.007.187,0,.281,0h4.769c.062,0,.125,0,.187,0a.765.765,0,0,1,.833.753,3.472,3.472,0,0,1,.007.371q0,5.181,0,10.362a2.453,2.453,0,0,1-.064.6.637.637,0,0,1-.642.509q-.187.009-.374.008H730.26c-.14,0-.28-.012-.42-.012a.71.71,0,0,1-.625-.646c0-.155,0-.31,0-.464Q729.21,422.6,729.21,420Zm1.513-4.692a1.807,1.807,0,0,0-.049.249c-.01.139-.006.279-.006.418q0,4.065,0,8.131c0,.155,0,.31.009.464.017.208.088.276.286.3a.838.838,0,0,0,.093,0c1.013,0,2.026,0,3.039,0a1.585,1.585,0,0,0,.311-.064.936.936,0,0,0,.048-.2q0-4.576,0-9.153a.7.7,0,0,0-.041-.17,14.622,14.622,0,0,0-3.224-.089A.685.685,0,0,0,730.723,415.3Z" transform="translate(-679.962 -391.217)" fill="#fff"/>
  <path id="Path_1700" data-name="Path 1700" d="M611.049,370.636q-1.5,0-2.991,0a1.316,1.316,0,0,1-.549-.081.709.709,0,0,1-.47-.635c-.01-.154-.007-.309-.007-.464,0-1.548,0-3.1-.016-4.644a2.67,2.67,0,0,1,.737-1.853,3.866,3.866,0,0,1,1.982-1.161,4.65,4.65,0,0,1,1.195-.18,4.593,4.593,0,0,1,3.1,1.085,2.827,2.827,0,0,1,.929,1.523,2.393,2.393,0,0,1,.066.5q.008,2.508,0,5.016a.791.791,0,0,1-.893.888C613.1,370.642,612.077,370.635,611.049,370.636Zm2.424-1.544a.788.788,0,0,0,.1-.557c0-.928,0-1.856,0-2.784,0-.279,0-.557,0-.835a1.385,1.385,0,0,0-.427-1,2.42,2.42,0,0,0-.723-.5,3.385,3.385,0,0,0-2.76-.024,2.272,2.272,0,0,0-.893.655,1.175,1.175,0,0,0-.29.765c0,1.3,0,2.6,0,3.9,0,.38.045.417.439.418q2.124,0,4.249,0A2.3,2.3,0,0,0,613.472,369.092Z" transform="translate(-577.237 -347.363)" fill="#fff"/>
  <path id="Path_1701" data-name="Path 1701" d="M493.817,419.979q0-2.579,0-5.158c0-.139,0-.279.007-.418a.7.7,0,0,1,.691-.678c.078,0,.156,0,.234,0q2.431,0,4.862,0c.69,0,.959.263.963.954.007,1.1,0,2.2,0,3.3q0,3.6,0,7.2a2.534,2.534,0,0,1-.055.6.65.65,0,0,1-.666.539c-.124.009-.249.008-.374.008H494.9c-.14,0-.281,0-.42-.011a.684.684,0,0,1-.654-.662c-.012-.154-.007-.31-.007-.464Q493.817,422.581,493.817,419.979Zm5.219-4.691a1.088,1.088,0,0,0-.567-.1q-1.309,0-2.618,0a2.685,2.685,0,0,0-.372.031.2.2,0,0,0-.182.184c-.015.154-.022.309-.023.463q0,4.158,0,8.316c0,.124,0,.248.008.371.02.227.09.29.325.308.047,0,.093,0,.14,0,.951,0,1.9,0,2.852,0,.44,0,.467-.033.468-.488q0-4.367,0-8.735C499.067,415.523,499.047,415.4,499.037,415.288Z" transform="translate(-482.073 -391.216)" fill="#fff"/>
  <path id="Path_1702" data-name="Path 1702" d="M613.2,506.234c0,.371,0,.743,0,1.115a.7.7,0,0,1-.386.643.715.715,0,0,1-1.062-.522.62.62,0,0,1-.009-.092q0-1.138,0-2.275a.67.67,0,0,1,.32-.586.721.721,0,0,1,1.131.557c.024.386,0,.774,0,1.161Z" transform="translate(-581.207 -467.527)" fill="#fff"/>
</svg>
