<svg id="icon_online_banking" data-name="icon online banking" xmlns="http://www.w3.org/2000/svg" width="159.803" height="122.713" viewBox="0 0 159.803 122.713">
  <defs>
    <style>
      .cls-1 {
        fill: #e4509a;
      }
    </style>
  </defs>
  <path id="Path_1712" data-name="Path 1712" class="cls-1" d="M303.783,217.288q-31.135,0-62.269,0a9.272,9.272,0,0,1-2.572-.213,6.577,6.577,0,0,1-4.866-6.229c-.006-.275-.005-.55-.005-.826q0-41.336,0-82.672a9.157,9.157,0,0,1,.22-2.454,6.635,6.635,0,0,1,6.25-4.871c.353-.015.708,0,1.061,0H366.141a10.34,10.34,0,0,1,2.457.2,6.537,6.537,0,0,1,5.024,6.094c0,.472.014.943.014,1.415q0,40.924,0,81.847c0,.511-.014,1.022-.019,1.533a6.521,6.521,0,0,1-6.268,6.17c-.55.016-1.1.01-1.651.01Zm.037-3.669h61.793a14.846,14.846,0,0,0,1.532-.028,2.991,2.991,0,0,0,2.806-2.958c.014-.274.008-.55.008-.826q0-41.156,0-82.312c0-.275,0-.55-.007-.826a2.919,2.919,0,0,0-2.614-2.864c-.7-.053-1.412-.088-2.117-.088q-61.381-.006-122.761,0c-.393,0-.787-.011-1.179.008a8.481,8.481,0,0,0-1.053.107,2.7,2.7,0,0,0-2.336,2.186,7.361,7.361,0,0,0-.149,1.634q-.011,40.979-.005,81.958c0,.354-.012.709.021,1.061a3.015,3.015,0,0,0,2.973,2.932c.469.036.943.018,1.414.018Z" transform="translate(-224.164 -120.011)"/>
  <path id="Path_1713" data-name="Path 1713" class="cls-1" d="M279.817,485.482q-37.909,0-75.817-.007a10.033,10.033,0,0,1-1.986-.176,1.9,1.9,0,0,1-1.6-1.908,4.81,4.81,0,0,1,1.068-3.4c.943-1.208,1.9-2.408,2.878-3.586q4-4.8,8.025-9.58a16.618,16.618,0,0,1,1.376-1.454,5.086,5.086,0,0,1,3.633-1.4q62.022.027,124.043.019a14.584,14.584,0,0,1,2.7.167,5.1,5.1,0,0,1,2.688,1.368,20.414,20.414,0,0,1,1.575,1.749c2.879,3.534,5.74,7.084,8.622,10.616.546.669,1.165,1.277,1.738,1.925.312.352.613.717.89,1.1a3.412,3.412,0,0,1,.471,2.711,1.952,1.952,0,0,1-1.672,1.616,15.885,15.885,0,0,1-1.986.237c-.43.034-.864.008-1.3.008Zm-74.511-3.967a3.466,3.466,0,0,0,1.658.159q73.167.01,146.335.006c.354,0,.708.009,1.061-.011a3.111,3.111,0,0,0,.518-.113c.061-.494-.27-.7-.481-.966q-4.523-5.591-9.059-11.173c-.247-.3-.508-.6-.771-.891a2.037,2.037,0,0,0-1.665-.733c-.667.026-1.336,0-2,0q-60.609,0-121.218,0c-.668,0-1.339.007-2-.051a1.891,1.891,0,0,0-1.684.649c-.157.176-.331.337-.482.517q-4.8,5.743-9.6,11.494A1.931,1.931,0,0,0,205.306,481.515Z" transform="translate(-200.398 -362.779)"/>
  <path id="Path_1714" data-name="Path 1714" class="cls-1" d="M326.747,146.242q26.357,0,52.714,0c.629,0,1.257.014,1.886.028a6.513,6.513,0,0,1,6.031,6.159c.015.314.012.629.012.943q0,33.727,0,67.455a8.48,8.48,0,0,1-.219,2.336,6.575,6.575,0,0,1-6.243,4.848c-.354.007-.708,0-1.061,0q-53.185,0-106.371,0a10.278,10.278,0,0,1-2.689-.224,6.57,6.57,0,0,1-4.8-6.03c0-.472-.014-.943-.014-1.415q0-33.256,0-66.511c0-.511.01-1.022.025-1.532a6.507,6.507,0,0,1,6.015-6.032q.943-.026,1.886-.027Q300.331,146.241,326.747,146.242Zm-.161,3.678H273.874c-.432,0-.866-.014-1.3.009a2.971,2.971,0,0,0-2.9,2.855c-.028.431-.011.864-.011,1.3q0,33.019,0,66.038c0,.354.013.708,0,1.061a3.029,3.029,0,0,0,3.1,3.163c.432.017.865.008,1.3.008H379.254c.393,0,.788.017,1.179-.009a5.747,5.747,0,0,0,1.044-.153,2.67,2.67,0,0,0,2.066-2.04,6.933,6.933,0,0,0,.174-1.63q.012-33.432.006-66.863a8.05,8.05,0,0,0-.028-.942,3,3,0,0,0-2.982-2.784c-.432-.021-.865-.008-1.3-.008Z" transform="translate(-246.692 -138.525)"/>
  <path id="Path_1715" data-name="Path 1715" class="cls-1" d="M394.525,490.455h29.36c.393,0,.789-.02,1.179.016a2.585,2.585,0,0,1,2.32,2.032,2.722,2.722,0,0,1-1.129,2.888,2.667,2.667,0,0,1-.987.334,8.732,8.732,0,0,1-1.294.049q-29.478,0-58.957,0c-.393,0-.786-.023-1.179-.021a2.522,2.522,0,0,1-2.3-2.4,2.6,2.6,0,0,1,2.682-2.9c.353-.011.707,0,1.061,0Z" transform="translate(-314.132 -381.469)"/>
</svg>
