<svg id="icon_pro-tech" data-name="icon pro-tech" xmlns="http://www.w3.org/2000/svg" width="216" height="165.48" viewBox="0 0 216 165.48">
  <path id="Path_1692" data-name="Path 1692" d="M986.908,437.753q-48.558,0-97.115,0a22.556,22.556,0,0,1-5.359-.625,8.736,8.736,0,0,1-1.641-.594,6.133,6.133,0,0,1-3.752-5.655c-.093-2.759-.028-5.523-.018-8.284a5.017,5.017,0,0,1,.746-2.244q4.483-8.8,8.951-17.6,3.753-7.382,7.508-14.763a3.459,3.459,0,0,1,.369-.7,4.851,4.851,0,0,0,.894-3.433q-.025-53.218-.014-106.436c0-.585-.02-1.17.009-1.753a3.4,3.4,0,0,1,3.349-3.365c.424-.021.85-.007,1.275-.007h170.149c.478,0,.957-.014,1.435.008a3.3,3.3,0,0,1,3.2,3.141c-.018.743.022,1.486.022,2.23q0,53.7,0,107.392c0,3.059-.161,2.358,1.227,4.989q7.843,14.861,15.735,29.7a8.285,8.285,0,0,1,1.1,4.4c-.08,1.8-.029,3.611-.017,5.417a7.176,7.176,0,0,1-4.439,6.942,14.585,14.585,0,0,1-5.55,1.244c-.529.034-1.063.006-1.594.006Zm-84.185-52.3a8.21,8.21,0,0,0,2.666.212q81.72.006,163.44,0c.372,0,.744,0,1.116,0,.266,0,.533,0,.8-.017.922-.072,1.129-.268,1.175-1.148.025-.477.014-.956.014-1.434q0-51.541,0-103.083c0-.478.015-.957-.02-1.433a7.209,7.209,0,0,0-.194-.94,7.917,7.917,0,0,0-2.413-.154q-82.119-.007-164.237,0c-.479,0-.958-.018-1.434.012a6.862,6.862,0,0,0-.887.167,7.09,7.09,0,0,0-.252,2.748q-.008,51.143,0,102.287c0,.531-.015,1.064.021,1.592A11.471,11.471,0,0,0,902.723,385.451Zm-16.585,34.222a4.98,4.98,0,0,0,.805.148c1.223.017,2.445.012,3.668.012q32.21,0,64.421,0c1.814,0,1.85.157,2.431-1.754,1.235-4.06,2.509-8.108,3.76-12.163.786-2.548,1.321-2.959,3.95-2.959q21.765,0,43.531,0c.372,0,.744,0,1.116.008a2.611,2.611,0,0,1,1.717.742,3.416,3.416,0,0,1,.9,1.821c.826,3.346,1.675,6.687,2.522,10.028.3,1.182.616,2.36.927,3.539a.888.888,0,0,0,.923.719c.531.01,1.063.021,1.594.021q33.566,0,67.131,0c.531,0,1.064,0,1.594-.03a2.525,2.525,0,0,0,.586-.187,2.945,2.945,0,0,0-.633-1.809q-6.684-12.681-13.392-25.348c-1.018-1.922-.868-1.81-3.072-1.81q-83.954,0-167.908,0c-2.359,0-2.1-.1-3.138,1.929q-6.4,12.56-12.767,25.132c-.216.426-.437.852-.615,1.294A2.432,2.432,0,0,0,886.139,419.674Zm203.58,5.361c-.944-.012-1.682-.029-2.42-.029H886.7c-.479,0-.957-.013-1.435.01-.3.014-.605.082-1,.141a49.874,49.874,0,0,0-.058,5.767,1.006,1.006,0,0,0,.6.879,7.9,7.9,0,0,0,1.182.454,11.473,11.473,0,0,0,3.474.33q97.43,0,194.861,0c.425,0,.853.02,1.275-.012a6.9,6.9,0,0,0,3.174-.925,1.941,1.941,0,0,0,1.055-1.823c-.034-1.008,0-2.018-.008-3.027C1089.81,426.278,1089.761,425.76,1089.719,425.034Zm-82.124-16.906q-20.463,0-40.822,0a5.405,5.405,0,0,0-.784.112,4.007,4.007,0,0,0-.4.712q-1.508,4.859-2.982,9.728a4.139,4.139,0,0,0-.074.887,3.428,3.428,0,0,0,1.937.255q22.064.011,44.129,0c.425,0,.851,0,1.274-.03a3.671,3.671,0,0,0,.649-.179,5.138,5.138,0,0,0-.008-.94A67.674,67.674,0,0,0,1007.594,408.129Z" transform="translate(-878.992 -272.283)" fill="teal"/>
  <path id="Path_1693" data-name="Path 1693" d="M1084.142,301.679a3.054,3.054,0,0,0-.608-.122q-71.348-.007-142.7,0a3.575,3.575,0,0,0-.679.147,5.644,5.644,0,0,0-.205.9c-.036.529-.02,1.061-.02,1.592q0,14.576.011,29.153a13,13,0,0,1-.025,1.433,2.743,2.743,0,0,1-2.415,2.387,2.667,2.667,0,0,1-2.393-1.568,6.129,6.129,0,0,1-.306-1.391,8.44,8.44,0,0,1-.016-1.114q0-15.852,0-31.7a11.984,11.984,0,0,1,.021-1.274c.255-2.367,1.483-3.469,3.807-3.739a13.9,13.9,0,0,1,1.593-.016h109.055q17.7,0,35.395,0a6.84,6.84,0,0,1,2.357.286,3.585,3.585,0,0,1,2.5,3.183,10.7,10.7,0,0,1,.017,1.274q0,16.17,0,32.34c0,.425.023.853-.018,1.274a2.738,2.738,0,0,1-2.356,2.447,2.669,2.669,0,0,1-2.432-1.5,4.853,4.853,0,0,1-.334-1.7c.014-4.459.068-8.917.11-13.376.006-.69.017-1.381.018-2.071q0-7.329-.006-14.656A3.41,3.41,0,0,0,1084.142,301.679Z" transform="translate(-904.467 -283.284)" fill="teal"/>
  <path id="Path_1694" data-name="Path 1694" d="M939.983,427.4a2.837,2.837,0,0,0,.638.215q71.5.017,143,.016a2.541,2.541,0,0,0,.576-.128,2.941,2.941,0,0,0,.319-1.743c-.037-3.237-.089-6.474-.132-9.711-.011-.85-.008-1.7-.008-2.549,0-5.735-.008-11.47.009-17.2a7.513,7.513,0,0,1,.23-2.039,2.312,2.312,0,0,1,2.692-1.7,2.424,2.424,0,0,1,2.194,2.165,8.071,8.071,0,0,1,.031,1.114q0,16.328-.009,32.656a6.088,6.088,0,0,1-.239,1.874,3.436,3.436,0,0,1-3.206,2.443c-.369.034-.744.01-1.115.01H939.411c-.372,0-.745.013-1.116-.008a3.516,3.516,0,0,1-3.258-2.59,7.144,7.144,0,0,1-.235-1.723c-.035-1.274-.011-2.549-.011-3.823q0-14.177.009-28.355a7.765,7.765,0,0,1,.224-2.04,2.242,2.242,0,0,1,2.361-1.736,2.43,2.43,0,0,1,2.543,2.319c.046.473.021.955.02,1.433q0,14.5-.01,28.992C939.938,425.967,939.967,426.652,939.983,427.4Z" transform="translate(-904.469 -327.251)" fill="teal"/>
</svg>
