<svg width="35" height="35" viewBox="0 0 35 35" fill="none" xmlns="http://www.w3.org/2000/svg">
<path d="M17.5 0C14.0388 0 10.6554 1.02636 7.77753 2.94928C4.89967 4.87221 2.65665 7.60533 1.33212 10.803C0.00758248 14.0007 -0.338976 17.5194 0.336265 20.9141C1.01151 24.3087 2.67822 27.4269 5.12564 29.8744C7.57306 32.3218 10.6913 33.9885 14.0859 34.6637C17.4806 35.339 20.9993 34.9924 24.197 33.6679C27.3947 32.3433 30.1278 30.1003 32.0507 27.2225C33.9736 24.3446 35 20.9612 35 17.5C34.9951 12.8602 33.1498 8.41187 29.869 5.13104C26.5881 1.85022 22.1398 0.00489969 17.5 0ZM25.1832 14.4139L15.7601 23.837C15.6351 23.9622 15.4866 24.0615 15.3232 24.1292C15.1598 24.197 14.9846 24.2318 14.8077 24.2318C14.6308 24.2318 14.4556 24.197 14.2922 24.1292C14.1288 24.0615 13.9803 23.9622 13.8553 23.837L9.81683 19.7986C9.56424 19.546 9.42233 19.2034 9.42233 18.8461C9.42233 18.4889 9.56424 18.1463 9.81683 17.8937C10.0694 17.6412 10.412 17.4992 10.7692 17.4992C11.1265 17.4992 11.469 17.6412 11.7216 17.8937L14.8077 20.9815L23.2784 12.5091C23.4034 12.3841 23.5519 12.2848 23.7153 12.2172C23.8787 12.1495 24.0539 12.1146 24.2308 12.1146C24.4076 12.1146 24.5828 12.1495 24.7462 12.2172C24.9096 12.2848 25.0581 12.3841 25.1832 12.5091C25.3082 12.6342 25.4075 12.7827 25.4751 12.9461C25.5428 13.1095 25.5777 13.2847 25.5777 13.4615C25.5777 13.6384 25.5428 13.8136 25.4751 13.977C25.4075 14.1404 25.3082 14.2889 25.1832 14.4139Z" fill="#09A12A"/>
</svg>
