<?xml version="1.0" standalone="no"?>
<!DOCTYPE svg PUBLIC "-//W3C//DTD SVG 20010904//EN"
 "http://www.w3.org/TR/2001/REC-SVG-20010904/DTD/svg10.dtd">
<svg version="1.0" xmlns="http://www.w3.org/2000/svg"
 width="580.000000pt" height="580.000000pt" viewBox="0 0 580.000000 580.000000"
 preserveAspectRatio="xMidYMid meet">
<metadata>
Created by potrace 1.14, written by Peter Selinger 2001-2017
</metadata>
<g transform="translate(0.000000,580.000000) scale(0.100000,-0.100000)"
fill="#000000" stroke="none">
<path d="M2708 5775 c-1 -1 -34 -5 -73 -9 -186 -15 -379 -54 -600 -119 -44
-13 -125 -41 -150 -52 -16 -7 -52 -21 -80 -31 -104 -38 -425 -205 -433 -226
-2 -4 -8 -8 -13 -8 -10 0 -208 -136 -219 -150 -3 -3 -14 -13 -26 -21 -52 -36
-149 -123 -260 -235 -312 -313 -545 -687 -679 -1089 -55 -165 -81 -259 -100
-363 -3 -15 -7 -38 -10 -52 -3 -14 -7 -41 -10 -60 -11 -86 -17 -127 -21 -149
-6 -40 -17 -241 -16 -311 0 -79 11 -285 16 -320 3 -14 7 -45 10 -70 3 -25 8
-54 10 -65 2 -11 7 -40 11 -65 10 -60 11 -64 29 -145 21 -88 73 -264 86 -287
6 -10 10 -25 10 -33 0 -8 4 -23 10 -33 5 -9 32 -71 60 -137 68 -159 193 -382
292 -520 108 -150 381 -444 493 -533 22 -17 69 -54 105 -83 205 -162 507 -327
779 -424 90 -32 268 -85 311 -91 19 -3 37 -7 40 -9 6 -4 169 -33 220 -40 28
-4 133 -15 195 -21 64 -6 334 -5 405 1 100 8 173 16 195 20 11 2 42 7 69 10
27 3 79 13 115 21 36 9 76 18 88 20 63 12 278 79 379 119 181 71 396 183 554
288 47 32 187 135 206 152 7 5 34 28 60 50 74 61 262 251 336 337 149 178 292
400 393 613 55 115 138 320 150 371 3 11 12 44 21 74 83 285 113 520 108 855
-1 116 -5 221 -8 235 -2 14 -8 48 -11 75 -4 28 -8 59 -10 70 -1 11 -6 43 -10
70 -12 84 -63 279 -105 405 -175 526 -494 984 -930 1336 -69 55 -148 114 -189
139 -9 6 -48 31 -87 55 -38 25 -79 50 -90 57 -48 31 -289 145 -379 181 -179
71 -420 138 -565 158 -25 3 -48 8 -51 10 -3 2 -34 6 -70 9 -35 4 -71 9 -79 12
-16 5 -476 14 -482 8z m457 -99 c131 -16 194 -25 229 -32 11 -3 32 -7 46 -10
342 -64 720 -222 1025 -427 157 -106 377 -299 524 -462 187 -206 379 -516 487
-785 19 -47 38 -92 43 -100 5 -9 12 -31 16 -50 4 -19 13 -48 20 -65 24 -56 73
-254 90 -365 33 -206 39 -276 39 -485 0 -222 -8 -310 -45 -510 -79 -429 -268
-848 -538 -1195 -94 -122 -103 -132 -236 -265 -209 -209 -438 -378 -675 -497
-36 -18 -66 -36 -68 -40 -2 -5 -11 -8 -21 -8 -9 0 -21 -4 -27 -9 -15 -14 -178
-79 -304 -121 -105 -35 -272 -78 -360 -94 -19 -3 -44 -8 -56 -10 -31 -6 -123
-18 -171 -21 l-42 -4 0 1341 c0 1255 1 1339 17 1325 9 -8 26 -21 37 -30 11 -8
83 -67 160 -129 77 -62 210 -169 295 -238 85 -68 157 -127 160 -130 3 -3 88
-73 190 -155 102 -81 187 -151 190 -154 3 -4 84 -69 180 -146 96 -77 184 -147
195 -157 76 -63 171 -138 176 -138 7 0 54 210 64 283 1 12 6 42 9 67 3 25 8
68 11 95 6 57 6 288 1 325 -2 14 -7 45 -10 70 -3 25 -8 54 -10 65 -46 216
-129 382 -255 513 -28 29 -51 54 -51 55 0 1 175 2 390 1 214 0 390 3 390 7 0
17 -61 162 -106 251 -167 333 -412 562 -709 663 -27 9 -58 18 -68 20 -10 3
-26 6 -35 9 -39 12 -84 17 -202 23 -69 3 -126 7 -128 8 -1 1 87 78 195 171
109 93 203 173 209 179 6 5 37 33 69 60 173 147 201 173 195 178 -3 2 -48 27
-100 55 -403 214 -778 232 -1140 54 -51 -25 -82 -36 -84 -29 -38 156 -56 228
-67 252 -7 17 -13 32 -13 35 -4 16 -61 118 -88 158 -65 94 -173 184 -268 223
-43 17 -50 16 -129 -23 -60 -30 -176 -131 -224 -198 -65 -89 -157 -341 -160
-437 -1 -13 -2 -23 -3 -23 -2 0 -38 17 -81 39 -293 145 -582 163 -903 55 -112
-38 -340 -151 -339 -168 0 -6 75 -74 166 -151 91 -77 175 -149 187 -160 12
-11 46 -40 76 -65 30 -25 57 -47 60 -50 3 -3 39 -34 80 -69 41 -36 82 -71 90
-78 12 -11 4 -13 -55 -12 -458 8 -847 -250 -1083 -717 -47 -93 -112 -253 -104
-257 4 -3 179 -4 390 -3 210 0 382 -1 382 -3 0 -2 -23 -28 -51 -59 -139 -153
-218 -325 -259 -572 -19 -113 -17 -393 4 -505 2 -11 8 -45 12 -75 4 -30 8 -57
9 -60 18 -84 48 -200 52 -200 5 0 51 36 118 92 11 9 94 76 185 150 91 73 174
141 185 150 11 9 50 41 86 70 36 29 83 67 105 85 38 30 350 283 428 346 22 18
44 37 50 42 6 6 65 53 131 105 66 52 122 97 125 100 3 3 27 24 55 45 27 22 63
52 80 67 16 16 35 28 40 28 7 0 10 -449 10 -1332 l0 -1333 -30 1 c-127 4 -387
55 -560 111 -193 62 -481 190 -592 265 -23 15 -46 28 -52 28 -6 0 -11 5 -11
10 0 6 -4 10 -9 10 -8 0 -80 45 -116 72 -168 128 -210 164 -333 283 -415 401
-693 922 -798 1495 -8 44 -20 124 -31 215 -9 72 -9 515 0 565 3 19 9 58 12 85
5 48 10 79 19 135 24 146 99 403 161 550 82 198 222 451 318 575 4 5 28 37 53
69 83 109 118 150 234 266 131 132 196 188 330 287 236 173 510 314 792 407
51 17 264 72 313 80 17 3 41 8 55 11 14 3 45 7 70 10 25 3 54 8 65 10 11 2 58
7 105 11 47 3 86 7 88 9 5 5 377 -3 427 -9z"/>
</g>
</svg>
