<svg xmlns="http://www.w3.org/2000/svg" width="35.01" height="35.002" viewBox="0 0 35.01 35.002">
  <path id="Icon_awesome-instagram" data-name="Icon awesome-instagram" d="M17.5,10.765a8.974,8.974,0,1,0,8.974,8.974A8.96,8.96,0,0,0,17.5,10.765Zm0,14.809a5.834,5.834,0,1,1,5.834-5.834A5.845,5.845,0,0,1,17.5,25.573ZM28.938,10.4A2.093,2.093,0,1,1,26.845,8.3,2.088,2.088,0,0,1,28.938,10.4Zm5.944,2.124c-.133-2.8-.773-5.288-2.827-7.334S27.525,2.5,24.721,2.361c-2.89-.164-11.552-.164-14.442,0-2.8.133-5.28.773-7.334,2.82S.258,9.71.118,12.514c-.164,2.89-.164,11.552,0,14.442.133,2.8.773,5.288,2.827,7.334s4.53,2.687,7.334,2.827c2.89.164,11.552.164,14.442,0,2.8-.133,5.288-.773,7.334-2.827s2.687-4.53,2.827-7.334c.164-2.89.164-11.544,0-14.434ZM31.149,30.057a5.907,5.907,0,0,1-3.327,3.327c-2.3.914-7.771.7-10.318.7s-8.021.2-10.318-.7a5.907,5.907,0,0,1-3.327-3.327c-.914-2.3-.7-7.771-.7-10.318s-.2-8.021.7-10.318A5.907,5.907,0,0,1,7.186,6.094c2.3-.914,7.771-.7,10.318-.7s8.021-.2,10.318.7a5.907,5.907,0,0,1,3.327,3.327c.914,2.3.7,7.771.7,10.318S32.062,27.76,31.149,30.057Z" transform="translate(0.005 -2.238)" fill="#007a70"/>
</svg>
