<svg xmlns="http://www.w3.org/2000/svg" width="214.37" height="89.143" viewBox="0 0 214.37 89.143">
  <g id="icon_auto_excel_plus" data-name="icon auto excel plus" transform="translate(1.248 1.244)">
    <path id="Path_1710" data-name="Path 1710" d="M297.352,701.934c-.1.27-.195.5-.266.736a21.341,21.341,0,0,1-14.736,14.212,23.6,23.6,0,0,1-6,.823,21.694,21.694,0,0,1-8.2-1.6,21.178,21.178,0,0,1-12.388-13.187c-.053-.158-.1-.319-.151-.477-.183-.526-.226-.56-.764-.58-.222-.008-.445,0-.668,0H162.438c-.278,0-.556.005-.834.011a.5.5,0,0,0-.508.353c-.053.158-.108.315-.158.474a21.4,21.4,0,0,1-15.808,14.462,19.783,19.783,0,0,1-2.628.417c-.749.069-1.493.134-2.245.13a21.572,21.572,0,0,1-8.362-1.647,21.08,21.08,0,0,1-11.957-12.229c-.161-.414-.283-.843-.431-1.262-.073-.207-.164-.408-.23-.569a1.725,1.725,0,0,0-.95-.138c-1.753-.009-3.506.007-5.259-.021a12.808,12.808,0,0,1-3.282-.5,5.757,5.757,0,0,1-.627-.226,3.971,3.971,0,0,1-2.642-3.707c-.012-.222-.006-.445-.006-.668,0-6.4-.011-12.8.008-19.2a19.493,19.493,0,0,1,.439-4.388,11.2,11.2,0,0,1,2.262-4.6,22.469,22.469,0,0,1,3.908-3.623,43.247,43.247,0,0,1,8.725-5.032,73.2,73.2,0,0,1,12.471-4.154c2.262-.55,4.543-1.031,6.828-1.48,1.522-.3,3.066-.489,4.6-.723,1.042-.158,2.083-.321,3.128-.455.715-.092,1.437-.132,2.154-.206.883-.091,1.765-.193,2.648-.29.055-.006.11-.017.166-.02,1.081-.062,2.162-.148,3.245-.173a2.891,2.891,0,0,0,1.56-.479q3.718-2.395,7.569-4.569a128.2,128.2,0,0,1,20.167-9.162,118.217,118.217,0,0,1,14.644-4.159c2.223-.475,4.457-.9,6.7-1.3,1.337-.237,2.691-.379,4.038-.554,1.237-.161,2.475-.329,3.716-.459.911-.1,1.828-.121,2.741-.2,1.191-.108,2.383-.17,3.578-.2a6.858,6.858,0,0,0,.894-.183,1.738,1.738,0,0,1,.728-.053,4.224,4.224,0,0,0,1.239.111c2.17,0,4.341,0,6.511.009.582,0,1.164.065,1.746.1.305.018.611.041.917.046,1.473.023,2.938.155,4.4.315.8.087,1.606.119,2.4.212,1.046.122,2.089.273,3.132.423.823.118,1.646.241,2.466.385,1.638.288,3.282.553,4.909.9a116.032,116.032,0,0,1,15.6,4.445,110.591,110.591,0,0,1,21.979,10.742c1.077.689,2.155,1.387,3.167,2.166a4.16,4.16,0,0,0,2.142.787c1.211.148,2.42.311,3.63.461,1.074.133,2.149.254,3.222.389.633.079,1.263.176,1.894.263q.783.108,1.567.212c1.677.222,3.354.437,5.031.665s3.352.455,5.024.705a7.022,7.022,0,0,1,1.37.344,3.491,3.491,0,0,1,2.276,2.475,6.453,6.453,0,0,1,.194,1.734q-.006,3.464,0,6.928c0,.386.072.771.1,1.157a1.685,1.685,0,0,1,0,.577,4.918,4.918,0,0,0-.106,1.409q-.009,8.263-.01,16.526a15.432,15.432,0,0,1-.321,2.978,9.731,9.731,0,0,1-1.96,4.189,15.25,15.25,0,0,1-4.727,3.907,56.6,56.6,0,0,1-7.044,3.223,44.665,44.665,0,0,1-5.3,1.732C298.4,701.71,297.915,701.809,297.352,701.934Zm-178.663-2.892a3.032,3.032,0,0,0,.033-.375c-.015-.778-.048-1.557-.055-2.335a17.993,17.993,0,0,1,.778-5.343,20.917,20.917,0,0,1,11.227-13.2,21.568,21.568,0,0,1,9.579-2.195c.724,0,1.44.061,2.161.128a19.073,19.073,0,0,1,3.113.529,21.217,21.217,0,0,1,14.722,12.471,18.9,18.9,0,0,1,1.525,6.292c.087,1.188,0,2.39-.009,3.586,0,.159.024.319.038.49a3.119,3.119,0,0,0,1.343.139q28.59,0,57.179,0c.278,0,.558.009.834-.015a4.25,4.25,0,0,0,.581-.134,3.739,3.739,0,0,0,.1-1.255q0-20.741,0-41.483c0-.278.007-.557-.013-.834a2.8,2.8,0,0,0-.11-.462,2.3,2.3,0,0,0-1.1-.114q-30.551-.005-61.1.006c-1.388,0-2.776.126-4.164.2-.083,0-.166.022-.249.03-.911.089-1.822.179-2.733.264-.774.073-1.551.119-2.322.213-1.1.133-2.2.3-3.3.452-1.263.18-2.531.336-3.786.559-2.375.424-4.743.885-7.09,1.448a77.857,77.857,0,0,0-11.735,3.721,43.8,43.8,0,0,0-8.369,4.47,24.851,24.851,0,0,0-4.121,3.511,8.634,8.634,0,0,0-2.149,4.083,13.614,13.614,0,0,0-.3,2.9q.007,10.058,0,20.115c0,.195,0,.39.009.584a1.058,1.058,0,0,0,.514.9,2.287,2.287,0,0,0,.671.327,14.582,14.582,0,0,0,2.037.4c1.8.158,3.612.129,5.42.117A1.193,1.193,0,0,0,118.689,699.043ZM224.677,654.96a1.959,1.959,0,0,0-.216,1.23q-.008,5.132,0,10.264,0,15.6,0,31.209c0,.334-.006.669.018,1,.03.409.149.522.578.555.3.023.611.018.918.018h27.456c.278,0,.558.01.834-.013a3.639,3.639,0,0,0,.528-.117,1.332,1.332,0,0,0,.081-.86,16.7,16.7,0,0,1,0-3.246,19.007,19.007,0,0,1,.447-2.962,20.694,20.694,0,0,1,7.151-11.466,21.8,21.8,0,0,1,12.753-4.954,20.58,20.58,0,0,1,5.629.452,21.186,21.186,0,0,1,12.556,7.647A20.084,20.084,0,0,1,297.917,698a2,2,0,0,0,.026.885,1.119,1.119,0,0,0,.836-.023,56.117,56.117,0,0,0,7.425-2.718,40.164,40.164,0,0,0,4.6-2.352,11.986,11.986,0,0,0,2.948-2.559,7.018,7.018,0,0,0,1.6-3.344,18.087,18.087,0,0,0,.292-3.233q.007-7.427,0-14.853a5.528,5.528,0,0,0-.03-.666.43.43,0,0,0-.43-.429c-.3-.031-.61-.034-.916-.035q-5.508,0-11.016,0a8.787,8.787,0,0,1-.917-.027,1.278,1.278,0,0,1-1.131-1.324,1.3,1.3,0,0,1,1.13-1.247c.331-.033.667-.026,1-.026q5.633,0,11.266,0c.976,0,1.039-.066,1.042-1.044q.009-2.921,0-5.841a9.68,9.68,0,0,0-.1-.992,1.048,1.048,0,0,0-.9-.961c-.135-.032-.269-.067-.405-.092-.491-.09-.98-.187-1.473-.262-.932-.141-1.865-.275-2.8-.4-1.017-.134-2.037-.247-3.055-.378-1.182-.152-2.363-.314-3.544-.471-.55-.073-1.1-.143-1.65-.217-1.1-.147-2.2-.3-3.3-.44-1.045-.133-2.093-.249-3.139-.378-.77-.1-1.538-.207-2.309-.3a3.288,3.288,0,0,1-2.058-.781,2.843,2.843,0,0,0-.336-.247,92.648,92.648,0,0,0-12.745-7.583c-.718-.36-.724-.355-1.3.19q-4.307,4.068-8.609,8.142c-1.166,1.111-1.172.944-2.352.945q-19.862,0-39.724,0C225.46,654.939,225.074,654.952,224.677,654.96ZM140.2,715.009a15.288,15.288,0,0,0,4.06-.394,18.794,18.794,0,0,0,10.3-5.932A17.871,17.871,0,0,0,159.2,697.17a17.14,17.14,0,0,0-.946-6.229,18.849,18.849,0,0,0-16.434-12.6,18.608,18.608,0,0,0-5.637.358,18.95,18.95,0,0,0-9.888,5.532,18.031,18.031,0,0,0-5.019,11.953,16.279,16.279,0,0,0,.359,3.977,17.711,17.711,0,0,0,4.641,8.9A18.9,18.9,0,0,0,140.2,715.009Zm136.1.006a15.446,15.446,0,0,0,4.148-.406,18.592,18.592,0,0,0,10.712-6.469,17.317,17.317,0,0,0,3.659-15.637,17.981,17.981,0,0,0-10.788-12.653,18.219,18.219,0,0,0-7.61-1.557,19.629,19.629,0,0,0-4.053.4,18.507,18.507,0,0,0-8.942,4.576,17.7,17.7,0,0,0-5.81,15.781,16.861,16.861,0,0,0,3.44,8.384A18.888,18.888,0,0,0,276.3,715.016Zm-1.977-70.982c-.245-.127-.458-.252-.682-.352q-3.953-1.774-8.032-3.238a113.91,113.91,0,0,0-13.816-4c-1.7-.378-3.418-.718-5.138-1.009-1.666-.283-3.345-.49-5.021-.714-1.264-.169-2.528-.34-3.8-.457-1.132-.1-2.272-.138-3.408-.2-.111-.006-.222-.016-.332-.024-.637-.044-1.273-.111-1.911-.126-1.167-.028-2.339.028-3.5-.051-1.283-.087-2.556.056-3.833.054a.9.9,0,0,0-.244.074,2.453,2.453,0,0,0-.146,1.227q-.006,7.842,0,15.683a6.458,6.458,0,0,0,.018.75,3.406,3.406,0,0,0,.158.547c.292.013.54.034.788.034q19.856,0,39.711.01a1.77,1.77,0,0,0,1.334-.52c2.45-2.347,4.921-4.671,7.385-7a3.18,3.18,0,0,0,.348-.357A1.317,1.317,0,0,0,274.324,644.034Zm-110.662,8.031c.06.063.1.132.131.132q28.66.023,57.32.033a5.035,5.035,0,0,0,.567-.062,1.905,1.905,0,0,0,.155-1.08q.006-8.009,0-16.019c0-.222,0-.446-.02-.667a.391.391,0,0,0-.438-.4c-.3.01-.609.045-.914.063q-1.746.1-3.492.2c-.083,0-.166.022-.248.031-.8.09-1.6.182-2.4.268-.689.074-1.383.116-2.069.213-1.345.19-2.688.389-4.027.618-1.966.337-3.938.654-5.889,1.069a120.326,120.326,0,0,0-12.05,3.22,124.159,124.159,0,0,0-18.811,7.86q-3.7,1.916-7.278,4.066C164,651.738,163.755,651.823,163.662,652.064Z" transform="translate(-106.508 -631.057)" fill="teal" stroke="teal" stroke-width="2.5"/>
    <path id="Path_1711" data-name="Path 1711" d="M419.672,756.717q-2.961,0-5.922,0c-.278,0-.557,0-.833-.022a1.275,1.275,0,0,1-1.189-1.269,1.294,1.294,0,0,1,1.231-1.318c.249-.02.5-.017.75-.017H425.8c.25,0,.5,0,.75.019a1.3,1.3,0,0,1,1.191,1.275,1.274,1.274,0,0,1-1.151,1.3c-.276.028-.555.024-.833.025Q422.716,756.719,419.672,756.717Z" transform="translate(-324.922 -719.102)" fill="teal" stroke="teal" stroke-width="2.5"/>
  </g>
</svg>
