<svg xmlns="http://www.w3.org/2000/svg" width="2090" height="3154.142" viewBox="0 0 2090 3154.142">
  <g id="Group_174" data-name="Group 174" transform="translate(74 -789.81)">
    <g id="floating_elements" data-name="floating elements">
      <g id="cocotree" transform="translate(-60 789.81)" opacity="0.21">
        <path id="cocotree-2" data-name="cocotree" d="M1563.292,540.924s-18.033,28.812-10.908,56.44c0,0-.892-25.237,11.9-38.617a52.81,52.81,0,0,0,6.942,18.813s-4.476-20.08.992-26.735c0,0-.982,13.379,4.958,20.794,0,0-1.705-20.121.992-31.686,0,0-.18,14.989,3.967,18.814,0,0-1.857-21.692,3.966-31.686,0,0-1.122,18.113,4.959,25.744,0,0-4.628-25.069,4.958-36.636,0,0-1.089,14.65,1.983,20.793,0,0,.858-26.6,9.916-33.666,0,0-2.662,13.9-.992,20.794,0,0,3.3-20.8,10.908-29.705,0,0-1.792,12.674,0,20.794,0,0,1.59-23.9,10.908-29.705,0,0-1.88,18.685.992,23.764,0,0,3.449-23.147,9.916-32.676,0,0,.4,18.7-19.833,59.41s-52.438,103.534-63.465,131.693-16.857,49.509-16.857,49.509l8.925,5.941s19.762-62.844,37.682-101,31.589-59.407,39.666-80.2,12.957-41.583,21.816-49.509c0,0,3.742,6.374-7.933,26.735,0,0,6.51-4.748,10.908-14.853,0,0-1.172,18.678-7.933,28.715,0,0,10.008-7.563,11.9-13.862,0,0-2.409,19.876-14.874,31.685,0,0,10.261-4.335,14.874-13.863,0,0-4.121,22.932-19.833,31.686a32.625,32.625,0,0,0,21.816-16.833s-12.855,22.512-16.858,25.744a29.321,29.321,0,0,0,14.874-13.863s-9.546,21.6-18.841,25.745c0,0,12.123-2.94,17.849-11.882,0,0-4.633,13.436-13.883,18.813,0,0,10.14-.285,14.874-6.931,0,0-1.835,20.971-14.874,36.637,0,0,22.319-11.691,25.782-49.509,0,0,4.273,3.53.992,19.8,0,0,9.865-7.473,8.925-36.637,0,0,9.215,11.652,7.933,21.784,0,0,7.486-14.9-1.983-35.646,0,0,6.01,6.322,7.933,13.862,0,0,5.52-15.219-12.891-31.685a17.677,17.677,0,0,1,12.891,7.921c-1.017.17,4.806-8.091-19.832-25.744,0,0,7.128-.422,13.883,6.931,0,0,3.121-12.908-23.8-28.715,0,0,10.31.5,14.874,4.951,0,0-7.759-19.07-21.816-24.755,0,0,10.389.25,23.8,21.784v-5.941s3.424,8.085,4.959,12.872l1.983-6.931s1.747,9.254,3.966,13.863l1.983-5.941a56.84,56.84,0,0,0,2.975,12.872s-.253-5.552.992-6.931c0,0-.666,10.516.992,15.843,0,0,2.645-5.373,4.958-7.921,0,0,1.77,15.078,0,18.813a12.637,12.637,0,0,0,4.959-7.922c.927-5.287,0-.99,0-.99s1.172,14.66-.992,18.813c0,0,3.334-5.032,3.966-8.911,0,0-.611,12.261-2.975,16.833,0,0,5.831-4.083,5.949-7.922,0,0-1.286,11.986-5.949,16.833,0,0,5.964-3.276,7.933-8.911,0,0-1.23,13.533-9.917,18.813,0,0,8.4-1.6,10.908-5.941,0,0-4.9,12.614-8.925,14.852,0,0,7.375-2.126,9.916-5.941,0,0-5.385,14.264-11.9,18.813,0,0,7.5-1.758,10.908-5.941,0,0-4.455,17.955-9.917,20.794,0,0,17.682-5.573,18.841-39.607a15.081,15.081,0,0,1,2.975,14.852s8.241-13.137-1.983-33.665c0,0,6.845,1.27,9.916,11.882,0,0,5.565-19.427-15.867-37.627,0,0,5.259-1.486,8.925,4.951,0,0,1.515-15.858-20.825-26.735,0,0,.753-4.053,8.925.99,0,0-4.313-16.637-30.741-20.794,0,0,1.027-5.29,9.917-1.98,0,0-9.844-9.466-21.816-11.882,0,0,11.082-4.019,24.791,2.97,0,0,3.325-2.484-8.925-8.911,0,0,11.993-.37,22.808,10.892,0,0,5.581-5.169-8.924-11.883,0,0,11.57-3.84,24.791,13.863,0,0,2.275-9.324-10.908-15.843,0,0,15.875,3.127,26.774,19.8,0,0,4.346-7.41-8.924-17.823,0,0,16.4,8.436,23.8,23.764,0,0,6.9-5.3-5.95-17.823,0,0,15.642,9.273,16.858,23.764,0,0,6.189-3.244-1.984-16.832,0,0,20.9,12.908,27.766,31.685,0,0,1.407-29.471-38.674-47.529s-74.082-8.075-83.3-5.941c0,0,2.892-7.449,32.724-7.921a84.913,84.913,0,0,0-17.85-2.97s12.263-8.055,38.674-3.961a49.6,49.6,0,0,0-22.808-4.951s12.8-7.1,44.624,0c0,0,1.757-8.214-18.841-10.891,0,0,20.35-2.865,43.632,10.891,0,0,2.172-7.464-20.825-15.843,0,0,22.963,2.89,35.7,8.911,0,0-2.771-8.326-19.832-11.882,0,0,23.778,1.229,37.682,11.882,0,0-1.7-8.763-16.858-12.872,0,0,11.01-1.842,27.766,8.912,0,0-1.1-8.71-12.891-12.872,0,0,31.021-2.8,50.574,7.921,0,0-21.275-22.667-73.382-14.852,0,0,8.933-10.408,31.733-6.931,0,0-17.432-10.127-53.549,0,0,0,7.484-10.4,29.749-13.863,0,0-20.181-8.088-52.557,14.853a37.954,37.954,0,0,1,19.833-14.853s-19.9-6.7-44.624,26.735c0,0-3.839-7.051,10.908-19.8,0,0-19.475,2.857-33.716,33.666,0,0-4.009-5.281,5.95-16.833,0,0-16.188-.979-25.782,28.715l-2.975,13.941s-3.592-.773-.992-8.922,4.33-20.638,2.975-25.774c0,0-5.165,14.51-8.924,14.87,0,0,10.514-20.878,0-40.645,0,0,.466,14.133-5.95,15.861,0,0,5.758-28.876-16.858-43.618,0,0,5.885,12.409,5.95,18.835,0,0-10.72-29.953-34.707-40.645,0,0,17.23,18.587,16.858,26.766,0,0-17.24-27.1-54.54-34.7,0,0,25.871,10.671,32.724,24.783,0,0-28.851-26-59.5-25.774,0,0,25.017,8.535,31.732,15.861,0,0-12.91-3.286-24.791-.991,0,0,25.936.554,36.69,10.9,0,0-18.8-5.762-27.766-1.983,0,0,35.921,4.317,42.64,12.887,0,0-17.8-6.936-24.791-4.957,0,0,34.7,9.019,39.666,19.827,0,0-17.477-12.529-34.707-9.913,0,0,38.256,12.082,48.59,25.774,0,0-13.037-10-21.816-9.913,0,0,31.872,18.2,32.724,29.74,0,0-9.883-11.217-17.85-13.878,0,0,22.078,16.794,21.816,30.731,0,0-11.192-14.834-19.833-16.853,0,0,21.327,19.638,21.817,25.774s.561,8.988-3.967-.992-12.891-17.844-12.891-17.844,2.021,4.718,1.983,7.93c0,0-16.251-34.8-50.573-41.636,0,0,11.875,4.935,14.874,11.9,0,0-27.067-20.031-52.557-15.861,0,0,17.7,1.667,20.825,5.948,0,0-37.085-6.08-64.457,15.862,0,0,34.208-3.327,50.574-.992,0,0-4.874,5.046-6.942,9.913,0,0,12.437-11.611,20.825-9.913,0,0-9.616,3.915-10.908,9.913,0,0,13.471-9.411,21.816-7.931,0,0-7.84,6.866-8.925,10.9,0,0,11.1-8.327,18.841-6.939,0,0-5.763,1.149-6.942,8.922,0,0,8.1-8.7,17.85-3.966,0,0-8.645-1.271-11.9,6.939,0,0,15.526-7.888,21.816-.991,0,0-9.659.157-12.891,4.957,0,0,12.967-3.831,18.841.991,0,0-14.133-.764-16.858,1.983,0,0,19.562-.856,22.808,4.957,0,0-9.658,2.855-16.858,0,0,0,13.428,6.037,12.891,8.922,0,0-23.732-16.256-55.531-7.93,0,0,15.43,2,16.858,5.948,0,0-30.259-2.47-40.657,0,0,0,14.322-.026,16.858,2.974,0,0-29.237,10.078-41.649,24.783,0,0,12.781-7.074,17.85-7.93,0,0-16.736,24.785-20.825,44.61,0,0,24.587-30.457,43.632-37.67a32.106,32.106,0,0,0-2.975,13.878s4.371-15.447,12.891-17.844c0,0-5.652,8.75-4.958,17.844,0,0,5.785-16.254,12.891-19.827,0,0-4.03,11.673-1.983,16.853,0,0,2.9-14.376,8.925-16.853,0,0-1.995,7.371,0,13.879,0,0,1.921-15.064,9.917-16.853a20.388,20.388,0,0,0-2.975,15.862s3.469-14.377,12.891-14.87a20.173,20.173,0,0,0-4.959,12.888s3.718-11.571,12.891-12.888c0,0-7.149,9.526-8.924,15.861,0,0,9.821-11.64,13.883-12.887,0,0-5.064,6.93-3.966,12.887,0,0,5.817-10.443,11.9-12.887,0,0,.918,8.258-5.95,8.922,0,0,13.339,3.294,13.883,7.93,0,0-25.479-7.2-37.682,6.94,0,0,17.364-1.107,17.85,2.974,0,0-25.591-2.286-34.708,7.931,0,0,15.672-1.5,18.841.991,0,0-24.921,1.316-32.724,16.853,0,0,12.656-5.917,17.85-4.957,0,0-23.3,6.277-28.758,28.749,0,0,13.414-13.811,21.816-15.861,0,0-15.114,17.035-16.858,37.67C1548.417,558.96,1555.608,542.571,1563.292,540.924Z" transform="translate(-1498.835 -325.006)" fill="#007a70" fill-rule="evenodd"/>
      </g>
      <g id="cocotree-3" data-name="cocotree" transform="translate(1585.25 2219)" opacity="0.21">
        <path id="cocotree-4" data-name="cocotree" d="M1836.434,576.66s21.025,33.58,12.718,65.781c0,0,1.04-29.414-13.874-45.008a61.534,61.534,0,0,1-8.093,21.927s5.219-23.4-1.156-31.16c0,0,1.146,15.594-5.78,24.235,0,0,1.988-23.452-1.156-36.93,0,0,.21,17.47-4.625,21.927,0,0,2.165-25.282-4.624-36.93,0,0,1.308,21.111-5.781,30.005,0,0,5.4-29.218-5.781-42.7,0,0,1.27,17.075-2.312,24.235,0,0-1-31.007-11.562-39.238,0,0,3.1,16.2,1.156,24.235,0,0-3.85-24.24-12.718-34.622,0,0,2.089,14.771,0,24.235,0,0-1.854-27.85-12.718-34.622,0,0,2.192,21.777-1.156,27.7,0,0-4.022-26.978-11.562-38.084,0,0-.468,21.794,23.123,69.243s61.138,120.669,73.994,153.489,19.654,57.7,19.654,57.7l-10.406,6.924s-23.041-73.245-43.934-117.713-36.83-69.239-46.247-93.478-15.107-48.466-25.435-57.7c0,0-4.363,7.429,9.25,31.16,0,0-7.591-5.534-12.718-17.311,0,0,1.366,21.77,9.25,33.467,0,0-11.669-8.815-13.874-16.156,0,0,2.808,23.165,17.342,36.929,0,0-11.963-5.053-17.342-16.157,0,0,4.805,26.727,23.123,36.93,0,0-17.01-2.924-25.436-19.619,0,0,14.988,26.238,19.655,30.005a34.183,34.183,0,0,1-17.342-16.157s11.13,25.18,21.966,30.005c0,0-14.134-3.427-20.81-13.848,0,0,5.4,15.66,16.186,21.927,0,0-11.823-.332-17.342-8.078,0,0,2.139,24.442,17.342,42.7,0,0-26.022-13.626-30.06-57.7,0,0-4.981,4.114-1.156,23.081,0,0-11.5-8.71-10.405-42.7,0,0-10.743,13.58-9.25,25.389,0,0-8.727-17.364,2.312-41.545,0,0-7.007,7.368-9.249,16.156,0,0-6.436-17.737,15.03-36.929a20.612,20.612,0,0,0-15.03,9.232c1.185.2-5.6-9.43,23.123-30.005,0,0-8.311-.492-16.186,8.078,0,0-3.639-15.045,27.748-33.467,0,0-12.021.578-17.342,5.771,0,0,9.047-22.226,25.436-28.852,0,0-12.112.291-27.748,25.389v-6.924s-3.992,9.423-5.781,15l-2.312-8.078s-2.037,10.786-4.624,16.157l-2.312-6.924a66.228,66.228,0,0,1-3.469,15s.3-6.471-1.156-8.078c0,0,.776,12.256-1.156,18.465,0,0-3.084-6.262-5.78-9.232,0,0-2.064,17.573,0,21.927a14.728,14.728,0,0,1-5.781-9.233c-1.081-6.162,0-1.154,0-1.154s-1.367,17.086,1.156,21.927c0,0-3.888-5.865-4.625-10.386,0,0,.712,14.29,3.468,19.619,0,0-6.8-4.759-6.937-9.233,0,0,1.5,13.97,6.937,19.619,0,0-6.953-3.818-9.25-10.386,0,0,1.434,15.773,11.562,21.927,0,0-9.79-1.86-12.718-6.924,0,0,5.713,14.7,10.406,17.31,0,0-8.6-2.478-11.562-6.924,0,0,6.279,16.625,13.874,21.927,0,0-8.747-2.049-12.718-6.924,0,0,5.194,20.927,11.562,24.235,0,0-20.616-6.5-21.967-46.162a17.573,17.573,0,0,0-3.469,17.31s-9.609-15.312,2.312-39.237c0,0-7.981,1.48-11.562,13.848,0,0-6.489-22.643,18.5-43.854,0,0-6.132-1.732-10.406,5.771,0,0-1.766-18.483,24.28-31.16,0,0-.877-4.723-10.406,1.154,0,0,5.029-19.391,35.841-24.235,0,0-1.2-6.166-11.562-2.308,0,0,11.477-11.033,25.436-13.849,0,0-12.921-4.684-28.9,3.462,0,0-3.877-2.9,10.406-10.386,0,0-13.983-.431-26.592,12.695,0,0-6.507-6.025,10.405-13.849,0,0-13.49-4.475-28.9,16.157,0,0-2.652-10.867,12.718-18.465,0,0-18.509,3.645-31.216,23.081,0,0-5.067-8.637,10.405-20.773,0,0-19.124,9.832-27.748,27.7,0,0-8.043-6.173,6.937-20.773,0,0-18.237,10.807-19.655,27.7,0,0-7.216-3.781,2.313-19.618,0,0-24.366,15.044-32.373,36.929,0,0-1.641-34.349,45.09-55.395s86.372-9.411,97.118-6.924c0,0-3.372-8.682-38.153-9.232a99.026,99.026,0,0,1,20.811-3.462s-14.3-9.388-45.091-4.616a57.845,57.845,0,0,1,26.592-5.771s-14.921-8.27-52.027,0c0,0-2.048-9.574,21.967-12.694,0,0-23.727-3.339-50.871,12.694,0,0-2.532-8.7,24.28-18.465,0,0-26.772,3.369-41.622,10.386,0,0,3.23-9.7,23.123-13.848,0,0-27.723,1.433-43.934,13.848,0,0,1.982-10.213,19.655-15,0,0-12.836-2.147-32.373,10.387,0,0,1.286-10.151,15.03-15,0,0-36.168-3.263-58.964,9.232,0,0,24.8-26.418,85.556-17.31,0,0-10.416-12.13-37-8.078,0,0,20.324-11.8,62.433,0,0,0-8.726-12.125-34.684-16.157,0,0,23.529-9.426,61.276,17.311a44.247,44.247,0,0,0-23.123-17.311s23.2-7.809,52.028,31.16c0,0,4.476-8.218-12.718-23.081,0,0,22.706,3.329,39.309,39.238,0,0,4.674-6.155-6.937-19.619,0,0,18.873-1.142,30.06,33.467l3.469,16.248s4.188-.9,1.156-10.4-5.048-24.054-3.468-30.04c0,0,6.022,16.911,10.405,17.331,0,0-12.258-24.334,0-47.371,0,0-.543,16.472,6.937,18.486,0,0-6.713-33.655,19.655-50.837,0,0-6.862,14.462-6.937,21.953,0,0,12.5-34.911,40.465-47.371,0,0-20.088,21.663-19.654,31.2,0,0,20.1-31.586,63.589-40.439,0,0-30.164,12.437-38.153,28.885,0,0,33.638-30.305,69.369-30.04,0,0-29.167,9.947-37,18.486,0,0,15.052-3.83,28.9-1.155,0,0-30.238.645-42.778,12.709,0,0,21.915-6.716,32.372-2.311,0,0-41.881,5.032-49.714,15.02,0,0,20.748-8.083,28.9-5.777,0,0-40.458,10.512-46.247,23.108,0,0,20.377-14.6,40.466-11.554,0,0-44.6,14.081-56.652,30.04,0,0,15.2-11.651,25.436-11.554,0,0-37.159,21.207-38.153,34.662,0,0,11.522-13.073,20.811-16.175,0,0-25.741,19.573-25.436,35.817,0,0,13.049-17.289,23.124-19.642,0,0-24.865,22.888-25.436,30.04s-.654,10.476,4.625-1.156,15.03-20.8,15.03-20.8-2.356,5.5-2.312,9.243c0,0,18.947-40.563,58.964-48.526,0,0-13.845,5.751-17.342,13.865,0,0,31.557-23.347,61.277-18.486,0,0-20.64,1.942-24.28,6.932,0,0,43.238-7.086,75.151,18.487,0,0-39.884-3.878-58.965-1.156,0,0,5.683,5.881,8.094,11.554,0,0-14.5-13.532-24.28-11.554,0,0,11.212,4.563,12.718,11.554,0,0-15.706-10.969-25.436-9.243,0,0,9.141,8,10.406,12.709,0,0-12.938-9.705-21.967-8.088,0,0,6.719,1.339,8.094,10.4,0,0-9.444-10.135-20.811-4.622,0,0,10.079-1.482,13.874,8.088,0,0-18.1-9.193-25.436-1.155,0,0,11.262.183,15.03,5.777,0,0-15.117-4.465-21.966,1.155,0,0,16.477-.891,19.654,2.311,0,0-22.808-1-26.592,5.777,0,0,11.261,3.328,19.655,0,0,0-15.655,7.036-15.03,10.4,0,0,27.669-18.947,64.744-9.243,0,0-17.99,2.333-19.655,6.932,0,0,35.279-2.879,47.4,0,0,0-16.7-.03-19.655,3.466,0,0,34.088,11.746,48.559,28.885,0,0-14.9-8.245-20.811-9.243,0,0,19.513,28.887,24.28,51.993,0,0-28.666-35.5-50.872-43.9,0,0,3.874,7.846,3.469,16.175,0,0-5.1-18-15.03-20.8,0,0,6.59,10.2,5.781,20.8,0,0-6.744-18.944-15.03-23.108,0,0,4.7,13.605,2.312,19.642,0,0-3.387-16.756-10.406-19.642,0,0,2.326,8.591,0,16.176,0,0-2.239-17.557-11.562-19.642a23.756,23.756,0,0,1,3.469,18.487s-4.044-16.757-15.03-17.331a23.509,23.509,0,0,1,5.781,15.021s-4.334-13.486-15.03-15.021c0,0,8.335,11.1,10.4,18.486,0,0-11.45-13.566-16.186-15.02,0,0,5.9,8.077,4.624,15.02,0,0-6.781-12.172-13.874-15.02,0,0-1.07,9.625,6.938,10.4,0,0-15.552,3.839-16.186,9.243,0,0,29.707-8.39,43.934,8.088,0,0-20.244-1.291-20.811,3.466,0,0,29.837-2.664,40.467,9.243,0,0-18.273-1.752-21.968,1.155,0,0,29.056,1.533,38.153,19.642,0,0-14.756-6.9-20.811-5.777,0,0,27.167,7.315,33.529,33.507,0,0-15.639-16.1-25.436-18.486,0,0,17.622,19.855,19.654,43.905C1853.776,597.68,1845.393,578.579,1836.434,576.66Z" transform="translate(-1498.835 -325.006)" fill="#007a70" fill-rule="evenodd"/>
      </g>
      <g id="dots" transform="translate(1861 1097)">
        <circle id="dot" cx="6" cy="6" r="6" transform="translate(52) rotate(90)" fill="#e4509a"/>
        <circle id="dot-2" data-name="dot" cx="6" cy="6" r="6" transform="translate(52 27) rotate(90)" fill="#e4509a"/>
        <circle id="dot-3" data-name="dot" cx="6" cy="6" r="6" transform="translate(52 54) rotate(90)" fill="#e4509a"/>
        <circle id="dot-4" data-name="dot" cx="6" cy="6" r="6" transform="translate(32) rotate(90)" fill="#e4509a"/>
        <circle id="dot-5" data-name="dot" cx="6" cy="6" r="6" transform="translate(32 27) rotate(90)" fill="#e4509a"/>
        <circle id="dot-6" data-name="dot" cx="6" cy="6" r="6" transform="translate(32 54) rotate(90)" fill="#e4509a"/>
        <circle id="dot-7" data-name="dot" cx="6" cy="6" r="6" transform="translate(12) rotate(90)" fill="#e4509a"/>
        <circle id="dot-8" data-name="dot" cx="6" cy="6" r="6" transform="translate(12 27) rotate(90)" fill="#e4509a"/>
        <circle id="dot-9" data-name="dot" cx="6" cy="6" r="6" transform="translate(12 54) rotate(90)" fill="#e4509a"/>
      </g>
      <g id="dots-2" data-name="dots" transform="translate(1799 1070)">
        <circle id="dot-10" data-name="dot" cx="6" cy="6" r="6" transform="translate(52) rotate(90)" fill="#e4509a"/>
        <circle id="dot-11" data-name="dot" cx="6" cy="6" r="6" transform="translate(52 27) rotate(90)" fill="#e4509a"/>
        <circle id="dot-12" data-name="dot" cx="6" cy="6" r="6" transform="translate(52 54) rotate(90)" fill="#e4509a"/>
        <circle id="dot-13" data-name="dot" cx="6" cy="6" r="6" transform="translate(32) rotate(90)" fill="#e4509a"/>
        <circle id="dot-14" data-name="dot" cx="6" cy="6" r="6" transform="translate(32 27) rotate(90)" fill="#e4509a"/>
        <circle id="dot-15" data-name="dot" cx="6" cy="6" r="6" transform="translate(32 54) rotate(90)" fill="#e4509a"/>
        <circle id="dot-16" data-name="dot" cx="6" cy="6" r="6" transform="translate(12) rotate(90)" fill="#e4509a"/>
        <circle id="dot-17" data-name="dot" cx="6" cy="6" r="6" transform="translate(12 27) rotate(90)" fill="#e4509a"/>
        <circle id="dot-18" data-name="dot" cx="6" cy="6" r="6" transform="translate(12 54) rotate(90)" fill="#e4509a"/>
      </g>
      <g id="dots-3" data-name="dots" transform="translate(25 1573)">
        <circle id="dot-19" data-name="dot" cx="6" cy="6" r="6" transform="translate(52) rotate(90)" fill="#e4509a"/>
        <circle id="dot-20" data-name="dot" cx="6" cy="6" r="6" transform="translate(52 27) rotate(90)" fill="#e4509a"/>
        <circle id="dot-21" data-name="dot" cx="6" cy="6" r="6" transform="translate(52 54) rotate(90)" fill="#e4509a"/>
        <circle id="dot-22" data-name="dot" cx="6" cy="6" r="6" transform="translate(32) rotate(90)" fill="#e4509a"/>
        <circle id="dot-23" data-name="dot" cx="6" cy="6" r="6" transform="translate(32 27) rotate(90)" fill="#e4509a"/>
        <circle id="dot-24" data-name="dot" cx="6" cy="6" r="6" transform="translate(32 54) rotate(90)" fill="#e4509a"/>
        <circle id="dot-25" data-name="dot" cx="6" cy="6" r="6" transform="translate(12) rotate(90)" fill="#e4509a"/>
        <circle id="dot-26" data-name="dot" cx="6" cy="6" r="6" transform="translate(12 27) rotate(90)" fill="#e4509a"/>
        <circle id="dot-27" data-name="dot" cx="6" cy="6" r="6" transform="translate(12 54) rotate(90)" fill="#e4509a"/>
      </g>
      <g id="dots-4" data-name="dots" transform="translate(88 1600)">
        <circle id="dot-28" data-name="dot" cx="6" cy="6" r="6" transform="translate(52) rotate(90)" fill="#e4509a"/>
        <circle id="dot-29" data-name="dot" cx="6" cy="6" r="6" transform="translate(52 27) rotate(90)" fill="#e4509a"/>
        <circle id="dot-30" data-name="dot" cx="6" cy="6" r="6" transform="translate(52 54) rotate(90)" fill="#e4509a"/>
        <circle id="dot-31" data-name="dot" cx="6" cy="6" r="6" transform="translate(32) rotate(90)" fill="#e4509a"/>
        <circle id="dot-32" data-name="dot" cx="6" cy="6" r="6" transform="translate(32 27) rotate(90)" fill="#e4509a"/>
        <circle id="dot-33" data-name="dot" cx="6" cy="6" r="6" transform="translate(32 54) rotate(90)" fill="#e4509a"/>
        <circle id="dot-34" data-name="dot" cx="6" cy="6" r="6" transform="translate(12) rotate(90)" fill="#e4509a"/>
        <circle id="dot-35" data-name="dot" cx="6" cy="6" r="6" transform="translate(12 27) rotate(90)" fill="#e4509a"/>
        <circle id="dot-36" data-name="dot" cx="6" cy="6" r="6" transform="translate(12 54) rotate(90)" fill="#e4509a"/>
      </g>
      <g id="dots-5" data-name="dots" transform="translate(20 3115)">
        <circle id="dot-37" data-name="dot" cx="6" cy="6" r="6" transform="translate(52) rotate(90)" fill="#e4509a"/>
        <circle id="dot-38" data-name="dot" cx="6" cy="6" r="6" transform="translate(52 27) rotate(90)" fill="#e4509a"/>
        <circle id="dot-39" data-name="dot" cx="6" cy="6" r="6" transform="translate(52 54) rotate(90)" fill="#e4509a"/>
        <circle id="dot-40" data-name="dot" cx="6" cy="6" r="6" transform="translate(32) rotate(90)" fill="#e4509a"/>
        <circle id="dot-41" data-name="dot" cx="6" cy="6" r="6" transform="translate(32 27) rotate(90)" fill="#e4509a"/>
        <circle id="dot-42" data-name="dot" cx="6" cy="6" r="6" transform="translate(32 54) rotate(90)" fill="#e4509a"/>
        <circle id="dot-43" data-name="dot" cx="6" cy="6" r="6" transform="translate(12) rotate(90)" fill="#e4509a"/>
        <circle id="dot-44" data-name="dot" cx="6" cy="6" r="6" transform="translate(12 27) rotate(90)" fill="#e4509a"/>
        <circle id="dot-45" data-name="dot" cx="6" cy="6" r="6" transform="translate(12 54) rotate(90)" fill="#e4509a"/>
      </g>
    </g>
    <g id="mobile_app" data-name="mobile app" transform="translate(0 -1206.049)">
      <g id="cocotree-5" data-name="cocotree" transform="translate(-74 4522.74)" opacity="0.21">
        <path id="cocotree-6" data-name="cocotree" d="M1571.573,568.666s-20.35,32.513-12.31,63.692c0,0-1.007-28.48,13.428-43.578a59.6,59.6,0,0,0,7.834,21.23s-5.051-22.66,1.119-30.17c0,0-1.109,15.1,5.595,23.465,0,0-1.924-22.707,1.119-35.757,0,0-.2,16.915,4.477,21.231,0,0-2.1-24.479,4.476-35.757,0,0-1.266,20.44,5.6,29.052,0,0-5.223-28.29,5.595-41.343,0,0-1.229,16.532,2.238,23.465,0,0,.968-30.023,11.19-37.992,0,0-3,15.688-1.119,23.466,0,0,3.726-23.47,12.31-33.522,0,0-2.022,14.3,0,23.465,0,0,1.794-26.966,12.309-33.522,0,0-2.121,21.085,1.119,26.818,0,0,3.892-26.121,11.19-36.874,0,0,.453,21.1-22.381,67.043s-59.176,116.836-71.619,148.613-19.023,55.87-19.023,55.87l10.071,6.7s22.3-70.918,42.523-113.974,35.647-67.039,44.762-90.508,14.622-46.926,24.619-55.87c0,0,4.223,7.193-8.953,30.17,0,0,7.347-5.358,12.31-16.761,0,0-1.322,21.078-8.953,32.4,0,0,11.294-8.535,13.428-15.643,0,0-2.718,22.429-16.785,35.756,0,0,11.579-4.892,16.785-15.644,0,0-4.651,25.878-22.381,35.757,0,0,16.464-2.831,24.619-19,0,0-14.507,25.4-19.023,29.052a33.088,33.088,0,0,0,16.785-15.644s-10.772,24.38-21.261,29.052c0,0,13.681-3.318,20.142-13.408,0,0-5.229,15.163-15.667,21.23,0,0,11.443-.321,16.785-7.822,0,0-2.071,23.665-16.785,41.344,0,0,25.187-13.193,29.095-55.87,0,0,4.822,3.983,1.119,22.348,0,0,11.132-8.434,10.071-41.344,0,0,10.4,13.149,8.953,24.582,0,0,8.447-16.812-2.238-40.225,0,0,6.782,7.134,8.952,15.643,0,0,6.229-17.174-14.547-35.756a19.948,19.948,0,0,1,14.547,8.939c-1.147.191,5.423-9.13-22.38-29.052,0,0,8.044-.476,15.667,7.822,0,0,3.522-14.567-26.857-32.4,0,0,11.635.56,16.785,5.587,0,0-8.756-21.52-24.619-27.935,0,0,11.723.282,26.857,24.582v-6.7s3.864,9.124,5.6,14.526l2.238-7.822s1.972,10.443,4.476,15.644l2.238-6.7a64.145,64.145,0,0,0,3.358,14.526s-.286-6.265,1.119-7.822c0,0-.751,11.867,1.119,17.878,0,0,2.985-6.063,5.595-8.939,0,0,2,17.015,0,21.23a14.261,14.261,0,0,0,5.6-8.939c1.046-5.966,0-1.117,0-1.117s1.323,16.544-1.119,21.23c0,0,3.763-5.679,4.476-10.056,0,0-.689,13.836-3.357,19,0,0,6.58-4.608,6.714-8.94,0,0-1.451,13.526-6.714,19,0,0,6.73-3.7,8.953-10.056,0,0-1.388,15.272-11.191,21.23,0,0,9.476-1.8,12.31-6.7,0,0-5.529,14.235-10.072,16.761,0,0,8.322-2.4,11.19-6.7,0,0-6.077,16.1-13.428,21.23,0,0,8.466-1.984,12.31-6.7,0,0-5.027,20.262-11.191,23.465,0,0,19.954-6.289,21.261-44.7a17.019,17.019,0,0,1,3.358,16.76s9.3-14.825-2.238-37.991c0,0,7.725,1.433,11.19,13.408,0,0,6.281-21.923-17.905-42.461,0,0,5.935-1.677,10.072,5.587,0,0,1.709-17.9-23.5-30.17,0,0,.849-4.573,10.072,1.118,0,0-4.867-18.775-34.691-23.465,0,0,1.159-5.97,11.191-2.235,0,0-11.108-10.682-24.619-13.409,0,0,12.506-4.535,27.976,3.352,0,0,3.752-2.8-10.072-10.056,0,0,13.534-.417,25.738,12.292,0,0,6.3-5.833-10.071-13.409,0,0,13.057-4.333,27.976,15.644,0,0,2.567-10.521-12.31-17.878,0,0,17.915,3.529,30.214,22.348,0,0,4.9-8.362-10.071-20.113,0,0,18.51,9.519,26.857,26.818,0,0,7.784-5.977-6.715-20.113,0,0,17.651,10.464,19.024,26.817,0,0,6.985-3.661-2.239-19,0,0,23.584,14.566,31.334,35.756,0,0,1.588-33.258-43.642-53.635s-83.6-9.112-94-6.7c0,0,3.264-8.406,36.929-8.939a95.823,95.823,0,0,0-20.143-3.352s13.838-9.089,43.643-4.47a55.971,55.971,0,0,0-25.738-5.587s14.442-8.008,50.357,0c0,0,1.982-9.27-21.262-12.291,0,0,22.965-3.233,49.238,12.291,0,0,2.451-8.423-23.5-17.878,0,0,25.913,3.262,40.286,10.056,0,0-3.127-9.4-22.38-13.408,0,0,26.833,1.387,42.523,13.408,0,0-1.918-9.889-19.024-14.526,0,0,12.424-2.079,31.334,10.057,0,0-1.245-9.829-14.547-14.526,0,0,35.007-3.159,57.072,8.939,0,0-24.008-25.579-82.81-16.761,0,0,10.081-11.745,35.81-7.822,0,0-19.672-11.428-60.429,0,0,0,8.446-11.74,33.571-15.644,0,0-22.774-9.127-59.309,16.761a42.83,42.83,0,0,1,22.381-16.761s-22.46-7.561-50.358,30.17c0,0-4.332-7.957,12.309-22.348,0,0-21.977,3.224-38.047,37.992,0,0-4.524-5.96,6.715-19,0,0-18.267-1.105-29.095,32.4l-3.358,15.732s-4.054-.872-1.119-10.068,4.886-23.29,3.357-29.086c0,0-5.829,16.374-10.071,16.781,0,0,11.865-23.561,0-45.867,0,0,.526,15.949-6.714,17.9,0,0,6.5-32.586-19.024-49.222,0,0,6.641,14,6.715,21.255,0,0-12.1-33.8-39.167-45.867,0,0,19.444,20.975,19.023,30.2,0,0-19.455-30.583-61.548-39.154,0,0,29.2,12.042,36.928,27.967,0,0-32.558-29.342-67.142-29.086,0,0,28.231,9.631,35.809,17.9,0,0-14.569-3.708-27.976-1.118,0,0,29.268.625,41.4,12.305,0,0-21.212-6.5-31.333-2.237,0,0,40.536,4.872,48.118,14.543,0,0-20.082-7.827-27.976-5.594,0,0,39.16,10.178,44.762,22.374,0,0-19.723-14.138-39.167-11.187,0,0,43.171,13.634,54.833,29.086,0,0-14.712-11.281-24.619-11.187,0,0,35.966,20.534,36.928,33.561,0,0-11.153-12.658-20.143-15.662,0,0,24.915,18.952,24.619,34.68,0,0-12.63-16.74-22.381-19.018,0,0,24.067,22.161,24.62,29.086s.633,10.143-4.477-1.119-14.547-20.136-14.547-20.136,2.281,5.324,2.238,8.949c0,0-18.339-39.274-57.071-46.985,0,0,13.4,5.569,16.785,13.424,0,0-30.544-22.605-59.31-17.9,0,0,19.978,1.881,23.5,6.712,0,0-41.85-6.861-72.738,17.9,0,0,38.6-3.754,57.072-1.119,0,0-5.5,5.694-7.834,11.187,0,0,14.035-13.1,23.5-11.187,0,0-10.852,4.418-12.31,11.187,0,0,15.2-10.62,24.619-8.95,0,0-8.847,7.748-10.072,12.305,0,0,12.522-9.4,21.262-7.831,0,0-6.5,1.3-7.834,10.069,0,0,9.141-9.813,20.143-4.475,0,0-9.756-1.435-13.428,7.831,0,0,17.521-8.9,24.619-1.118,0,0-10.9.178-14.547,5.594,0,0,14.633-4.323,21.261,1.118,0,0-15.948-.863-19.023,2.237,0,0,22.076-.966,25.738,5.594,0,0-10.9,3.222-19.024,0,0,0,15.153,6.813,14.547,10.068,0,0-26.781-18.345-62.666-8.949,0,0,17.412,2.259,19.023,6.712,0,0-34.147-2.787-45.881,0,0,0,16.162-.029,19.024,3.356,0,0-32.994,11.373-47,27.967,0,0,14.423-7.983,20.143-8.949,0,0-18.887,27.969-23.5,50.341,0,0,27.746-34.37,49.238-42.51,0,0-3.75,7.6-3.357,15.662,0,0,4.933-17.432,14.547-20.137,0,0-6.379,9.874-5.6,20.137,0,0,6.528-18.342,14.548-22.374,0,0-4.547,13.173-2.238,19.018,0,0,3.278-16.224,10.072-19.018,0,0-2.251,8.318,0,15.662,0,0,2.167-17,11.191-19.018a23.007,23.007,0,0,0-3.357,17.9s3.914-16.224,14.547-16.781a22.765,22.765,0,0,0-5.6,14.543s4.2-13.058,14.548-14.543c0,0-8.068,10.75-10.071,17.9,0,0,11.083-13.135,15.667-14.543,0,0-5.715,7.82-4.476,14.543,0,0,6.564-11.785,13.429-14.543,0,0,1.036,9.319-6.715,10.068,0,0,15.053,3.717,15.667,8.949,0,0-28.753-8.123-42.524,7.832,0,0,19.594-1.25,20.143,3.356,0,0-28.879-2.579-39.167,8.95,0,0,17.686-1.7,21.262,1.118,0,0-28.123,1.485-36.928,19.018,0,0,14.282-6.677,20.143-5.594,0,0-26.294,7.083-32.453,32.442,0,0,15.137-15.585,24.619-17.9,0,0-17.056,19.224-19.023,42.51C1554.787,589.018,1562.9,570.523,1571.573,568.666Z" transform="translate(-1498.835 -325.006)" fill="#007a70" fill-rule="evenodd"/>
      </g>
      <g id="cocotree-7" data-name="cocotree" transform="translate(1603.25 4686)" opacity="0.21">
        <path id="cocotree-8" data-name="cocotree" d="M1836.434,576.66s21.025,33.58,12.718,65.781c0,0,1.04-29.414-13.874-45.008a61.534,61.534,0,0,1-8.093,21.927s5.219-23.4-1.156-31.16c0,0,1.146,15.594-5.78,24.235,0,0,1.988-23.452-1.156-36.93,0,0,.21,17.47-4.625,21.927,0,0,2.165-25.282-4.624-36.93,0,0,1.308,21.111-5.781,30.005,0,0,5.4-29.218-5.781-42.7,0,0,1.27,17.075-2.312,24.235,0,0-1-31.007-11.562-39.238,0,0,3.1,16.2,1.156,24.235,0,0-3.85-24.24-12.718-34.622,0,0,2.089,14.771,0,24.235,0,0-1.854-27.85-12.718-34.622,0,0,2.192,21.777-1.156,27.7,0,0-4.022-26.978-11.562-38.084,0,0-.468,21.794,23.123,69.243s61.138,120.669,73.994,153.489,19.654,57.7,19.654,57.7l-10.406,6.924s-23.041-73.245-43.934-117.713-36.83-69.239-46.247-93.478-15.107-48.466-25.435-57.7c0,0-4.363,7.429,9.25,31.16,0,0-7.591-5.534-12.718-17.311,0,0,1.366,21.77,9.25,33.467,0,0-11.669-8.815-13.874-16.156,0,0,2.808,23.165,17.342,36.929,0,0-11.963-5.053-17.342-16.157,0,0,4.805,26.727,23.123,36.93,0,0-17.01-2.924-25.436-19.619,0,0,14.988,26.238,19.655,30.005a34.183,34.183,0,0,1-17.342-16.157s11.13,25.18,21.966,30.005c0,0-14.134-3.427-20.81-13.848,0,0,5.4,15.66,16.186,21.927,0,0-11.823-.332-17.342-8.078,0,0,2.139,24.442,17.342,42.7,0,0-26.022-13.626-30.06-57.7,0,0-4.981,4.114-1.156,23.081,0,0-11.5-8.71-10.405-42.7,0,0-10.743,13.58-9.25,25.389,0,0-8.727-17.364,2.312-41.545,0,0-7.007,7.368-9.249,16.156,0,0-6.436-17.737,15.03-36.929a20.612,20.612,0,0,0-15.03,9.232c1.185.2-5.6-9.43,23.123-30.005,0,0-8.311-.492-16.186,8.078,0,0-3.639-15.045,27.748-33.467,0,0-12.021.578-17.342,5.771,0,0,9.047-22.226,25.436-28.852,0,0-12.112.291-27.748,25.389v-6.924s-3.992,9.423-5.781,15l-2.312-8.078s-2.037,10.786-4.624,16.157l-2.312-6.924a66.228,66.228,0,0,1-3.469,15s.3-6.471-1.156-8.078c0,0,.776,12.256-1.156,18.465,0,0-3.084-6.262-5.78-9.232,0,0-2.064,17.573,0,21.927a14.728,14.728,0,0,1-5.781-9.233c-1.081-6.162,0-1.154,0-1.154s-1.367,17.086,1.156,21.927c0,0-3.888-5.865-4.625-10.386,0,0,.712,14.29,3.468,19.619,0,0-6.8-4.759-6.937-9.233,0,0,1.5,13.97,6.937,19.619,0,0-6.953-3.818-9.25-10.386,0,0,1.434,15.773,11.562,21.927,0,0-9.79-1.86-12.718-6.924,0,0,5.713,14.7,10.406,17.31,0,0-8.6-2.478-11.562-6.924,0,0,6.279,16.625,13.874,21.927,0,0-8.747-2.049-12.718-6.924,0,0,5.194,20.927,11.562,24.235,0,0-20.616-6.5-21.967-46.162a17.573,17.573,0,0,0-3.469,17.31s-9.609-15.312,2.312-39.237c0,0-7.981,1.48-11.562,13.848,0,0-6.489-22.643,18.5-43.854,0,0-6.132-1.732-10.406,5.771,0,0-1.766-18.483,24.28-31.16,0,0-.877-4.723-10.406,1.154,0,0,5.029-19.391,35.841-24.235,0,0-1.2-6.166-11.562-2.308,0,0,11.477-11.033,25.436-13.849,0,0-12.921-4.684-28.9,3.462,0,0-3.877-2.9,10.406-10.386,0,0-13.983-.431-26.592,12.695,0,0-6.507-6.025,10.405-13.849,0,0-13.49-4.475-28.9,16.157,0,0-2.652-10.867,12.718-18.465,0,0-18.509,3.645-31.216,23.081,0,0-5.067-8.637,10.405-20.773,0,0-19.124,9.832-27.748,27.7,0,0-8.043-6.173,6.937-20.773,0,0-18.237,10.807-19.655,27.7,0,0-7.216-3.781,2.313-19.618,0,0-24.366,15.044-32.373,36.929,0,0-1.641-34.349,45.09-55.395s86.372-9.411,97.118-6.924c0,0-3.372-8.682-38.153-9.232a99.026,99.026,0,0,1,20.811-3.462s-14.3-9.388-45.091-4.616a57.845,57.845,0,0,1,26.592-5.771s-14.921-8.27-52.027,0c0,0-2.048-9.574,21.967-12.694,0,0-23.727-3.339-50.871,12.694,0,0-2.532-8.7,24.28-18.465,0,0-26.772,3.369-41.622,10.386,0,0,3.23-9.7,23.123-13.848,0,0-27.723,1.433-43.934,13.848,0,0,1.982-10.213,19.655-15,0,0-12.836-2.147-32.373,10.387,0,0,1.286-10.151,15.03-15,0,0-36.168-3.263-58.964,9.232,0,0,24.8-26.418,85.556-17.31,0,0-10.416-12.13-37-8.078,0,0,20.324-11.8,62.433,0,0,0-8.726-12.125-34.684-16.157,0,0,23.529-9.426,61.276,17.311a44.247,44.247,0,0,0-23.123-17.311s23.2-7.809,52.028,31.16c0,0,4.476-8.218-12.718-23.081,0,0,22.706,3.329,39.309,39.238,0,0,4.674-6.155-6.937-19.619,0,0,18.873-1.142,30.06,33.467l3.469,16.248s4.188-.9,1.156-10.4-5.048-24.054-3.468-30.04c0,0,6.022,16.911,10.405,17.331,0,0-12.258-24.334,0-47.371,0,0-.543,16.472,6.937,18.486,0,0-6.713-33.655,19.655-50.837,0,0-6.862,14.462-6.937,21.953,0,0,12.5-34.911,40.465-47.371,0,0-20.088,21.663-19.654,31.2,0,0,20.1-31.586,63.589-40.439,0,0-30.164,12.437-38.153,28.885,0,0,33.638-30.305,69.369-30.04,0,0-29.167,9.947-37,18.486,0,0,15.052-3.83,28.9-1.155,0,0-30.238.645-42.778,12.709,0,0,21.915-6.716,32.372-2.311,0,0-41.881,5.032-49.714,15.02,0,0,20.748-8.083,28.9-5.777,0,0-40.458,10.512-46.247,23.108,0,0,20.377-14.6,40.466-11.554,0,0-44.6,14.081-56.652,30.04,0,0,15.2-11.651,25.436-11.554,0,0-37.159,21.207-38.153,34.662,0,0,11.522-13.073,20.811-16.175,0,0-25.741,19.573-25.436,35.817,0,0,13.049-17.289,23.124-19.642,0,0-24.865,22.888-25.436,30.04s-.654,10.476,4.625-1.156,15.03-20.8,15.03-20.8-2.356,5.5-2.312,9.243c0,0,18.947-40.563,58.964-48.526,0,0-13.845,5.751-17.342,13.865,0,0,31.557-23.347,61.277-18.486,0,0-20.64,1.942-24.28,6.932,0,0,43.238-7.086,75.151,18.487,0,0-39.884-3.878-58.965-1.156,0,0,5.683,5.881,8.094,11.554,0,0-14.5-13.532-24.28-11.554,0,0,11.212,4.563,12.718,11.554,0,0-15.706-10.969-25.436-9.243,0,0,9.141,8,10.406,12.709,0,0-12.938-9.705-21.967-8.088,0,0,6.719,1.339,8.094,10.4,0,0-9.444-10.135-20.811-4.622,0,0,10.079-1.482,13.874,8.088,0,0-18.1-9.193-25.436-1.155,0,0,11.262.183,15.03,5.777,0,0-15.117-4.465-21.966,1.155,0,0,16.477-.891,19.654,2.311,0,0-22.808-1-26.592,5.777,0,0,11.261,3.328,19.655,0,0,0-15.655,7.036-15.03,10.4,0,0,27.669-18.947,64.744-9.243,0,0-17.99,2.333-19.655,6.932,0,0,35.279-2.879,47.4,0,0,0-16.7-.03-19.655,3.466,0,0,34.088,11.746,48.559,28.885,0,0-14.9-8.245-20.811-9.243,0,0,19.513,28.887,24.28,51.993,0,0-28.666-35.5-50.872-43.9,0,0,3.874,7.846,3.469,16.175,0,0-5.1-18-15.03-20.8,0,0,6.59,10.2,5.781,20.8,0,0-6.744-18.944-15.03-23.108,0,0,4.7,13.605,2.312,19.642,0,0-3.387-16.756-10.406-19.642,0,0,2.326,8.591,0,16.176,0,0-2.239-17.557-11.562-19.642a23.756,23.756,0,0,1,3.469,18.487s-4.044-16.757-15.03-17.331a23.509,23.509,0,0,1,5.781,15.021s-4.334-13.486-15.03-15.021c0,0,8.335,11.1,10.4,18.486,0,0-11.45-13.566-16.186-15.02,0,0,5.9,8.077,4.624,15.02,0,0-6.781-12.172-13.874-15.02,0,0-1.07,9.625,6.938,10.4,0,0-15.552,3.839-16.186,9.243,0,0,29.707-8.39,43.934,8.088,0,0-20.244-1.291-20.811,3.466,0,0,29.837-2.664,40.467,9.243,0,0-18.273-1.752-21.968,1.155,0,0,29.056,1.533,38.153,19.642,0,0-14.756-6.9-20.811-5.777,0,0,27.167,7.315,33.529,33.507,0,0-15.639-16.1-25.436-18.486,0,0,17.622,19.855,19.654,43.905C1853.776,597.68,1845.393,578.579,1836.434,576.66Z" transform="translate(-1498.835 -325.006)" fill="#007a70" fill-rule="evenodd"/>
      </g>
    </g>
  </g>
</svg>
