<svg id="Icon_ionic-ios-close-circle-outline" data-name="Icon ionic-ios-close-circle-outline" xmlns="http://www.w3.org/2000/svg" width="67.891" height="67.891" viewBox="0 0 67.891 67.891">
  <path id="Path_1686" data-name="Path 1686" d="M37.741,34.059l-8.6-8.6,8.6-8.6a2.608,2.608,0,0,0-3.688-3.688l-8.6,8.6-8.6-8.6a2.5,2.5,0,0,0-3.688,0,2.52,2.52,0,0,0,0,3.688l8.6,8.6-8.6,8.6a2.522,2.522,0,0,0,0,3.688,2.591,2.591,0,0,0,3.688,0l8.6-8.6,8.6,8.6a2.62,2.62,0,0,0,3.688,0A2.591,2.591,0,0,0,37.741,34.059Z" transform="translate(8.494 8.487)" fill="#fff"/>
  <path id="Path_1687" data-name="Path 1687" d="M37.321,7.945A29.381,29.381,0,0,1,58.1,58.1,29.381,29.381,0,0,1,16.545,16.545a29.182,29.182,0,0,1,20.775-8.6m0-4.57A33.946,33.946,0,1,0,71.266,37.321,33.94,33.94,0,0,0,37.321,3.375Z" transform="translate(-3.375 -3.375)" fill="#fff"/>
</svg>
