<svg id="icon_condo_excel_plus" data-name="icon condo excel plus" xmlns="http://www.w3.org/2000/svg" width="163.591" height="181.485" viewBox="0 0 163.591 181.485">
  <path id="Path_1703" data-name="Path 1703" d="M1011.921,666.5c.027-.814.072-1.561.072-2.309q.008-20.907.007-41.812c0-.581-.014-1.162.008-1.742a2.718,2.718,0,0,1,3.764-2.712c.931.307,1.837.7,2.747,1.066q39.668,16.14,79.334,32.283c1.017.414,2.04.813,3.059,1.224a3.086,3.086,0,0,1,2.167,3.208c-.015.405,0,.813,0,1.219q0,68.9,0,137.805c0,.581.031,1.164-.017,1.741a2.863,2.863,0,0,1-2.83,2.738c-.4.022-.81.008-1.215.008l-155.338,0c-.405,0-.811.013-1.215-.005a2.851,2.851,0,0,1-2.879-2.5,11.221,11.221,0,0,1-.083-1.909q-.006-15.506,0-31.011,0-31.272,0-62.544c0-.522.007-1.045,0-1.568a3.5,3.5,0,0,1,2.421-3.607c3.7-1.49,7.359-3.077,11.035-4.624l53.221-22.4c1.385-.583,2.775-1.156,4.154-1.754C1010.853,667.062,1011.352,666.781,1011.921,666.5Zm69.795,126.856a4.233,4.233,0,0,0,.319-2.37q.016-10.192.008-20.384a18.107,18.107,0,0,1,.052-1.914,2.5,2.5,0,0,1,2.7-2.359,2.569,2.569,0,0,1,2.664,2.423c.051.576.03,1.16.03,1.741q0,10.1,0,20.209c0,.581-.018,1.164.031,1.741a6.244,6.244,0,0,0,.3,1.078c1.07.017,2.1.039,3.137.047,1.1.008,2.2.033,3.3-.007a8.886,8.886,0,0,0,3.078-.2,7.494,7.494,0,0,0,.271-2.96q.012-61.5.013-123c0-2.672.007-5.343,0-8.014a4.64,4.64,0,0,0-.361-2.312c-1.594-.665-3.238-1.365-4.893-2.038q-32.12-13.062-64.243-26.116c-3.052-1.24-6.11-2.466-9.162-3.7-.425-.172-.839-.423-1.341-.036a6.37,6.37,0,0,0-.2,2.531q-.014,40.157-.012,80.314c0,.755.019,1.513-.042,2.263a2.59,2.59,0,0,1-2.594,2.5,2.643,2.643,0,0,1-2.757-2.538c-.047-.577-.023-1.161-.023-1.741q0-16.464,0-32.927c0-.581.013-1.163-.027-1.741a3.206,3.206,0,0,0-.212-.727,2.628,2.628,0,0,0-1.916.426q-13.028,5.476-26.044,10.978-18.458,7.771-36.92,15.533a3.572,3.572,0,0,0-1.73,1.056c-.014.628-.047,1.377-.047,2.125q-.005,33.189-.005,66.377c0,.522-.018,1.047.018,1.567a7.565,7.565,0,0,0,.2,1,30.5,30.5,0,0,0,4.565.126c1.5.028,3.009.04,4.512,0a20.891,20.891,0,0,0,4.412-.154,4.625,4.625,0,0,0,.329-2.469q.016-10.715.01-21.429a15.508,15.508,0,0,1,.082-2.086,2.4,2.4,0,0,1,2.192-2.118,15.76,15.76,0,0,1,1.734-.055q15.273,0,30.547,0c.52,0,1.043-.006,1.561.036a2.383,2.383,0,0,1,2.353,1.941,8.418,8.418,0,0,1,.223,2.062c.019,4.065.01,8.13.01,12.195,0,3.368-.009,6.737.009,10.1a2.8,2.8,0,0,0,.284,1.864,4.63,4.63,0,0,0,.681.1q6.075.012,12.149,0a5.107,5.107,0,0,0,1.035-.234c.02-.7.051-1.334.052-1.967q.006-6.707,0-13.415,0-9.843.007-19.686a8.433,8.433,0,0,1,.155-1.9,2.672,2.672,0,0,1,2.91-2.182,2.757,2.757,0,0,1,2.524,2.637c.046.577.019,1.161.019,1.741q0,26.568,0,53.136c0,.639-.012,1.279.015,1.916a8.02,8.02,0,0,0,.152.968,2.091,2.091,0,0,0,.565.21c2.256.011,4.511.015,6.767,0,.2,0,.405-.172.685-.3.017-.709.048-1.4.048-2.091q.005-10.453,0-20.906a8.1,8.1,0,0,1,.047-1.564,2.651,2.651,0,0,1,2.431-2.335,2.57,2.57,0,0,1,2.895,1.934,7.843,7.843,0,0,1,.23,2.06c.02,4.239.01,8.478.01,12.718,0,2.9-.007,5.807.008,8.711,0,.56-.139,1.166.289,1.644a47.317,47.317,0,0,0,8.664-.03,3.939,3.939,0,0,0,.306-2.346q.018-17.335.01-34.669a17.478,17.478,0,0,1,.044-1.914,2.6,2.6,0,0,1,2.4-2.341c.459-.039.925-.021,1.388-.021q11.889,0,23.778,0c.4,0,.811-.011,1.214.014a2.6,2.6,0,0,1,2.567,2.542c.05.635.028,1.277.028,1.916q0,17.073,0,34.146c0,.581-.018,1.164.03,1.741a5.115,5.115,0,0,0,.252.942A50.057,50.057,0,0,0,1081.716,793.352Zm-136.458.171c.926.016,1.67.04,2.415.04q30.87,0,61.74,0c.52,0,1.043.024,1.56-.02a6.083,6.083,0,0,0,.994-.251c.032-.532.079-.991.083-1.45.012-1.1,0-2.2,0-3.307,0-2.9.008-5.8-.008-8.7a1.986,1.986,0,0,0-.475-1.763c-.667-.026-1.465-.084-2.263-.084q-30.7-.008-61.393,0c-.4,0-.81-.007-1.214.005-1.466.043-1.594.145-1.6,1.6q-.026,6.267,0,12.534A14.043,14.043,0,0,0,945.258,793.523Zm121.173-.12a2.7,2.7,0,0,0,.364-1.777q.008-16.019,0-32.038c0-1.843-.147-1.966-1.961-2.018-.116,0-.231,0-.347,0q-7.979,0-15.958,0a10.545,10.545,0,0,0-1.383.081c-.585.08-.829.318-.881.891s-.053,1.158-.053,1.738q0,15.322,0,30.645a11.6,11.6,0,0,0,.03,1.391,7.263,7.263,0,0,0,.285,1.078C1048.1,793.623,1064.892,793.625,1066.432,793.4ZM992.1,772.182c.051-.6.13-1.111.13-1.617q.012-9.578,0-19.157c0-1.894-.062-1.964-1.953-1.967q-11.884-.015-23.769,0c-1.836,0-1.934.116-1.94,2.007-.012,3.367,0,6.734,0,10.1,0,2.9-.008,5.806.008,8.707a2.945,2.945,0,0,0,.265,1.833c1.284.279,12.945.378,25.658.218C991,772.3,991.5,772.23,992.1,772.182Z" transform="translate(-939.492 -617.734)" fill="teal"/>
  <path id="Path_1704" data-name="Path 1704" d="M991.9,789.231q-7.63,0-15.259,0a5.287,5.287,0,0,1-2.209-.32,2.49,2.49,0,0,1-1.668-2.226c-.033-.521-.048-1.043-.049-1.565q0-9.66,0-19.321c0-.405.016-.812.017-1.218a2.77,2.77,0,0,1,1.7-2.607c.206-.1.416-.2.627-.3,6.644-2.972,13.294-5.93,19.927-8.926a9.309,9.309,0,0,1,4.181-.887c2.6.069,5.2.019,7.8.019.347,0,.694-.011,1.04,0a3.137,3.137,0,0,1,3.4,3.35c.02.347.008.7.008,1.044q0,14.272,0,28.545a10.446,10.446,0,0,1-.084,1.734,2.948,2.948,0,0,1-2.785,2.643,11.845,11.845,0,0,1-1.386.024Q999.525,789.232,991.9,789.231Zm13.685-31.551c-.578-.05-1.083-.125-1.588-.131-1.618-.016-3.236.017-4.853-.016a5.249,5.249,0,0,0-2.34.511c-1.994.912-4,1.8-6,2.7-3.792,1.7-7.575,3.427-11.381,5.1a1.761,1.761,0,0,0-1.279,1.981,4.388,4.388,0,0,1,0,.522q0,6.523,0,13.047c0,2.177.014,2.184,2.25,2.185q11.612,0,23.224,0a8.313,8.313,0,0,0,1.039-.021,9.343,9.343,0,0,0,1.047-.255c.039-.568.1-1.078.1-1.589C1005.966,770.343,1005.879,759.343,1005.58,757.68Z" transform="translate(-953.064 -672.234)" fill="teal"/>
  <path id="Path_1705" data-name="Path 1705" d="M1085.53,694q0-9.843,0-19.686a14.806,14.806,0,0,1,.047-1.74,2.543,2.543,0,0,1,2.424-2.3c1.444-.059,2.893-.052,4.337.005a3.8,3.8,0,0,1,1.474.438q8.159,4.043,16.3,8.126a6.676,6.676,0,0,1,.9.525,2.431,2.431,0,0,1,1.1,1.887c.028.463.049.928.049,1.392q0,15.506,0,31.011c0,.522-.041,1.044-.058,1.565a2.546,2.546,0,0,1-2.3,2.226c-.519-.02-1.04.036-1.56.036q-9.373,0-18.745,0c-.4,0-.811.005-1.214-.02a2.613,2.613,0,0,1-2.737-2.73c-.026-.521-.014-1.045-.014-1.567Q1085.53,703.583,1085.53,694Zm21.129-10.561c-.551-.315-1.036-.623-1.547-.879q-6.051-3.03-12.111-6.041a10.346,10.346,0,0,0-1.107-.492.616.616,0,0,0-.868.561,19.06,19.06,0,0,0-.086,1.91q-.007,15.416,0,30.831c0,.348-.007.7.006,1.045.053,1.428.227,1.605,1.61,1.658.115,0,.231,0,.347,0,3.933,0,7.867.009,11.8,0,1.946-.006,2.029-.093,2.03-2.086q.01-12.367,0-24.734C1106.73,684.638,1106.685,684.065,1106.659,683.44Z" transform="translate(-999.157 -639.064)" fill="teal"/>
  <path id="Path_1706" data-name="Path 1706" d="M1171.153,781.787q0,6.962,0,13.925a12.109,12.109,0,0,1-.027,1.391,2.73,2.73,0,0,1-2.637,2.511c-.346.021-.694.012-1.04.012H1148.2c-.231,0-.462,0-.694,0a2.868,2.868,0,0,1-3.129-2.962c-.03-.346-.016-.7-.016-1.044q0-13.924,0-27.849a9.478,9.478,0,0,1,.04-1.216,3.023,3.023,0,0,1,2.938-2.892,10.723,10.723,0,0,1,1.213-.021q9.277,0,18.554.005a7.205,7.205,0,0,1,1.714.148,2.823,2.823,0,0,1,2.322,2.851c.023.4.009.812.01,1.218Zm-21.1,11.977a2.81,2.81,0,0,0,.58.258,8.448,8.448,0,0,0,1.2.122c1.157.016,2.314.008,3.472.008,2.719,0,5.439.008,8.159-.007a2.857,2.857,0,0,0,2.109-.482c.04-.654.121-1.4.122-2.14q.018-6.883.006-13.766c0-2.091.008-4.182-.006-6.273a3.017,3.017,0,0,0-.426-2.037,3.127,3.127,0,0,0-.643-.131q-6.77-.015-13.539,0a3.628,3.628,0,0,0-.924.242c-.273,1.52-.353,11-.2,22.713C1149.967,792.784,1150.021,793.3,1150.051,793.764Z" transform="translate(-1023.192 -677.016)" fill="teal"/>
  <path id="Path_1707" data-name="Path 1707" d="M1085.531,781.786c0-4.82-.008-9.641,0-14.461.007-2.629,1.044-3.676,3.68-3.682,6.422-.014,12.844,0,19.267-.011a4.89,4.89,0,0,1,2.03.364,2.423,2.423,0,0,1,1.586,2.1c.044.52.058,1.044.058,1.565q0,14.027,0,28.052a12.815,12.815,0,0,1-.059,1.565,2.558,2.558,0,0,1-2.4,2.324c-.4.034-.81.02-1.214.02h-19.267c-.405,0-.812.012-1.215-.02a2.587,2.587,0,0,1-2.421-2.314,13.306,13.306,0,0,1-.044-1.566Q1085.529,788.756,1085.531,781.786Zm21.1,11.863c.029-.408.1-.92.1-1.432q.01-10.526,0-21.05a4.306,4.306,0,0,0-.1-1.2,1.182,1.182,0,0,0-.559-.577,1.463,1.463,0,0,0-.677-.086q-6.586-.005-13.172,0c-.058,0-.115,0-.173.008-.751.067-.991.3-1.076,1.082a6.336,6.336,0,0,0-.027.695q0,10.612,0,21.224c0,1.614.2,1.818,1.8,1.829,4.044.027,8.088.014,12.132,0A2.345,2.345,0,0,0,1106.633,793.65Z" transform="translate(-999.157 -677.016)" fill="teal"/>
  <path id="Path_1708" data-name="Path 1708" d="M1144.36,709.188c0-4.353-.007-8.707.007-13.06a7.662,7.662,0,0,1,.17-1.894,2.649,2.649,0,0,1,3.756-1.9c3.427,1.386,6.832,2.828,10.243,4.255q4.877,2.042,9.745,4.1c.106.044.218.076.328.112a3.512,3.512,0,0,1,2.568,3.829c-.066,6.036-.023,12.073-.026,18.109a4.3,4.3,0,0,1-.29,2.043,2.465,2.465,0,0,1-2.139,1.533c-.519.03-1.04.045-1.56.046q-9.367,0-18.735,0c-.52,0-1.041-.011-1.56-.044a2.325,2.325,0,0,1-2.248-1.841,8.106,8.106,0,0,1-.25-2.056C1144.35,718.009,1144.36,713.6,1144.36,709.188Zm5.667-9.621c-.025.626-.067,1.2-.068,1.769q-.01,4.955,0,9.91c0,2.724-.011,5.448.01,8.172.01,1.247.195,1.414,1.375,1.485.115.007.231.008.346.008,4.1,0,8.2,0,12.3-.008a10.109,10.109,0,0,0,1.259-.149,3.115,3.115,0,0,0,.451-2.115q.016-5.477,0-10.954c0-.4-.02-.811-.053-1.215a1.264,1.264,0,0,0-.85-1.19c-.645-.249-1.272-.546-1.91-.814-3.615-1.52-7.229-3.046-10.852-4.548A2.478,2.478,0,0,0,1150.027,699.566Z" transform="translate(-1023.192 -647.945)" fill="teal"/>
  <path id="Path_1709" data-name="Path 1709" d="M1067.5,792.348a2.775,2.775,0,0,1-2.617,2.72,2.952,2.952,0,0,1-2.747-2.826,2.875,2.875,0,0,1,2.769-2.771A2.691,2.691,0,0,1,1067.5,792.348Z" transform="translate(-989.601 -687.514)" fill="teal"/>
</svg>
