<svg id="icon_covid_19" data-name="icon covid 19" xmlns="http://www.w3.org/2000/svg" width="98.139" height="115" viewBox="0 0 98.139 115">
  <defs>
    <style>
      .cls-1 {
        fill: #e4509a;
      }
    </style>
  </defs>
  <path id="Path_1688" data-name="Path 1688" class="cls-1" d="M1379.856,684.583c.443-.19.618-.578.856-.891,1.89-2.48,3.767-4.969,5.653-7.452a5.118,5.118,0,0,1,.714-.831,1.693,1.693,0,0,1,2.565.46,1.773,1.773,0,0,1-.008,1.787,6.679,6.679,0,0,1-.565.811q-11.455,15.137-22.912,30.271c-.133.175-.276.343-.4.522a1.82,1.82,0,0,1-2.787.079c-.5-.633-1.058-1.22-1.553-1.856a48.566,48.566,0,0,1-8.109-15.021,68.347,68.347,0,0,1-1.859-7.461c-.324-1.615-.614-3.24-.831-4.873a29.066,29.066,0,0,1-.26-3.727c-.021-8.145-.009-16.289-.008-24.433,0-.11,0-.22,0-.33a1.931,1.931,0,0,1,1.833-2.082c.468-.077.942-.123,1.407-.215a23.943,23.943,0,0,0,11.1-5.491,26.511,26.511,0,0,0,6.959-9.643,33.47,33.47,0,0,0,1.822-5.295c.045-.177.1-.351.16-.526a1.946,1.946,0,0,1,1.915-1.517c.255-.019.514-.006.77-.006q15.463,0,30.927.007a13.708,13.708,0,0,1,1.744.162,3.112,3.112,0,0,1,2.412,1.87,8.144,8.144,0,0,1,.607,2.105,25.1,25.1,0,0,0,3.776,8.954,1.851,1.851,0,0,1-.034,2.516c-1.04,1.421-2.11,2.819-3.167,4.227L1393.873,671.6a7.955,7.955,0,0,1-.608.781,1.635,1.635,0,0,1-2.342.363,1.749,1.749,0,0,1-.446-2.436c.192-.311.425-.6.646-.89q2.91-3.87,5.822-7.739c.261-.347.5-.708.728-1.024-.113-.368-.363-.42-.612-.494a16.489,16.489,0,0,0-9.717.477,15.8,15.8,0,0,0-10.084,11.753,15.412,15.412,0,0,0,1.847,11.335C1379.283,684.032,1379.412,684.4,1379.856,684.583Zm-15.664,20.611a1.746,1.746,0,0,0,.834-.773q5.982-7.895,11.954-15.8c.133-.175.267-.35.387-.535a.56.56,0,0,0,0-.623c-.074-.126-.162-.244-.248-.364a19.353,19.353,0,0,1-3.045-6.423,9.1,9.1,0,0,0-.369-.953,30.67,30.67,0,0,0-4.344.726c-.14.358-.262.662-.379.968a5.889,5.889,0,0,1-6.61,3.78,6.019,6.019,0,1,1,6.016-9.284,4.735,4.735,0,0,1,.29.467.759.759,0,0,0,.934.373c.357-.074.729-.085,1.08-.179a12.58,12.58,0,0,0,2.568-.547,1.142,1.142,0,0,0,.128-.3,9.292,9.292,0,0,0,.061-.986,15.531,15.531,0,0,1,.355-2.942,19.272,19.272,0,0,1,2.12-5.754c.154-.279.278-.576.434-.9a34.873,34.873,0,0,0-3.11-2.533c-.377.169-.708.319-1.04.464a5.883,5.883,0,0,1-4.276.248,6.038,6.038,0,1,1,7.68-4.4c-.058.281-.08.569-.113.808a12.005,12.005,0,0,0,3.2,2.438,5.59,5.59,0,0,0,.491-.393,19.425,19.425,0,0,1,8.662-5.008,5.462,5.462,0,0,0,.8-.369c-.036-.384-.056-.71-.1-1.032-.1-.725-.277-1.445-.312-2.173a1.694,1.694,0,0,0-1.124-1.67,5.192,5.192,0,0,1-2.708-5.507,5.09,5.09,0,1,1,8.26,4.883c-.331.283-.684.54-1,.79a1.82,1.82,0,0,0-.041.38c.146,1.089.286,2.179.455,3.264.1.633.27.756.971.782a18.075,18.075,0,0,1,1.977.064,21.122,21.122,0,0,1,4.274.968,4.953,4.953,0,0,0,.8.164c.849-.863,11.721-15.376,12.139-16.211-.147-.283-.315-.6-.48-.927a31.416,31.416,0,0,1-3.154-8.411c-.251-1.327-.268-1.328-1.641-1.328q-14.474,0-28.949,0c-1.24,0-1.257-.117-1.672,1.217a34.3,34.3,0,0,1-3.761,8.29,28.116,28.116,0,0,1-17.635,12.736c-.315.077-.62.2-.9.285a3.034,3.034,0,0,0-.141,1.36q-.008,8.916-.008,17.832c0,1.173-.116,2.349-.072,3.519a44.983,44.983,0,0,0,.515,5.8,79.371,79.371,0,0,0,2.143,9.424,43.676,43.676,0,0,0,7.132,13.684A6.828,6.828,0,0,0,1364.193,705.194Zm8.089-47.622a2.534,2.534,0,0,0-5.067-.009,2.534,2.534,0,0,0,5.067.009ZM1363.4,681.7a2.387,2.387,0,0,0,2.479-2.4,2.518,2.518,0,1,0-5.036-.034A2.4,2.4,0,0,0,1363.4,681.7Zm24.432-34.664a1.617,1.617,0,0,0,1.545,1.562,1.686,1.686,0,0,0,1.619-1.626,1.666,1.666,0,0,0-1.573-1.551A1.592,1.592,0,0,0,1387.833,647.031Z" transform="translate(-1343.44 -620.033)"/>
  <path id="Path_1689" data-name="Path 1689" class="cls-1" d="M1461.791,685.021a6.317,6.317,0,0,0-.74-.289,31.213,31.213,0,0,1-7.58-3.17,3.422,3.422,0,0,0-1.469-.631c-.211.247-.459.51-.675.8q-5.166,6.854-10.323,13.716c-.174.231-.324.482-.511.761.5,1.027,1.028,2.026,1.463,3.065.422,1.006.743,2.055,1.129,3.139.334,0,.623.018.909,0,.8-.059,1.6-.133,2.406-.2a4.178,4.178,0,0,0,.543-.078.743.743,0,0,0,.571-.465c.092-.239.169-.485.271-.72a5.25,5.25,0,0,1,3.464-3.146,5.608,5.608,0,0,1,3.61,10.616,5.447,5.447,0,0,1-6.312-1.815c-.581-.79-1.125-1.159-2.094-.847a4.5,4.5,0,0,1-1.2.063,3.814,3.814,0,0,0-1.608.3,1.447,1.447,0,0,0-.167.952,20.32,20.32,0,0,1-1.03,5.933,20.629,20.629,0,0,1-1.456,3.318c-.174.317-.342.639-.5.93a10.6,10.6,0,0,0,2.747,2.462c.31-.108.65-.238,1-.342a5.134,5.134,0,0,1,3.446.086,4.914,4.914,0,0,1,3.072,5.094,5.016,5.016,0,0,1-3.579,4.3,4.9,4.9,0,0,1-6.238-4.576,2.375,2.375,0,0,1,.009-.549,1.672,1.672,0,0,0-.73-1.8c-.582-.446-1.119-.948-1.681-1.418a1.361,1.361,0,0,0-.292-.144c-.45.063-.674.432-.962.7a19.286,19.286,0,0,1-7.541,4.383l-1.616.492a3.384,3.384,0,0,0-.077.635c.068.987.159,1.972.234,2.959a.655.655,0,0,0,.6.662,5.478,5.478,0,0,1,.739.21,6.685,6.685,0,0,1,4.581,6.884,6.7,6.7,0,0,1-13.289.615,6.638,6.638,0,0,1,3.021-6.821c.238-.167.487-.316.764-.495a15.411,15.411,0,0,0-.134-2.951c-.185-1.317-.189-1.326-1.55-1.337a16.03,16.03,0,0,1-3.9-.575,1.019,1.019,0,0,0-1.223.437c-1.6,2.148-3.214,4.284-4.824,6.423q-4.1,5.451-8.2,10.9c-.283.377-.547.768-.806,1.135a2.055,2.055,0,0,0,.837.937q.911.709,1.863,1.366a88.365,88.365,0,0,0,12.852,7.4c.829.384,1.693.693,2.55,1.017a3.526,3.526,0,0,0,2.264.037,21.116,21.116,0,0,0,3.369-1.321,78.971,78.971,0,0,0,8.934-5.186c3.319-2.164,6.549-4.455,9.724-6.826a8.4,8.4,0,0,1,.987-.7,1.729,1.729,0,0,1,2.521.948,1.639,1.639,0,0,1-.383,1.729,3.447,3.447,0,0,1-.582.5,156.335,156.335,0,0,1-16.248,10.907,41,41,0,0,1-5.93,2.875,11.322,11.322,0,0,1-3.182.792,5.618,5.618,0,0,1-2.375-.341c-.926-.346-1.869-.657-2.763-1.071a88.905,88.905,0,0,1-15.065-8.828c-.739-.539-1.422-1.155-2.126-1.742-.169-.14-.315-.307-.47-.463a2.182,2.182,0,0,1-.218-3.375q11.376-15.058,22.7-30.152,13.132-17.455,26.264-34.909a10.449,10.449,0,0,1,.753-.946,1.672,1.672,0,0,1,2.2-.332c.8.446,1.568.951,2.367,1.4a29.574,29.574,0,0,0,6.419,2.835,9.111,9.111,0,0,0,2.153.387,1.735,1.735,0,0,1,1.81,1.8c.008.147.006.294.006.44-.005,8.658.07,17.317-.037,25.973a45.15,45.15,0,0,1-8.318,25.874c-.778,1.111-1.633,2.167-2.461,3.242a1.877,1.877,0,0,1-1.251.824,1.635,1.635,0,0,1-1.7-.763,1.784,1.784,0,0,1-.027-1.883,5.536,5.536,0,0,1,.591-.791,43.918,43.918,0,0,0,6.856-11.73,41.291,41.291,0,0,0,2.334-8.91,55.222,55.222,0,0,0,.572-7.778c.027-7.19.013-14.381.011-21.571C1461.858,685.874,1461.816,685.476,1461.791,685.021Zm-23.674,14.561a2.16,2.16,0,0,0-.891.886q-3.442,4.561-6.874,9.13-4.393,5.839-8.785,11.681a1.862,1.862,0,0,0-.579,1.073c.8.588,1.767.371,2.641.4a14.937,14.937,0,0,0,6.42-1.176,16.3,16.3,0,0,0,5.79-4.081C1440.868,711.978,1440.878,704.071,1438.117,699.582Zm-13.8,37.207a3.2,3.2,0,0,0,6.4,0,3.2,3.2,0,1,0-6.4,0Zm28.568-31.538a2.116,2.116,0,0,0,.108-4.23,2.116,2.116,0,1,0-.108,4.23Zm-7.042,20.253a1.452,1.452,0,1,0-.064-2.9,1.452,1.452,0,0,0,.064,2.9Z" transform="translate(-1374.424 -651.154)"/>
  <path id="Path_1690" data-name="Path 1690" class="cls-1" d="M1442.954,653.018c0,4.146-.011,8.292,0,12.439a44.588,44.588,0,0,1-.4,5.809,64.624,64.624,0,0,1-1.374,7.341,59.1,59.1,0,0,1-8.365,19.268,45.126,45.126,0,0,1-15.244,14.2q-7.756,4.385-15.566,8.673c-1.41.776-2.881,1.447-4.353,2.1a8.42,8.42,0,0,1-3.837.8,7.779,7.779,0,0,1-1.833-.318,42.638,42.638,0,0,1-6.472-2.435c-3.477-1.662-6.831-3.552-10.169-5.47-1.081-.621-2.142-1.278-3.237-1.873a41.8,41.8,0,0,1-10.518-8.428,71.061,71.061,0,0,1-8.568-11.428,2.816,2.816,0,0,1-.468-1.547,1.681,1.681,0,0,1,2.6-1.285,2.923,2.923,0,0,1,.607.624c.219.292.4.616.59.928a64.037,64.037,0,0,0,9.523,12.066,35.6,35.6,0,0,0,7.588,5.79c3.653,2.032,7.277,4.115,10.944,6.119a37.456,37.456,0,0,0,6.306,2.837c.7.227,1.4.43,2.095.657a4.14,4.14,0,0,0,2.9-.076,33.932,33.932,0,0,0,3.212-1.428c2.788-1.474,5.553-2.99,8.312-4.517,2.631-1.456,5.229-2.972,7.864-4.419a42.984,42.984,0,0,0,16.795-16.7,58.285,58.285,0,0,0,6.371-17.025q.664-3.122,1.018-6.289a36.562,36.562,0,0,0,.231-3.951q.03-12.769,0-25.538c0-.84-.105-1.681-.174-2.52a1.679,1.679,0,0,0-1.387-1.628c-1.244-.3-2.486-.612-3.737-.883a24.116,24.116,0,0,1-6.9-2.484,21.107,21.107,0,0,1-8.926-9.871,27.1,27.1,0,0,1-2.2-7.461c-.078-.544-.14-1.09-.237-1.631a1.227,1.227,0,0,0-1.311-1.213c-.365-.032-.733-.019-1.1-.019h-22.126c-.331,0-.662.013-.991-.009a1.8,1.8,0,0,1-1.687-1.6,1.82,1.82,0,0,1,1.2-1.786,3.362,3.362,0,0,1,1.3-.176q5.339,0,10.677,0c3.852,0,7.705-.014,11.558.011a12.328,12.328,0,0,1,2.511.246,4,4,0,0,1,3.142,2.918,16.112,16.112,0,0,1,.452,2.371,23.845,23.845,0,0,0,2.669,8.214,17.251,17.251,0,0,0,11.132,8.661c1.589.423,3.209.731,4.807,1.126a11.029,11.029,0,0,1,1.761.6,4.488,4.488,0,0,1,2.555,2.864,8.228,8.228,0,0,1,.428,2.481q.014,3.027.02,6.054Q1442.959,648.614,1442.954,653.018Z" transform="translate(-1344.821 -608.66)"/>
  <path id="Path_1691" data-name="Path 1691" class="cls-1" d="M1331.946,652.812q0-6.328,0-12.656c0-.88,0-1.762.056-2.64a5.566,5.566,0,0,1,3.7-5.237,11.8,11.8,0,0,1,2.42-.7,23.192,23.192,0,0,0,10.068-4.4,16.638,16.638,0,0,0,3.169-3.038,11.442,11.442,0,0,0,2.275-4.471c.4-1.673.832-3.34,1.258-5.008a14.879,14.879,0,0,1,1.071-3,4.948,4.948,0,0,1,4.036-2.835,20.726,20.726,0,0,1,2.739-.162c2.494,0,4.989.005,7.483,0a3.363,3.363,0,0,1,1.4.234,1.683,1.683,0,0,1,.978,1.994,1.663,1.663,0,0,1-1.536,1.338c-.292.022-.587.01-.88.01q-4.237,0-8.474,0a10.1,10.1,0,0,0-1.1.034,1.826,1.826,0,0,0-1.615,1.148,12.331,12.331,0,0,0-.516,1.447c-.438,1.627-.908,3.249-1.258,4.9a16.506,16.506,0,0,1-5.82,9.344,26.685,26.685,0,0,1-11.283,5.682c-.534.124-1.075.216-1.61.333-.357.078-.712.165-1.063.264a2.441,2.441,0,0,0-1.982,2.332c-.029.439-.07.878-.07,1.317q-.006,13.481,0,26.962a30.828,30.828,0,0,0,.551,5.242,82.125,82.125,0,0,0,3.986,14.382,7.118,7.118,0,0,1,.335,1.157,1.686,1.686,0,0,1-.231,1.268,1.667,1.667,0,0,1-2.788.076,3.2,3.2,0,0,1-.4-.779,87.949,87.949,0,0,1-4.129-14.231,40.636,40.636,0,0,1-.783-8.193C1331.97,660.882,1331.946,656.847,1331.946,652.812Z" transform="translate(-1331.936 -608.659)"/>
</svg>
