<svg xmlns="http://www.w3.org/2000/svg" width="159.667" height="115" viewBox="0 0 159.667 115">
  <defs>
    <style>
      .cls-1 {
        fill: #e4509a;
      }
    </style>
  </defs>
  <g id="icon_home_excel_plus" data-name="icon home excel plus" transform="translate(0 0)">
    <path id="Path_1698" data-name="Path 1698" class="cls-1" d="M434.771,314.171a2.847,2.847,0,0,0-1.318-.164q-4.519-.008-9.039,0a3.167,3.167,0,0,1-1.295-.191,1.738,1.738,0,0,1-.966-2.363,8.128,8.128,0,0,1,.539-.96c1.487-2.449,3.031-4.865,4.443-7.356.65-1.147,1.388-2.229,2.071-3.349q6.279-10.3,12.546-20.613c.172-.282.338-.569.532-.836a1.7,1.7,0,0,1,1.5-.765c.4.014.808,0,1.212,0q23.644,0,47.288,0c1.917,0,1.535.226,2.756-1.29q1.382-1.717,2.762-3.436c.207-.257.429-.5.642-.756a1.809,1.809,0,0,1,2.482,0c.186.228.381.447.565.676,1.1,1.375,2.22,2.741,3.3,4.132a1.493,1.493,0,0,0,1.4.687c.328-.03.661,0,.991,0h46.737c.4,0,.809.014,1.212,0a1.708,1.708,0,0,1,1.5.767c.2.266.371.547.547.827q9.8,15.579,19.587,31.159c.176.28.361.555.516.846a1.8,1.8,0,0,1-1.375,2.8,5.4,5.4,0,0,1-.88.027q-4.464,0-8.928,0c-.4,0-.794.025-1.232.04a5.174,5.174,0,0,0-.139.684c-.022.366-.012.734-.012,1.1q0,32.572,0,65.145a4.909,4.909,0,0,0,.107,1.638,2.6,2.6,0,0,0,1.213.135q5.622.008,11.243,0a3.432,3.432,0,0,1,1.5.255,1.788,1.788,0,0,1,.358,2.952,1.5,1.5,0,0,1-.9.372c-.33,0-.661.012-.992.012q-5.952,0-11.9,0a6.265,6.265,0,0,0-1.855.171,1.973,1.973,0,0,1-1.086,0,6.93,6.93,0,0,0-2.075-.174q-50.044,0-100.088,0H422.995c-.4,0-.809.012-1.212-.011a1.734,1.734,0,0,1-.482-3.379,3.713,3.713,0,0,1,1.073-.187c.844-.027,1.69-.006,2.535-.01.363,0,.726-.019,1.009-.027a.97.97,0,0,0,.286-.889c.009-1.212,0-2.425.005-3.637,0-.441,0-.882,0-1.323.018-1.567.711-2.254,2.3-2.278.625-.009,1.25,0,1.874,0,.252,0,.5-.033.792-.053a3.1,3.1,0,0,0-.018-1.526,12.912,12.912,0,0,1,1.343-7.686,8.578,8.578,0,0,1,1.814-2.341,1.345,1.345,0,0,0,.489-1.163c-.02-.255,0-.514,0-.771q0-22.652,0-45.3C434.806,315.24,434.784,314.73,434.771,314.171ZM527,304.426c.188.3.321.551.5.773,1.142,1.439,2.284,2.877,3.443,4.3.843,1.038.684.924,1.937.925q6.559.007,13.117,0c.294,0,.589-.012.882.009a1.754,1.754,0,0,1,.588,3.337,3.291,3.291,0,0,1-1.4.233q-4.85-.012-9.7,0c-.331,0-.662,0-.992.008-.174.007-.376-.018-.46.2a.565.565,0,0,0,.035.211c.161.245.333.481.5.72a8.424,8.424,0,0,1,.637.9,1.754,1.754,0,0,1-1.313,2.585,5.427,5.427,0,0,1-.771.018c-1.727,0-3.454,0-5.18,0a1.887,1.887,0,0,0-1.074.14,2.552,2.552,0,0,0-.212,1.5q-.009,11.078-.006,22.155a13.125,13.125,0,0,1-.035,1.321,1.693,1.693,0,0,1-1.7,1.545,1.743,1.743,0,0,1-1.7-1.572c-.039-.4-.023-.807-.023-1.212,0-7.532-.01-15.064.012-22.6a3.129,3.129,0,0,0-.738-2.106q-9.155-11.377-18.269-22.787-2.2-2.753-4.413-5.5c-.244-.3-.449-.663-.833-.779a2.762,2.762,0,0,0-.891.893c-.788.969-1.562,1.949-2.344,2.924q-9.958,12.428-19.911,24.86c-1.231,1.541-1.027.89-1.028,2.977q-.008,30.2,0,60.4c0,.4-.01.809.012,1.212a4.306,4.306,0,0,0,.125.629,2.839,2.839,0,0,0,.471.087q4.739.007,9.479,0a2.553,2.553,0,0,0,.461-.093,3.713,3.713,0,0,0,.151-.629c.027-.4.017-.807.017-1.212q0-18.132,0-36.265c0-.441.018-.882.015-1.322a1.682,1.682,0,0,1,1.5-1.51c.367.006.735-.022,1.1-.022q11.023,0,22.046,0c.294,0,.588.021.881.006a1.659,1.659,0,0,1,1.724,1.741c-.008.441.008.882.008,1.323q0,17.912,0,35.824c0,.4-.014.809.011,1.212a7.87,7.87,0,0,0,.133.826,99.117,99.117,0,0,0,10.112.012,3.354,3.354,0,0,0,.152-.6c.029-.365.018-.734.018-1.1q0-13.172,0-26.344c0-.4-.015-.81.02-1.212a1.627,1.627,0,0,1,1.7-1.529,1.583,1.583,0,0,1,1.71,1.5,13,13,0,0,1,.033,1.321q0,13.062,0,26.124c0,.367-.012.736.015,1.1a5.552,5.552,0,0,0,.142.717,2.8,2.8,0,0,0,1.347.14q15.321.008,30.643,0c.257,0,.516.014.771-.009a6.023,6.023,0,0,0,.672-.141c.012-.515.031-.987.032-1.46q0-32.738,0-65.475c0-.331.014-.663-.012-.992a4.438,4.438,0,0,0-.167-.672h-1.132c-1.323,0-2.646-.008-3.968,0a3.083,3.083,0,0,1-1.29-.225,1.757,1.757,0,0,1,.556-3.344c.329-.025.661-.01.992-.01q7.5,0,14.991,0a2.307,2.307,0,0,0,1.173-.114c.171-.347-.055-.583-.2-.822q-1.25-2.012-2.518-4.014c-.871-1.379-.674-1.323-2.349-1.323q-19.29,0-38.579,0a10.332,10.332,0,0,0-1.1.038A2.232,2.232,0,0,0,527,304.426Zm-88.491,56.2a6.486,6.486,0,0,0,.771-.079,16.261,16.261,0,0,1,5.587-.247,12.144,12.144,0,0,1,6.723,3.031,4.33,4.33,0,0,0,.495.437,1.228,1.228,0,0,0,.586.245q1.653.019,3.305-.036a.949.949,0,0,0,.566-.274,4.894,4.894,0,0,0,.523-.706,12.524,12.524,0,0,1,1.977-2.216,9.717,9.717,0,0,1,8.483-2.356,16.023,16.023,0,0,1,3.462,1.056c.292.124.57.363.992.2a2.844,2.844,0,0,0,.11-1.251q.006-19.18,0-38.359c0-.22.009-.442-.009-.661s-.064-.418-.1-.622a2.74,2.74,0,0,0-1.243-.145c-1.911-.007-3.821-.01-5.732,0a1.838,1.838,0,0,1-1.79-1.042,1.721,1.721,0,0,1,.291-1.948c.264-.353.555-.686.807-1.047a2.344,2.344,0,0,0,.184-.577c-.53-.01-.965-.025-1.4-.025q-11.574,0-23.148,0c-.294,0-.589-.014-.881.01a5.147,5.147,0,0,0-.665.146c-.011.552-.03,1.063-.03,1.573q0,21.6,0,43.209c0,.367-.006.735.012,1.1A4.133,4.133,0,0,0,438.506,360.626Zm51.476,22.1c.5.011.9.028,1.3.028q8.7,0,17.4,0c.257,0,.516.013.771-.009a6.288,6.288,0,0,0,.674-.135c.024-.407.065-.767.065-1.126q.005-17.513,0-35.025c0-.257-.01-.514-.031-.769a.52.52,0,0,0-.488-.51,10,10,0,0,0-1.1-.047q-8.591,0-17.182,0c-.294,0-.588-.006-.88.019-.472.04-.641.208-.681.7-.029.365-.022.734-.022,1.1q0,17.016,0,34.034c0,.33-.008.662.017.991A6.521,6.521,0,0,0,489.982,382.724Zm.919-101.44a3.045,3.045,0,0,0-1.615-.229q-21.489-.007-42.979,0c-.33,0-.661.014-.991.022a1.093,1.093,0,0,0-.981.594c-.463.793-.959,1.566-1.419,2.36a2.054,2.054,0,0,0-.14.583,2.322,2.322,0,0,0,1.353.193q5.951.011,11.9.006a10,10,0,0,1,1.21.042,1.7,1.7,0,0,1,1.428,1.7,1.678,1.678,0,0,1-1.441,1.681,11.373,11.373,0,0,1-1.32.044q-6.943,0-13.886,0c-.294,0-.588.015-.881,0a1.263,1.263,0,0,0-1.259.7c-.567.986-1.177,1.948-1.768,2.922a2.05,2.05,0,0,0-.145.3.343.343,0,0,0,.269.494c.4.035.805.051,1.208.051q20.442,0,40.885,0c.257,0,.515-.012.771,0a1.389,1.389,0,0,0,1.231-.587c.788-1.016,1.608-2.006,2.4-3.015a4.011,4.011,0,0,0,.325-.613,2.163,2.163,0,0,0-.538-.215c-.4-.035-.807-.033-1.211-.033q-8.32,0-16.641,0a12.9,12.9,0,0,1-1.321-.037,1.717,1.717,0,0,1,.015-3.4,13,13,0,0,1,1.321-.034q9.918,0,19.837,0c.331,0,.661-.012.991,0a1.3,1.3,0,0,0,1.137-.549c.652-.842,1.328-1.666,1.988-2.5A3.959,3.959,0,0,0,490.9,281.284Zm-22.155,33.671a3.807,3.807,0,0,0,.552.1c1.4.007,2.793,0,4.189.011a1.089,1.089,0,0,0,.948-.451c.2-.263.413-.516.62-.774l10.885-13.593q5.925-7.4,11.851-14.8c.276-.344.557-.684.859-1a1.693,1.693,0,0,1,2.381-.011,8.743,8.743,0,0,1,.652.746q9.924,12.385,19.846,24.773c1.194,1.491,2.4,2.976,3.575,4.479a1.466,1.466,0,0,0,1.308.64c1.174-.039,2.351-.009,3.527-.017.206,0,.449.045.584-.267a2.732,2.732,0,0,0-.7-1.049q-11.88-14.842-23.768-29.679-2.722-3.4-5.448-6.792c-.27-.335-.476-.75-.959-.923a1.633,1.633,0,0,0-.335.25q-15.167,18.918-30.323,37.843A3.185,3.185,0,0,0,468.746,314.955Zm3.614-10.547a1.442,1.442,0,0,0-.409-.214,8.748,8.748,0,0,0-.988-.042q-19.435,0-38.87,0c-.257,0-.514.011-.771.01a1.084,1.084,0,0,0-1,.555c-1.024,1.7-2.059,3.385-3.076,5.086a1.413,1.413,0,0,0-.064.519,3.981,3.981,0,0,0,1.361.105q18.885.005,37.769,0c.22,0,.441-.014.66,0a1.249,1.249,0,0,0,1.142-.517c1.319-1.671,2.656-3.326,3.981-4.993A3.244,3.244,0,0,0,472.36,304.407Zm-.324,70.094c.021-.41.05-.7.05-.993q0-4.186,0-8.373c0-.147-.011-.294,0-.441a.84.84,0,0,0-.453-.82c-.767-.43-1.522-.889-2.318-1.256a8.521,8.521,0,0,0-3.4-.817,6.2,6.2,0,0,0-3.382.776A6.823,6.823,0,0,0,460.6,364.2c-.522.661-.989,1.365-1.47,2.058-.167.24-.272.529-.459.75a1.771,1.771,0,0,1-1.835.692,9.608,9.608,0,0,0-3.712-.1,3.931,3.931,0,0,0-3.43,2.848,8.1,8.1,0,0,0-.222,3.058,1.712,1.712,0,0,0,.312,1c.9.117,19.365.192,21.625.09C471.589,374.581,471.763,374.541,472.036,374.5ZM514.3,288.451a2.543,2.543,0,0,0,.612,1.055q.855,1.079,1.723,2.149c.918,1.129.746,1.089,2.312,1.089h40.766a7.547,7.547,0,0,0,.99-.027,2.607,2.607,0,0,0,.607-.261c-.19-.356-.331-.652-.5-.929-.383-.626-.776-1.247-1.173-1.865-.963-1.5-.667-1.384-2.531-1.384q-20.494,0-40.987,0c-.4,0-.809,0-1.212.021A3.7,3.7,0,0,0,514.3,288.451ZM433.1,300.5a2.38,2.38,0,0,0,1.322.18q19.88.006,39.76,0c.257,0,.514-.009.771-.012a1.17,1.17,0,0,0,.944-.482c.89-1.122,1.787-2.238,2.67-3.364a1.246,1.246,0,0,0,.122-.4,2.056,2.056,0,0,0-1.321-.2q-20.211-.009-40.421,0c-.294,0-.587.009-.881.015a1.022,1.022,0,0,0-.9.533q-1.017,1.7-2.029,3.4C433.1,300.22,433.113,300.306,433.1,300.5Zm87.477-4.052c.284.411.455.687.655.942.567.722,1.136,1.443,1.721,2.15.946,1.145.661,1.144,2.394,1.144h39.452a8.2,8.2,0,0,0,.99-.03,1.845,1.845,0,0,0,.5-.241c-.136-.284-.227-.522-.357-.735q-.6-.988-1.229-1.96c-1.039-1.607-.668-1.5-2.692-1.5q-19.781,0-39.562,0c-.4,0-.809,0-1.211.028A3.622,3.622,0,0,0,520.573,296.446ZM471.9,378.222c-.514-.017-.986-.045-1.458-.045q-19.565,0-39.13,0c-.294,0-.589-.007-.881.013a4.639,4.639,0,0,0-.581.117,9.014,9.014,0,0,0-.168,2.731,2.922,2.922,0,0,0,.206,1.612,3.924,3.924,0,0,0,1.428.1q19.565.007,39.13,0c.294,0,.589.009.882-.006.211-.011.42-.054.606-.08A14.351,14.351,0,0,0,471.9,378.222Zm36.553-96.946a5.986,5.986,0,0,0,.362.609c.451.58.916,1.148,1.375,1.722,1.024,1.281.862,1.2,2.483,1.2q20.99,0,41.981,0a10.622,10.622,0,0,0,1.1-.035,1.638,1.638,0,0,0,.458-.191c0-.132.028-.221,0-.274q-.854-1.412-1.721-2.817a.856.856,0,0,0-.744-.4c-.477-.02-.954-.038-1.431-.038q-21.046,0-42.091,0c-.4,0-.809,0-1.21.032A2.556,2.556,0,0,0,508.452,281.276Zm-59.818,84.369a2.28,2.28,0,0,0-.155-.235.861.861,0,0,0-.166-.143,9.8,9.8,0,0,0-6.059-1.566,15.462,15.462,0,0,0-2.491.38,5.86,5.86,0,0,0-4.559,3.725,10.23,10.23,0,0,0-.353,6.053c.152.681.214.73.876.732q4.841.011,9.683,0a3.143,3.143,0,0,0,.566-.113c.012-.369.032-.691.033-1.013,0-.623-.023-1.247,0-1.87a7.91,7.91,0,0,1,2.2-5.367A5.494,5.494,0,0,0,448.635,365.645Z" transform="translate(-420.105 -271.589)"/>
    <path id="Path_1699" data-name="Path 1699" class="cls-1" d="M729.211,428.6q0-6.117,0-12.233c0-.367-.014-.737.023-1.1a1.651,1.651,0,0,1,1.587-1.534c.22-.016.441-.009.661-.009h11.241c.147,0,.294,0,.441,0a1.807,1.807,0,0,1,1.964,1.785,8.31,8.31,0,0,1,.017.881q0,12.288-.006,24.577a5.852,5.852,0,0,1-.15,1.413,1.5,1.5,0,0,1-1.512,1.206q-.44.02-.881.02-5.455,0-10.911,0c-.331,0-.661-.028-.991-.028a1.68,1.68,0,0,1-1.472-1.532c.011-.367-.011-.734-.011-1.1Q729.21,434.773,729.211,428.6Zm3.567-11.129a4.3,4.3,0,0,0-.117.59c-.023.329-.014.661-.014.992q0,9.642,0,19.285c0,.367-.008.736.021,1.1.039.493.208.654.674.705a1.957,1.957,0,0,0,.22.011c2.388,0,4.775,0,7.163-.008a3.718,3.718,0,0,0,.733-.152,2.239,2.239,0,0,0,.113-.467q.008-10.855,0-21.709a1.671,1.671,0,0,0-.1-.4c-.981-.281-3.361-.347-7.6-.212A1.606,1.606,0,0,0,732.778,417.473Z" transform="translate(-613.121 -360.342)"/>
    <path id="Path_1700" data-name="Path 1700" class="cls-1" d="M616.521,383.007q-3.525,0-7.05,0a3.085,3.085,0,0,1-1.294-.192,1.681,1.681,0,0,1-1.107-1.505c-.024-.366-.016-.734-.017-1.1-.011-3.672-.01-7.343-.037-11.015a6.354,6.354,0,0,1,1.737-4.4,9.1,9.1,0,0,1,4.672-2.754,10.9,10.9,0,0,1,2.816-.428,10.785,10.785,0,0,1,7.3,2.574,6.713,6.713,0,0,1,2.19,3.611,5.721,5.721,0,0,1,.155,1.194q.019,5.948.006,11.9A1.871,1.871,0,0,1,623.792,383C621.368,383.022,618.945,383.006,616.521,383.007Zm5.713-3.661a1.879,1.879,0,0,0,.246-1.322c.01-2.2,0-4.4,0-6.6,0-.661.009-1.321-.006-1.981a3.294,3.294,0,0,0-1.007-2.364,5.7,5.7,0,0,0-1.705-1.188,7.936,7.936,0,0,0-6.506-.058,5.358,5.358,0,0,0-2.1,1.553,2.8,2.8,0,0,0-.684,1.814c0,3.082-.008,6.163.005,9.245,0,.9.105.99,1.035.992q5.008.011,10.016,0A5.374,5.374,0,0,0,622.235,379.345Z" transform="translate(-536.819 -327.806)"/>
    <path id="Path_1701" data-name="Path 1701" class="cls-1" d="M493.818,428.564q0-6.117,0-12.233c0-.331-.01-.663.017-.991a1.651,1.651,0,0,1,1.63-1.609c.183-.012.367-.008.551-.008q5.73,0,11.461,0c1.626,0,2.26.623,2.27,2.263.016,2.608,0,5.217,0,7.825q0,8.541-.005,17.083a6.043,6.043,0,0,1-.13,1.416,1.534,1.534,0,0,1-1.57,1.278c-.293.021-.587.019-.881.019q-5.4,0-10.8,0c-.331,0-.663,0-.991-.027a1.618,1.618,0,0,1-1.541-1.571c-.027-.365-.016-.734-.017-1.1Q493.818,434.736,493.818,428.564Zm12.3-11.127a2.552,2.552,0,0,0-1.337-.232q-3.085-.007-6.171,0a6.282,6.282,0,0,0-.876.072.472.472,0,0,0-.428.436c-.036.364-.053.732-.053,1.1q0,9.863,0,19.726c0,.294-.006.589.019.881.047.539.212.687.766.731.11.009.22.009.33.009,2.241,0,4.482.009,6.722,0,1.036-.006,1.1-.079,1.1-1.157q.007-10.359,0-20.718C506.193,417.995,506.145,417.707,506.122,417.438Z" transform="translate(-466.133 -360.342)"/>
    <path id="Path_1702" data-name="Path 1702" class="cls-1" d="M615.175,508.765c0,.881,0,1.762,0,2.644a1.656,1.656,0,0,1-.91,1.525,1.683,1.683,0,0,1-2.5-1.239,1.5,1.5,0,0,1-.021-.219q0-2.7,0-5.4a1.59,1.59,0,0,1,.754-1.389,1.7,1.7,0,0,1,2.666,1.321c.057.914.011,1.835.011,2.753Z" transform="translate(-539.768 -416.957)"/>
  </g>
</svg>
