<svg id="icon_home_excel_plus" data-name="icon home excel plus" xmlns="http://www.w3.org/2000/svg" width="214.12" height="155.485" viewBox="0 0 214.12 155.485">
  <path id="Path_1698" data-name="Path 1698" d="M439.773,329.162a3.788,3.788,0,0,0-1.768-.222q-6.06-.011-12.121,0a4.214,4.214,0,0,1-1.737-.258,2.357,2.357,0,0,1-1.295-3.195,10.991,10.991,0,0,1,.722-1.3c1.994-3.311,4.065-6.577,5.958-9.946.871-1.55,1.861-3.013,2.777-4.528q8.421-13.93,16.824-27.87c.231-.381.453-.77.714-1.13a2.275,2.275,0,0,1,2.014-1.034c.542.018,1.084,0,1.626,0q31.708,0,63.415-.006c2.571,0,2.059.306,3.7-1.745q1.853-2.322,3.7-4.646c.278-.348.576-.679.861-1.022a2.412,2.412,0,0,1,3.328-.007c.249.308.511.6.758.914,1.482,1.859,2.978,3.705,4.43,5.587a2,2,0,0,0,1.878.929c.44-.041.886-.006,1.33-.006h62.677c.542,0,1.084.019,1.626,0a2.285,2.285,0,0,1,2.013,1.037c.262.36.5.74.733,1.117Q617.069,302.9,630.2,323.962c.236.378.484.751.691,1.144a2.44,2.44,0,0,1-1.843,3.792,7.2,7.2,0,0,1-1.18.036q-5.986,0-11.973,0c-.533,0-1.065.034-1.651.054a7.029,7.029,0,0,0-.187.925c-.03.5-.016.993-.016,1.49q0,44.039,0,88.079a6.688,6.688,0,0,0,.144,2.214,3.453,3.453,0,0,0,1.626.183q7.539.011,15.078,0a4.571,4.571,0,0,1,2.018.344,2.428,2.428,0,0,1,.479,3.991,2,2,0,0,1-1.2.5c-.443,0-.887.016-1.33.016q-7.982,0-15.965,0a8.331,8.331,0,0,0-2.487.232,2.628,2.628,0,0,1-1.457,0,9.22,9.22,0,0,0-2.782-.235q-67.111,0-134.222,0H423.981c-.542,0-1.085.017-1.626-.014a2.347,2.347,0,0,1-.647-4.569,4.944,4.944,0,0,1,1.439-.253c1.132-.036,2.266-.008,3.4-.014.487,0,.974-.026,1.353-.036a1.318,1.318,0,0,0,.384-1.2c.012-1.639.007-3.278.007-4.918,0-.6,0-1.192,0-1.788.024-2.118.953-3.048,3.09-3.08.838-.012,1.676,0,2.513-.006.338,0,.676-.044,1.063-.072a4.225,4.225,0,0,0-.024-2.063,17.581,17.581,0,0,1,1.8-10.392,11.584,11.584,0,0,1,2.433-3.164,1.826,1.826,0,0,0,.656-1.573c-.027-.345,0-.7,0-1.043q0-30.627,0-61.252C439.819,330.606,439.79,329.917,439.773,329.162Zm123.678-13.176c.252.4.43.745.665,1.045,1.531,1.945,3.063,3.89,4.618,5.817,1.131,1.4.918,1.25,2.6,1.251q8.8.01,17.591,0c.395,0,.79-.016,1.183.013a2.252,2.252,0,0,1,2.078,1.8,2.292,2.292,0,0,1-1.29,2.714,4.382,4.382,0,0,1-1.875.315q-6.5-.017-13.008-.006c-.443,0-.888-.007-1.33.011-.233.01-.5-.024-.616.268a.771.771,0,0,0,.046.286c.216.331.447.651.676.974a11.354,11.354,0,0,1,.854,1.211,2.374,2.374,0,0,1-1.76,3.5,7.22,7.22,0,0,1-1.034.024c-2.316,0-4.631,0-6.947.006a2.513,2.513,0,0,0-1.44.189,3.476,3.476,0,0,0-.284,2.032q-.012,14.977-.008,29.955a17.865,17.865,0,0,1-.047,1.786,2.277,2.277,0,0,1-2.284,2.089,2.345,2.345,0,0,1-2.276-2.125c-.052-.542-.031-1.092-.031-1.638q0-15.276.016-30.552a4.253,4.253,0,0,0-.989-2.848q-12.277-15.382-24.5-30.809-2.957-3.722-5.918-7.441c-.327-.409-.6-.9-1.118-1.054A3.717,3.717,0,0,0,525.825,296c-1.057,1.31-2.1,2.635-3.143,3.953q-13.355,16.8-26.7,33.612c-1.651,2.083-1.377,1.2-1.378,4.025q-.011,40.834,0,81.669c0,.546-.013,1.094.016,1.639a5.849,5.849,0,0,0,.168.85,3.774,3.774,0,0,0,.632.118q6.356.01,12.712,0a3.406,3.406,0,0,0,.618-.126,5.048,5.048,0,0,0,.2-.851c.036-.544.023-1.092.023-1.638q0-24.516,0-49.032c0-.6.024-1.192.02-1.788A2.265,2.265,0,0,1,511,366.4c.492.008.985-.03,1.477-.03q14.783,0,29.564,0c.394,0,.789.029,1.182.009a2.234,2.234,0,0,1,2.311,2.355c-.011.6.011,1.192.011,1.788q0,24.217,0,48.435c0,.546-.019,1.094.015,1.639a10.7,10.7,0,0,0,.179,1.117,131.865,131.865,0,0,0,13.561.016,4.56,4.56,0,0,0,.2-.809c.039-.494.025-.993.025-1.49q0-17.809,0-35.618c0-.546-.02-1.1.027-1.639a2.189,2.189,0,0,1,2.275-2.067,2.129,2.129,0,0,1,2.294,2.024,17.775,17.775,0,0,1,.044,1.786q0,17.66,0,35.321c0,.5-.016,1,.021,1.489a7.568,7.568,0,0,0,.19.97,3.736,3.736,0,0,0,1.807.189q20.546.011,41.094.005c.345,0,.692.019,1.034-.012a8.068,8.068,0,0,0,.9-.191c.016-.7.042-1.335.042-1.974q0-44.263,0-88.525c0-.447.019-.9-.017-1.341a6.081,6.081,0,0,0-.224-.909H607.5c-1.774,0-3.548-.01-5.322.005a4.1,4.1,0,0,1-1.73-.3,2.28,2.28,0,0,1-1.311-2.7,2.246,2.246,0,0,1,2.057-1.822c.441-.034.886-.014,1.33-.014q10.052,0,20.1-.007a3.069,3.069,0,0,0,1.573-.154c.23-.469-.074-.788-.274-1.112q-1.676-2.721-3.377-5.427c-1.168-1.865-.9-1.789-3.151-1.789q-25.868,0-51.737,0a13.753,13.753,0,0,0-1.475.051A2.984,2.984,0,0,0,563.451,315.985ZM444.781,391.97a8.6,8.6,0,0,0,1.035-.107,21.634,21.634,0,0,1,7.493-.334,16.224,16.224,0,0,1,9.015,4.1,5.812,5.812,0,0,0,.663.591,1.64,1.64,0,0,0,.785.332q2.217.025,4.433-.049a1.269,1.269,0,0,0,.759-.371,6.62,6.62,0,0,0,.7-.955,16.888,16.888,0,0,1,2.651-3,12.958,12.958,0,0,1,11.376-3.185,21.363,21.363,0,0,1,4.642,1.428c.392.167.764.491,1.331.272a3.876,3.876,0,0,0,.148-1.691q.008-25.932,0-51.863c0-.3.013-.6-.012-.894s-.086-.566-.13-.841a3.645,3.645,0,0,0-1.668-.2c-2.562-.009-5.124-.014-7.687,0a2.462,2.462,0,0,1-2.4-1.409,2.342,2.342,0,0,1,.39-2.633c.354-.477.744-.927,1.082-1.415a3.189,3.189,0,0,0,.246-.78c-.71-.013-1.295-.034-1.879-.034q-15.521,0-31.042,0c-.394,0-.79-.019-1.182.013a6.848,6.848,0,0,0-.892.2c-.015.747-.041,1.437-.041,2.126q0,29.21,0,58.42c0,.5-.009.994.017,1.49A5.67,5.67,0,0,0,444.781,391.97Zm69.032,29.877c.667.015,1.2.038,1.74.038q11.668,0,23.337,0c.345,0,.691.018,1.034-.012a8.4,8.4,0,0,0,.9-.182c.033-.551.087-1.037.087-1.523q.007-23.678,0-47.355c0-.347-.013-.695-.041-1.04a.7.7,0,0,0-.655-.69,13.294,13.294,0,0,0-1.473-.063q-11.521,0-23.042,0c-.394,0-.789-.008-1.181.025-.633.054-.86.282-.913.943-.039.494-.029.992-.029,1.488q0,23.007,0,46.015c0,.446-.011.895.023,1.34A8.9,8.9,0,0,0,513.813,421.848ZM515.046,284.7a4.052,4.052,0,0,0-2.166-.31q-28.818-.01-57.637,0c-.443,0-.886.019-1.329.029a1.465,1.465,0,0,0-1.316.8c-.621,1.072-1.286,2.117-1.9,3.191a2.8,2.8,0,0,0-.187.788,3.091,3.091,0,0,0,1.815.26q7.981.015,15.961.009a13.307,13.307,0,0,1,1.623.056,2.3,2.3,0,0,1,1.915,2.3,2.264,2.264,0,0,1-1.933,2.273,15.113,15.113,0,0,1-1.77.059q-9.31.005-18.621,0c-.394,0-.789.02-1.182,0a1.691,1.691,0,0,0-1.689.952c-.761,1.333-1.579,2.634-2.371,3.95a2.787,2.787,0,0,0-.195.4.464.464,0,0,0,.361.668c.538.048,1.08.069,1.62.069q27.414.005,54.829,0c.345,0,.69-.016,1.035,0a1.857,1.857,0,0,0,1.65-.794c1.057-1.373,2.157-2.712,3.224-4.077a5.437,5.437,0,0,0,.436-.829,2.887,2.887,0,0,0-.722-.291c-.538-.048-1.082-.045-1.624-.045q-11.158,0-22.316,0a17.179,17.179,0,0,1-1.771-.05,2.324,2.324,0,0,1,.021-4.591,17.281,17.281,0,0,1,1.771-.046q13.3,0,26.6,0c.443,0,.887-.016,1.33,0a1.743,1.743,0,0,0,1.525-.742c.874-1.139,1.781-2.252,2.666-3.382A5.344,5.344,0,0,0,515.046,284.7Zm-29.71,45.524a5.041,5.041,0,0,0,.74.141c1.872.009,3.745,0,5.617.015a1.457,1.457,0,0,0,1.272-.609c.267-.356.554-.7.831-1.046l14.6-18.378q7.946-10,15.893-20c.37-.465.747-.925,1.151-1.358a2.258,2.258,0,0,1,3.193-.015,11.8,11.8,0,0,1,.874,1.008q13.309,16.745,26.614,33.494c1.6,2.016,3.213,4.024,4.795,6.056a1.96,1.96,0,0,0,1.754.865c1.575-.053,3.153-.012,4.73-.023.276,0,.6.061.784-.36a3.7,3.7,0,0,0-.935-1.418q-15.932-20.067-31.874-40.127-3.65-4.594-7.307-9.183c-.362-.452-.639-1.014-1.286-1.248a2.195,2.195,0,0,0-.449.338q-20.34,25.578-40.664,51.166A4.315,4.315,0,0,0,485.336,330.221Zm4.846-14.26a1.927,1.927,0,0,0-.549-.289,11.638,11.638,0,0,0-1.325-.057q-26.064,0-52.127,0c-.344,0-.689.015-1.034.013a1.451,1.451,0,0,0-1.347.751c-1.373,2.293-2.762,4.577-4.124,6.877a1.921,1.921,0,0,0-.086.7,5.3,5.3,0,0,0,1.826.142q25.325.007,50.65,0c.3,0,.592-.019.885,0a1.669,1.669,0,0,0,1.532-.7c1.769-2.259,3.562-4.5,5.338-6.75A4.4,4.4,0,0,0,490.182,315.961Zm-.435,94.77c.029-.555.067-.949.067-1.343q.007-5.66,0-11.321c0-.2-.015-.4-.006-.6a1.137,1.137,0,0,0-.607-1.108c-1.028-.582-2.041-1.2-3.108-1.7a11.355,11.355,0,0,0-4.555-1.1A8.254,8.254,0,0,0,477,394.608a9.17,9.17,0,0,0-2.59,2.19c-.7.893-1.326,1.846-1.971,2.782-.224.325-.365.715-.615,1.014a2.366,2.366,0,0,1-2.46.936,12.781,12.781,0,0,0-4.978-.135c-2.242.425-3.949,1.51-4.6,3.85a11.036,11.036,0,0,0-.3,4.135,2.329,2.329,0,0,0,.419,1.348c1.208.158,25.969.259,29,.121C489.148,410.838,489.381,410.784,489.747,410.731Zm56.676-116.344a3.441,3.441,0,0,0,.821,1.426q1.146,1.459,2.31,2.905c1.231,1.526,1,1.472,3.1,1.472h54.67a10.053,10.053,0,0,0,1.327-.037,3.482,3.482,0,0,0,.813-.352c-.255-.481-.444-.881-.671-1.256-.514-.847-1.041-1.685-1.573-2.521-1.291-2.029-.894-1.872-3.394-1.872q-27.483,0-54.965,0c-.542,0-1.084,0-1.625.029A4.939,4.939,0,0,0,546.423,294.387Zm-108.9,16.287a3.169,3.169,0,0,0,1.772.243q26.66.008,53.32,0c.345,0,.689-.012,1.034-.016a1.564,1.564,0,0,0,1.266-.651c1.193-1.517,2.4-3.025,3.581-4.548a1.693,1.693,0,0,0,.163-.544,2.737,2.737,0,0,0-1.771-.275q-27.1-.012-54.207-.006c-.394,0-.787.013-1.181.021a1.37,1.37,0,0,0-1.212.721q-1.363,2.3-2.721,4.6C437.526,310.3,437.549,310.416,437.526,310.674Zm117.31-5.478c.381.555.61.929.878,1.273.76.977,1.524,1.951,2.308,2.908,1.269,1.548.886,1.546,3.211,1.546l52.906,0a10.9,10.9,0,0,0,1.328-.04,2.469,2.469,0,0,0,.668-.326c-.183-.384-.3-.705-.479-.994q-.807-1.335-1.648-2.65c-1.393-2.172-.9-2.027-3.61-2.028q-26.527-.005-53.054,0c-.542,0-1.085,0-1.624.038A4.839,4.839,0,0,0,554.836,305.2ZM489.563,415.761c-.69-.023-1.322-.061-1.955-.061q-26.237-.005-52.476,0c-.394,0-.789-.009-1.182.018a6.187,6.187,0,0,0-.779.158,12.286,12.286,0,0,0-.225,3.693,3.981,3.981,0,0,0,.276,2.179,5.222,5.222,0,0,0,1.915.136q26.238.009,52.476,0c.394,0,.789.012,1.182-.009.283-.015.563-.073.812-.108A19.562,19.562,0,0,0,489.563,415.761Zm49.02-131.076a8.14,8.14,0,0,0,.485.824c.6.784,1.228,1.553,1.844,2.328,1.373,1.732,1.156,1.621,3.329,1.621q28.149,0,56.3,0a14.138,14.138,0,0,0,1.475-.048,2.186,2.186,0,0,0,.615-.258c0-.179.037-.3-.006-.37q-1.145-1.91-2.308-3.808a1.146,1.146,0,0,0-1-.539c-.639-.027-1.279-.052-1.919-.052q-28.223,0-56.445,0c-.541,0-1.084,0-1.623.044A3.411,3.411,0,0,0,538.583,284.686Zm-80.218,114.07a3.082,3.082,0,0,0-.209-.318,1.161,1.161,0,0,0-.223-.194,13.059,13.059,0,0,0-8.125-2.117,20.57,20.57,0,0,0-3.34.513,7.874,7.874,0,0,0-6.113,5.037,13.937,13.937,0,0,0-.473,8.183c.2.921.287.987,1.175.989q6.492.015,12.986-.006a4.18,4.18,0,0,0,.758-.153c.017-.5.042-.934.044-1.37,0-.843-.031-1.686,0-2.528a10.741,10.741,0,0,1,2.946-7.257A7.433,7.433,0,0,0,458.365,398.756Z" transform="translate(-420.105 -271.589)" fill="teal"/>
  <path id="Path_1699" data-name="Path 1699" d="M729.211,433.84q0-8.27,0-16.54c0-.5-.018-1,.031-1.489a2.223,2.223,0,0,1,2.129-2.074c.294-.021.591-.013.887-.013h15.075c.2,0,.394,0,.591,0a2.43,2.43,0,0,1,2.633,2.413,11.277,11.277,0,0,1,.023,1.191q0,16.614-.007,33.229a7.981,7.981,0,0,1-.2,1.91,2.02,2.02,0,0,1-2.028,1.631q-.59.027-1.182.027-7.316,0-14.631,0c-.443,0-.886-.038-1.329-.038a2.264,2.264,0,0,1-1.974-2.072c.014-.5-.016-.993-.016-1.489Q729.21,442.184,729.211,433.84Zm4.784-15.047a5.851,5.851,0,0,0-.157.8c-.031.445-.018.894-.018,1.341q0,13.037,0,26.074c0,.5-.011.995.028,1.489.052.666.279.885.9.954a2.624,2.624,0,0,0,.3.015c3.2,0,6.4.006,9.606-.011a4.937,4.937,0,0,0,.983-.206,3.041,3.041,0,0,0,.151-.631q.011-14.676,0-29.352a2.283,2.283,0,0,0-.13-.544c-1.315-.38-4.507-.469-10.193-.287A2.141,2.141,0,0,0,733.995,418.793Z" transform="translate(-573.529 -341.55)" fill="teal"/>
  <path id="Path_1700" data-name="Path 1700" d="M619.763,390.536q-4.727,0-9.455,0a4.108,4.108,0,0,1-1.735-.259,2.271,2.271,0,0,1-1.484-2.035c-.033-.495-.021-.992-.023-1.489-.016-4.964-.013-9.928-.05-14.892a8.629,8.629,0,0,1,2.329-5.943,12.185,12.185,0,0,1,6.266-3.724,14.652,14.652,0,0,1,13.572,2.9,9.087,9.087,0,0,1,2.936,4.883,7.781,7.781,0,0,1,.208,1.614q.025,8.042.008,16.085a2.52,2.52,0,0,1-2.823,2.847C626.263,390.557,623.013,390.536,619.763,390.536Zm7.661-4.95a2.557,2.557,0,0,0,.33-1.787c.013-2.976.007-5.952.006-8.928,0-.893.012-1.786-.008-2.678a4.472,4.472,0,0,0-1.35-3.2,7.646,7.646,0,0,0-2.287-1.606,10.563,10.563,0,0,0-8.724-.078,7.19,7.19,0,0,0-2.821,2.1,3.8,3.8,0,0,0-.918,2.453c0,4.166-.01,8.333.007,12.5,0,1.22.141,1.338,1.389,1.342q6.716.015,13.431,0A7.167,7.167,0,0,0,627.425,385.586Z" transform="translate(-512.879 -315.903)" fill="teal"/>
  <path id="Path_1701" data-name="Path 1701" d="M493.819,433.79q0-8.27,0-16.54c0-.447-.014-.9.023-1.34a2.223,2.223,0,0,1,2.186-2.176c.245-.016.493-.01.739-.01q7.685,0,15.37,0c2.18,0,3.031.843,3.044,3.059.022,3.526.007,7.053.007,10.579q0,11.548-.007,23.1a8.246,8.246,0,0,1-.174,1.915A2.062,2.062,0,0,1,512.9,454.1c-.392.029-.788.025-1.182.025q-7.242,0-14.484,0c-.443,0-.889.006-1.329-.036a2.179,2.179,0,0,1-2.067-2.124c-.037-.494-.022-.993-.022-1.489Q493.818,442.134,493.819,433.79Zm16.5-15.044a3.4,3.4,0,0,0-1.793-.314q-4.137-.009-8.276,0a8.387,8.387,0,0,0-1.174.1.635.635,0,0,0-.574.589c-.048.493-.071.99-.072,1.485q-.005,13.335,0,26.67c0,.4-.009.8.025,1.191.064.729.284.929,1.027.989.147.012.3.013.443.013,3.005,0,6.01.013,9.015,0,1.39-.008,1.478-.107,1.478-1.564q.01-14.006,0-28.011C510.414,419.5,510.35,419.11,510.318,418.746Z" transform="translate(-456.692 -341.55)" fill="teal"/>
  <path id="Path_1702" data-name="Path 1702" d="M616.347,510.306c0,1.191,0,2.382,0,3.574a2.3,2.3,0,0,1-4.576.387,1.987,1.987,0,0,1-.029-.3q0-3.648,0-7.3a2.155,2.155,0,0,1,1.011-1.878,2.276,2.276,0,0,1,3.575,1.786c.077,1.236.015,2.482.015,3.723Z" transform="translate(-515.222 -386.178)" fill="teal"/>
</svg>
