<svg id="icon_cocogen_offices" data-name="icon cocogen offices" xmlns="http://www.w3.org/2000/svg" width="121.863" height="122.712" viewBox="0 0 121.863 122.712">
  <defs>
    <style>
      .cls-1 {
        fill: #e4509a;
      }
    </style>
  </defs>
  <path id="Path_1716" data-name="Path 1716" class="cls-1" d="M804.644,206.959a.983.983,0,0,0-.183-1.022c-.74-1.3-1.5-2.582-2.232-3.885a141.145,141.145,0,0,1-11.5-26.308A84.131,84.131,0,0,1,788.345,167a30.379,30.379,0,0,1-.637-4.781c-.022-.55-.077-1.1-.115-1.647-.019-.274-.05-.549-.048-.824a30.742,30.742,0,0,1,7.3-20.193A37.387,37.387,0,0,1,815.066,127.3a27.9,27.9,0,0,1,5.721-.712,23.826,23.826,0,0,1,3.645.222,43.347,43.347,0,0,1,6.926,1.364,32.288,32.288,0,0,1,15.466,9.493,30.989,30.989,0,0,1,6.831,13.031,36.427,36.427,0,0,1,1.22,9.2c0,1.73.049,3.467-.089,5.187A62.718,62.718,0,0,1,853.3,174.5,95.325,95.325,0,0,1,845.54,195.2c-1.777,3.552-3.714,7.015-5.773,10.412a1.952,1.952,0,0,0-.5,1.233,2.892,2.892,0,0,0,.537.134c.392.022.786.013,1.179.013h24.064c.354,0,.708,0,1.062,0a1.923,1.923,0,0,1,1.841,1.236c.266.612.49,1.242.727,1.866q6.775,17.848,13.549,35.7a10.258,10.258,0,0,1,.364,1,1.881,1.881,0,0,1-1.864,2.494c-.314.015-.629.005-.944.005H763.715c-.393,0-.789.021-1.179-.015a1.762,1.762,0,0,1-1.711-1.986,4.833,4.833,0,0,1,.37-1.351q2.946-7.453,5.915-14.9,4.4-11.061,8.794-22.121c.667-1.679,1.024-1.928,2.791-1.928q12.268,0,24.535,0C803.7,206.99,804.162,206.97,804.644,206.959Zm17.289,16.952a4.07,4.07,0,0,0,1.2-1.182,172.425,172.425,0,0,0,15.934-23.34,113.387,113.387,0,0,0,8.262-17.832,65.4,65.4,0,0,0,3.8-17.671,38.137,38.137,0,0,0-1.191-12.611,27,27,0,0,0-6.985-12.245A28.347,28.347,0,0,0,832,132.311a37.622,37.622,0,0,0-7.8-1.738,22.049,22.049,0,0,0-7.038.126,33.554,33.554,0,0,0-19.342,11.132,26.29,26.29,0,0,0-6.406,15.283,31.635,31.635,0,0,0,.784,10.062,110.735,110.735,0,0,0,3.342,11.163,142.794,142.794,0,0,0,12.908,26.941,147.014,147.014,0,0,0,12.424,17.469C821.2,223.137,821.554,223.5,821.933,223.91ZM807.561,237.5c-.263-.373-.5-.729-.757-1.067q-9.33-12.233-18.665-24.462c-.191-.25-.4-.488-.578-.745a1.273,1.273,0,0,0-1.113-.549c-.275,0-.55-.008-.825-.008h-4.716c-1.917,0-1.69.021-2.3,1.549q-5.791,14.557-11.568,29.119-.631,1.588-1.264,3.174a.931.931,0,0,0-.059.906,2.407,2.407,0,0,0,1.369.184c5.934.006,11.869,0,17.8.011a6.8,6.8,0,0,0,2.418-.425c2.576-.956,5.161-1.89,7.743-2.832q5.642-2.06,11.284-4.125A2.079,2.079,0,0,0,807.561,237.5Zm59.279-21.4c-.118-.433-.177-.736-.282-1.023-.352-.958-.709-1.915-1.084-2.865-.575-1.456-.313-1.508-2.192-1.508q-12.561,0-25.121,0c-1.861,0-1.607-.006-2.548,1.4q-4.469,6.665-9.506,12.909c-.84,1.04-1.717,2.049-2.57,3.077a1.917,1.917,0,0,1-2.906.057c-.446-.5-.906-.983-1.342-1.489a144.881,144.881,0,0,1-11.044-14.7c-.792-1.2-.556-1.291-2.365-1.288h-.118q-5.956,0-11.912,0a8.941,8.941,0,0,0-1.059.039,1.866,1.866,0,0,0-.5.216,2.214,2.214,0,0,0,.65,1.162q6.755,8.864,13.519,17.72c1.383,1.812,2.773,3.62,4.151,5.436.959,1.264.854,1.1,2.228.619,1.407-.5,2.806-1.017,4.208-1.529q24.127-8.806,48.253-17.615C865.775,216.547,866.238,216.343,866.84,216.1Zm-9.029,29.3c-.051-.623-.484-.947-.791-1.327q-5.855-7.246-11.728-14.477c-1.056-1.305-.85-1.266-2.417-.694l-34.416,12.566q-4.537,1.656-9.077,3.305c-.322.117-.692.158-.9.591a1.942,1.942,0,0,0,.521.212c.43.037.863.034,1.3.034q27.832,0,55.664,0c.432,0,.865,0,1.3-.031A2.482,2.482,0,0,0,857.811,245.4Zm10.429-25.522a1.639,1.639,0,0,0-1.187.2c-1.482.522-2.953,1.074-4.429,1.612q-6.586,2.4-13.172,4.805c-.393.144-.852.2-1.138.644a3.333,3.333,0,0,0,.824,1.234q6.524,8.071,13.059,16.134c.173.214.356.419.53.632a1.207,1.207,0,0,0,.925.446c.235.011.471.019.707.02q6.133,0,12.267,0a3.438,3.438,0,0,0,.588-.02,5.278,5.278,0,0,0,.616-.178,2.1,2.1,0,0,0-.292-1.419q-2.518-6.669-5.06-13.329c-1.2-3.158-2.39-6.319-3.6-9.474A3.225,3.225,0,0,0,868.24,219.877Z" transform="translate(-760.817 -126.583)"/>
  <path id="Path_1717" data-name="Path 1717" class="cls-1" d="M917.157,205.839c.24-5.5,2.473-9.571,6.8-12.452A14.527,14.527,0,0,1,930.9,191a15.077,15.077,0,0,1,13.477,5.542,13.719,13.719,0,0,1,3.143,7.49,14.7,14.7,0,0,1-10.473,15.594,14.928,14.928,0,0,1-4.405.707,15.1,15.1,0,0,1-15.123-11.756C917.306,207.581,917.249,206.555,917.157,205.839Zm14.187-11.213a10.865,10.865,0,0,0-5.412,1.937,10.649,10.649,0,0,0-2.255,16.114,11.223,11.223,0,0,0,8.42,3.874,11.393,11.393,0,0,0,7.384-2.321,10.624,10.624,0,0,0,1.027-16.381C938.272,195.725,935.59,194.673,931.344,194.626Z" transform="translate(-871.154 -171.994)"/>
</svg>
