<svg id="icon_parcel_protect" data-name="icon parcel protect" xmlns="http://www.w3.org/2000/svg" width="107.366" height="115" viewBox="0 0 107.366 115">
  <defs>
    <style>
      .cls-1 {
        fill: #e4509a;
      }
    </style>
  </defs>
  <path id="Path_1695" data-name="Path 1695" class="cls-1" d="M1403.458,328.8c0,9.73-.021,19.461.025,29.192a2.723,2.723,0,0,1-1.733,2.8q-25.372,12.382-50.712,24.827a4.683,4.683,0,0,1-1.01.4,2.5,2.5,0,0,1-1.678-.321q-4.995-2.465-10-4.9-19.72-9.643-39.44-19.287c-.36-.176-.724-.347-1.065-.556a1.473,1.473,0,0,1-.755-1.255c-.017-.51-.029-1.02-.029-1.53q0-28.317-.008-56.634c0-.761-.07-1.524-.14-2.284a2.692,2.692,0,0,1,.348-1.679,1.5,1.5,0,0,1,1.2-.839,4.365,4.365,0,0,0,1.637-.573q10-4.914,20-9.825,14.118-6.93,28.24-13.855c1.589-.78,1.6-.776,3.155-.025l45.939,22.164q2.212,1.067,4.425,2.135c.229.111.459.222.68.349a1.772,1.772,0,0,1,.915,1.519c.022.363.009.729.009,1.093Q1403.459,314.255,1403.458,328.8Zm-102.839-27.268a3.451,3.451,0,0,0-.142,1.469q-.006,26.948,0,53.9c0,1.613-.163,1.406,1.317,2.133q8.433,4.137,16.875,8.255,14.029,6.862,28.059,13.724a3.024,3.024,0,0,0,1.265.462,1.636,1.636,0,0,0,.2-.466c.037-.4.037-.8.037-1.2q0-26.4,0-52.8c0-.255-.019-.512,0-.765a1.285,1.285,0,0,0-.835-1.374c-1.049-.507-2.072-1.067-3.1-1.613a4.479,4.479,0,0,1-.74-.459,1.74,1.74,0,0,1-.386-2.266,1.721,1.721,0,0,1,2.1-.7,7.564,7.564,0,0,1,.785.383c1.065.556,2.135,1.1,3.189,1.68a1.353,1.353,0,0,0,1.444.027c.251-.147.521-.26.783-.389q4.85-2.388,9.7-4.775a7.282,7.282,0,0,1,1-.438,1.659,1.659,0,0,1,.748-.062,1.746,1.746,0,0,1,1.4,1.373,1.71,1.71,0,0,1-.742,1.81,8.383,8.383,0,0,1-.962.515q-4.752,2.341-9.5,4.678c-.327.161-.649.329-.972.5a.768.768,0,0,0-.448.7c-.009.328-.018.656-.018.983q0,26.457,0,52.913c0,.328,0,.656.021.983a2.008,2.008,0,0,0,.128.422c.506.108.862-.193,1.24-.378q22.852-11.193,45.7-22.394c.261-.128.519-.264.779-.4a.778.778,0,0,0,.461-.69c.021-.436.034-.874.034-1.311q0-26.238,0-52.476c0-.4,0-.8-.028-1.2a3.045,3.045,0,0,0-.174-.6,2.217,2.217,0,0,0-1.273.4q-5.966,2.84-11.923,5.7c-1.327.638-1.293.437-1.293,2.038q0,9.129,0,18.257c0,.364-.006.729-.01,1.093a1.668,1.668,0,0,1-.852,1.437,4.952,4.952,0,0,1-.685.336q-6.249,2.739-12.5,5.474a7.182,7.182,0,0,1-.806.337,1.7,1.7,0,0,1-2.291-1.608c-.021-.327-.009-.656-.009-.984q0-8.964,0-17.929c0-1.586.14-1.392-1.337-2.125q-9.2-4.567-18.4-9.124-13.845-6.861-27.691-13.719c-.293-.145-.6-.272-.883-.429a.947.947,0,0,0-.937-.018c-.293.146-.59.284-.885.428q-2.989,1.466-5.979,2.932-3.873,1.9-7.743,3.811c-.311.154-.688.237-.89.663a2.3,2.3,0,0,0,1.048.687q10.676,5.385,21.358,10.76,5.855,2.948,11.71,5.9a7.258,7.258,0,0,1,1.039.6,1.747,1.747,0,0,1-.174,2.8,1.964,1.964,0,0,1-1.689.085,7.227,7.227,0,0,1-.884-.427q-11.557-5.825-23.113-11.65-5.413-2.727-10.83-5.442A2.207,2.207,0,0,0,1300.619,301.528Zm96.684-2.9c-.1-.123-.15-.235-.233-.276q-23.525-11.415-47.025-22.707c-1.418.5-12.028,5.755-12.7,6.276.113.419.51.482.824.636q4.12,2.016,8.245,4.022,18.265,8.888,36.531,17.773.442.215.887.425a1.1,1.1,0,0,0,.951,0c.167-.074.332-.151.5-.23l10.639-5.09c.361-.173.724-.342,1.075-.532A1.635,1.635,0,0,0,1397.3,298.626Zm-73.749-9.949c.545.3.885.5,1.238.673q2.736,1.363,5.476,2.715l38.532,19.1c.261.129.521.26.784.385a1.056,1.056,0,0,0,.947.022l.69-.329,6.8-3.243c.492-.235.988-.464,1.472-.716a2.819,2.819,0,0,0,.442-.38,4.27,4.27,0,0,0-.48-.362c-.353-.19-.715-.36-1.075-.535l-30.136-14.651c-4.778-2.323-9.56-4.637-14.325-6.984a1.954,1.954,0,0,0-1.941.005c-2.5,1.27-5.022,2.481-7.533,3.723C1324.192,288.225,1323.97,288.4,1323.553,288.677Zm48.239,43.48a1.919,1.919,0,0,0,1.2-.316q3.805-1.652,7.6-3.331c1.341-.59,1.331-.448,1.331-2q0-7.433,0-14.866a5.642,5.642,0,0,0-.018-.764,3.508,3.508,0,0,0-.185-.59,2.471,2.471,0,0,0-1.182.383c-1.876.886-3.745,1.785-5.616,2.681-.886.424-1.765.866-2.661,1.271a1.019,1.019,0,0,0-.66,1.024c0,.255-.009.51-.009.765q0,2.951,0,5.9,0,4.318,0,8.635A1.852,1.852,0,0,0,1371.792,332.157Z" transform="translate(-1296.895 -271.893)"/>
  <path id="Path_1696" data-name="Path 1696" class="cls-1" d="M1317.063,454.171a2.258,2.258,0,0,1,1.2.326q2.512,1.237,5.028,2.468,4.089,2.01,8.178,4.022a6.851,6.851,0,0,1,.777.408,1.749,1.749,0,0,1-1.55,3.119,5.5,5.5,0,0,1-.6-.276q-6.655-3.261-13.308-6.527a3.652,3.652,0,0,1-.841-.511,1.726,1.726,0,0,1,.041-2.688A1.411,1.411,0,0,1,1317.063,454.171Z" transform="translate(-1308.408 -385.77)"/>
  <path id="Path_1697" data-name="Path 1697" class="cls-1" d="M1326.593,480.872c.024,1.372-1.38,2.32-2.339,1.8-.223-.122-.472-.2-.7-.308-1.869-.916-3.739-1.829-5.6-2.761a3.84,3.84,0,0,1-1-.658,1.684,1.684,0,0,1-.188-2.119,1.709,1.709,0,0,1,2.1-.679c.256.139.532.242.794.37q2.658,1.3,5.313,2.609a6.264,6.264,0,0,1,.859.481A1.789,1.789,0,0,1,1326.593,480.872Z" transform="translate(-1309.132 -399.407)"/>
</svg>
