<svg id="icon_parcel_protect" data-name="icon parcel protect" xmlns="http://www.w3.org/2000/svg" width="178.661" height="191.143" viewBox="0 0 178.661 191.143">
  <path id="Path_1695" data-name="Path 1695" d="M1475.514,367.162c0,16.291-.036,32.583.041,48.873a4.557,4.557,0,0,1-2.9,4.7q-42.528,20.73-85,41.566a7.846,7.846,0,0,1-1.692.665,4.191,4.191,0,0,1-2.813-.538q-8.372-4.127-16.768-8.205-33.055-16.145-66.109-32.291c-.6-.294-1.214-.581-1.785-.93a2.467,2.467,0,0,1-1.266-2.1c-.027-.853-.049-1.707-.049-2.561q0-47.41-.013-94.818c0-1.275-.117-2.552-.235-3.823a4.5,4.5,0,0,1,.583-2.812,2.507,2.507,0,0,1,2.016-1.4,7.321,7.321,0,0,0,2.744-.959q16.758-8.228,33.52-16.449,23.665-11.6,47.334-23.2c2.663-1.305,2.679-1.3,5.288-.042l77,37.107q3.709,1.787,7.418,3.574c.385.186.77.371,1.141.584a2.966,2.966,0,0,1,1.534,2.544c.037.608.016,1.22.016,1.83Q1475.515,342.817,1475.514,367.162Zm-172.378-45.653a5.775,5.775,0,0,0-.239,2.459q-.01,45.118,0,90.235c0,2.7-.274,2.354,2.208,3.57q14.135,6.926,28.285,13.821,23.515,11.489,47.031,22.977a5.068,5.068,0,0,0,2.121.774,2.755,2.755,0,0,0,.327-.78c.062-.666.061-1.34.061-2.01q0-44.2,0-88.4c0-.427-.032-.857,0-1.281a2.151,2.151,0,0,0-1.4-2.3c-1.758-.848-3.472-1.786-5.2-2.7a7.5,7.5,0,0,1-1.241-.769,2.9,2.9,0,0,1,2.868-4.961,12.665,12.665,0,0,1,1.316.64c1.785.931,3.579,1.846,5.345,2.813a2.271,2.271,0,0,0,2.421.045c.42-.246.874-.435,1.312-.651q8.13-4,16.263-7.994a12.189,12.189,0,0,1,1.673-.733,2.784,2.784,0,0,1,1.253-.1,2.925,2.925,0,0,1,2.339,2.3,2.862,2.862,0,0,1-1.243,3.03,14.058,14.058,0,0,1-1.612.862q-7.965,3.92-15.932,7.833c-.548.269-1.088.551-1.629.833a1.285,1.285,0,0,0-.752,1.166c-.015.549-.029,1.1-.029,1.646q0,44.294,0,88.588c0,.549,0,1.1.035,1.646a3.355,3.355,0,0,0,.215.707c.849.181,1.444-.323,2.077-.632q38.3-18.739,76.6-37.493c.438-.215.87-.442,1.306-.662a1.3,1.3,0,0,0,.773-1.156c.034-.73.057-1.462.057-2.194q0-43.928,0-87.856c0-.67.008-1.344-.047-2.011a5.086,5.086,0,0,0-.291-1,3.719,3.719,0,0,0-2.133.671q-10,4.755-19.986,9.538c-2.223,1.068-2.167.731-2.167,3.412q0,15.283,0,30.567c0,.61-.009,1.22-.017,1.83a2.793,2.793,0,0,1-1.428,2.406,8.312,8.312,0,0,1-1.149.563q-10.475,4.586-20.953,9.164a12.034,12.034,0,0,1-1.351.564,2.853,2.853,0,0,1-3.84-2.692c-.034-.548-.014-1.1-.014-1.647q0-15.008,0-30.017c0-2.655.234-2.33-2.241-3.557q-15.415-7.646-30.839-15.275-23.206-11.487-46.415-22.969c-.492-.243-1-.456-1.479-.718a1.59,1.59,0,0,0-1.572-.031c-.491.245-.99.476-1.483.717q-5.011,2.454-10.021,4.91-6.493,3.184-12.979,6.38c-.521.258-1.154.4-1.492,1.11a3.862,3.862,0,0,0,1.756,1.151q17.9,9.016,35.8,18.015,9.815,4.936,19.628,9.873a12.2,12.2,0,0,1,1.742,1,2.923,2.923,0,0,1-.292,4.694,3.3,3.3,0,0,1-2.831.143,12.144,12.144,0,0,1-1.482-.714q-19.371-9.752-38.741-19.5-9.072-4.566-18.153-9.112A3.7,3.7,0,0,0,1303.137,321.509ZM1465.2,316.65c-.17-.206-.252-.394-.391-.462q-39.432-19.111-78.822-38.017c-2.377.837-20.16,9.636-21.282,10.508.19.7.855.806,1.382,1.064q6.905,3.375,13.819,6.733,30.615,14.88,61.233,29.756.741.36,1.487.712a1.847,1.847,0,0,0,1.595-.006c.279-.123.556-.253.831-.385q8.917-4.26,17.833-8.521c.6-.289,1.213-.573,1.8-.89A2.745,2.745,0,0,0,1465.2,316.65Zm-123.617-16.656c.913.5,1.484.833,2.075,1.126q4.586,2.282,9.179,4.545l64.586,31.979c.437.216.874.435,1.314.645a1.771,1.771,0,0,0,1.587.037q.58-.274,1.157-.55,5.7-2.715,11.393-5.43c.825-.394,1.656-.777,2.467-1.2a4.725,4.725,0,0,0,.742-.636,7.17,7.17,0,0,0-.8-.606c-.591-.317-1.2-.6-1.8-.9q-25.257-12.264-50.514-24.528c-8.008-3.889-16.023-7.763-24.011-11.693a3.28,3.28,0,0,0-3.254.009c-4.184,2.126-8.419,4.154-12.627,6.232C1342.65,299.237,1342.279,299.537,1341.579,299.994Zm80.858,72.8a3.218,3.218,0,0,0,2.018-.528q6.378-2.765,12.736-5.577c2.247-.989,2.23-.75,2.23-3.348q0-12.444,0-24.889a9.489,9.489,0,0,0-.03-1.279,5.839,5.839,0,0,0-.31-.989,4.146,4.146,0,0,0-1.982.642c-3.144,1.484-6.278,2.989-9.414,4.488-1.486.71-2.959,1.451-4.46,2.129a1.7,1.7,0,0,0-1.106,1.714c0,.427-.014.854-.014,1.28q0,4.941,0,9.883,0,7.229.008,14.457A3.1,3.1,0,0,0,1422.437,372.79Z" transform="translate(-1296.894 -271.893)" fill="teal"/>
  <path id="Path_1696" data-name="Path 1696" d="M1318.218,454.175a3.76,3.76,0,0,1,1.993.543q4.18,2.056,8.366,4.1,6.805,3.341,13.609,6.685a11.407,11.407,0,0,1,1.292.678,2.918,2.918,0,0,1,1.033,3.847,2.953,2.953,0,0,1-3.613,1.336,9.162,9.162,0,0,1-1-.458q-11.073-5.42-22.144-10.848a6.079,6.079,0,0,1-1.4-.849,2.867,2.867,0,0,1,.068-4.469A2.35,2.35,0,0,1,1318.218,454.175Z" transform="translate(-1303.816 -340.486)" fill="teal"/>
  <path id="Path_1697" data-name="Path 1697" d="M1333.307,484.1c.04,2.281-2.3,3.857-3.892,2.987-.372-.2-.786-.325-1.167-.511-3.11-1.522-6.222-3.04-9.318-4.588a6.389,6.389,0,0,1-1.656-1.094,2.8,2.8,0,0,1-.312-3.522,2.845,2.845,0,0,1,3.5-1.129c.427.231.885.4,1.322.616q4.423,2.163,8.842,4.336a10.463,10.463,0,0,1,1.429.8A2.975,2.975,0,0,1,1333.307,484.1Z" transform="translate(-1304.252 -348.7)" fill="teal"/>
</svg>
