<svg xmlns="http://www.w3.org/2000/svg" width="26" height="24" viewBox="0 0 26 24">
  <path id="Icon_ionic-md-business" data-name="Icon ionic-md-business" d="M16.688,9.831V4.5H3.375v24h26V9.831Zm-7.987,16H6.037V23.162H8.7Zm0-5.331H6.037V17.831H8.7Zm0-5.331H6.037V12.5H8.7Zm0-5.338H6.037V7.162H8.7Zm5.325,16H11.362V23.162h2.663Zm0-5.331H11.362V17.831h2.663Zm0-5.331H11.362V12.5h2.663Zm0-5.338H11.362V7.162h2.663Zm12.688,16H16.688V23.162H19.35V20.5H16.688V17.831H19.35V15.162H16.688V12.5H26.712Zm-2.35-10.662H21.7v2.669h2.662Zm0,5.331H21.7v2.669h2.662Z" transform="translate(-3.375 -4.5)" fill="teal"/>
</svg>
