<svg xmlns="http://www.w3.org/2000/svg" width="24.002" height="24" viewBox="0 0 24.002 24">
  <path id="Icon_awesome-dove" data-name="Icon awesome-dove" d="M13.5,7.839V6.522A12.7,12.7,0,0,1,10.964.653a.747.747,0,0,0-1.3-.389A12.64,12.64,0,0,0,7.369,4.319,11.264,11.264,0,0,0,13.5,7.839ZM18.751,3A3.753,3.753,0,0,0,15,6.756V9.541A12.731,12.731,0,0,1,4.078,1.961a.748.748,0,0,0-1.359-.042A12.653,12.653,0,0,0,1.5,7.342a12.267,12.267,0,0,0,3.989,8.715,19.151,19.151,0,0,0,1.824,1.538L.567,19.282a.754.754,0,0,0-.445,1.144C.937,21.687,2.953,23.824,7.3,24a1.508,1.508,0,0,0,1.036-.37L11.4,21H15a7.494,7.494,0,0,0,7.5-7.5V6L24,3Zm0,4.5a.75.75,0,1,1,.75-.75A.752.752,0,0,1,18.751,7.506Z" transform="translate(0.001 -0.003)" fill="teal"/>
</svg>
