<svg xmlns="http://www.w3.org/2000/svg" width="149.31" height="115" viewBox="0 0 149.31 115">
  <defs>
    <style>
      .cls-1 {
        fill: #e4509a;
      }
    </style>
  </defs>
  <path id="Path_1692" data-name="Path 1692" class="cls-1" d="M953.589,387.276q-33.565,0-67.13,0a15.511,15.511,0,0,1-3.7-.435,6.013,6.013,0,0,1-1.134-.413,4.263,4.263,0,0,1-2.593-3.93c-.064-1.917-.02-3.838-.013-5.757a3.5,3.5,0,0,1,.516-1.56q3.1-6.114,6.188-12.233,2.594-5.13,5.19-10.259a2.412,2.412,0,0,1,.255-.489,3.385,3.385,0,0,0,.618-2.386q-.017-36.984-.009-73.967c0-.406-.014-.813.006-1.218a2.354,2.354,0,0,1,2.315-2.339c.293-.014.588,0,.882,0h117.616c.33,0,.662-.01.992.006a2.284,2.284,0,0,1,2.212,2.183c-.013.516.015,1.033.015,1.55q0,37.316,0,74.632c0,2.126-.112,1.639.848,3.467q5.421,10.328,10.877,20.638a5.782,5.782,0,0,1,.762,3.056c-.056,1.253-.02,2.509-.012,3.764a4.988,4.988,0,0,1-3.068,4.824,10.036,10.036,0,0,1-3.837.865c-.366.023-.735,0-1.1,0ZM895.4,350.929a5.646,5.646,0,0,0,1.843.147q56.489,0,112.978,0c.257,0,.514,0,.771,0,.184,0,.368,0,.551-.012.637-.05.78-.186.813-.8.017-.331.009-.664.009-1q0-35.818,0-71.637c0-.332.01-.665-.014-1a5.032,5.032,0,0,0-.134-.653,5.444,5.444,0,0,0-1.668-.107q-56.764,0-113.529,0c-.331,0-.662-.012-.992.008a4.726,4.726,0,0,0-.613.116,4.952,4.952,0,0,0-.174,1.91q-.006,35.542,0,71.084c0,.369-.01.739.014,1.107A8.049,8.049,0,0,0,895.4,350.929Zm-11.464,23.783a3.427,3.427,0,0,0,.557.1c.845.012,1.69.009,2.535.009q22.265,0,44.531,0c1.254,0,1.279.109,1.681-1.219.854-2.821,1.734-5.635,2.6-8.453.543-1.771.913-2.056,2.73-2.056h30.091c.257,0,.515,0,.771.005a1.8,1.8,0,0,1,1.186.515,2.378,2.378,0,0,1,.625,1.265c.571,2.325,1.158,4.647,1.743,6.969.207.822.426,1.64.641,2.46a.614.614,0,0,0,.638.5c.367.007.735.014,1.1.014h46.4c.367,0,.735,0,1.1-.021a1.742,1.742,0,0,0,.4-.13,2.054,2.054,0,0,0-.438-1.257q-4.62-8.812-9.257-17.616c-.7-1.336-.6-1.258-2.123-1.258H895.389c-1.631,0-1.454-.072-2.169,1.341q-4.421,8.729-8.825,17.466c-.149.3-.3.592-.425.9A1.705,1.705,0,0,0,883.932,374.712Zm140.725,3.725c-.652-.008-1.163-.02-1.673-.02H884.318c-.331,0-.662-.009-.992.007-.21.01-.418.057-.694.1a34.816,34.816,0,0,0-.04,4.008.7.7,0,0,0,.417.611,5.446,5.446,0,0,0,.817.315,7.891,7.891,0,0,0,2.4.229h134.7c.294,0,.589.014.881-.008a4.749,4.749,0,0,0,2.194-.643,1.35,1.35,0,0,0,.729-1.267c-.023-.7,0-1.4-.005-2.1C1024.719,379.3,1024.686,378.942,1024.657,378.437Zm-56.769-11.749q-14.145,0-28.219,0a3.714,3.714,0,0,0-.542.078,2.781,2.781,0,0,0-.275.495q-1.042,3.377-2.062,6.761a2.885,2.885,0,0,0-.051.616,2.357,2.357,0,0,0,1.339.177q15.252.008,30.5,0c.294,0,.588,0,.88-.021a2.52,2.52,0,0,0,.449-.125,3.587,3.587,0,0,0-.005-.653A47.226,47.226,0,0,0,967.888,366.689Z" transform="translate(-878.992 -272.283)"/>
</svg>
