<svg xmlns="http://www.w3.org/2000/svg" width="123.377" height="122.713" viewBox="0 0 123.377 122.713">
  <defs>
    <style>
      .cls-1 {
        fill: #e4509a;
      }
    </style>
  </defs>
  <g id="icon_cocogen_website" data-name="icon cocogen website" transform="translate(0)">
    <path id="Path_1718" data-name="Path 1718" class="cls-1" d="M1291.189,156.1c.333.285.591.522.865.737a50.987,50.987,0,0,1,14.476,18.373,58.321,58.321,0,0,1,3.612,9.587,6.272,6.272,0,0,1,.214,1.151,1.692,1.692,0,0,1-1.2,1.7,1.748,1.748,0,0,1-2.162-.746,5.046,5.046,0,0,1-.468-1.2,57.9,57.9,0,0,0-2.414-6.769,49.356,49.356,0,0,0-10.811-16.039,39.322,39.322,0,0,0-7.749-5.948c-.325-.189-.625-.5-1.139-.356a2.165,2.165,0,0,0-.157.508c-.031.431-.03.864-.03,1.3q0,26.731,0,53.462c0,.51.02,1.022.061,1.53a.56.56,0,0,0,.536.536,9.995,9.995,0,0,0,1.058.059c2.36.005,4.721,0,7.081.005a9.344,9.344,0,0,1,1.178.047,1.8,1.8,0,0,1,1.568,1.782,1.864,1.864,0,0,1-1.524,1.837,7.18,7.18,0,0,1-1.06.039q-3.481,0-6.963,0c-.315,0-.63-.007-.944.008-.787.039-.925.183-.98,1-.016.235-.011.472-.011.708q0,24.135,0,48.269a2.889,2.889,0,0,0,.163,1.441c.38.208.6-.018.8-.172,1.187-.908,2.386-1.8,3.535-2.758a63.316,63.316,0,0,0,10.8-11.337,39.618,39.618,0,0,0,5.806-11.014,3.5,3.5,0,0,1,.389-.853,1.784,1.784,0,0,1,2.173-.692,1.806,1.806,0,0,1,1.149,2.08,11.644,11.644,0,0,1-.437,1.467,43.564,43.564,0,0,1-5.875,10.988,66.425,66.425,0,0,1-9.693,10.607c-.557.5-1.13.978-1.688,1.475a4.755,4.755,0,0,0-.4.478,2.2,2.2,0,0,0,1.451.057q1.162-.192,2.314-.441a56.214,56.214,0,0,0,24.078-11.385,54.156,54.156,0,0,0,8.544-8.775,10.6,10.6,0,0,1,.9-1.089,1.734,1.734,0,0,1,1.949-.443,1.83,1.83,0,0,1,1.028,2.518,4.623,4.623,0,0,1-.514.788,57.856,57.856,0,0,1-17.938,15.618,61.14,61.14,0,0,1-18.207,6.613c-1.886.37-3.792.635-5.711.824a65.5,65.5,0,0,1-10.96.121,58.93,58.93,0,0,1-19.934-4.893,61.017,61.017,0,0,1-30.683-29.276,59.48,59.48,0,0,1-5.321-16.306,61.338,61.338,0,0,1,38.886-68.176,61.862,61.862,0,0,1,11.831-3.123c1.742-.28,3.514-.372,5.27-.566a44.2,44.2,0,0,1,4.476-.2,57.364,57.364,0,0,1,8.455.649,65.286,65.286,0,0,1,15.886,4.291,56.363,56.363,0,0,1,29.458,26.981,63.2,63.2,0,0,1,3.954,9.454,9.413,9.413,0,0,1,.271.9,1.839,1.839,0,0,1-3.418,1.28,9.333,9.333,0,0,1-.506-1.319,62.82,62.82,0,0,0-4.624-10.444,52.44,52.44,0,0,0-24.409-22.462,63.408,63.408,0,0,0-15.277-4.712,3.3,3.3,0,0,0-.7-.02C1291.429,155.864,1291.374,155.948,1291.189,156.1Zm-16.128-.519a5.82,5.82,0,0,0-.725,0c-.893.135-1.786.27-2.673.432a54.863,54.863,0,0,0-18.656,7.03,57.224,57.224,0,0,0-25.891,33.157,48.163,48.163,0,0,0-2,10.038c-.1,1.174-.213,2.348-.289,3.523-.063.98-.109,1.964-.111,2.946,0,1.1.147,1.226,1.208,1.269.079,0,.157,0,.236,0q10.5,0,21.009,0c1.37,0,1.429-.09,1.438-1.5.016-2.28.015-4.557.244-6.834.2-2,.456-3.983.83-5.95a69.789,69.789,0,0,1,5.64-17.08,88.018,88.018,0,0,1,15.186-22.08c1.232-1.324,2.531-2.586,3.8-3.881A2.138,2.138,0,0,0,1275.06,155.581Zm5.269.98a2.375,2.375,0,0,0-1.216.754,88.646,88.646,0,0,0-16.7,20.045,67.029,67.029,0,0,0-9.712,27.437,60.333,60.333,0,0,0-.416,7.643c.021,1.461.083,1.54,1.536,1.541q12.561.008,25.122,0a6.59,6.59,0,0,0,.94-.057.6.6,0,0,0,.591-.617c.034-.47.032-.943.032-1.414q0-26.715,0-53.43c0-.432,0-.866-.023-1.3A3.381,3.381,0,0,0,1280.33,156.561Zm-5.539,113.025a2.367,2.367,0,0,0-.786-1.212,126.886,126.886,0,0,1-10.778-13.574,90.291,90.291,0,0,1-10.166-19.25,68.271,68.271,0,0,1-3.739-14.22c-.14-.972-.274-1.945-.424-2.915-.082-.528-.232-.662-.768-.7-.313-.024-.629-.017-.943-.017h-20.535c-.315,0-.63-.007-.944.016-.53.039-.716.23-.653.756.154,1.286.315,2.573.518,3.852a53.62,53.62,0,0,0,5.3,16.177,57.265,57.265,0,0,0,30.1,27.624,53.761,53.761,0,0,0,13.058,3.5A4.657,4.657,0,0,0,1274.791,269.586Zm5.558-.368a2.076,2.076,0,0,0,.161-1.2q.007-24.358,0-48.715c0-.275.006-.551-.017-.825-.048-.572-.219-.731-.824-.774-.274-.019-.55-.014-.826-.014h-24.534c-.275,0-.552-.013-.825.014a5.417,5.417,0,0,0-.657.143,3.309,3.309,0,0,0-.031,1.568c.332,2.253.717,4.5,1.255,6.711a76.242,76.242,0,0,0,8.211,20.117,112.237,112.237,0,0,0,13.64,18.612c1.177,1.32,2.395,2.6,3.6,3.9C1279.712,268.97,1279.883,269.277,1280.349,269.218Z" transform="translate(-1220.993 -151.259)"/>
    <path id="Path_1719" data-name="Path 1719" class="cls-1" d="M1528.786,317.855a2.427,2.427,0,0,0,.563,1.232q3.1,4.949,6.214,9.891a11.149,11.149,0,0,1,.65,1.121,1.771,1.771,0,0,1-.468,2.234,6.973,6.973,0,0,1-.663.492c-3.36,2.332-6.743,4.633-10.074,7.008a2.184,2.184,0,0,1-3.545-.7c-2.253-3.6-4.567-7.163-6.865-10.736a2.985,2.985,0,0,0-.87-1.088,2.4,2.4,0,0,0-1.121.855q-3.766,3.745-7.517,7.505a10.336,10.336,0,0,1-.768.732,1.839,1.839,0,0,1-3.028-1.06,4.455,4.455,0,0,1-.05-.935c.022-.786.083-1.571.1-2.357q.169-8.849.327-17.7.107-5.544.242-11.089.1-4.364.214-8.729c0-.157,0-.316.01-.472a1.909,1.909,0,0,1,2.685-1.746,6.967,6.967,0,0,1,.746.352q17.369,8.512,34.739,17.027c.317.156.64.307.939.493a1.859,1.859,0,0,1-.23,3.267,10.144,10.144,0,0,1-.994.368q-5.014,1.732-10.03,3.46A2.9,2.9,0,0,0,1528.786,317.855Zm-23.46,12.027a2.425,2.425,0,0,0,1.074-.814q2.888-2.869,5.762-5.751a7.043,7.043,0,0,1,.778-.72,1.817,1.817,0,0,1,2.539.294,6.592,6.592,0,0,1,.534.776q2.042,3.174,4.079,6.352c1.083,1.688,2.162,3.378,3.25,5.062.186.287.317.65.768.7a2.633,2.633,0,0,0,.4-.193q3.445-2.381,6.88-4.775a3.811,3.811,0,0,0,.511-.549c-.254-.428-.482-.835-.73-1.23q-3.2-5.094-6.405-10.184a13.414,13.414,0,0,1-.722-1.216,1.813,1.813,0,0,1,.825-2.5,6.22,6.22,0,0,1,.875-.344q2.952-1.021,5.905-2.034c.891-.307,1.786-.607,2.67-.934a2.641,2.641,0,0,0,.551-.393,2.6,2.6,0,0,0-1.22-.805q-13.176-6.471-26.358-12.93a6.81,6.81,0,0,0-.746-.35,2.2,2.2,0,0,0-.521-.06,1.967,1.967,0,0,0-.253,1.31q-.1,3.891-.182,7.782-.174,8.786-.337,17.573c-.02,1.021-.08,2.042-.112,3.063-.023.747-.048,1.494-.035,2.241A2.182,2.182,0,0,0,1505.326,329.882Z" transform="translate(-1418.734 -250.689)"/>
  </g>
</svg>
