<svg id="Component_131_1" data-name="Component 131 – 1" xmlns="http://www.w3.org/2000/svg" width="604.127" height="4889.054" viewBox="0 0 604.127 4889.054">
  <g id="cocotree" transform="translate(110.354 33.949) rotate(-9)" opacity="0.21">
    <path id="cocotree-2" data-name="cocotree" d="M1538.348,457.4s-11.054,17.667-6.687,34.608c0,0-.547-15.475,7.295-23.679a32.387,32.387,0,0,0,4.255,11.536s-2.744-12.312.608-16.393c0,0-.6,8.2,3.039,12.75,0,0-1.045-12.338.608-19.429,0,0-.11,9.191,2.432,11.536,0,0-1.138-13.3,2.431-19.429,0,0-.688,11.106,3.04,15.786,0,0-2.837-15.372,3.039-22.464,0,0-.667,8.983,1.216,12.75,0,0,.526-16.313,6.079-20.643,0,0-1.632,8.524-.608,12.75,0,0,2.024-12.753,6.687-18.214,0,0-1.1,7.771,0,12.75,0,0,.975-14.652,6.687-18.214,0,0-1.152,11.457.608,14.572,0,0,2.115-14.193,6.079-20.036,0,0,.246,11.466-12.158,36.429s-32.145,63.484-38.9,80.751-10.334,30.357-10.334,30.357l5.471,3.643s12.115-38.534,23.1-61.929,19.364-36.427,24.316-49.179,7.943-25.5,13.374-30.357c0,0,2.294,3.908-4.863,16.393a23.441,23.441,0,0,0,6.687-9.107s-.718,11.453-4.863,17.607c0,0,6.135-4.638,7.295-8.5,0,0-1.477,12.187-9.118,19.429,0,0,6.29-2.658,9.118-8.5,0,0-2.526,14.061-12.158,19.429a20,20,0,0,0,13.373-10.322s-7.88,13.8-10.334,15.786a17.975,17.975,0,0,0,9.118-8.5s-5.852,13.247-11.55,15.786c0,0,7.432-1.8,10.942-7.286,0,0-2.84,8.239-8.51,11.536,0,0,6.216-.175,9.118-4.25,0,0-1.125,12.859-9.118,22.465,0,0,13.682-7.169,15.805-30.357,0,0,2.619,2.164.608,12.143,0,0,6.047-4.582,5.471-22.465,0,0,5.649,7.144,4.863,13.357,0,0,4.589-9.135-1.216-21.857a22.3,22.3,0,0,1,4.863,8.5s3.384-9.332-7.9-19.429a10.835,10.835,0,0,1,7.9,4.857c-.623.1,2.946-4.961-12.157-15.786,0,0,4.37-.259,8.51,4.25,0,0,1.913-7.915-14.589-17.607,0,0,6.32.3,9.118,3.036,0,0-4.756-11.693-13.374-15.179,0,0,6.368.153,14.589,13.357v-3.643s2.1,4.958,3.04,7.893l1.216-4.25a45.834,45.834,0,0,0,2.431,8.5l1.216-3.643a34.86,34.86,0,0,0,1.824,7.893s-.155-3.4.608-4.25c0,0-.408,6.448.608,9.714a27.258,27.258,0,0,1,3.039-4.857s1.085,9.245,0,11.536a7.749,7.749,0,0,0,3.04-4.857c.568-3.242,0-.607,0-.607s.719,8.989-.608,11.536a17.924,17.924,0,0,0,2.431-5.464s-.374,7.518-1.823,10.322c0,0,3.574-2.5,3.647-4.857,0,0-.788,7.349-3.647,10.322,0,0,3.656-2.009,4.863-5.464,0,0-.754,8.3-6.079,11.536,0,0,5.147-.979,6.687-3.643,0,0-3,7.735-5.471,9.107,0,0,4.521-1.3,6.079-3.643,0,0-3.3,8.746-7.295,11.536,0,0,4.6-1.078,6.687-3.643,0,0-2.731,11.01-6.079,12.75,0,0,10.839-3.417,11.55-24.286a9.249,9.249,0,0,1,1.824,9.107s5.052-8.055-1.216-20.643c0,0,4.2.779,6.079,7.286,0,0,3.412-11.912-9.726-23.072,0,0,3.224-.911,5.471,3.036,0,0,.928-9.724-12.766-16.393,0,0,.461-2.485,5.471.607,0,0-2.644-10.2-18.845-12.75,0,0,.63-3.244,6.079-1.214,0,0-6.034-5.8-13.374-7.286,0,0,6.793-2.464,15.2,1.821,0,0,2.038-1.523-5.471-5.464,0,0,7.352-.227,13.981,6.679,0,0,3.421-3.17-5.471-7.286,0,0,7.093-2.354,15.2,8.5,0,0,1.395-5.717-6.687-9.714a28.055,28.055,0,0,1,16.413,12.143s2.664-4.544-5.471-10.929c0,0,10.055,5.172,14.589,14.572,0,0,4.229-3.248-3.647-10.928,0,0,9.589,5.686,10.334,14.571,0,0,3.794-1.989-1.216-10.321,0,0,12.812,7.915,17.021,19.429,0,0,.863-18.071-23.707-29.143s-45.413-4.951-51.063-3.643c0,0,1.773-4.567,20.06-4.857a52.042,52.042,0,0,0-10.942-1.821s7.517-4.939,23.708-2.429a30.4,30.4,0,0,0-13.981-3.036s7.845-4.351,27.355,0c0,0,1.077-5.037-11.55-6.678,0,0,12.475-1.757,26.747,6.678,0,0,1.331-4.577-12.766-9.714,0,0,14.076,1.772,21.884,5.464,0,0-1.7-5.106-12.157-7.286,0,0,14.576.754,23.1,7.286,0,0-1.042-5.373-10.334-7.893,0,0,6.749-1.13,17.021,5.465,0,0-.676-5.341-7.9-7.893,0,0,19.017-1.717,31,4.857,0,0-13.042-13.9-44.984-9.107,0,0,5.476-6.382,19.452-4.25,0,0-10.686-6.21-32.826,0,0,0,4.588-6.379,18.236-8.5,0,0-12.371-4.959-32.218,9.107a23.267,23.267,0,0,1,12.158-9.107s-12.2-4.109-27.355,16.393c0,0-2.353-4.324,6.687-12.143,0,0-11.939,1.752-20.668,20.643,0,0-2.458-3.238,3.648-10.322,0,0-9.923-.6-15.805,17.607l-1.824,8.548s-2.2-.474-.608-5.471,2.655-12.655,1.824-15.8c0,0-3.166,8.9-5.471,9.118,0,0,6.445-12.8,0-24.922,0,0,.286,8.666-3.647,9.726,0,0,3.53-17.706-10.334-26.745,0,0,3.608,7.609,3.647,11.549,0,0-6.572-18.367-21.276-24.922,0,0,10.562,11.4,10.334,16.412,0,0-10.568-16.618-33.434-21.275,0,0,15.859,6.543,20.06,15.2,0,0-17.686-15.944-36.473-15.8,0,0,15.336,5.233,19.452,9.726,0,0-7.914-2.015-15.2-.608,0,0,15.9.34,22.492,6.686,0,0-11.523-3.533-17.021-1.216,0,0,22.02,2.647,26.139,7.9,0,0-10.909-4.253-15.2-3.039,0,0,21.272,5.53,24.316,12.157,0,0-10.714-7.682-21.276-6.079,0,0,23.451,7.408,29.786,15.8,0,0-7.992-6.13-13.373-6.079,0,0,19.538,11.157,20.06,18.236,0,0-6.058-6.878-10.942-8.51,0,0,13.534,10.3,13.374,18.844,0,0-6.861-9.1-12.158-10.334,0,0,13.073,12.042,13.374,15.8s.344,5.511-2.432-.608a39.787,39.787,0,0,0-7.9-10.941,15.486,15.486,0,0,1,1.216,4.863s-9.962-21.34-31-25.53c0,0,7.28,3.026,9.118,7.294,0,0-16.592-12.283-32.218-9.726,0,0,10.852,1.022,12.766,3.647,0,0-22.733-3.728-39.513,9.726,0,0,20.97-2.04,31-.608a24.619,24.619,0,0,0-4.255,6.079s7.624-7.119,12.766-6.079c0,0-5.9,2.4-6.687,6.079,0,0,8.258-5.771,13.374-4.863,0,0-4.806,4.21-5.471,6.686,0,0,6.8-5.106,11.55-4.255,0,0-3.533.7-4.255,5.471,0,0,4.965-5.332,10.942-2.432,0,0-5.3-.78-7.295,4.255,0,0,9.518-4.837,13.373-.608,0,0-5.921.1-7.9,3.039,0,0,7.949-2.349,11.55.608,0,0-8.663-.469-10.334,1.216,0,0,11.992-.525,13.981,3.039,0,0-5.921,1.751-10.334,0,0,0,8.231,3.7,7.9,5.471a44.2,44.2,0,0,0-34.041-4.863s9.459,1.228,10.334,3.647c0,0-18.549-1.515-24.924,0,0,0,8.78-.016,10.334,1.824,0,0-17.923,6.18-25.531,15.2,0,0,7.835-4.338,10.942-4.863,0,0-10.26,15.2-12.766,27.353,0,0,15.072-18.675,26.747-23.1a19.693,19.693,0,0,0-1.824,8.51s2.68-9.472,7.9-10.942c0,0-3.465,5.365-3.04,10.942,0,0,3.546-9.966,7.9-12.157,0,0-2.47,7.158-1.216,10.334,0,0,1.781-8.815,5.471-10.334a17.592,17.592,0,0,0,0,8.51s1.177-9.237,6.079-10.334a12.5,12.5,0,0,0-1.824,9.726s2.126-8.816,7.9-9.118a12.372,12.372,0,0,0-3.04,7.9s2.279-7.1,7.9-7.9c0,0-4.383,5.841-5.471,9.726,0,0,6.02-7.137,8.51-7.9,0,0-3.1,4.249-2.431,7.9,0,0,3.566-6.4,7.295-7.9,0,0,.563,5.064-3.648,5.471,0,0,8.177,2.02,8.51,4.863,0,0-15.619-4.414-23.1,4.255,0,0,10.644-.679,10.942,1.823,0,0-15.687-1.4-21.276,4.863,0,0,9.607-.922,11.55.608,0,0-15.277.807-20.06,10.334,0,0,7.758-3.628,10.942-3.039,0,0-14.284,3.849-17.629,17.628,0,0,8.223-8.468,13.374-9.726,0,0-9.265,10.445-10.334,23.1C1529.229,468.46,1533.637,458.411,1538.348,457.4Z" transform="translate(-1498.835 -325.006)" fill="teal" fill-rule="evenodd"/>
  </g>
  <g id="cocotree-3" data-name="cocotree" transform="translate(30 1476.027) rotate(-9)" opacity="0.21">
    <path id="cocotree-4" data-name="cocotree" d="M1588.67,625.938s-25.133,40.156-15.2,78.662c0,0-1.244-35.174,16.585-53.821A73.6,73.6,0,0,0,1599.727,677s-6.238-27.986,1.382-37.261c0,0-1.369,18.647,6.91,28.981,0,0-2.376-28.044,1.382-44.162,0,0-.251,20.891,5.529,26.221,0,0-2.588-30.232,5.528-44.161,0,0-1.564,25.245,6.911,35.881,0,0-6.451-34.939,6.91-51.06,0,0-1.518,20.418,2.764,28.98,0,0,1.2-37.079,13.821-46.921,0,0-3.71,19.375-1.382,28.981,0,0,4.6-28.986,15.2-41.4,0,0-2.5,17.664,0,28.981,0,0,2.216-33.3,15.2-41.4,0,0-2.62,26.041,1.382,33.121,0,0,4.808-32.261,13.821-45.541,0,0,.559,26.062-27.641,82.8s-73.085,144.3-88.453,183.545-23.495,69-23.495,69l12.439,8.28s27.543-87.588,52.519-140.763,44.026-82.8,55.283-111.782,18.059-57.956,30.406-69c0,0,5.216,8.884-11.057,37.261,0,0,9.074-6.617,15.2-20.7,0,0-1.633,26.033-11.057,40.021,0,0,13.948-10.541,16.585-19.32,0,0-3.357,27.7-20.731,44.161,0,0,14.3-6.042,20.731-19.321,0,0-5.744,31.961-27.642,44.162,0,0,20.334-3.5,30.406-23.461,0,0-17.917,31.375-23.495,35.881a40.867,40.867,0,0,0,20.731-19.321s-13.3,30.11-26.259,35.881c0,0,16.9-4.1,24.877-16.56,0,0-6.457,18.727-19.349,26.22,0,0,14.133-.4,20.731-9.66,0,0-2.558,29.228-20.731,51.061,0,0,31.107-16.295,35.934-69,0,0,5.955,4.919,1.382,27.6,0,0,13.749-10.416,12.439-51.062,0,0,12.843,16.239,11.057,30.36,0,0,10.433-20.764-2.764-49.68,0,0,8.377,8.811,11.056,19.32,0,0,7.694-21.211-17.967-44.161a24.637,24.637,0,0,1,17.967,11.04c-1.417.236,6.7-11.276-27.641-35.881,0,0,9.934-.588,19.349,9.66,0,0,4.35-17.991-33.17-40.021,0,0,14.37.691,20.731,6.9,0,0-10.814-26.578-30.406-34.5,0,0,14.479.348,33.17,30.36v-8.28s4.773,11.268,6.911,17.94l2.764-9.66s2.435,12.9,5.528,19.321l2.764-8.28a79.216,79.216,0,0,0,4.147,17.94s-.353-7.738,1.382-9.66c0,0-.928,14.656,1.382,22.08,0,0,3.687-7.488,6.91-11.04,0,0,2.467,21.014,0,26.22a17.613,17.613,0,0,0,6.911-11.041c1.292-7.368,0-1.379,0-1.379s1.634,20.432-1.382,26.22c0,0,4.647-7.013,5.528-12.42,0,0-.851,17.089-4.146,23.461,0,0,8.126-5.691,8.292-11.041,0,0-1.792,16.705-8.292,23.461,0,0,8.312-4.566,11.057-12.42,0,0-1.714,18.861-13.821,26.22,0,0,11.7-2.224,15.2-8.28,0,0-6.829,17.581-12.439,20.7,0,0,10.278-2.963,13.821-8.28,0,0-7.506,19.881-16.585,26.22,0,0,10.456-2.45,15.2-8.28,0,0-6.209,25.024-13.821,28.981,0,0,24.644-7.767,26.259-55.2,0,0,8.062,7.96,4.147,20.7,0,0,11.486-18.31-2.764-46.92,0,0,9.541,1.77,13.821,16.56,0,0,7.757-27.077-22.114-52.442,0,0,7.33-2.071,12.438,6.9,0,0,2.111-22.1-29.023-37.261,0,0,1.049-5.648,12.439,1.38,0,0-6.011-23.188-42.844-28.981,0,0,1.431-7.373,13.821-2.76,0,0-13.719-13.193-30.406-16.561,0,0,15.445-5.6,34.552,4.14,0,0,4.634-3.462-12.439-12.42,0,0,16.716-.516,31.788,15.181,0,0,7.778-7.2-12.438-16.561,0,0,16.126-5.351,34.552,19.321,0,0,3.171-12.995-15.2-22.081,0,0,22.126,4.359,37.316,27.6,0,0,6.057-10.328-12.438-24.841,0,0,22.861,11.757,33.17,33.121,0,0,9.614-7.382-8.293-24.84,0,0,21.8,12.924,23.5,33.12,0,0,8.626-4.522-2.765-23.46,0,0,29.128,17.99,38.7,44.161,0,0,1.962-41.075-53.9-66.242s-103.25-11.254-116.095-8.28c0,0,4.031-10.382,45.609-11.04,0,0-9.543-3.033-24.878-4.14,0,0,17.091-11.226,53.9-5.52a69.128,69.128,0,0,0-31.788-6.9s17.837-9.89,62.194,0c0,0,2.448-11.449-26.26-15.18,0,0,28.363-3.993,60.811,15.18,0,0,3.027-10.4-29.024-22.08,0,0,32,4.028,49.754,12.42,0,0-3.862-11.6-27.641-16.56,0,0,33.14,1.713,52.519,16.56,0,0-2.368-12.213-23.5-17.94,0,0,15.344-2.568,38.7,12.421,0,0-1.537-12.139-17.967-17.94,0,0,43.236-3.9,70.486,11.04,0,0-29.651-31.591-102.274-20.7,0,0,12.451-14.505,44.226-9.66,0,0-24.3-14.114-74.632,0,0,0,10.431-14.5,41.462-19.321,0,0-28.127-11.272-73.25,20.7a52.9,52.9,0,0,1,27.642-20.7s-27.74-9.339-62.195,37.261c0,0-5.351-9.828,15.2-27.6,0,0-27.143,3.981-46.991,46.922,0,0-5.588-7.361,8.293-23.461,0,0-22.561-1.365-35.934,40.021l-4.147,19.43s-5.006-1.077-1.382-12.435,6.035-28.764,4.146-35.923c0,0-7.2,20.223-12.438,20.725,0,0,14.653-29.1,0-56.648,0,0,.65,19.7-8.293,22.106,0,0,8.025-40.245-23.5-60.792,0,0,8.2,17.294,8.293,26.251,0,0-14.941-41.747-48.373-56.647,0,0,24.014,25.9,23.495,37.3,0,0-24.027-37.772-76.014-48.357,0,0,36.058,14.872,45.609,34.541,0,0-40.211-36.239-82.924-35.923,0,0,34.867,11.9,44.226,22.106,0,0-17.993-4.58-34.552-1.381,0,0,36.147.772,51.136,15.2,0,0-26.2-8.031-38.7-2.763,0,0,50.064,6.017,59.428,17.961,0,0-24.8-9.666-34.552-6.908,0,0,48.364,12.57,55.283,27.633,0,0-24.359-17.462-48.373-13.817,0,0,53.319,16.838,67.721,35.923,0,0-18.17-13.933-30.406-13.817,0,0,44.42,25.36,45.608,41.45,0,0-13.774-15.633-24.878-19.343,0,0,30.771,23.406,30.406,42.831,0,0-15.6-20.674-27.642-23.488,0,0,29.724,27.37,30.406,35.923s.782,12.527-5.529-1.382-17.967-24.869-17.967-24.869,2.817,6.576,2.764,11.053c0,0-22.649-48.506-70.485-58.029,0,0,16.551,6.878,20.731,16.58,0,0-37.724-27.918-73.25-22.106,0,0,24.674,2.323,29.024,8.289,0,0-51.686-8.474-89.835,22.107,0,0,47.677-4.637,70.486-1.382,0,0-6.793,7.033-9.675,13.817,0,0,17.333-16.182,29.024-13.817,0,0-13.4,5.456-15.2,13.817,0,0,18.775-13.117,30.406-11.053,0,0-10.927,9.569-12.439,15.2,0,0,15.466-11.606,26.26-9.671,0,0-8.032,1.6-9.675,12.435,0,0,11.289-12.12,24.878-5.527,0,0-12.049-1.772-16.585,9.671,0,0,21.639-10.994,30.406-1.381,0,0-13.462.219-17.967,6.908,0,0,18.072-5.339,26.259,1.381,0,0-19.7-1.065-23.495,2.763,0,0,27.264-1.193,31.788,6.908,0,0-13.461,3.979-23.5,0,0,0,18.715,8.414,17.967,12.434,0,0-33.076-22.656-77.4-11.053,0,0,21.5,2.79,23.495,8.289,0,0-42.173-3.443-56.666,0,0,0,19.961-.036,23.5,4.145,0,0-40.749,14.046-58.047,34.541,0,0,17.813-9.859,24.878-11.053,0,0-23.326,34.543-29.024,62.174,0,0,34.268-42.448,60.811-52.5,0,0-4.631,9.382-4.146,19.343,0,0,6.092-21.529,17.967-24.87,0,0-7.878,12.195-6.911,24.87,0,0,8.063-22.653,17.967-27.633,0,0-5.616,16.269-2.764,23.488,0,0,4.049-20.037,12.439-23.488,0,0-2.781,10.273,0,19.343,0,0,2.677-21,13.821-23.488a28.416,28.416,0,0,0-4.146,22.107s4.834-20.038,17.967-20.725a28.117,28.117,0,0,0-6.911,17.962s5.182-16.127,17.967-17.962c0,0-9.964,13.277-12.438,22.106,0,0,13.688-16.223,19.349-17.961,0,0-7.059,9.659-5.528,17.961,0,0,8.106-14.555,16.585-17.961,0,0,1.279,11.509-8.293,12.435,0,0,18.591,4.591,19.349,11.053,0,0-35.511-10.033-52.519,9.672,0,0,24.2-1.543,24.878,4.144,0,0-35.667-3.186-48.374,11.053,0,0,21.843-2.1,26.26,1.381,0,0-34.733,1.834-45.609,23.488,0,0,17.639-8.247,24.878-6.908,0,0-32.475,8.748-40.081,40.068,0,0,18.695-19.248,30.406-22.106,0,0-21.065,23.742-23.495,52.5C1567.939,651.074,1577.96,628.232,1588.67,625.938Z" transform="translate(-1498.835 -325.006)" fill="teal" fill-rule="evenodd"/>
  </g>
  <g id="cocotree-5" data-name="cocotree" transform="translate(0 4341.027) rotate(-9)" opacity="0.21">
    <path id="cocotree-6" data-name="cocotree" d="M1588.67,625.938s-25.133,40.156-15.2,78.662c0,0-1.244-35.174,16.585-53.821A73.6,73.6,0,0,0,1599.727,677s-6.238-27.986,1.382-37.261c0,0-1.369,18.647,6.91,28.981,0,0-2.376-28.044,1.382-44.162,0,0-.251,20.891,5.529,26.221,0,0-2.588-30.232,5.528-44.161,0,0-1.564,25.245,6.911,35.881,0,0-6.451-34.939,6.91-51.06,0,0-1.518,20.418,2.764,28.98,0,0,1.2-37.079,13.821-46.921,0,0-3.71,19.375-1.382,28.981,0,0,4.6-28.986,15.2-41.4,0,0-2.5,17.664,0,28.981,0,0,2.216-33.3,15.2-41.4,0,0-2.62,26.041,1.382,33.121,0,0,4.808-32.261,13.821-45.541,0,0,.559,26.062-27.641,82.8s-73.085,144.3-88.453,183.545-23.495,69-23.495,69l12.439,8.28s27.543-87.588,52.519-140.763,44.026-82.8,55.283-111.782,18.059-57.956,30.406-69c0,0,5.216,8.884-11.057,37.261,0,0,9.074-6.617,15.2-20.7,0,0-1.633,26.033-11.057,40.021,0,0,13.948-10.541,16.585-19.32,0,0-3.357,27.7-20.731,44.161,0,0,14.3-6.042,20.731-19.321,0,0-5.744,31.961-27.642,44.162,0,0,20.334-3.5,30.406-23.461,0,0-17.917,31.375-23.495,35.881a40.867,40.867,0,0,0,20.731-19.321s-13.3,30.11-26.259,35.881c0,0,16.9-4.1,24.877-16.56,0,0-6.457,18.727-19.349,26.22,0,0,14.133-.4,20.731-9.66,0,0-2.558,29.228-20.731,51.061,0,0,31.107-16.295,35.934-69,0,0,5.955,4.919,1.382,27.6,0,0,13.749-10.416,12.439-51.062,0,0,12.843,16.239,11.057,30.36,0,0,10.433-20.764-2.764-49.68,0,0,8.377,8.811,11.056,19.32,0,0,7.694-21.211-17.967-44.161a24.637,24.637,0,0,1,17.967,11.04c-1.417.236,6.7-11.276-27.641-35.881,0,0,9.934-.588,19.349,9.66,0,0,4.35-17.991-33.17-40.021,0,0,14.37.691,20.731,6.9,0,0-10.814-26.578-30.406-34.5,0,0,14.479.348,33.17,30.36v-8.28s4.773,11.268,6.911,17.94l2.764-9.66s2.435,12.9,5.528,19.321l2.764-8.28a79.216,79.216,0,0,0,4.147,17.94s-.353-7.738,1.382-9.66c0,0-.928,14.656,1.382,22.08,0,0,3.687-7.488,6.91-11.04,0,0,2.467,21.014,0,26.22a17.613,17.613,0,0,0,6.911-11.041c1.292-7.368,0-1.379,0-1.379s1.634,20.432-1.382,26.22c0,0,4.647-7.013,5.528-12.42,0,0-.851,17.089-4.146,23.461,0,0,8.126-5.691,8.292-11.041,0,0-1.792,16.705-8.292,23.461,0,0,8.312-4.566,11.057-12.42,0,0-1.714,18.861-13.821,26.22,0,0,11.7-2.224,15.2-8.28,0,0-6.829,17.581-12.439,20.7,0,0,10.278-2.963,13.821-8.28,0,0-7.506,19.881-16.585,26.22,0,0,10.456-2.45,15.2-8.28,0,0-6.209,25.024-13.821,28.981,0,0,24.644-7.767,26.259-55.2,0,0,8.062,7.96,4.147,20.7,0,0,11.486-18.31-2.764-46.92,0,0,9.541,1.77,13.821,16.56,0,0,7.757-27.077-22.114-52.442,0,0,7.33-2.071,12.438,6.9,0,0,2.111-22.1-29.023-37.261,0,0,1.049-5.648,12.439,1.38,0,0-6.011-23.188-42.844-28.981,0,0,1.431-7.373,13.821-2.76,0,0-13.719-13.193-30.406-16.561,0,0,15.445-5.6,34.552,4.14,0,0,4.634-3.462-12.439-12.42,0,0,16.716-.516,31.788,15.181,0,0,7.778-7.2-12.438-16.561,0,0,16.126-5.351,34.552,19.321,0,0,3.171-12.995-15.2-22.081,0,0,22.126,4.359,37.316,27.6,0,0,6.057-10.328-12.438-24.841,0,0,22.861,11.757,33.17,33.121,0,0,9.614-7.382-8.293-24.84,0,0,21.8,12.924,23.5,33.12,0,0,8.626-4.522-2.765-23.46,0,0,29.128,17.99,38.7,44.161,0,0,1.962-41.075-53.9-66.242s-103.25-11.254-116.095-8.28c0,0,4.031-10.382,45.609-11.04,0,0-9.543-3.033-24.878-4.14,0,0,17.091-11.226,53.9-5.52a69.128,69.128,0,0,0-31.788-6.9s17.837-9.89,62.194,0c0,0,2.448-11.449-26.26-15.18,0,0,28.363-3.993,60.811,15.18,0,0,3.027-10.4-29.024-22.08,0,0,32,4.028,49.754,12.42,0,0-3.862-11.6-27.641-16.56,0,0,33.14,1.713,52.519,16.56,0,0-2.368-12.213-23.5-17.94,0,0,15.344-2.568,38.7,12.421,0,0-1.537-12.139-17.967-17.94,0,0,43.236-3.9,70.486,11.04,0,0-29.651-31.591-102.274-20.7,0,0,12.451-14.505,44.226-9.66,0,0-24.3-14.114-74.632,0,0,0,10.431-14.5,41.462-19.321,0,0-28.127-11.272-73.25,20.7a52.9,52.9,0,0,1,27.642-20.7s-27.74-9.339-62.195,37.261c0,0-5.351-9.828,15.2-27.6,0,0-27.143,3.981-46.991,46.922,0,0-5.588-7.361,8.293-23.461,0,0-22.561-1.365-35.934,40.021l-4.147,19.43s-5.006-1.077-1.382-12.435,6.035-28.764,4.146-35.923c0,0-7.2,20.223-12.438,20.725,0,0,14.653-29.1,0-56.648,0,0,.65,19.7-8.293,22.106,0,0,8.025-40.245-23.5-60.792,0,0,8.2,17.294,8.293,26.251,0,0-14.941-41.747-48.373-56.647,0,0,24.014,25.9,23.495,37.3,0,0-24.027-37.772-76.014-48.357,0,0,36.058,14.872,45.609,34.541,0,0-40.211-36.239-82.924-35.923,0,0,34.867,11.9,44.226,22.106,0,0-17.993-4.58-34.552-1.381,0,0,36.147.772,51.136,15.2,0,0-26.2-8.031-38.7-2.763,0,0,50.064,6.017,59.428,17.961,0,0-24.8-9.666-34.552-6.908,0,0,48.364,12.57,55.283,27.633,0,0-24.359-17.462-48.373-13.817,0,0,53.319,16.838,67.721,35.923,0,0-18.17-13.933-30.406-13.817,0,0,44.42,25.36,45.608,41.45,0,0-13.774-15.633-24.878-19.343,0,0,30.771,23.406,30.406,42.831,0,0-15.6-20.674-27.642-23.488,0,0,29.724,27.37,30.406,35.923s.782,12.527-5.529-1.382-17.967-24.869-17.967-24.869,2.817,6.576,2.764,11.053c0,0-22.649-48.506-70.485-58.029,0,0,16.551,6.878,20.731,16.58,0,0-37.724-27.918-73.25-22.106,0,0,24.674,2.323,29.024,8.289,0,0-51.686-8.474-89.835,22.107,0,0,47.677-4.637,70.486-1.382,0,0-6.793,7.033-9.675,13.817,0,0,17.333-16.182,29.024-13.817,0,0-13.4,5.456-15.2,13.817,0,0,18.775-13.117,30.406-11.053,0,0-10.927,9.569-12.439,15.2,0,0,15.466-11.606,26.26-9.671,0,0-8.032,1.6-9.675,12.435,0,0,11.289-12.12,24.878-5.527,0,0-12.049-1.772-16.585,9.671,0,0,21.639-10.994,30.406-1.381,0,0-13.462.219-17.967,6.908,0,0,18.072-5.339,26.259,1.381,0,0-19.7-1.065-23.495,2.763,0,0,27.264-1.193,31.788,6.908,0,0-13.461,3.979-23.5,0,0,0,18.715,8.414,17.967,12.434,0,0-33.076-22.656-77.4-11.053,0,0,21.5,2.79,23.495,8.289,0,0-42.173-3.443-56.666,0,0,0,19.961-.036,23.5,4.145,0,0-40.749,14.046-58.047,34.541,0,0,17.813-9.859,24.878-11.053,0,0-23.326,34.543-29.024,62.174,0,0,34.268-42.448,60.811-52.5,0,0-4.631,9.382-4.146,19.343,0,0,6.092-21.529,17.967-24.87,0,0-7.878,12.195-6.911,24.87,0,0,8.063-22.653,17.967-27.633,0,0-5.616,16.269-2.764,23.488,0,0,4.049-20.037,12.439-23.488,0,0-2.781,10.273,0,19.343,0,0,2.677-21,13.821-23.488a28.416,28.416,0,0,0-4.146,22.107s4.834-20.038,17.967-20.725a28.117,28.117,0,0,0-6.911,17.962s5.182-16.127,17.967-17.962c0,0-9.964,13.277-12.438,22.106,0,0,13.688-16.223,19.349-17.961,0,0-7.059,9.659-5.528,17.961,0,0,8.106-14.555,16.585-17.961,0,0,1.279,11.509-8.293,12.435,0,0,18.591,4.591,19.349,11.053,0,0-35.511-10.033-52.519,9.672,0,0,24.2-1.543,24.878,4.144,0,0-35.667-3.186-48.374,11.053,0,0,21.843-2.1,26.26,1.381,0,0-34.733,1.834-45.609,23.488,0,0,17.639-8.247,24.878-6.908,0,0-32.475,8.748-40.081,40.068,0,0,18.695-19.248,30.406-22.106,0,0-21.065,23.742-23.495,52.5C1567.939,651.074,1577.96,628.232,1588.67,625.938Z" transform="translate(-1498.835 -325.006)" fill="teal" fill-rule="evenodd"/>
  </g>
</svg>
