<svg xmlns="http://www.w3.org/2000/svg" width="399.5" height="449.26" viewBox="0 0 399.5 449.26">
  <g id="Group_641" data-name="Group 641" transform="translate(74 -4522.74)">
    <g id="cocotree" transform="translate(-74 4522.74)" opacity="0.21">
      <path id="cocotree-2" data-name="cocotree" d="M1571.573,568.666s-20.35,32.513-12.31,63.692c0,0-1.007-28.48,13.428-43.578a59.6,59.6,0,0,0,7.834,21.23s-5.051-22.66,1.119-30.17c0,0-1.109,15.1,5.595,23.465,0,0-1.924-22.707,1.119-35.757,0,0-.2,16.915,4.477,21.231,0,0-2.1-24.479,4.476-35.757,0,0-1.266,20.44,5.6,29.052,0,0-5.223-28.29,5.595-41.343,0,0-1.229,16.532,2.238,23.465,0,0,.968-30.023,11.19-37.992,0,0-3,15.688-1.119,23.466,0,0,3.726-23.47,12.31-33.522,0,0-2.022,14.3,0,23.465,0,0,1.794-26.966,12.309-33.522,0,0-2.121,21.085,1.119,26.818,0,0,3.892-26.121,11.19-36.874,0,0,.453,21.1-22.381,67.043s-59.176,116.836-71.619,148.613-19.023,55.87-19.023,55.87l10.071,6.7s22.3-70.918,42.523-113.974,35.647-67.039,44.762-90.508,14.622-46.926,24.619-55.87c0,0,4.223,7.193-8.953,30.17,0,0,7.347-5.358,12.31-16.761,0,0-1.322,21.078-8.953,32.4,0,0,11.294-8.535,13.428-15.643,0,0-2.718,22.429-16.785,35.756,0,0,11.579-4.892,16.785-15.644,0,0-4.651,25.878-22.381,35.757,0,0,16.464-2.831,24.619-19,0,0-14.507,25.4-19.023,29.052a33.088,33.088,0,0,0,16.785-15.644s-10.772,24.38-21.261,29.052c0,0,13.681-3.318,20.142-13.408,0,0-5.229,15.163-15.667,21.23,0,0,11.443-.321,16.785-7.822,0,0-2.071,23.665-16.785,41.344,0,0,25.187-13.193,29.095-55.87,0,0,4.822,3.983,1.119,22.348,0,0,11.132-8.434,10.071-41.344,0,0,10.4,13.149,8.953,24.582,0,0,8.447-16.812-2.238-40.225,0,0,6.782,7.134,8.952,15.643,0,0,6.229-17.174-14.547-35.756a19.948,19.948,0,0,1,14.547,8.939c-1.147.191,5.423-9.13-22.38-29.052,0,0,8.044-.476,15.667,7.822,0,0,3.522-14.567-26.857-32.4,0,0,11.635.56,16.785,5.587,0,0-8.756-21.52-24.619-27.935,0,0,11.723.282,26.857,24.582v-6.7s3.864,9.124,5.6,14.526l2.238-7.822s1.972,10.443,4.476,15.644l2.238-6.7a64.145,64.145,0,0,0,3.358,14.526s-.286-6.265,1.119-7.822c0,0-.751,11.867,1.119,17.878,0,0,2.985-6.063,5.595-8.939,0,0,2,17.015,0,21.23a14.261,14.261,0,0,0,5.6-8.939c1.046-5.966,0-1.117,0-1.117s1.323,16.544-1.119,21.23c0,0,3.763-5.679,4.476-10.056,0,0-.689,13.836-3.357,19,0,0,6.58-4.608,6.714-8.94,0,0-1.451,13.526-6.714,19,0,0,6.73-3.7,8.953-10.056,0,0-1.388,15.272-11.191,21.23,0,0,9.476-1.8,12.31-6.7,0,0-5.529,14.235-10.072,16.761,0,0,8.322-2.4,11.19-6.7,0,0-6.077,16.1-13.428,21.23,0,0,8.466-1.984,12.31-6.7,0,0-5.027,20.262-11.191,23.465,0,0,19.954-6.289,21.261-44.7a17.019,17.019,0,0,1,3.358,16.76s9.3-14.825-2.238-37.991c0,0,7.725,1.433,11.19,13.408,0,0,6.281-21.923-17.905-42.461,0,0,5.935-1.677,10.072,5.587,0,0,1.709-17.9-23.5-30.17,0,0,.849-4.573,10.072,1.118,0,0-4.867-18.775-34.691-23.465,0,0,1.159-5.97,11.191-2.235,0,0-11.108-10.682-24.619-13.409,0,0,12.506-4.535,27.976,3.352,0,0,3.752-2.8-10.072-10.056,0,0,13.534-.417,25.738,12.292,0,0,6.3-5.833-10.071-13.409,0,0,13.057-4.333,27.976,15.644,0,0,2.567-10.521-12.31-17.878,0,0,17.915,3.529,30.214,22.348,0,0,4.9-8.362-10.071-20.113,0,0,18.51,9.519,26.857,26.818,0,0,7.784-5.977-6.715-20.113,0,0,17.651,10.464,19.024,26.817,0,0,6.985-3.661-2.239-19,0,0,23.584,14.566,31.334,35.756,0,0,1.588-33.258-43.642-53.635s-83.6-9.112-94-6.7c0,0,3.264-8.406,36.929-8.939a95.823,95.823,0,0,0-20.143-3.352s13.838-9.089,43.643-4.47a55.971,55.971,0,0,0-25.738-5.587s14.442-8.008,50.357,0c0,0,1.982-9.27-21.262-12.291,0,0,22.965-3.233,49.238,12.291,0,0,2.451-8.423-23.5-17.878,0,0,25.913,3.262,40.286,10.056,0,0-3.127-9.4-22.38-13.408,0,0,26.833,1.387,42.523,13.408,0,0-1.918-9.889-19.024-14.526,0,0,12.424-2.079,31.334,10.057,0,0-1.245-9.829-14.547-14.526,0,0,35.007-3.159,57.072,8.939,0,0-24.008-25.579-82.81-16.761,0,0,10.081-11.745,35.81-7.822,0,0-19.672-11.428-60.429,0,0,0,8.446-11.74,33.571-15.644,0,0-22.774-9.127-59.309,16.761a42.83,42.83,0,0,1,22.381-16.761s-22.46-7.561-50.358,30.17c0,0-4.332-7.957,12.309-22.348,0,0-21.977,3.224-38.047,37.992,0,0-4.524-5.96,6.715-19,0,0-18.267-1.105-29.095,32.4l-3.358,15.732s-4.054-.872-1.119-10.068,4.886-23.29,3.357-29.086c0,0-5.829,16.374-10.071,16.781,0,0,11.865-23.561,0-45.867,0,0,.526,15.949-6.714,17.9,0,0,6.5-32.586-19.024-49.222,0,0,6.641,14,6.715,21.255,0,0-12.1-33.8-39.167-45.867,0,0,19.444,20.975,19.023,30.2,0,0-19.455-30.583-61.548-39.154,0,0,29.2,12.042,36.928,27.967,0,0-32.558-29.342-67.142-29.086,0,0,28.231,9.631,35.809,17.9,0,0-14.569-3.708-27.976-1.118,0,0,29.268.625,41.4,12.305,0,0-21.212-6.5-31.333-2.237,0,0,40.536,4.872,48.118,14.543,0,0-20.082-7.827-27.976-5.594,0,0,39.16,10.178,44.762,22.374,0,0-19.723-14.138-39.167-11.187,0,0,43.171,13.634,54.833,29.086,0,0-14.712-11.281-24.619-11.187,0,0,35.966,20.534,36.928,33.561,0,0-11.153-12.658-20.143-15.662,0,0,24.915,18.952,24.619,34.68,0,0-12.63-16.74-22.381-19.018,0,0,24.067,22.161,24.62,29.086s.633,10.143-4.477-1.119-14.547-20.136-14.547-20.136,2.281,5.324,2.238,8.949c0,0-18.339-39.274-57.071-46.985,0,0,13.4,5.569,16.785,13.424,0,0-30.544-22.605-59.31-17.9,0,0,19.978,1.881,23.5,6.712,0,0-41.85-6.861-72.738,17.9,0,0,38.6-3.754,57.072-1.119,0,0-5.5,5.694-7.834,11.187,0,0,14.035-13.1,23.5-11.187,0,0-10.852,4.418-12.31,11.187,0,0,15.2-10.62,24.619-8.95,0,0-8.847,7.748-10.072,12.305,0,0,12.522-9.4,21.262-7.831,0,0-6.5,1.3-7.834,10.069,0,0,9.141-9.813,20.143-4.475,0,0-9.756-1.435-13.428,7.831,0,0,17.521-8.9,24.619-1.118,0,0-10.9.178-14.547,5.594,0,0,14.633-4.323,21.261,1.118,0,0-15.948-.863-19.023,2.237,0,0,22.076-.966,25.738,5.594,0,0-10.9,3.222-19.024,0,0,0,15.153,6.813,14.547,10.068,0,0-26.781-18.345-62.666-8.949,0,0,17.412,2.259,19.023,6.712,0,0-34.147-2.787-45.881,0,0,0,16.162-.029,19.024,3.356,0,0-32.994,11.373-47,27.967,0,0,14.423-7.983,20.143-8.949,0,0-18.887,27.969-23.5,50.341,0,0,27.746-34.37,49.238-42.51,0,0-3.75,7.6-3.357,15.662,0,0,4.933-17.432,14.547-20.137,0,0-6.379,9.874-5.6,20.137,0,0,6.528-18.342,14.548-22.374,0,0-4.547,13.173-2.238,19.018,0,0,3.278-16.224,10.072-19.018,0,0-2.251,8.318,0,15.662,0,0,2.167-17,11.191-19.018a23.007,23.007,0,0,0-3.357,17.9s3.914-16.224,14.547-16.781a22.765,22.765,0,0,0-5.6,14.543s4.2-13.058,14.548-14.543c0,0-8.068,10.75-10.071,17.9,0,0,11.083-13.135,15.667-14.543,0,0-5.715,7.82-4.476,14.543,0,0,6.564-11.785,13.429-14.543,0,0,1.036,9.319-6.715,10.068,0,0,15.053,3.717,15.667,8.949,0,0-28.753-8.123-42.524,7.832,0,0,19.594-1.25,20.143,3.356,0,0-28.879-2.579-39.167,8.95,0,0,17.686-1.7,21.262,1.118,0,0-28.123,1.485-36.928,19.018,0,0,14.282-6.677,20.143-5.594,0,0-26.294,7.083-32.453,32.442,0,0,15.137-15.585,24.619-17.9,0,0-17.056,19.224-19.023,42.51C1554.787,589.018,1562.9,570.523,1571.573,568.666Z" transform="translate(-1498.835 -325.006)" fill="teal"/>
    </g>
  </g>
</svg>
