<svg xmlns="http://www.w3.org/2000/svg" width="325.75" height="367" viewBox="0 0 325.75 367">
  <g id="cocotree" opacity="0.21">
    <path id="cocotree-2" data-name="cocotree" d="M1765.274,524.051s16.593,26.56,10.037,52.03c0,0,.821-23.265-10.95-35.6a48.738,48.738,0,0,1-6.387,17.343s4.119-18.511-.912-24.646c0,0,.9,12.334-4.562,19.169,0,0,1.569-18.549-.912-29.21,0,0,.166,13.818-3.65,17.344,0,0,1.709-20-3.65-29.21,0,0,1.032,16.7-4.562,23.733,0,0,4.259-23.11-4.562-33.773,0,0,1,13.505-1.825,19.168,0,0-.789-24.525-9.125-31.035,0,0,2.45,12.815.912,19.169,0,0-3.038-19.172-10.037-27.384,0,0,1.649,11.683,0,19.169,0,0-1.463-22.028-10.037-27.384,0,0,1.73,17.224-.912,21.907,0,0-3.174-21.338-9.125-30.122,0,0-.369,17.238,18.249,54.767s48.251,95.443,58.4,121.4,15.512,45.64,15.512,45.64l-8.212,5.477s-18.185-57.933-34.673-93.105-29.066-54.765-36.5-73.936-11.923-38.334-20.074-45.64c0,0-3.443,5.876,7.3,24.646,0,0-5.99-4.377-10.037-13.692,0,0,1.078,17.219,7.3,26.471,0,0-9.209-6.972-10.949-12.779,0,0,2.216,18.323,13.687,29.209,0,0-9.441-4-13.687-12.779,0,0,3.792,21.14,18.249,29.21a30.02,30.02,0,0,1-20.074-15.518s11.829,20.753,15.511,23.733a26.994,26.994,0,0,1-13.687-12.779s8.783,19.916,17.336,23.733c0,0-11.155-2.711-16.424-10.953,0,0,4.263,12.386,12.774,17.343,0,0-9.33-.263-13.687-6.39,0,0,1.688,19.332,13.687,33.773,0,0-20.537-10.778-23.724-45.64,0,0-3.931,3.254-.912,18.256,0,0-9.077-6.889-8.212-33.774,0,0-8.479,10.741-7.3,20.081,0,0-6.888-13.734,1.825-32.86,0,0-5.53,5.828-7.3,12.779,0,0-5.079-14.029,11.862-29.209a16.258,16.258,0,0,0-11.862,7.3c.936.156-4.422-7.458,18.249-23.733,0,0-6.559-.389-12.774,6.39,0,0-2.872-11.9,21.9-26.471,0,0-9.487.457-13.687,4.564,0,0,7.14-17.58,20.074-22.82,0,0-9.559.23-21.9,20.081v-5.477s-3.151,7.453-4.562,11.866l-1.825-6.39s-1.608,8.531-3.65,12.779l-1.825-5.477a52.485,52.485,0,0,1-2.738,11.866s.233-5.118-.912-6.39c0,0,.613,9.694-.913,14.6a40.994,40.994,0,0,0-4.562-7.3s-1.629,13.9,0,17.343a11.65,11.65,0,0,1-4.563-7.3c-.853-4.874,0-.912,0-.912s-1.079,13.514.913,17.343c0,0-3.068-4.639-3.65-8.215,0,0,.563,11.3,2.737,15.518,0,0-5.365-3.764-5.474-7.3,0,0,1.183,11.049,5.474,15.518,0,0-5.487-3.02-7.3-8.215,0,0,1.132,12.476,9.125,17.343,0,0-7.727-1.471-10.037-5.477,0,0,4.509,11.629,8.212,13.692,0,0-6.786-1.96-9.124-5.477,0,0,4.955,13.15,10.949,17.343,0,0-6.9-1.62-10.037-5.477,0,0,4.1,16.552,9.125,19.169,0,0-16.27-5.137-17.336-36.512a13.92,13.92,0,0,0-2.738,13.692s-7.583-12.111,1.825-31.035c0,0-6.3,1.171-9.125,10.953,0,0-5.121-17.909,14.6-34.687,0,0-4.84-1.37-8.213,4.564,0,0-1.393-14.619,19.162-24.646,0,0-.693-3.736-8.212.913,0,0,3.969-15.337,28.286-19.169,0,0-.945-4.877-9.125-1.825,0,0,9.057-8.727,20.074-10.954,0,0-10.2-3.7-22.812,2.738,0,0-3.06-2.29,8.212-8.215,0,0-11.036-.341-20.987,10.041,0,0-5.135-4.765,8.212-10.954,0,0-10.646-3.54-22.812,12.779,0,0-2.093-8.6,10.037-14.6,0,0-14.608,2.883-24.636,18.256,0,0-4-6.831,8.212-16.431,0,0-15.093,7.776-21.9,21.907,0,0-6.347-4.883,5.475-16.43,0,0-14.393,8.548-15.512,21.907,0,0-5.7-2.991,1.826-15.517,0,0-19.23,11.9-25.549,29.209,0,0-1.295-27.168,35.586-43.815s68.167-7.444,76.647-5.477c0,0-2.661-6.867-30.112-7.3a78,78,0,0,1,16.425-2.738s-11.283-7.425-35.586-3.651a45.571,45.571,0,0,1,20.987-4.564s-11.776-6.542-41.061,0c0,0-1.617-7.573,17.337-10.04,0,0-18.726-2.641-40.148,10.04,0,0-2-6.881,19.162-14.6,0,0-21.13,2.664-32.849,8.215,0,0,2.549-7.676,18.249-10.953,0,0-21.879,1.133-34.674,10.953,0,0,1.564-8.078,15.512-11.866,0,0-10.131-1.7-25.549,8.216,0,0,1.015-8.029,11.862-11.866,0,0-28.545-2.581-46.536,7.3,0,0,19.576-20.9,67.522-13.692,0,0-8.22-9.594-29.2-6.39,0,0,16.04-9.336,49.273,0,0,0-6.887-9.59-27.374-12.779,0,0,18.569-7.456,48.36,13.692a34.937,34.937,0,0,0-18.25-13.692s18.313-6.177,41.061,24.646c0,0,3.532-6.5-10.037-18.256,0,0,17.92,2.633,31.023,31.035,0,0,3.689-4.869-5.475-15.518,0,0,14.895-.9,23.724,26.471l2.738,12.852s3.305-.712.912-8.225-3.984-19.025-2.737-23.76c0,0,4.752,13.376,8.212,13.708,0,0-9.674-19.247,0-37.468,0,0-.429,13.029,5.475,14.622,0,0-5.3-26.619,15.512-40.21,0,0-5.416,11.439-5.475,17.363,0,0,9.864-27.613,31.936-37.468,0,0-15.854,17.134-15.512,24.674,0,0,15.863-24.983,50.186-31.985,0,0-23.806,9.837-30.112,22.846,0,0,26.548-23.97,54.747-23.76,0,0-23.019,7.868-29.2,14.622,0,0,11.88-3.029,22.811-.914,0,0-23.865.51-33.761,10.052,0,0,17.3-5.312,25.549-1.828,0,0-33.053,3.98-39.236,11.88,0,0,16.375-6.394,22.812-4.569,0,0-31.931,8.314-36.5,18.277,0,0,16.082-11.55,31.936-9.139,0,0-35.2,11.137-44.71,23.76,0,0,12-9.216,20.074-9.139,0,0-29.327,16.774-30.111,27.416,0,0,9.094-10.34,16.425-12.794,0,0-20.315,15.482-20.074,28.33,0,0,10.3-13.675,18.25-15.536,0,0-19.624,18.1-20.075,23.76s-.516,8.286,3.651-.914,11.862-16.449,11.862-16.449-1.86,4.349-1.825,7.311c0,0,14.953-32.083,46.535-38.382,0,0-10.927,4.549-13.687,10.966,0,0,24.906-18.466,48.361-14.622,0,0-16.29,1.536-19.162,5.483,0,0,34.124-5.6,59.31,14.622,0,0-31.477-3.067-46.536-.914,0,0,4.485,4.652,6.388,9.139,0,0-11.444-10.7-19.162-9.139,0,0,8.848,3.609,10.037,9.139,0,0-12.4-8.676-20.074-7.311,0,0,7.214,6.329,8.212,10.052,0,0-10.211-7.676-17.337-6.4,0,0,5.3,1.059,6.387,8.225,0,0-7.453-8.016-16.425-3.656,0,0,7.955-1.172,10.95,6.4,0,0-14.286-7.272-20.074-.914,0,0,8.888.145,11.862,4.569,0,0-11.931-3.532-17.336.914,0,0,13-.7,15.511,1.828,0,0-18-.789-20.986,4.569,0,0,8.887,2.632,15.512,0,0,0-12.355,5.565-11.862,8.225,0,0,21.837-14.986,51.1-7.31,0,0-14.2,1.846-15.512,5.483,0,0,27.843-2.277,37.411,0,0,0-13.178-.024-15.512,2.742,0,0,26.9,9.291,38.323,22.846,0,0-11.76-6.521-16.425-7.31,0,0,15.4,22.848,19.162,41.124,0,0-22.624-28.077-40.149-34.727a29.637,29.637,0,0,1,2.738,12.794s-4.022-14.24-11.862-16.45c0,0,5.2,8.066,4.562,16.45,0,0-5.323-14.984-11.862-18.277,0,0,3.708,10.761,1.825,15.536,0,0-2.673-13.253-8.212-15.536,0,0,1.836,6.8,0,12.794,0,0-1.767-13.887-9.125-15.536a18.821,18.821,0,0,1,2.737,14.622s-3.191-13.254-11.862-13.708a18.615,18.615,0,0,1,4.563,11.88s-3.421-10.667-11.862-11.88c0,0,6.578,8.782,8.211,14.622,0,0-9.036-10.73-12.774-11.88,0,0,4.66,6.389,3.65,11.88,0,0-5.352-9.627-10.949-11.88,0,0-.844,7.613,5.475,8.225,0,0-12.274,3.036-12.775,7.31,0,0,23.445-6.636,34.674,6.4,0,0-15.977-1.021-16.425,2.741,0,0,23.548-2.107,31.937,7.311,0,0-14.421-1.386-17.337.914,0,0,22.931,1.213,30.111,15.536,0,0-11.646-5.455-16.425-4.569,0,0,21.44,5.786,26.462,26.5,0,0-12.342-12.731-20.074-14.622,0,0,13.908,15.7,15.511,34.727C1778.961,540.677,1772.345,525.569,1765.274,524.051Z" transform="translate(-1498.835 -325.006)" fill="teal" fill-rule="evenodd"/>
  </g>
</svg>
