<svg xmlns="http://www.w3.org/2000/svg" width="354.016" height="398.111" viewBox="0 0 354.016 398.111">
  <g id="Group_638" data-name="Group 638" transform="translate(60 -789.809)">
    <g id="cocotree" transform="translate(-60 789.809)" opacity="0.21">
      <path id="cocotree-2" data-name="cocotree" d="M1563.292,540.924s-18.033,28.812-10.908,56.44c0,0-.892-25.237,11.9-38.617a52.81,52.81,0,0,0,6.942,18.813s-4.476-20.08.992-26.735c0,0-.982,13.379,4.958,20.794,0,0-1.705-20.121.992-31.686,0,0-.18,14.989,3.967,18.814,0,0-1.857-21.692,3.966-31.686,0,0-1.122,18.113,4.959,25.744,0,0-4.628-25.069,4.958-36.636,0,0-1.089,14.65,1.983,20.793,0,0,.858-26.6,9.916-33.666,0,0-2.662,13.9-.992,20.794,0,0,3.3-20.8,10.908-29.705,0,0-1.792,12.674,0,20.794,0,0,1.59-23.9,10.908-29.705,0,0-1.88,18.685.992,23.764,0,0,3.449-23.147,9.916-32.676,0,0,.4,18.7-19.833,59.41s-52.438,103.534-63.465,131.693-16.857,49.509-16.857,49.509l8.925,5.941s19.762-62.844,37.682-101,31.589-59.407,39.666-80.2,12.957-41.583,21.816-49.509c0,0,3.742,6.374-7.933,26.735,0,0,6.51-4.748,10.908-14.853,0,0-1.172,18.678-7.933,28.715,0,0,10.008-7.563,11.9-13.862,0,0-2.409,19.876-14.874,31.685,0,0,10.261-4.335,14.874-13.863,0,0-4.121,22.932-19.833,31.686a32.625,32.625,0,0,0,21.816-16.833s-12.855,22.512-16.858,25.744a29.321,29.321,0,0,0,14.874-13.863s-9.546,21.6-18.841,25.745c0,0,12.123-2.94,17.849-11.882,0,0-4.633,13.436-13.883,18.813,0,0,10.14-.285,14.874-6.931,0,0-1.835,20.971-14.874,36.637,0,0,22.319-11.691,25.782-49.509,0,0,4.273,3.53.992,19.8,0,0,9.865-7.473,8.925-36.637,0,0,9.215,11.652,7.933,21.784,0,0,7.486-14.9-1.983-35.646,0,0,6.01,6.322,7.933,13.862,0,0,5.52-15.219-12.891-31.685a17.677,17.677,0,0,1,12.891,7.921c-1.017.17,4.806-8.091-19.832-25.744,0,0,7.128-.422,13.883,6.931,0,0,3.121-12.908-23.8-28.715,0,0,10.31.5,14.874,4.951,0,0-7.759-19.07-21.816-24.755,0,0,10.389.25,23.8,21.784v-5.941s3.424,8.085,4.959,12.872l1.983-6.931s1.747,9.254,3.966,13.863l1.983-5.941a56.84,56.84,0,0,0,2.975,12.872s-.253-5.552.992-6.931c0,0-.666,10.516.992,15.843,0,0,2.645-5.373,4.958-7.921,0,0,1.77,15.078,0,18.813a12.637,12.637,0,0,0,4.959-7.922c.927-5.287,0-.99,0-.99s1.172,14.66-.992,18.813c0,0,3.334-5.032,3.966-8.911,0,0-.611,12.261-2.975,16.833,0,0,5.831-4.083,5.949-7.922,0,0-1.286,11.986-5.949,16.833,0,0,5.964-3.276,7.933-8.911,0,0-1.23,13.533-9.917,18.813,0,0,8.4-1.6,10.908-5.941,0,0-4.9,12.614-8.925,14.852,0,0,7.375-2.126,9.916-5.941,0,0-5.385,14.264-11.9,18.813,0,0,7.5-1.758,10.908-5.941,0,0-4.455,17.955-9.917,20.794,0,0,17.682-5.573,18.841-39.607a15.081,15.081,0,0,1,2.975,14.852s8.241-13.137-1.983-33.665c0,0,6.845,1.27,9.916,11.882,0,0,5.565-19.427-15.867-37.627,0,0,5.259-1.486,8.925,4.951,0,0,1.515-15.858-20.825-26.735,0,0,.753-4.053,8.925.99,0,0-4.313-16.637-30.741-20.794,0,0,1.027-5.29,9.917-1.98,0,0-9.844-9.466-21.816-11.882,0,0,11.082-4.019,24.791,2.97,0,0,3.325-2.484-8.925-8.911,0,0,11.993-.37,22.808,10.892,0,0,5.581-5.169-8.924-11.883,0,0,11.57-3.84,24.791,13.863,0,0,2.275-9.324-10.908-15.843,0,0,15.875,3.127,26.774,19.8,0,0,4.346-7.41-8.924-17.823,0,0,16.4,8.436,23.8,23.764,0,0,6.9-5.3-5.95-17.823,0,0,15.642,9.273,16.858,23.764,0,0,6.189-3.244-1.984-16.832,0,0,20.9,12.908,27.766,31.685,0,0,1.407-29.471-38.674-47.529s-74.082-8.075-83.3-5.941c0,0,2.892-7.449,32.724-7.921a84.913,84.913,0,0,0-17.85-2.97s12.263-8.055,38.674-3.961a49.6,49.6,0,0,0-22.808-4.951s12.8-7.1,44.624,0c0,0,1.757-8.214-18.841-10.891,0,0,20.35-2.865,43.632,10.891,0,0,2.172-7.464-20.825-15.843,0,0,22.963,2.89,35.7,8.911,0,0-2.771-8.326-19.832-11.882,0,0,23.778,1.229,37.682,11.882,0,0-1.7-8.763-16.858-12.872,0,0,11.01-1.842,27.766,8.912,0,0-1.1-8.71-12.891-12.872,0,0,31.021-2.8,50.574,7.921,0,0-21.275-22.667-73.382-14.852,0,0,8.933-10.408,31.733-6.931,0,0-17.432-10.127-53.549,0,0,0,7.484-10.4,29.749-13.863,0,0-20.181-8.088-52.557,14.853a37.954,37.954,0,0,1,19.833-14.853s-19.9-6.7-44.624,26.735c0,0-3.839-7.051,10.908-19.8,0,0-19.475,2.857-33.716,33.666,0,0-4.009-5.281,5.95-16.833,0,0-16.188-.979-25.782,28.715l-2.975,13.941s-3.592-.773-.992-8.922,4.33-20.638,2.975-25.774c0,0-5.165,14.51-8.924,14.87,0,0,10.514-20.878,0-40.645,0,0,.466,14.133-5.95,15.861,0,0,5.758-28.876-16.858-43.618,0,0,5.885,12.409,5.95,18.835,0,0-10.72-29.953-34.707-40.645,0,0,17.23,18.587,16.858,26.766,0,0-17.24-27.1-54.54-34.7,0,0,25.871,10.671,32.724,24.783,0,0-28.851-26-59.5-25.774,0,0,25.017,8.535,31.732,15.861,0,0-12.91-3.286-24.791-.991,0,0,25.936.554,36.69,10.9,0,0-18.8-5.762-27.766-1.983,0,0,35.921,4.317,42.64,12.887,0,0-17.8-6.936-24.791-4.957,0,0,34.7,9.019,39.666,19.827,0,0-17.477-12.529-34.707-9.913,0,0,38.256,12.082,48.59,25.774,0,0-13.037-10-21.816-9.913,0,0,31.872,18.2,32.724,29.74,0,0-9.883-11.217-17.85-13.878,0,0,22.078,16.794,21.816,30.731,0,0-11.192-14.834-19.833-16.853,0,0,21.327,19.638,21.817,25.774s.561,8.988-3.967-.992-12.891-17.844-12.891-17.844,2.021,4.718,1.983,7.93c0,0-16.251-34.8-50.573-41.636,0,0,11.875,4.935,14.874,11.9,0,0-27.067-20.031-52.557-15.861,0,0,17.7,1.667,20.825,5.948,0,0-37.085-6.08-64.457,15.862,0,0,34.208-3.327,50.574-.992,0,0-4.874,5.046-6.942,9.913,0,0,12.437-11.611,20.825-9.913,0,0-9.616,3.915-10.908,9.913,0,0,13.471-9.411,21.816-7.931,0,0-7.84,6.866-8.925,10.9,0,0,11.1-8.327,18.841-6.939,0,0-5.763,1.149-6.942,8.922,0,0,8.1-8.7,17.85-3.966,0,0-8.645-1.271-11.9,6.939,0,0,15.526-7.888,21.816-.991,0,0-9.659.157-12.891,4.957,0,0,12.967-3.831,18.841.991,0,0-14.133-.764-16.858,1.983,0,0,19.562-.856,22.808,4.957,0,0-9.658,2.855-16.858,0,0,0,13.428,6.037,12.891,8.922,0,0-23.732-16.256-55.531-7.93,0,0,15.43,2,16.858,5.948,0,0-30.259-2.47-40.657,0,0,0,14.322-.026,16.858,2.974,0,0-29.237,10.078-41.649,24.783,0,0,12.781-7.074,17.85-7.93,0,0-16.736,24.785-20.825,44.61,0,0,24.587-30.457,43.632-37.67a32.106,32.106,0,0,0-2.975,13.878s4.371-15.447,12.891-17.844c0,0-5.652,8.75-4.958,17.844,0,0,5.785-16.254,12.891-19.827,0,0-4.03,11.673-1.983,16.853,0,0,2.9-14.376,8.925-16.853,0,0-1.995,7.371,0,13.879,0,0,1.921-15.064,9.917-16.853a20.388,20.388,0,0,0-2.975,15.862s3.469-14.377,12.891-14.87a20.173,20.173,0,0,0-4.959,12.888s3.718-11.571,12.891-12.888c0,0-7.149,9.526-8.924,15.861,0,0,9.821-11.64,13.883-12.887,0,0-5.064,6.93-3.966,12.887,0,0,5.817-10.443,11.9-12.887,0,0,.918,8.258-5.95,8.922,0,0,13.339,3.294,13.883,7.93,0,0-25.479-7.2-37.682,6.94,0,0,17.364-1.107,17.85,2.974,0,0-25.591-2.286-34.708,7.931,0,0,15.672-1.5,18.841.991,0,0-24.921,1.316-32.724,16.853,0,0,12.656-5.917,17.85-4.957,0,0-23.3,6.277-28.758,28.749,0,0,13.414-13.811,21.816-15.861,0,0-15.114,17.035-16.858,37.67C1548.417,558.96,1555.608,542.571,1563.292,540.924Z" transform="translate(-1498.835 -325.006)" fill="teal"/>
    </g>
  </g>
</svg>
