<svg xmlns="http://www.w3.org/2000/svg" width="26.341" height="21.552" viewBox="0 0 26.341 21.552">
  <path id="Icon_material-photo-size-select-small" data-name="Icon material-photo-size-select-small" d="M27.841,18.868H25.446v2.395h2.395Zm0-4.789H25.446v2.395h2.395Zm0,9.579H25.446v2.395A2.575,2.575,0,0,0,27.841,23.657ZM18.262,4.5H15.868V6.895h2.395Zm9.579,4.789H25.446v2.395h2.395ZM25.446,4.5V6.895h2.395A2.575,2.575,0,0,0,25.446,4.5ZM3.895,26.052h9.579V18.868H1.5v4.789A2.4,2.4,0,0,0,3.895,26.052Zm0-16.762H1.5v2.395H3.895ZM18.262,23.657H15.868v2.395h2.395ZM23.052,4.5H20.657V6.895h2.395Zm0,19.157H20.657v2.395h2.395ZM3.895,4.5A2.575,2.575,0,0,0,1.5,6.895H3.895Zm0,9.579H1.5v2.395H3.895ZM13.473,4.5H11.079V6.895h2.395Zm-4.789,0H6.289V6.895H8.684Z" transform="translate(-1.5 -4.5)" fill="teal"/>
</svg>
