<svg width="20" height="20" viewBox="0 0 20 20" fill="none" xmlns="http://www.w3.org/2000/svg">
<path id="Vector" d="M18.3333 0H1.66667C1.22464 0 0.800716 0.175595 0.488155 0.488155C0.175595 0.800716 0 1.22464 0 1.66667V18.3333C0 18.7754 0.175595 19.1993 0.488155 19.5118C0.800716 19.8244 1.22464 20 1.66667 20H18.3333C18.7754 20 19.1993 19.8244 19.5118 19.5118C19.8244 19.1993 20 18.7754 20 18.3333V1.66667C20 1.22464 19.8244 0.800716 19.5118 0.488155C19.1993 0.175595 18.7754 0 18.3333 0ZM14.7563 8.08958L8.92292 13.9229C8.84552 14.0004 8.75361 14.0619 8.65245 14.1038C8.55128 14.1457 8.44285 14.1673 8.33333 14.1673C8.22382 14.1673 8.11538 14.1457 8.01422 14.1038C7.91305 14.0619 7.82114 14.0004 7.74375 13.9229L5.24375 11.4229C5.08738 11.2665 4.99954 11.0545 4.99954 10.8333C4.99954 10.6122 5.08738 10.4001 5.24375 10.2437C5.40012 10.0874 5.6122 9.99954 5.83333 9.99954C6.05447 9.99954 6.26655 10.0874 6.42292 10.2437L8.33333 12.1552L13.5771 6.91042C13.6545 6.83299 13.7464 6.77157 13.8476 6.72967C13.9487 6.68777 14.0572 6.6662 14.1667 6.6662C14.2762 6.6662 14.3846 6.68777 14.4857 6.72967C14.5869 6.77157 14.6788 6.83299 14.7563 6.91042C14.8337 6.98784 14.8951 7.07976 14.937 7.18092C14.9789 7.28208 15.0005 7.3905 15.0005 7.5C15.0005 7.6095 14.9789 7.71792 14.937 7.81908C14.8951 7.92024 14.8337 8.01216 14.7563 8.08958Z" fill="#E4509A"/>
</svg>
