<svg width="66" height="65" viewBox="0 0 66 65" fill="none" xmlns="http://www.w3.org/2000/svg">
<g id="Icon-WarningCircle">
<path id="Vector" d="M33 6.09375C27.7773 6.09375 22.672 7.64245 18.3295 10.544C13.987 13.4456 10.6024 17.5697 8.60382 22.3948C6.60519 27.2199 6.08226 32.5293 7.10115 37.6516C8.12004 42.7739 10.635 47.4791 14.328 51.172C18.021 54.865 22.7261 57.38 27.8484 58.3989C32.9707 59.4178 38.2801 58.8948 43.1052 56.8962C47.9304 54.8976 52.0545 51.513 54.956 47.1705C57.8576 42.828 59.4063 37.7227 59.4063 32.5C59.3989 25.4989 56.6144 18.7867 51.6639 13.8361C46.7134 8.8856 40.0011 6.10114 33 6.09375ZM33 54.8438C28.5808 54.8438 24.2609 53.5333 20.5865 51.0781C16.9121 48.623 14.0482 45.1334 12.3571 41.0506C10.6659 36.9678 10.2235 32.4752 11.0856 28.141C11.9477 23.8067 14.0758 19.8254 17.2006 16.7006C20.3254 13.5758 24.3067 11.4477 28.641 10.5856C32.9752 9.72344 37.4678 10.1659 41.5506 11.8571C45.6334 13.5482 49.123 16.4121 51.5782 20.0865C54.0333 23.7609 55.3438 28.0808 55.3438 32.5C55.337 38.4239 52.9808 44.1032 48.792 48.292C44.6032 52.4808 38.9239 54.837 33 54.8438ZM30.9688 34.5312V20.3125C30.9688 19.7738 31.1828 19.2571 31.5637 18.8762C31.9446 18.4953 32.4613 18.2812 33 18.2812C33.5387 18.2812 34.0554 18.4953 34.4363 18.8762C34.8173 19.2571 35.0313 19.7738 35.0313 20.3125V34.5312C35.0313 35.07 34.8173 35.5866 34.4363 35.9676C34.0554 36.3485 33.5387 36.5625 33 36.5625C32.4613 36.5625 31.9446 36.3485 31.5637 35.9676C31.1828 35.5866 30.9688 35.07 30.9688 34.5312ZM36.0469 43.6719C36.0469 44.2745 35.8682 44.8636 35.5334 45.3646C35.1986 45.8657 34.7227 46.2562 34.166 46.4868C33.6093 46.7174 32.9966 46.7778 32.4056 46.6602C31.8146 46.5426 31.2717 46.2525 30.8455 45.8263C30.4194 45.4002 30.1292 44.8573 30.0117 44.2663C29.8941 43.6753 29.9545 43.0626 30.1851 42.5059C30.4157 41.9491 30.8062 41.4733 31.3073 41.1385C31.8083 40.8037 32.3974 40.625 33 40.625C33.8081 40.625 34.5831 40.946 35.1545 41.5174C35.7259 42.0888 36.0469 42.8638 36.0469 43.6719Z" fill="#BB251A"/>
</g>
</svg>
