<svg width="25" height="26" viewBox="0 0 25 26" fill="none" xmlns="http://www.w3.org/2000/svg">
<g id="Icon-Envelope">
<path id="Vector" d="M21.875 5.1875H3.125C2.9178 5.1875 2.71909 5.26981 2.57257 5.41632C2.42606 5.56284 2.34375 5.76155 2.34375 5.96875V19.25C2.34375 19.6644 2.50837 20.0618 2.8014 20.3549C3.09442 20.6479 3.49185 20.8125 3.90625 20.8125H21.0938C21.5082 20.8125 21.9056 20.6479 22.1986 20.3549C22.4916 20.0618 22.6562 19.6644 22.6562 19.25V5.96875C22.6562 5.76155 22.5739 5.56284 22.4274 5.41632C22.2809 5.26981 22.0822 5.1875 21.875 5.1875ZM12.5 13.5029L5.13379 6.75H19.8662L12.5 13.5029ZM9.63965 13L3.90625 18.2549V7.74512L9.63965 13ZM10.7959 14.0596L11.9678 15.1387C12.1119 15.271 12.3004 15.3444 12.4961 15.3444C12.6917 15.3444 12.8803 15.271 13.0244 15.1387L14.1963 14.0596L19.8604 19.25H5.13379L10.7959 14.0596ZM15.3604 13L21.0938 7.74414V18.2559L15.3604 13Z" fill="#008080"/>
</g>
</svg>
