<svg width="24" height="24" viewBox="0 0 24 24" fill="none" xmlns="http://www.w3.org/2000/svg">
<path id="Vector" d="M22 0H2C1.46957 0 0.960859 0.210714 0.585786 0.585786C0.210714 0.960859 0 1.46957 0 2V22C0 22.5304 0.210714 23.0391 0.585786 23.4142C0.960859 23.7893 1.46957 24 2 24H22C22.5304 24 23.0391 23.7893 23.4142 23.4142C23.7893 23.0391 24 22.5304 24 22V2C24 1.46957 23.7893 0.960859 23.4142 0.585786C23.0391 0.210714 22.5304 0 22 0ZM2 2H22V11.6725L18.9137 8.585C18.5387 8.21021 18.0302 7.99968 17.5 7.99968C16.9698 7.99968 16.4613 8.21021 16.0863 8.585L2.67125 22H2V2ZM6 8C6 7.60444 6.1173 7.21776 6.33706 6.88886C6.55682 6.55996 6.86918 6.30362 7.23463 6.15224C7.60009 6.00087 8.00222 5.96126 8.39018 6.03843C8.77814 6.1156 9.13451 6.30608 9.41421 6.58579C9.69392 6.86549 9.8844 7.22186 9.96157 7.60982C10.0387 7.99778 9.99913 8.39991 9.84776 8.76537C9.69638 9.13082 9.44004 9.44318 9.11114 9.66294C8.78224 9.8827 8.39556 10 8 10C7.46957 10 6.96086 9.78929 6.58579 9.41421C6.21071 9.03914 6 8.53043 6 8Z" fill="#6A6F74"/>
</svg>
