<svg width="66" height="65" viewBox="0 0 66 65" fill="none" xmlns="http://www.w3.org/2000/svg">
<g id="Icon-WarningTriangle">
<path id="Vector" d="M60.6238 47.7574L38.4197 9.19665C37.8649 8.25193 37.0727 7.46861 36.1219 6.92434C35.171 6.38007 34.0944 6.09375 32.9988 6.09375C31.9032 6.09375 30.8266 6.38007 29.8758 6.92434C28.9249 7.46861 28.1328 8.25193 27.5779 9.19665L5.37382 47.7574C4.83994 48.6712 4.55859 49.7104 4.55859 50.7687C4.55859 51.827 4.83994 52.8663 5.37382 53.78C5.92157 54.7305 6.71234 55.5181 7.66497 56.062C8.6176 56.6059 9.6978 56.8866 10.7947 56.8752H55.2029C56.299 56.8857 57.3781 56.6046 58.3298 56.0607C59.2814 55.5168 60.0714 54.7297 60.6187 53.78C61.1534 52.8667 61.4356 51.8277 61.4365 50.7694C61.4374 49.7111 61.1569 48.6716 60.6238 47.7574ZM57.1021 51.7463C56.9086 52.0765 56.6307 52.3492 56.2969 52.5366C55.9632 52.724 55.5856 52.8193 55.2029 52.8127H10.7947C10.412 52.8193 10.0344 52.724 9.70071 52.5366C9.36697 52.3492 9.08907 52.0765 8.8955 51.7463C8.72016 51.4494 8.62767 51.111 8.62767 50.7662C8.62767 50.4214 8.72016 50.083 8.8955 49.7861L31.0996 11.2254C31.2971 10.8967 31.5762 10.6248 31.9099 10.436C32.2436 10.2472 32.6205 10.148 33.0039 10.148C33.3873 10.148 33.7642 10.2472 34.0979 10.436C34.4316 10.6248 34.7107 10.8967 34.9082 11.2254L57.1123 49.7861C57.2861 50.0839 57.3768 50.4228 57.375 50.7676C57.3733 51.1123 57.279 51.4503 57.1021 51.7463ZM30.9676 36.5627V26.4064C30.9676 25.8677 31.1816 25.351 31.5625 24.9701C31.9434 24.5892 32.4601 24.3752 32.9988 24.3752C33.5375 24.3752 34.0542 24.5892 34.4351 24.9701C34.8161 25.351 35.0301 25.8677 35.0301 26.4064V36.5627C35.0301 37.1014 34.8161 37.618 34.4351 37.999C34.0542 38.3799 33.5375 38.5939 32.9988 38.5939C32.4601 38.5939 31.9434 38.3799 31.5625 37.999C31.1816 37.618 30.9676 37.1014 30.9676 36.5627ZM36.0457 45.7033C36.0457 46.3059 35.867 46.895 35.5322 47.396C35.1974 47.8971 34.7215 48.2876 34.1648 48.5182C33.6081 48.7488 32.9954 48.8092 32.4044 48.6916C31.8134 48.5741 31.2705 48.2839 30.8444 47.8578C30.4182 47.4316 30.1281 46.8887 30.0105 46.2977C29.8929 45.7067 29.9533 45.094 30.1839 44.5373C30.4145 43.9806 30.805 43.5047 31.3061 43.1699C31.8071 42.8351 32.3962 42.6564 32.9988 42.6564C33.8069 42.6564 34.5819 42.9774 35.1533 43.5488C35.7247 44.1202 36.0457 44.8952 36.0457 45.7033Z" fill="#DC6803"/>
</g>
</svg>
