<svg width="56" height="56" viewBox="0 0 56 56" fill="none" xmlns="http://www.w3.org/2000/svg">
<g id="Icon-WarningCircle">
<path id="Vector" d="M28 5.25C23.5005 5.25 19.102 6.58426 15.3608 9.08407C11.6196 11.5839 8.70364 15.1369 6.98175 19.294C5.25986 23.451 4.80933 28.0252 5.68715 32.4383C6.56496 36.8514 8.73169 40.905 11.9133 44.0867C15.095 47.2683 19.1486 49.4351 23.5617 50.3129C27.9748 51.1907 32.549 50.7402 36.7061 49.0183C40.8631 47.2964 44.4161 44.3804 46.9159 40.6392C49.4157 36.898 50.75 32.4995 50.75 28C50.7436 21.9683 48.3447 16.1854 44.0797 11.9204C39.8146 7.65528 34.0317 5.25637 28 5.25ZM28 47.25C24.1927 47.25 20.4709 46.121 17.3053 44.0058C14.1396 41.8906 11.6723 38.8841 10.2153 35.3667C8.75834 31.8492 8.37713 27.9786 9.11989 24.2445C9.86266 20.5104 11.696 17.0804 14.3882 14.3882C17.0804 11.696 20.5104 9.86265 24.2445 9.11988C27.9787 8.37712 31.8492 8.75833 35.3667 10.2153C38.8841 11.6723 41.8906 14.1396 44.0058 17.3053C46.121 20.4709 47.25 24.1927 47.25 28C47.2442 33.1036 45.2142 37.9966 41.6054 41.6054C37.9966 45.2142 33.1037 47.2442 28 47.25ZM26.25 29.75V17.5C26.25 17.0359 26.4344 16.5908 26.7626 16.2626C27.0908 15.9344 27.5359 15.75 28 15.75C28.4641 15.75 28.9093 15.9344 29.2374 16.2626C29.5656 16.5908 29.75 17.0359 29.75 17.5V29.75C29.75 30.2141 29.5656 30.6593 29.2374 30.9874C28.9093 31.3156 28.4641 31.5 28 31.5C27.5359 31.5 27.0908 31.3156 26.7626 30.9874C26.4344 30.6593 26.25 30.2141 26.25 29.75ZM30.625 37.625C30.625 38.1442 30.4711 38.6517 30.1826 39.0834C29.8942 39.515 29.4842 39.8515 29.0046 40.0502C28.5249 40.2489 27.9971 40.3008 27.4879 40.1996C26.9787 40.0983 26.511 39.8483 26.1439 39.4812C25.7767 39.114 25.5267 38.6463 25.4254 38.1371C25.3242 37.6279 25.3761 37.1001 25.5748 36.6205C25.7735 36.1408 26.11 35.7308 26.5416 35.4424C26.9733 35.154 27.4808 35 28 35C28.6962 35 29.3639 35.2766 29.8562 35.7688C30.3484 36.2611 30.625 36.9288 30.625 37.625Z" fill="#BB251A"/>
</g>
</svg>
