<svg width="20" height="20" viewBox="0 0 20 20" fill="none" xmlns="http://www.w3.org/2000/svg">
<g id="Icon-CaretUp">
<path id="Vector" d="M16.6923 12.9427C16.6342 13.0008 16.5653 13.0469 16.4894 13.0783C16.4136 13.1098 16.3322 13.126 16.2501 13.126C16.168 13.126 16.0866 13.1098 16.0108 13.0783C15.9349 13.0469 15.866 13.0008 15.8079 12.9427L10.0001 7.13409L4.19229 12.9427C4.07502 13.06 3.91596 13.1258 3.7501 13.1258C3.58425 13.1258 3.42519 13.06 3.30792 12.9427C3.19064 12.8254 3.12476 12.6663 3.12476 12.5005C3.12476 12.3346 3.19064 12.1756 3.30792 12.0583L9.55792 5.8083C9.61596 5.75019 9.68489 5.70409 9.76077 5.67264C9.83664 5.64119 9.91797 5.625 10.0001 5.625C10.0822 5.625 10.1636 5.64119 10.2394 5.67264C10.3153 5.70409 10.3842 5.75019 10.4423 5.8083L16.6923 12.0583C16.7504 12.1163 16.7965 12.1853 16.828 12.2612C16.8594 12.337 16.8756 12.4184 16.8756 12.5005C16.8756 12.5826 16.8594 12.664 16.828 12.7398C16.7965 12.8157 16.7504 12.8846 16.6923 12.9427Z" fill="white"/>
</g>
</svg>
