<svg width="21" height="22" viewBox="0 0 21 22" fill="none" xmlns="http://www.w3.org/2000/svg">
<g id="Icon-Info">
<rect y="0.5" width="21" height="21" rx="10.5" fill="#848A90"/>
<path id="Vector" d="M11 4C9.61553 4 8.26216 4.41054 7.11101 5.17971C5.95987 5.94888 5.06266 7.04213 4.53285 8.32122C4.00303 9.6003 3.86441 11.0078 4.13451 12.3656C4.4046 13.7235 5.07129 14.9708 6.05026 15.9497C7.02922 16.9287 8.2765 17.5954 9.63437 17.8655C10.9922 18.1356 12.3997 17.997 13.6788 17.4672C14.9579 16.9373 16.0511 16.0401 16.8203 14.889C17.5895 13.7378 18 12.3845 18 11C17.998 9.14409 17.2599 7.36475 15.9476 6.05242C14.6353 4.74009 12.8559 4.00196 11 4ZM11 16.9231C9.82853 16.9231 8.68336 16.5757 7.70932 15.9249C6.73527 15.274 5.9761 14.349 5.52779 13.2667C5.07949 12.1844 4.96219 10.9934 5.19074 9.84446C5.41928 8.6955 5.9834 7.64011 6.81175 6.81175C7.64011 5.98339 8.6955 5.41928 9.84447 5.19073C10.9934 4.96219 12.1844 5.07949 13.2667 5.52779C14.349 5.97609 15.274 6.73527 15.9249 7.70931C16.5757 8.68336 16.9231 9.82853 16.9231 11C16.9213 12.5703 16.2967 14.0759 15.1863 15.1863C14.0759 16.2967 12.5704 16.9213 11 16.9231ZM12.0769 14.2308C12.0769 14.3736 12.0202 14.5105 11.9192 14.6115C11.8182 14.7125 11.6813 14.7692 11.5385 14.7692C11.2528 14.7692 10.9789 14.6558 10.777 14.4538C10.575 14.2518 10.4615 13.9779 10.4615 13.6923V11C10.3187 11 10.1818 10.9433 10.0808 10.8423C9.97981 10.7413 9.92308 10.6043 9.92308 10.4615C9.92308 10.3187 9.97981 10.1818 10.0808 10.0808C10.1818 9.97981 10.3187 9.92308 10.4615 9.92308C10.7472 9.92308 11.0211 10.0365 11.223 10.2385C11.425 10.4405 11.5385 10.7144 11.5385 11V13.6923C11.6813 13.6923 11.8182 13.749 11.9192 13.85C12.0202 13.951 12.0769 14.088 12.0769 14.2308ZM9.92308 8.03846C9.92308 7.87871 9.97045 7.72256 10.0592 7.58973C10.1479 7.45691 10.2741 7.35338 10.4217 7.29225C10.5693 7.23112 10.7317 7.21512 10.8883 7.24629C11.045 7.27745 11.1889 7.35438 11.3019 7.46734C11.4149 7.58029 11.4918 7.72421 11.5229 7.88089C11.5541 8.03756 11.5381 8.19997 11.477 8.34755C11.4158 8.49514 11.3123 8.62128 11.1795 8.71003C11.0467 8.79878 10.8905 8.84615 10.7308 8.84615C10.5166 8.84615 10.3111 8.76106 10.1596 8.60959C10.0082 8.45811 9.92308 8.25267 9.92308 8.03846Z" fill="white"/>
</g>
</svg>
