<svg width="17" height="18" viewBox="0 0 17 18" fill="none" xmlns="http://www.w3.org/2000/svg">
<path id="Vector" d="M8.5 0.5C6.81886 0.5 5.17547 0.998516 3.77766 1.93251C2.37984 2.8665 1.29037 4.19402 0.647028 5.74719C0.00368292 7.30036 -0.164645 9.00943 0.163329 10.6583C0.491303 12.3071 1.30085 13.8217 2.4896 15.0104C3.67834 16.1992 5.1929 17.0087 6.84173 17.3367C8.49057 17.6646 10.1996 17.4963 11.7528 16.853C13.306 16.2096 14.6335 15.1202 15.5675 13.7223C16.5015 12.3245 17 10.6811 17 9C16.9976 6.74639 16.1013 4.58576 14.5078 2.99222C12.9142 1.39868 10.7536 0.50238 8.5 0.5ZM12.2318 7.50106L7.65491 12.078C7.59418 12.1388 7.52207 12.187 7.44269 12.2199C7.36332 12.2528 7.27824 12.2697 7.19231 12.2697C7.10638 12.2697 7.0213 12.2528 6.94193 12.2199C6.86255 12.187 6.79044 12.1388 6.72971 12.078L4.76818 10.1164C4.64549 9.99375 4.57656 9.82735 4.57656 9.65384C4.57656 9.48034 4.64549 9.31394 4.76818 9.19125C4.89086 9.06856 5.05726 8.99963 5.23077 8.99963C5.40428 8.99963 5.57068 9.06856 5.69337 9.19125L7.19231 10.691L11.3066 6.57586C11.3674 6.51511 11.4395 6.46693 11.5189 6.43405C11.5982 6.40117 11.6833 6.38425 11.7692 6.38425C11.8551 6.38425 11.9402 6.40117 12.0196 6.43405C12.099 6.46693 12.1711 6.51511 12.2318 6.57586C12.2926 6.63661 12.3408 6.70873 12.3736 6.78811C12.4065 6.86748 12.4234 6.95255 12.4234 7.03846C12.4234 7.12437 12.4065 7.20944 12.3736 7.28882C12.3408 7.36819 12.2926 7.44031 12.2318 7.50106Z" fill="#039855"/>
</svg>
