<svg width="25" height="25" viewBox="0 0 25 25" fill="none" xmlns="http://www.w3.org/2000/svg">
<g id="Icon-LockKey">
<path id="Vector" d="M12.5 10.9375C11.8434 10.9377 11.2087 11.1742 10.7121 11.6038C10.2155 12.0334 9.89 12.6273 9.79519 13.2771C9.70039 13.9269 9.84258 14.589 10.1958 15.1426C10.5489 15.6962 11.0895 16.1042 11.7188 16.292V17.9688C11.7188 18.176 11.8011 18.3747 11.9476 18.5212C12.0941 18.6677 12.2928 18.75 12.5 18.75C12.7072 18.75 12.9059 18.6677 13.0524 18.5212C13.1989 18.3747 13.2812 18.176 13.2812 17.9688V16.292C13.9105 16.1042 14.4511 15.6962 14.8042 15.1426C15.1574 14.589 15.2996 13.9269 15.2048 13.2771C15.11 12.6273 14.7845 12.0334 14.2879 11.6038C13.7913 11.1742 13.1566 10.9377 12.5 10.9375ZM12.5 14.8438C12.2682 14.8438 12.0417 14.775 11.8489 14.6463C11.6562 14.5175 11.506 14.3345 11.4173 14.1203C11.3286 13.9062 11.3054 13.6706 11.3506 13.4433C11.3959 13.2159 11.5075 13.0071 11.6714 12.8432C11.8352 12.6793 12.0441 12.5677 12.2714 12.5225C12.4987 12.4773 12.7343 12.5005 12.9485 12.5892C13.1626 12.6779 13.3456 12.8281 13.4744 13.0208C13.6031 13.2135 13.6719 13.4401 13.6719 13.6719C13.6719 13.9827 13.5484 14.2807 13.3286 14.5005C13.1089 14.7203 12.8108 14.8438 12.5 14.8438ZM20.3125 7.8125H17.1875V5.46875C17.1875 4.22555 16.6936 3.03326 15.8146 2.15419C14.9355 1.27511 13.7432 0.78125 12.5 0.78125C11.2568 0.78125 10.0645 1.27511 9.18544 2.15419C8.30636 3.03326 7.8125 4.22555 7.8125 5.46875V7.8125H4.6875C4.2731 7.8125 3.87567 7.97712 3.58265 8.27015C3.28962 8.56317 3.125 8.9606 3.125 9.375V20.3125C3.125 20.7269 3.28962 21.1243 3.58265 21.4174C3.87567 21.7104 4.2731 21.875 4.6875 21.875H20.3125C20.7269 21.875 21.1243 21.7104 21.4174 21.4174C21.7104 21.1243 21.875 20.7269 21.875 20.3125V9.375C21.875 8.9606 21.7104 8.56317 21.4174 8.27015C21.1243 7.97712 20.7269 7.8125 20.3125 7.8125ZM9.375 5.46875C9.375 4.63995 9.70424 3.84509 10.2903 3.25904C10.8763 2.67299 11.6712 2.34375 12.5 2.34375C13.3288 2.34375 14.1237 2.67299 14.7097 3.25904C15.2958 3.84509 15.625 4.63995 15.625 5.46875V7.8125H9.375V5.46875ZM20.3125 20.3125H4.6875V9.375H20.3125V20.3125Z" fill="#F5BC16"/>
</g>
</svg>
