<svg width="39" height="40" viewBox="0 0 39 40" fill="none" xmlns="http://www.w3.org/2000/svg">
<g id="Delete">
<path id="Vector" d="M31.6875 5.375H7.3125C6.66603 5.375 6.04605 5.63181 5.58893 6.08893C5.13181 6.54605 4.875 7.16603 4.875 7.8125V32.1875C4.875 32.834 5.13181 33.454 5.58893 33.9111C6.04605 34.3682 6.66603 34.625 7.3125 34.625H31.6875C32.334 34.625 32.954 34.3682 33.4111 33.9111C33.8682 33.454 34.125 32.834 34.125 32.1875V7.8125C34.125 7.16603 33.8682 6.54605 33.4111 6.08893C32.954 5.63181 32.334 5.375 31.6875 5.375ZM31.6875 32.1875H7.3125V7.8125H31.6875V32.1875ZM25.2373 15.9873L21.223 20L25.2373 24.0127C25.3505 24.126 25.4403 24.2604 25.5016 24.4083C25.5629 24.5563 25.5944 24.7149 25.5944 24.875C25.5944 25.0351 25.5629 25.1937 25.5016 25.3417C25.4403 25.4896 25.3505 25.624 25.2373 25.7373C25.124 25.8505 24.9896 25.9403 24.8417 26.0016C24.6937 26.0629 24.5351 26.0944 24.375 26.0944C24.2149 26.0944 24.0563 26.0629 23.9083 26.0016C23.7604 25.9403 23.626 25.8505 23.5127 25.7373L19.5 21.723L15.4873 25.7373C15.374 25.8505 15.2396 25.9403 15.0917 26.0016C14.9437 26.0629 14.7851 26.0944 14.625 26.0944C14.4649 26.0944 14.3063 26.0629 14.1583 26.0016C14.0104 25.9403 13.876 25.8505 13.7627 25.7373C13.6495 25.624 13.5597 25.4896 13.4984 25.3417C13.4371 25.1937 13.4056 25.0351 13.4056 24.875C13.4056 24.7149 13.4371 24.5563 13.4984 24.4083C13.5597 24.2604 13.6495 24.126 13.7627 24.0127L17.777 20L13.7627 15.9873C13.534 15.7586 13.4056 15.4484 13.4056 15.125C13.4056 14.8016 13.534 14.4914 13.7627 14.2627C13.9914 14.034 14.3016 13.9056 14.625 13.9056C14.9484 13.9056 15.2586 14.034 15.4873 14.2627L19.5 18.277L23.5127 14.2627C23.626 14.1495 23.7604 14.0597 23.9083 13.9984C24.0563 13.9371 24.2149 13.9056 24.375 13.9056C24.5351 13.9056 24.6937 13.9371 24.8417 13.9984C24.9896 14.0597 25.124 14.1495 25.2373 14.2627C25.3505 14.376 25.4403 14.5104 25.5016 14.6583C25.5629 14.8063 25.5944 14.9649 25.5944 15.125C25.5944 15.2851 25.5629 15.4437 25.5016 15.5917C25.4403 15.7396 25.3505 15.874 25.2373 15.9873Z" fill="#DD0707"/>
</g>
</svg>
