<svg width="25" height="26" viewBox="0 0 25 26" fill="none" xmlns="http://www.w3.org/2000/svg">
<g id="Icon-MapPin">
<path id="Vector" d="M12.5 6.75C11.7274 6.75 10.9722 6.9791 10.3298 7.40832C9.68742 7.83755 9.18675 8.44762 8.8911 9.16139C8.59544 9.87517 8.51808 10.6606 8.66881 11.4183C8.81953 12.1761 9.19157 12.8721 9.73786 13.4184C10.2842 13.9647 10.9802 14.3367 11.7379 14.4874C12.4957 14.6382 13.2811 14.5608 13.9949 14.2652C14.7086 13.9695 15.3187 13.4688 15.7479 12.8264C16.1772 12.1841 16.4062 11.4288 16.4062 10.6562C16.4062 9.62025 15.9947 8.62668 15.2621 7.89411C14.5296 7.16155 13.536 6.75 12.5 6.75ZM12.5 13C12.0365 13 11.5833 12.8625 11.1979 12.605C10.8125 12.3475 10.5121 11.9814 10.3347 11.5532C10.1573 11.1249 10.1109 10.6537 10.2013 10.199C10.2917 9.74436 10.5149 9.32675 10.8427 8.99897C11.1705 8.67119 11.5881 8.44797 12.0428 8.35753C12.4974 8.2671 12.9686 8.31351 13.3969 8.49091C13.8252 8.6683 14.1912 8.9687 14.4488 9.35413C14.7063 9.73956 14.8438 10.1927 14.8438 10.6562C14.8438 11.2779 14.5968 11.874 14.1573 12.3135C13.7177 12.7531 13.1216 13 12.5 13ZM12.5 2.0625C10.2216 2.06508 8.03724 2.97133 6.42616 4.58241C4.81507 6.19349 3.90883 8.37784 3.90625 10.6562C3.90625 13.7227 5.32324 16.9727 8.00781 20.0557C9.21408 21.4488 10.5717 22.7033 12.0557 23.7959C12.187 23.8879 12.3435 23.9373 12.5039 23.9373C12.6643 23.9373 12.8208 23.8879 12.9521 23.7959C14.4333 22.7028 15.7884 21.4484 16.9922 20.0557C19.6729 16.9727 21.0938 13.7227 21.0938 10.6562C21.0912 8.37784 20.1849 6.19349 18.5738 4.58241C16.9628 2.97133 14.7784 2.06508 12.5 2.0625ZM12.5 22.1797C10.8857 20.9102 5.46875 16.2471 5.46875 10.6562C5.46875 8.79145 6.20954 7.00302 7.52816 5.68441C8.84677 4.36579 10.6352 3.625 12.5 3.625C14.3648 3.625 16.1532 4.36579 17.4718 5.68441C18.7905 7.00302 19.5312 8.79145 19.5312 10.6562C19.5312 16.2451 14.1143 20.9102 12.5 22.1797Z" fill="#008080"/>
</g>
</svg>
