<svg width="20" height="20" viewBox="0 0 20 20" fill="none" xmlns="http://www.w3.org/2000/svg">
<g id="Icon-CaretUp">
<path id="Vector" d="M3.30771 7.05732C3.36575 6.99921 3.43469 6.95311 3.51056 6.92166C3.58643 6.89021 3.66776 6.87402 3.7499 6.87402C3.83203 6.87402 3.91336 6.89021 3.98923 6.92166C4.06511 6.95311 4.13404 6.99921 4.19208 7.05732L9.9999 12.8659L15.8077 7.05732C15.925 6.94004 16.084 6.87416 16.2499 6.87416C16.4157 6.87416 16.5748 6.94004 16.6921 7.05732C16.8094 7.1746 16.8752 7.33366 16.8752 7.49951C16.8752 7.66536 16.8094 7.82442 16.6921 7.9417L10.4421 14.1917C10.384 14.2498 10.3151 14.2959 10.2392 14.3274C10.1634 14.3588 10.082 14.375 9.9999 14.375C9.91776 14.375 9.83643 14.3588 9.76056 14.3274C9.68469 14.2959 9.61575 14.2498 9.55771 14.1917L3.30771 7.9417C3.2496 7.88365 3.2035 7.81472 3.17205 7.73885C3.14059 7.66297 3.1244 7.58164 3.1244 7.49951C3.1244 7.41737 3.14059 7.33604 3.17205 7.26017C3.2035 7.1843 3.2496 7.11537 3.30771 7.05732Z" fill="white"/>
</g>
</svg>
