<svg width="32" height="33" viewBox="0 0 32 33" fill="none" xmlns="http://www.w3.org/2000/svg">
<g id="Icon-ArrowLeft">
<path id="Vector" d="M28.0008 16.4996C28.0008 16.7648 27.8954 17.0192 27.7079 17.2067C27.5204 17.3942 27.266 17.4996 27.0008 17.4996H7.41454L14.7083 24.7921C14.8012 24.885 14.8749 24.9953 14.9252 25.1167C14.9755 25.2381 15.0013 25.3682 15.0013 25.4996C15.0013 25.631 14.9755 25.7611 14.9252 25.8825C14.8749 26.0039 14.8012 26.1142 14.7083 26.2071C14.6154 26.3 14.5051 26.3737 14.3837 26.424C14.2623 26.4743 14.1322 26.5001 14.0008 26.5001C13.8694 26.5001 13.7393 26.4743 13.6179 26.424C13.4965 26.3737 13.3862 26.3 13.2933 26.2071L4.29329 17.2071C4.20031 17.1142 4.12655 17.0039 4.07623 16.8825C4.0259 16.7611 4 16.631 4 16.4996C4 16.3682 4.0259 16.238 4.07623 16.1166C4.12655 15.9952 4.20031 15.885 4.29329 15.7921L13.2933 6.79208C13.4809 6.60444 13.7354 6.49902 14.0008 6.49902C14.2662 6.49902 14.5206 6.60444 14.7083 6.79208C14.8959 6.97972 15.0013 7.23422 15.0013 7.49958C15.0013 7.76494 14.8959 8.01944 14.7083 8.20708L7.41454 15.4996H27.0008C27.266 15.4996 27.5204 15.6049 27.7079 15.7925C27.8954 15.98 28.0008 16.2344 28.0008 16.4996Z" fill="#008080"/>
</g>
</svg>
