<svg width="39" height="40" viewBox="0 0 39 40" fill="none" xmlns="http://www.w3.org/2000/svg">
<g id="Add">
<path id="Vector" d="M31.6875 5.375H7.3125C6.66603 5.375 6.04605 5.63181 5.58893 6.08893C5.13181 6.54605 4.875 7.16603 4.875 7.8125V32.1875C4.875 32.834 5.13181 33.454 5.58893 33.9111C6.04605 34.3682 6.66603 34.625 7.3125 34.625H31.6875C32.334 34.625 32.954 34.3682 33.4111 33.9111C33.8682 33.454 34.125 32.834 34.125 32.1875V7.8125C34.125 7.16603 33.8682 6.54605 33.4111 6.08893C32.954 5.63181 32.334 5.375 31.6875 5.375ZM31.6875 32.1875H7.3125V7.8125H31.6875V32.1875ZM26.8125 20C26.8125 20.3232 26.6841 20.6332 26.4555 20.8618C26.227 21.0903 25.917 21.2188 25.5938 21.2188H20.7188V26.0938C20.7188 26.417 20.5903 26.727 20.3618 26.9555C20.1332 27.1841 19.8232 27.3125 19.5 27.3125C19.1768 27.3125 18.8668 27.1841 18.6382 26.9555C18.4097 26.727 18.2812 26.417 18.2812 26.0938V21.2188H13.4062C13.083 21.2188 12.773 21.0903 12.5445 20.8618C12.3159 20.6332 12.1875 20.3232 12.1875 20C12.1875 19.6768 12.3159 19.3668 12.5445 19.1382C12.773 18.9097 13.083 18.7812 13.4062 18.7812H18.2812V13.9062C18.2812 13.583 18.4097 13.273 18.6382 13.0445C18.8668 12.8159 19.1768 12.6875 19.5 12.6875C19.8232 12.6875 20.1332 12.8159 20.3618 13.0445C20.5903 13.273 20.7188 13.583 20.7188 13.9062V18.7812H25.5938C25.917 18.7812 26.227 18.9097 26.4555 19.1382C26.6841 19.3668 26.8125 19.6768 26.8125 20Z" fill="#008080"/>
</g>
</svg>
