<svg width="12" height="14" viewBox="0 0 12 14" fill="none" xmlns="http://www.w3.org/2000/svg">
<g id="Vector">
<path fill-rule="evenodd" clip-rule="evenodd" d="M10.3589 2.5372C11.0164 3.27395 11.4408 4.18914 11.5782 5.16705C11.7624 6.47836 11.4182 7.80917 10.6213 8.86672C9.82436 9.92426 8.64001 10.6219 7.32872 10.8063C6.35081 10.9438 5.35408 10.7881 4.46462 10.3591C3.57517 9.93008 2.83291 9.24694 2.3317 8.39607C1.8305 7.54519 1.59287 6.5648 1.64885 5.57887C1.70484 4.59294 2.05193 3.64575 2.64623 2.85709C3.24053 2.06842 4.05536 1.47369 4.98766 1.14812C5.91997 0.822543 6.92788 0.780739 7.88394 1.02799C8.84001 1.27525 9.70128 1.80046 10.3589 2.5372ZM10.6641 5.29549C10.5521 4.49838 10.2062 3.75239 9.67018 3.15186C9.13418 2.55132 8.43213 2.12321 7.65282 1.92167C6.87351 1.72012 6.05194 1.7542 5.29199 2.01958C4.53205 2.28497 3.86786 2.76974 3.38343 3.41261C2.899 4.05547 2.61608 4.82755 2.57044 5.6312C2.52481 6.43486 2.71851 7.234 3.12705 7.92757C3.5356 8.62114 4.14063 9.17798 4.86565 9.52769C5.59066 9.87739 6.40308 10.0043 7.20019 9.89223M10.6641 5.29549C10.8142 6.36437 10.5337 7.44916 9.88407 8.31119C9.23449 9.17323 8.26906 9.74194 7.20019 9.89223" fill="#585858"/>
<path fill-rule="evenodd" clip-rule="evenodd" d="M4.03421 9.31171C4.23778 9.46512 4.27845 9.7545 4.12505 9.95808L1.43158 13.5324C1.27817 13.736 0.988788 13.7767 0.785216 13.6233C0.581642 13.4699 0.540972 13.1805 0.694375 12.9769L3.38784 9.40256C3.54125 9.19898 3.83063 9.15831 4.03421 9.31171Z" fill="#585858"/>
</g>
</svg>
