<svg width="36" height="35" viewBox="0 0 36 35" fill="none" xmlns="http://www.w3.org/2000/svg">
<path id="Vector" d="M18 0C14.5388 0 11.1554 1.02636 8.27753 2.94928C5.39967 4.87221 3.15665 7.60533 1.83212 10.803C0.507582 14.0007 0.161024 17.5194 0.836265 20.9141C1.51151 24.3087 3.17822 27.4269 5.62564 29.8744C8.07306 32.3218 11.1913 33.9885 14.5859 34.6637C17.9806 35.339 21.4993 34.9924 24.697 33.6679C27.8947 32.3433 30.6278 30.1003 32.5507 27.2225C34.4736 24.3446 35.5 20.9612 35.5 17.5C35.4951 12.8602 33.6498 8.41187 30.369 5.13104C27.0881 1.85022 22.6398 0.00489969 18 0ZM25.6832 14.4139L16.2601 23.837C16.1351 23.9622 15.9866 24.0615 15.8232 24.1292C15.6598 24.197 15.4846 24.2318 15.3077 24.2318C15.1308 24.2318 14.9556 24.197 14.7922 24.1292C14.6288 24.0615 14.4803 23.9622 14.3553 23.837L10.3168 19.7986C10.0642 19.546 9.92233 19.2034 9.92233 18.8461C9.92233 18.4889 10.0642 18.1463 10.3168 17.8937C10.5694 17.6412 10.912 17.4992 11.2692 17.4992C11.6265 17.4992 11.969 17.6412 12.2216 17.8937L15.3077 20.9815L23.7784 12.5091C23.9034 12.3841 24.0519 12.2848 24.2153 12.2172C24.3787 12.1495 24.5539 12.1146 24.7308 12.1146C24.9076 12.1146 25.0828 12.1495 25.2462 12.2172C25.4096 12.2848 25.5581 12.3841 25.6832 12.5091C25.8082 12.6342 25.9075 12.7827 25.9751 12.9461C26.0428 13.1095 26.0777 13.2847 26.0777 13.4615C26.0777 13.6384 26.0428 13.8136 25.9751 13.977C25.9075 14.1404 25.8082 14.2889 25.6832 14.4139Z" fill="#09A12A"/>
</svg>
