<svg width="20" height="20" viewBox="0 0 20 20" fill="none" xmlns="http://www.w3.org/2000/svg">
<path id="Vector" d="M9.75 0.25C7.82164 0.25 5.93657 0.821828 4.33319 1.89317C2.72982 2.96451 1.48013 4.48726 0.742179 6.26884C0.00422452 8.05042 -0.188858 10.0108 0.187348 11.9021C0.563554 13.7934 1.49215 15.5307 2.85571 16.8943C4.21928 18.2579 5.95656 19.1865 7.84787 19.5627C9.73919 19.9389 11.6996 19.7458 13.4812 19.0078C15.2627 18.2699 16.7855 17.0202 17.8568 15.4168C18.9282 13.8134 19.5 11.9284 19.5 10C19.4973 7.41498 18.4692 4.93661 16.6413 3.10872C14.8134 1.28084 12.335 0.25273 9.75 0.25ZM9.75 18.25C8.11831 18.25 6.52326 17.7661 5.16655 16.8596C3.80984 15.9531 2.75242 14.6646 2.128 13.1571C1.50358 11.6496 1.3402 9.99085 1.65853 8.3905C1.97685 6.79016 2.76259 5.32015 3.91637 4.16637C5.07016 3.01259 6.54017 2.22685 8.14051 1.90852C9.74085 1.59019 11.3997 1.75357 12.9071 2.37799C14.4146 3.00242 15.7031 4.05984 16.6096 5.41655C17.5161 6.77325 18 8.3683 18 10C17.9975 12.1873 17.1275 14.2843 15.5809 15.8309C14.0343 17.3775 11.9373 18.2475 9.75 18.25ZM11.25 14.5C11.25 14.6989 11.171 14.8897 11.0303 15.0303C10.8897 15.171 10.6989 15.25 10.5 15.25C10.1022 15.25 9.72065 15.092 9.43934 14.8107C9.15804 14.5294 9 14.1478 9 13.75V10C8.80109 10 8.61033 9.92098 8.46967 9.78033C8.32902 9.63968 8.25 9.44891 8.25 9.25C8.25 9.05109 8.32902 8.86032 8.46967 8.71967C8.61033 8.57902 8.80109 8.5 9 8.5C9.39783 8.5 9.77936 8.65804 10.0607 8.93934C10.342 9.22064 10.5 9.60218 10.5 10V13.75C10.6989 13.75 10.8897 13.829 11.0303 13.9697C11.171 14.1103 11.25 14.3011 11.25 14.5ZM8.25 5.875C8.25 5.6525 8.31598 5.43499 8.4396 5.24998C8.56322 5.06498 8.73892 4.92078 8.94449 4.83564C9.15005 4.75049 9.37625 4.72821 9.59448 4.77162C9.81271 4.81502 10.0132 4.92217 10.1705 5.0795C10.3278 5.23684 10.435 5.43729 10.4784 5.65552C10.5218 5.87375 10.4995 6.09995 10.4144 6.30552C10.3292 6.51109 10.185 6.68679 10 6.8104C9.81501 6.93402 9.59751 7 9.375 7C9.07664 7 8.79049 6.88147 8.57951 6.6705C8.36853 6.45952 8.25 6.17337 8.25 5.875Z" fill="#848A90"/>
</svg>
