<svg width="17" height="18" viewBox="0 0 17 18" fill="none" xmlns="http://www.w3.org/2000/svg">
<path id="Vector" d="M8.125 0.875C6.51803 0.875 4.94714 1.35152 3.611 2.24431C2.27485 3.1371 1.23344 4.40605 0.618482 5.8907C0.00352044 7.37535 -0.157382 9.00901 0.156123 10.5851C0.469628 12.1612 1.24346 13.6089 2.37976 14.7452C3.51606 15.8815 4.9638 16.6554 6.5399 16.9689C8.11599 17.2824 9.74966 17.1215 11.2343 16.5065C12.719 15.8916 13.9879 14.8502 14.8807 13.514C15.7735 12.1779 16.25 10.607 16.25 9C16.2477 6.84581 15.391 4.78051 13.8677 3.25727C12.3445 1.73403 10.2792 0.877275 8.125 0.875ZM8.125 15.875C6.76526 15.875 5.43605 15.4718 4.30546 14.7164C3.17487 13.9609 2.29368 12.8872 1.77333 11.6309C1.25298 10.3747 1.11683 8.99237 1.3821 7.65875C1.64738 6.32513 2.30216 5.10013 3.26364 4.13864C4.22513 3.17716 5.45014 2.52237 6.78376 2.2571C8.11738 1.99183 9.49971 2.12798 10.756 2.64833C12.0122 3.16868 13.0859 4.04987 13.8414 5.18045C14.5968 6.31104 15 7.64025 15 9C14.9979 10.8227 14.2729 12.5702 12.9841 13.8591C11.6952 15.1479 9.94773 15.8729 8.125 15.875ZM9.375 12.75C9.375 12.9158 9.30916 13.0747 9.19195 13.1919C9.07474 13.3092 8.91576 13.375 8.75 13.375C8.41848 13.375 8.10054 13.2433 7.86612 13.0089C7.6317 12.7745 7.5 12.4565 7.5 12.125V9C7.33424 9 7.17527 8.93415 7.05806 8.81694C6.94085 8.69973 6.875 8.54076 6.875 8.375C6.875 8.20924 6.94085 8.05027 7.05806 7.93306C7.17527 7.81585 7.33424 7.75 7.5 7.75C7.83152 7.75 8.14947 7.8817 8.38389 8.11612C8.61831 8.35054 8.75 8.66848 8.75 9V12.125C8.91576 12.125 9.07474 12.1908 9.19195 12.3081C9.30916 12.4253 9.375 12.5842 9.375 12.75ZM6.875 5.5625C6.875 5.37708 6.92999 5.19582 7.033 5.04165C7.13601 4.88748 7.28243 4.76732 7.45374 4.69636C7.62504 4.62541 7.81354 4.60684 7.9954 4.64301C8.17726 4.67919 8.3443 4.76848 8.47542 4.89959C8.60653 5.0307 8.69582 5.19775 8.73199 5.3796C8.76816 5.56146 8.7496 5.74996 8.67864 5.92127C8.60768 6.09257 8.48752 6.23899 8.33335 6.342C8.17918 6.44502 7.99792 6.5 7.8125 6.5C7.56386 6.5 7.32541 6.40123 7.14959 6.22541C6.97378 6.0496 6.875 5.81114 6.875 5.5625Z" fill="#008080"/>
</svg>
