<svg width="66" height="65" viewBox="0 0 66 65" fill="none" xmlns="http://www.w3.org/2000/svg">
<g id="Icon-CheckCircle">
<path id="Vector" d="M44.5934 24.9691C44.7822 25.1578 44.932 25.3818 45.0343 25.6284C45.1365 25.875 45.1891 26.1393 45.1891 26.4062C45.1891 26.6732 45.1365 26.9375 45.0343 27.1841C44.932 27.4307 44.7822 27.6547 44.5934 27.8434L30.3746 42.0621C30.186 42.251 29.9619 42.4008 29.7154 42.503C29.4688 42.6052 29.2044 42.6578 28.9375 42.6578C28.6706 42.6578 28.4063 42.6052 28.1597 42.503C27.9131 42.4008 27.689 42.251 27.5004 42.0621L21.4066 35.9684C21.0255 35.5872 20.8114 35.0703 20.8114 34.5312C20.8114 33.9922 21.0255 33.4753 21.4066 33.0941C21.7878 32.713 22.3047 32.4989 22.8438 32.4989C23.3828 32.4989 23.8997 32.713 24.2809 33.0941L28.9375 37.7533L41.7191 24.9691C41.9078 24.7803 42.1318 24.6305 42.3784 24.5282C42.625 24.426 42.8893 24.3734 43.1563 24.3734C43.4232 24.3734 43.6875 24.426 43.9341 24.5282C44.1807 24.6305 44.4047 24.7803 44.5934 24.9691ZM59.4063 32.5C59.4063 37.7227 57.8576 42.828 54.956 47.1705C52.0544 51.513 47.9304 54.8976 43.1052 56.8962C38.2801 58.8948 32.9707 59.4177 27.8484 58.3989C22.7261 57.38 18.021 54.865 14.328 51.172C10.635 47.4791 8.12004 42.7739 7.10115 37.6516C6.08226 32.5293 6.60519 27.2199 8.60382 22.3948C10.6024 17.5697 13.987 13.4456 18.3295 10.544C22.672 7.64245 27.7773 6.09375 33 6.09375C40.0011 6.10114 46.7133 8.8856 51.6639 13.8361C56.6144 18.7867 59.3989 25.4989 59.4063 32.5ZM55.3438 32.5C55.3438 28.0808 54.0333 23.7609 51.5782 20.0865C49.123 16.4121 45.6334 13.5482 41.5506 11.8571C37.4678 10.1659 32.9752 9.72344 28.641 10.5856C24.3067 11.4477 20.3254 13.5758 17.2006 16.7006C14.0758 19.8254 11.9477 23.8067 11.0856 28.1409C10.2235 32.4752 10.6659 36.9678 12.3571 41.0506C14.0482 45.1334 16.9121 48.623 20.5865 51.0781C24.2609 53.5333 28.5808 54.8437 33 54.8437C38.9239 54.837 44.6032 52.4808 48.792 48.292C52.9808 44.1032 55.337 38.4239 55.3438 32.5Z" fill="#008080"/>
</g>
</svg>
