<svg width="20" height="21" viewBox="0 0 20 21" fill="none" xmlns="http://www.w3.org/2000/svg">
<g id="Vector">
<path fill-rule="evenodd" clip-rule="evenodd" d="M3.60593 2.11739C4.9402 1.22585 6.50888 0.75 8.1136 0.75C10.2654 0.750137 12.3291 1.605 13.8506 3.12655C15.3722 4.64811 16.2271 6.71174 16.2272 8.86355C16.2272 10.4683 15.7513 12.037 14.8598 13.3713C13.9683 14.7055 12.7011 15.7455 11.2185 16.3596C9.73597 16.9737 8.1046 17.1344 6.53071 16.8213C4.95683 16.5082 3.51113 15.7355 2.37642 14.6008C1.24171 13.4661 0.468969 12.0204 0.155904 10.4465C-0.157161 8.87259 0.00351542 7.24122 0.617614 5.75866C1.23171 4.27609 2.27165 3.00892 3.60593 2.11739ZM8.11355 2.25C6.80552 2.25001 5.52687 2.63789 4.43928 3.36459C3.35168 4.0913 2.504 5.1242 2.00343 6.33268C1.50287 7.54116 1.3719 8.87093 1.62708 10.1538C1.88227 11.4368 2.51215 12.6152 3.43708 13.5401C4.36201 14.465 5.54044 15.0949 6.82335 15.3501C8.10626 15.6053 9.43603 15.4743 10.6445 14.9738C11.853 14.4732 12.8859 13.6255 13.6126 12.5379C14.3393 11.4503 14.7272 10.1717 14.7272 8.86364M8.11355 2.25C9.86754 2.25012 11.5497 2.94695 12.79 4.18721C14.0302 5.42748 14.7271 7.10965 14.7272 8.86364" fill="#2F313D"/>
<path fill-rule="evenodd" clip-rule="evenodd" d="M13.077 13.827C13.3699 13.5341 13.8448 13.5341 14.1377 13.827L19.2803 18.9697C19.5732 19.2626 19.5732 19.7374 19.2803 20.0303C18.9874 20.3232 18.5126 20.3232 18.2197 20.0303L13.077 14.8877C12.7841 14.5948 12.7841 14.1199 13.077 13.827Z" fill="#2F313D"/>
</g>
</svg>
