<svg id="Component_132_1" data-name="Component 132 – 1" xmlns="http://www.w3.org/2000/svg" width="416.75" height="5107.842" viewBox="0 0 416.75 5107.842">
  <g id="cocotree" transform="translate(0 757)" opacity="0.21">
    <path id="cocotree-2" data-name="cocotree" d="M1806.989,554.966s19.191,30.685,11.609,60.11c0,0,.949-26.878-12.664-41.128a56.267,56.267,0,0,1-7.388,20.037s4.763-21.385-1.055-28.473c0,0,1.046,14.249-5.276,22.146,0,0,1.815-21.43-1.055-33.747,0,0,.192,15.964-4.222,20.037,0,0,1.976-23.1-4.221-33.747,0,0,1.194,19.291-5.277,27.419,0,0,4.926-26.7-5.277-39.018,0,0,1.159,15.6-2.111,22.145,0,0-.913-28.334-10.553-35.855,0,0,2.833,14.806,1.055,22.146,0,0-3.514-22.15-11.609-31.637,0,0,1.907,13.5,0,22.146,0,0-1.692-25.449-11.608-31.637,0,0,2,19.9-1.055,25.31,0,0-3.671-24.652-10.553-34.8,0,0-.427,19.915,21.106,63.273s55.806,110.267,67.541,140.257,17.94,52.728,17.94,52.728l-9.5,6.327s-21.031-66.931-40.1-107.566-33.617-63.27-42.213-85.42-13.789-44.288-23.217-52.728c0,0-3.982,6.789,8.443,28.473,0,0-6.928-5.057-11.609-15.819,0,0,1.247,19.893,8.443,30.582,0,0-10.651-8.055-12.664-14.763,0,0,2.563,21.168,15.83,33.746,0,0-10.92-4.617-15.83-14.764,0,0,4.386,24.423,21.107,33.747,0,0-15.527-2.672-23.217-17.928,0,0,13.681,23.976,17.94,27.419a31.212,31.212,0,0,1-15.83-14.764s10.159,23.009,20.051,27.419c0,0-12.9-3.132-19-12.655,0,0,4.931,14.31,14.774,20.037,0,0-10.791-.3-15.83-7.382,0,0,1.953,22.335,15.83,39.019,0,0-23.752-12.452-27.438-52.728,0,0-4.547,3.759-1.055,21.091,0,0-10.5-7.959-9.5-39.019,0,0-9.806,12.409-8.443,23.2,0,0-7.966-15.867,2.111-37.964,0,0-6.4,6.733-8.442,14.763,0,0-5.875-16.208,13.719-33.746a18.809,18.809,0,0,0-13.719,8.436c1.082.181-5.115-8.617,21.106-27.419,0,0-7.585-.449-14.774,7.382,0,0-3.321-13.748,25.328-30.582,0,0-10.972.528-15.829,5.273,0,0,8.258-20.31,23.217-26.364,0,0-11.056.266-25.327,23.2v-6.327s-3.644,8.611-5.277,13.709l-2.111-7.382s-1.859,9.856-4.221,14.764l-2.111-6.327a60.578,60.578,0,0,1-3.166,13.709s.27-5.913-1.055-7.382c0,0,.708,11.2-1.056,16.873,0,0-2.815-5.722-5.276-8.436,0,0-1.884,16.058,0,20.037a13.46,13.46,0,0,1-5.277-8.437c-.987-5.63,0-1.054,0-1.054s-1.247,15.613,1.055,20.037c0,0-3.549-5.359-4.221-9.491,0,0,.65,13.058,3.166,17.928,0,0-6.2-4.349-6.332-8.437,0,0,1.368,12.766,6.332,17.928,0,0-6.346-3.489-8.443-9.491,0,0,1.309,14.413,10.553,20.037,0,0-8.936-1.7-11.609-6.327,0,0,5.215,13.435,9.5,15.818,0,0-7.848-2.264-10.553-6.327,0,0,5.731,15.192,12.664,20.037,0,0-7.984-1.872-11.609-6.327,0,0,4.741,19.123,10.553,22.146,0,0-18.817-5.935-20.051-42.183a16.071,16.071,0,0,0-3.167,15.818s-8.771-13.992,2.111-35.855c0,0-7.285,1.353-10.553,12.654,0,0-5.923-20.691,16.885-40.074,0,0-5.6-1.582-9.5,5.273,0,0-1.612-16.889,22.162-28.473,0,0-.8-4.316-9.5,1.055,0,0,4.59-17.719,32.715-22.146,0,0-1.093-5.634-10.553-2.109,0,0,10.475-10.082,23.217-12.655,0,0-11.794-4.28-26.383,3.164,0,0-3.539-2.646,9.5-9.491,0,0-12.763-.394-24.272,11.6,0,0-5.939-5.505,9.5-12.655,0,0-12.313-4.089-26.383,14.764,0,0-2.421-9.93,11.609-16.873,0,0-16.895,3.331-28.494,21.091,0,0-4.625-7.892,9.5-18.982,0,0-17.456,8.984-25.328,25.31,0,0-7.341-5.641,6.332-18.982,0,0-16.646,9.876-17.941,25.309,0,0-6.587-3.455,2.111-17.927,0,0-22.241,13.747-29.549,33.746,0,0-1.5-31.388,41.157-50.62s78.839-8.6,88.647-6.327c0,0-3.078-7.933-34.826-8.436a90.3,90.3,0,0,1,19-3.164s-13.05-8.578-41.158-4.218a52.753,52.753,0,0,1,24.273-5.273s-13.619-7.558-47.489,0c0,0-1.87-8.749,20.051-11.6,0,0-21.657-3.052-46.434,11.6,0,0-2.311-7.95,22.162-16.873,0,0-24.437,3.078-37.991,9.491,0,0,2.948-8.868,21.106-12.654,0,0-25.3,1.309-40.1,12.654,0,0,1.809-9.333,17.941-13.709,0,0-11.717-1.962-29.549,9.492,0,0,1.174-9.276,13.719-13.709,0,0-33.013-2.982-53.821,8.436,0,0,22.641-24.141,78.094-15.818,0,0-9.507-11.084-33.77-7.382,0,0,18.551-10.786,56.987,0,0,0-7.965-11.08-31.659-14.764,0,0,21.476-8.614,55.931,15.819a40.4,40.4,0,0,0-21.107-15.819s21.181-7.136,47.49,28.473c0,0,4.085-7.51-11.608-21.091,0,0,20.726,3.042,35.881,35.855,0,0,4.267-5.625-6.332-17.928,0,0,17.227-1.043,27.438,30.582l3.166,14.848s3.823-.823,1.055-9.5-4.608-21.98-3.166-27.451c0,0,5.5,15.454,9.5,15.837,0,0-11.189-22.236,0-43.288,0,0-.5,15.052,6.332,16.893,0,0-6.128-30.754,17.941-46.455,0,0-6.263,13.216-6.333,20.06,0,0,11.408-31.9,36.936-43.288,0,0-18.336,19.8-17.94,28.507,0,0,18.347-28.863,58.043-36.953,0,0-27.533,11.365-34.826,26.395,0,0,30.7-27.693,63.318-27.451,0,0-26.623,9.09-33.77,16.892,0,0,13.739-3.5,26.383-1.055,0,0-27.6.59-39.047,11.614,0,0,20-6.137,29.549-2.112,0,0-38.228,4.6-45.378,13.725,0,0,18.938-7.387,26.383-5.279,0,0-36.93,9.606-42.213,21.116,0,0,18.6-13.343,36.936-10.558,0,0-40.712,12.867-51.71,27.451,0,0,13.874-10.647,23.217-10.558,0,0-33.918,19.379-34.825,31.674,0,0,10.517-11.946,19-14.781,0,0-23.5,17.886-23.217,32.73,0,0,11.91-15.8,21.106-17.949,0,0-22.7,20.915-23.218,27.451s-.6,9.572,4.222-1.056,13.719-19,13.719-19-2.151,5.025-2.11,8.446c0,0,17.294-37.066,53.821-44.343,0,0-12.638,5.256-15.83,12.67,0,0,28.805-21.334,55.933-16.893,0,0-18.84,1.775-22.162,6.334,0,0,39.467-6.475,68.6,16.893,0,0-36.405-3.543-53.822-1.056,0,0,5.187,5.374,7.388,10.558,0,0-13.236-12.366-22.162-10.558,0,0,10.234,4.17,11.609,10.558,0,0-14.336-10.023-23.217-8.446,0,0,8.343,7.312,9.5,11.613,0,0-11.809-8.869-20.051-7.39,0,0,6.133,1.224,7.387,9.5,0,0-8.62-9.261-19-4.224,0,0,9.2-1.354,12.664,7.39,0,0-16.523-8.4-23.217-1.055,0,0,10.28.168,13.719,5.279,0,0-13.8-4.08-20.051,1.055,0,0,15.04-.814,17.94,2.111,0,0-20.819-.912-24.272,5.279,0,0,10.279,3.041,17.941,0,0,0-14.29,6.43-13.719,9.5,0,0,25.256-17.313,59.1-8.446,0,0-16.421,2.132-17.94,6.334,0,0,32.2-2.631,43.269,0,0,0-15.242-.027-17.941,3.167,0,0,31.115,10.734,44.323,26.395,0,0-13.6-7.534-19-8.446,0,0,17.811,26.4,22.162,47.511,0,0-26.166-32.437-46.435-40.12,0,0,3.536,7.169,3.166,14.781,0,0-4.652-16.452-13.719-19,0,0,6.015,9.319,5.277,19,0,0-6.156-17.311-13.719-21.116,0,0,4.288,12.432,2.11,17.949,0,0-3.091-15.311-9.5-17.949,0,0,2.123,7.85,0,14.781,0,0-2.044-16.044-10.553-17.949a21.726,21.726,0,0,1,3.166,16.893s-3.691-15.312-13.719-15.837a21.5,21.5,0,0,1,5.277,13.726s-3.957-12.324-13.719-13.726c0,0,7.608,10.146,9.5,16.893,0,0-10.451-12.4-14.774-13.725,0,0,5.39,7.381,4.221,13.725,0,0-6.189-11.122-12.664-13.725,0,0-.977,8.795,6.333,9.5,0,0-14.2,3.508-14.775,8.446,0,0,27.115-7.666,40.1,7.391,0,0-18.478-1.179-19,3.167,0,0,27.235-2.434,36.938,8.447,0,0-16.679-1.6-20.052,1.055,0,0,26.522,1.4,34.826,17.949,0,0-13.469-6.3-19-5.279,0,0,24.8,6.685,30.6,30.618,0,0-14.275-14.709-23.217-16.893,0,0,16.085,18.143,17.94,40.12C1822.818,574.174,1815.166,556.719,1806.989,554.966Z" transform="translate(-1498.835 -325.006)" fill="teal" fill-rule="evenodd"/>
  </g>
  <g id="dots" transform="translate(268 27)">
    <circle id="dot" cx="6" cy="6" r="6" transform="translate(52) rotate(90)" fill="#e4509a"/>
    <circle id="dot-2" data-name="dot" cx="6" cy="6" r="6" transform="translate(52 27) rotate(90)" fill="#e4509a"/>
    <circle id="dot-3" data-name="dot" cx="6" cy="6" r="6" transform="translate(52 54) rotate(90)" fill="#e4509a"/>
    <circle id="dot-4" data-name="dot" cx="6" cy="6" r="6" transform="translate(32) rotate(90)" fill="#e4509a"/>
    <circle id="dot-5" data-name="dot" cx="6" cy="6" r="6" transform="translate(32 27) rotate(90)" fill="#e4509a"/>
    <circle id="dot-6" data-name="dot" cx="6" cy="6" r="6" transform="translate(32 54) rotate(90)" fill="#e4509a"/>
    <circle id="dot-7" data-name="dot" cx="6" cy="6" r="6" transform="translate(12) rotate(90)" fill="#e4509a"/>
    <circle id="dot-8" data-name="dot" cx="6" cy="6" r="6" transform="translate(12 27) rotate(90)" fill="#e4509a"/>
    <circle id="dot-9" data-name="dot" cx="6" cy="6" r="6" transform="translate(12 54) rotate(90)" fill="#e4509a"/>
  </g>
  <g id="dots-2" data-name="dots" transform="translate(206)">
    <circle id="dot-10" data-name="dot" cx="6" cy="6" r="6" transform="translate(52) rotate(90)" fill="#e4509a"/>
    <circle id="dot-11" data-name="dot" cx="6" cy="6" r="6" transform="translate(52 27) rotate(90)" fill="#e4509a"/>
    <circle id="dot-12" data-name="dot" cx="6" cy="6" r="6" transform="translate(52 54) rotate(90)" fill="#e4509a"/>
    <circle id="dot-13" data-name="dot" cx="6" cy="6" r="6" transform="translate(32) rotate(90)" fill="#e4509a"/>
    <circle id="dot-14" data-name="dot" cx="6" cy="6" r="6" transform="translate(32 27) rotate(90)" fill="#e4509a"/>
    <circle id="dot-15" data-name="dot" cx="6" cy="6" r="6" transform="translate(32 54) rotate(90)" fill="#e4509a"/>
    <circle id="dot-16" data-name="dot" cx="6" cy="6" r="6" transform="translate(12) rotate(90)" fill="#e4509a"/>
    <circle id="dot-17" data-name="dot" cx="6" cy="6" r="6" transform="translate(12 27) rotate(90)" fill="#e4509a"/>
    <circle id="dot-18" data-name="dot" cx="6" cy="6" r="6" transform="translate(12 54) rotate(90)" fill="#e4509a"/>
  </g>
  <g id="cocotree-3" data-name="cocotree" transform="translate(40 4683.842)" opacity="0.21">
    <path id="cocotree-4" data-name="cocotree" d="M1806.989,554.966s19.191,30.685,11.609,60.11c0,0,.949-26.878-12.664-41.128a56.267,56.267,0,0,1-7.388,20.037s4.763-21.385-1.055-28.473c0,0,1.046,14.249-5.276,22.146,0,0,1.815-21.43-1.055-33.747,0,0,.192,15.964-4.222,20.037,0,0,1.976-23.1-4.221-33.747,0,0,1.194,19.291-5.277,27.419,0,0,4.926-26.7-5.277-39.018,0,0,1.159,15.6-2.111,22.145,0,0-.913-28.334-10.553-35.855,0,0,2.833,14.806,1.055,22.146,0,0-3.514-22.15-11.609-31.637,0,0,1.907,13.5,0,22.146,0,0-1.692-25.449-11.608-31.637,0,0,2,19.9-1.055,25.31,0,0-3.671-24.652-10.553-34.8,0,0-.427,19.915,21.106,63.273s55.806,110.267,67.541,140.257,17.94,52.728,17.94,52.728l-9.5,6.327s-21.031-66.931-40.1-107.566-33.617-63.27-42.213-85.42-13.789-44.288-23.217-52.728c0,0-3.982,6.789,8.443,28.473,0,0-6.928-5.057-11.609-15.819,0,0,1.247,19.893,8.443,30.582,0,0-10.651-8.055-12.664-14.763,0,0,2.563,21.168,15.83,33.746,0,0-10.92-4.617-15.83-14.764,0,0,4.386,24.423,21.107,33.747,0,0-15.527-2.672-23.217-17.928,0,0,13.681,23.976,17.94,27.419a31.212,31.212,0,0,1-15.83-14.764s10.159,23.009,20.051,27.419c0,0-12.9-3.132-19-12.655,0,0,4.931,14.31,14.774,20.037,0,0-10.791-.3-15.83-7.382,0,0,1.953,22.335,15.83,39.019,0,0-23.752-12.452-27.438-52.728,0,0-4.547,3.759-1.055,21.091,0,0-10.5-7.959-9.5-39.019,0,0-9.806,12.409-8.443,23.2,0,0-7.966-15.867,2.111-37.964,0,0-6.4,6.733-8.442,14.763,0,0-5.875-16.208,13.719-33.746a18.809,18.809,0,0,0-13.719,8.436c1.082.181-5.115-8.617,21.106-27.419,0,0-7.585-.449-14.774,7.382,0,0-3.321-13.748,25.328-30.582,0,0-10.972.528-15.829,5.273,0,0,8.258-20.31,23.217-26.364,0,0-11.056.266-25.327,23.2v-6.327s-3.644,8.611-5.277,13.709l-2.111-7.382s-1.859,9.856-4.221,14.764l-2.111-6.327a60.578,60.578,0,0,1-3.166,13.709s.27-5.913-1.055-7.382c0,0,.708,11.2-1.056,16.873,0,0-2.815-5.722-5.276-8.436,0,0-1.884,16.058,0,20.037a13.46,13.46,0,0,1-5.277-8.437c-.987-5.63,0-1.054,0-1.054s-1.247,15.613,1.055,20.037c0,0-3.549-5.359-4.221-9.491,0,0,.65,13.058,3.166,17.928,0,0-6.2-4.349-6.332-8.437,0,0,1.368,12.766,6.332,17.928,0,0-6.346-3.489-8.443-9.491,0,0,1.309,14.413,10.553,20.037,0,0-8.936-1.7-11.609-6.327,0,0,5.215,13.435,9.5,15.818,0,0-7.848-2.264-10.553-6.327,0,0,5.731,15.192,12.664,20.037,0,0-7.984-1.872-11.609-6.327,0,0,4.741,19.123,10.553,22.146,0,0-18.817-5.935-20.051-42.183a16.071,16.071,0,0,0-3.167,15.818s-8.771-13.992,2.111-35.855c0,0-7.285,1.353-10.553,12.654,0,0-5.923-20.691,16.885-40.074,0,0-5.6-1.582-9.5,5.273,0,0-1.612-16.889,22.162-28.473,0,0-.8-4.316-9.5,1.055,0,0,4.59-17.719,32.715-22.146,0,0-1.093-5.634-10.553-2.109,0,0,10.475-10.082,23.217-12.655,0,0-11.794-4.28-26.383,3.164,0,0-3.539-2.646,9.5-9.491,0,0-12.763-.394-24.272,11.6,0,0-5.939-5.505,9.5-12.655,0,0-12.313-4.089-26.383,14.764,0,0-2.421-9.93,11.609-16.873,0,0-16.895,3.331-28.494,21.091,0,0-4.625-7.892,9.5-18.982,0,0-17.456,8.984-25.328,25.31,0,0-7.341-5.641,6.332-18.982,0,0-16.646,9.876-17.941,25.309,0,0-6.587-3.455,2.111-17.927,0,0-22.241,13.747-29.549,33.746,0,0-1.5-31.388,41.157-50.62s78.839-8.6,88.647-6.327c0,0-3.078-7.933-34.826-8.436a90.3,90.3,0,0,1,19-3.164s-13.05-8.578-41.158-4.218a52.753,52.753,0,0,1,24.273-5.273s-13.619-7.558-47.489,0c0,0-1.87-8.749,20.051-11.6,0,0-21.657-3.052-46.434,11.6,0,0-2.311-7.95,22.162-16.873,0,0-24.437,3.078-37.991,9.491,0,0,2.948-8.868,21.106-12.654,0,0-25.3,1.309-40.1,12.654,0,0,1.809-9.333,17.941-13.709,0,0-11.717-1.962-29.549,9.492,0,0,1.174-9.276,13.719-13.709,0,0-33.013-2.982-53.821,8.436,0,0,22.641-24.141,78.094-15.818,0,0-9.507-11.084-33.77-7.382,0,0,18.551-10.786,56.987,0,0,0-7.965-11.08-31.659-14.764,0,0,21.476-8.614,55.931,15.819a40.4,40.4,0,0,0-21.107-15.819s21.181-7.136,47.49,28.473c0,0,4.085-7.51-11.608-21.091,0,0,20.726,3.042,35.881,35.855,0,0,4.267-5.625-6.332-17.928,0,0,17.227-1.043,27.438,30.582l3.166,14.848s3.823-.823,1.055-9.5-4.608-21.98-3.166-27.451c0,0,5.5,15.454,9.5,15.837,0,0-11.189-22.236,0-43.288,0,0-.5,15.052,6.332,16.893,0,0-6.128-30.754,17.941-46.455,0,0-6.263,13.216-6.333,20.06,0,0,11.408-31.9,36.936-43.288,0,0-18.336,19.8-17.94,28.507,0,0,18.347-28.863,58.043-36.953,0,0-27.533,11.365-34.826,26.395,0,0,30.7-27.693,63.318-27.451,0,0-26.623,9.09-33.77,16.892,0,0,13.739-3.5,26.383-1.055,0,0-27.6.59-39.047,11.614,0,0,20-6.137,29.549-2.112,0,0-38.228,4.6-45.378,13.725,0,0,18.938-7.387,26.383-5.279,0,0-36.93,9.606-42.213,21.116,0,0,18.6-13.343,36.936-10.558,0,0-40.712,12.867-51.71,27.451,0,0,13.874-10.647,23.217-10.558,0,0-33.918,19.379-34.825,31.674,0,0,10.517-11.946,19-14.781,0,0-23.5,17.886-23.217,32.73,0,0,11.91-15.8,21.106-17.949,0,0-22.7,20.915-23.218,27.451s-.6,9.572,4.222-1.056,13.719-19,13.719-19-2.151,5.025-2.11,8.446c0,0,17.294-37.066,53.821-44.343,0,0-12.638,5.256-15.83,12.67,0,0,28.805-21.334,55.933-16.893,0,0-18.84,1.775-22.162,6.334,0,0,39.467-6.475,68.6,16.893,0,0-36.405-3.543-53.822-1.056,0,0,5.187,5.374,7.388,10.558,0,0-13.236-12.366-22.162-10.558,0,0,10.234,4.17,11.609,10.558,0,0-14.336-10.023-23.217-8.446,0,0,8.343,7.312,9.5,11.613,0,0-11.809-8.869-20.051-7.39,0,0,6.133,1.224,7.387,9.5,0,0-8.62-9.261-19-4.224,0,0,9.2-1.354,12.664,7.39,0,0-16.523-8.4-23.217-1.055,0,0,10.28.168,13.719,5.279,0,0-13.8-4.08-20.051,1.055,0,0,15.04-.814,17.94,2.111,0,0-20.819-.912-24.272,5.279,0,0,10.279,3.041,17.941,0,0,0-14.29,6.43-13.719,9.5,0,0,25.256-17.313,59.1-8.446,0,0-16.421,2.132-17.94,6.334,0,0,32.2-2.631,43.269,0,0,0-15.242-.027-17.941,3.167,0,0,31.115,10.734,44.323,26.395,0,0-13.6-7.534-19-8.446,0,0,17.811,26.4,22.162,47.511,0,0-26.166-32.437-46.435-40.12,0,0,3.536,7.169,3.166,14.781,0,0-4.652-16.452-13.719-19,0,0,6.015,9.319,5.277,19,0,0-6.156-17.311-13.719-21.116,0,0,4.288,12.432,2.11,17.949,0,0-3.091-15.311-9.5-17.949,0,0,2.123,7.85,0,14.781,0,0-2.044-16.044-10.553-17.949a21.726,21.726,0,0,1,3.166,16.893s-3.691-15.312-13.719-15.837a21.5,21.5,0,0,1,5.277,13.726s-3.957-12.324-13.719-13.726c0,0,7.608,10.146,9.5,16.893,0,0-10.451-12.4-14.774-13.725,0,0,5.39,7.381,4.221,13.725,0,0-6.189-11.122-12.664-13.725,0,0-.977,8.795,6.333,9.5,0,0-14.2,3.508-14.775,8.446,0,0,27.115-7.666,40.1,7.391,0,0-18.478-1.179-19,3.167,0,0,27.235-2.434,36.938,8.447,0,0-16.679-1.6-20.052,1.055,0,0,26.522,1.4,34.826,17.949,0,0-13.469-6.3-19-5.279,0,0,24.8,6.685,30.6,30.618,0,0-14.275-14.709-23.217-16.893,0,0,16.085,18.143,17.94,40.12C1822.818,574.174,1815.166,556.719,1806.989,554.966Z" transform="translate(-1498.835 -325.006)" fill="teal" fill-rule="evenodd"/>
  </g>
</svg>
