<svg xmlns="http://www.w3.org/2000/svg" width="290.75" height="327" viewBox="0 0 290.75 327">
  <g id="cocotree" opacity="0.21">
    <path id="cocotree-2" data-name="cocotree" d="M1736.647,502.357s14.81,23.665,8.959,46.359c0,0,.733-20.729-9.773-31.719a43.377,43.377,0,0,1-5.7,15.453s3.676-16.493-.814-21.959c0,0,.807,10.989-4.072,17.08,0,0,1.4-16.527-.814-26.026,0,0,.148,12.312-3.258,15.453,0,0,1.525-17.817-3.257-26.026,0,0,.921,14.878-4.072,21.146,0,0,3.8-20.591-4.072-30.092,0,0,.894,12.033-1.629,17.079,0,0-.7-21.852-8.144-27.653,0,0,2.187,11.419.814,17.08,0,0-2.712-17.083-8.959-24.4,0,0,1.472,10.41,0,17.08,0,0-1.306-19.627-8.958-24.4,0,0,1.544,15.347-.814,19.52,0,0-2.833-19.012-8.144-26.839,0,0-.329,15.359,16.288,48.8s43.067,85.041,52.123,108.17,13.845,40.666,13.845,40.666l-7.33,4.88s-16.231-51.619-30.948-82.957-25.944-48.8-32.577-65.878-10.642-34.156-17.917-40.665c0,0-3.073,5.235,6.516,21.959a31.4,31.4,0,0,1-8.959-12.2s.962,15.342,6.516,23.586c0,0-8.22-6.212-9.773-11.386,0,0,1.978,16.326,12.216,26.026,0,0-8.427-3.561-12.216-11.387,0,0,3.385,18.836,16.289,26.026a26.794,26.794,0,0,1-17.917-13.826s10.558,18.491,13.845,21.146a24.083,24.083,0,0,1-12.216-11.387s7.84,17.745,15.474,21.146c0,0-9.956-2.415-14.659-9.76,0,0,3.805,11.036,11.4,15.453,0,0-8.328-.234-12.216-5.693,0,0,1.507,17.225,12.216,30.092,0,0-18.33-9.6-21.175-40.665,0,0-3.509,2.9-.814,16.266,0,0-8.1-6.138-7.33-30.093,0,0-7.568,9.57-6.516,17.893,0,0-6.148-12.237,1.629-29.279,0,0-4.936,5.193-6.515,11.386,0,0-4.534-12.5,10.588-26.026a14.518,14.518,0,0,0-10.588,6.506c.835.139-3.947-6.645,16.288-21.146,0,0-5.854-.347-11.4,5.693,0,0-2.563-10.6,19.546-23.586,0,0-8.468.408-12.216,4.067,0,0,6.373-15.664,17.917-20.333,0,0-8.532.205-19.546,17.893V456s-2.812,6.641-4.073,10.573l-1.629-5.693s-1.435,7.6-3.257,11.386l-1.629-4.88a46.694,46.694,0,0,1-2.443,10.573s.208-4.56-.814-5.693c0,0,.547,8.637-.815,13.013a36.507,36.507,0,0,0-4.072-6.506s-1.454,12.384,0,15.453a10.38,10.38,0,0,1-4.073-6.507c-.761-4.342,0-.813,0-.813s-.963,12.041.815,15.453c0,0-2.739-4.133-3.258-7.32,0,0,.5,10.071,2.443,13.826,0,0-4.788-3.354-4.886-6.507,0,0,1.056,9.845,4.886,13.826,0,0-4.9-2.691-6.515-7.32,0,0,1.01,11.116,8.144,15.453,0,0-6.9-1.311-8.959-4.88,0,0,4.024,10.361,7.33,12.2,0,0-6.057-1.746-8.144-4.88,0,0,4.423,11.716,9.773,15.453,0,0-6.162-1.444-8.959-4.88,0,0,3.659,14.748,8.144,17.08,0,0-14.522-4.577-15.474-32.532a12.389,12.389,0,0,0-2.444,12.2s-6.769-10.791,1.629-27.652c0,0-5.622,1.043-8.144,9.759,0,0-4.571-15.957,13.031-30.906,0,0-4.319-1.22-7.33,4.067,0,0-1.244-13.025,17.1-21.959,0,0-.618-3.329-7.33.813,0,0,3.542-13.665,25.247-17.08,0,0-.844-4.345-8.144-1.626,0,0,8.084-7.775,17.917-9.76,0,0-9.1-3.3-20.36,2.44,0,0-2.731-2.04,7.33-7.32,0,0-9.85-.3-18.732,8.947,0,0-4.583-4.246,7.329-9.76,0,0-9.5-3.154-20.36,11.386,0,0-1.868-7.658,8.959-13.013,0,0-13.038,2.569-21.99,16.266,0,0-3.569-6.087,7.33-14.64,0,0-13.471,6.929-19.546,19.52,0,0-5.665-4.351,4.887-14.639,0,0-12.846,7.616-13.845,19.519,0,0-5.083-2.665,1.629-13.826,0,0-17.164,10.6-22.8,26.026,0,0-1.156-24.207,31.762-39.039s60.842-6.632,68.412-4.88c0,0-2.375-6.118-26.876-6.506a69.728,69.728,0,0,1,14.66-2.44s-10.071-6.616-31.763-3.253a40.732,40.732,0,0,1,18.732-4.067s-10.51-5.829-36.649,0c0,0-1.443-6.747,15.474-8.946,0,0-16.714-2.353-35.835,8.946,0,0-1.784-6.131,17.1-13.013,0,0-18.859,2.374-29.319,7.32,0,0,2.275-6.839,16.288-9.759,0,0-19.529,1.01-30.948,9.759,0,0,1.4-7.2,13.846-10.573,0,0-9.042-1.513-22.8,7.32,0,0,.906-7.154,10.587-10.573,0,0-25.478-2.3-41.536,6.506,0,0,17.473-18.618,60.268-12.2,0,0-7.337-8.549-26.062-5.693,0,0,14.317-8.318,43.979,0,0,0-6.147-8.545-24.432-11.386,0,0,16.574-6.643,43.164,12.2a31.172,31.172,0,0,0-16.289-12.2s16.346-5.5,36.649,21.959c0,0,3.153-5.792-8.959-16.266,0,0,15.995,2.346,27.69,27.653,0,0,3.293-4.338-4.887-13.826,0,0,13.294-.8,21.175,23.586l2.444,11.451s2.95-.635.814-7.328-3.556-16.952-2.443-21.171c0,0,4.242,11.918,7.329,12.214,0,0-8.635-17.149,0-33.385,0,0-.383,11.609,4.887,13.028,0,0-4.729-23.718,13.845-35.827,0,0-4.834,10.192-4.887,15.471,0,0,8.8-24.6,28.5-33.385,0,0-14.151,15.267-13.845,21.985,0,0,14.159-22.26,44.794-28.5,0,0-21.248,8.765-26.876,20.356,0,0,23.7-21.357,48.865-21.171,0,0-20.546,7.01-26.061,13.028,0,0,10.6-2.7,20.36-.814,0,0-21.3.455-30.133,8.957,0,0,15.438-4.733,22.8-1.628,0,0-29.5,3.546-35.02,10.585,0,0,14.615-5.7,20.361-4.071,0,0-28.5,7.408-32.577,16.285,0,0,14.354-10.291,28.5-8.143,0,0-31.419,9.924-39.906,21.171,0,0,10.707-8.211,17.917-8.143,0,0-26.176,14.946-26.876,24.428,0,0,8.116-9.213,14.66-11.4,0,0-18.133,13.794-17.917,25.242,0,0,9.192-12.184,16.289-13.842,0,0-17.515,16.13-17.918,21.171s-.461,7.383,3.258-.814a53.294,53.294,0,0,1,10.587-14.656s-1.66,3.875-1.629,6.514c0,0,13.347-28.586,41.535-34.2,0,0-9.753,4.053-12.216,9.771,0,0,22.23-16.453,43.165-13.028,0,0-14.54,1.369-17.1,4.885,0,0,30.458-4.994,52.938,13.028,0,0-28.095-2.733-41.536-.815,0,0,4,4.145,5.7,8.143,0,0-10.214-9.537-17.1-8.143,0,0,7.9,3.216,8.959,8.143,0,0-11.064-7.73-17.917-6.514,0,0,6.439,5.639,7.33,8.957,0,0-9.114-6.84-15.474-5.7,0,0,4.733.944,5.7,7.329,0,0-6.652-7.143-14.66-3.257,0,0,7.1-1.044,9.773,5.7,0,0-12.751-6.479-17.917-.814,0,0,7.933.129,10.588,4.071,0,0-10.649-3.147-15.474.814,0,0,11.607-.628,13.845,1.628,0,0-16.066-.7-18.732,4.071,0,0,7.932,2.345,13.845,0,0,0-11.028,4.959-10.587,7.328a59.222,59.222,0,0,1,45.607-6.514s-12.672,1.645-13.845,4.885c0,0,24.851-2.029,33.392,0,0,0-11.762-.021-13.845,2.443,0,0,24.012,8.278,34.206,20.356,0,0-10.5-5.81-14.66-6.514,0,0,13.745,20.358,17.1,36.641,0,0-20.193-25.017-35.835-30.942a26.371,26.371,0,0,1,2.443,11.4s-3.59-12.688-10.587-14.657c0,0,4.642,7.187,4.072,14.657,0,0-4.751-13.35-10.587-16.285,0,0,3.309,9.588,1.629,13.842,0,0-2.386-11.809-7.33-13.842,0,0,1.638,6.054,0,11.4,0,0-1.578-12.373-8.144-13.842a16.747,16.747,0,0,1,2.443,13.028s-2.849-11.809-10.587-12.214a16.572,16.572,0,0,1,4.072,10.586s-3.053-9.5-10.587-10.586c0,0,5.872,7.825,7.329,13.028,0,0-8.065-9.561-11.4-10.585,0,0,4.159,5.692,3.257,10.585,0,0-4.777-8.578-9.773-10.585,0,0-.754,6.783,4.887,7.328,0,0-10.955,2.706-11.4,6.514,0,0,20.926-5.913,30.948,5.7,0,0-14.26-.91-14.66,2.442,0,0,21.018-1.877,28.506,6.514,0,0-12.872-1.235-15.474.814,0,0,20.468,1.081,26.876,13.842,0,0-10.394-4.86-14.66-4.071,0,0,19.137,5.155,23.619,23.614,0,0-11.016-11.344-17.917-13.028,0,0,12.413,13.992,13.845,30.942C1748.863,517.171,1742.958,503.709,1736.647,502.357Z" transform="translate(-1498.835 -325.006)" fill="teal" fill-rule="evenodd"/>
  </g>
</svg>
