<svg xmlns="http://www.w3.org/2000/svg" width="27" height="24" viewBox="0 0 27 24">
  <path id="Icon_awesome-map-marked" data-name="Icon awesome-map-marked" d="M13.5,0A5.906,5.906,0,0,0,7.594,5.906c0,2.637,3.86,7.444,5.339,9.188a.739.739,0,0,0,1.134,0c1.479-1.745,5.339-6.551,5.339-9.188A5.906,5.906,0,0,0,13.5,0ZM.943,10.123A1.5,1.5,0,0,0,0,11.515V23.249a.75.75,0,0,0,1.028.7L7.5,21V10.074A14.2,14.2,0,0,1,6.5,7.9ZM13.5,16.86a2.24,2.24,0,0,1-1.711-.795c-.922-1.088-1.9-2.326-2.789-3.6V21l9,3V12.469c-.887,1.27-1.867,2.509-2.789,3.6A2.241,2.241,0,0,1,13.5,16.86ZM25.972,7.554,19.5,10.5V24l6.557-2.623A1.5,1.5,0,0,0,27,19.985V8.251A.75.75,0,0,0,25.972,7.554Z" fill="teal"/>
</svg>
