<svg id="Component_131_1" data-name="Component 131 – 1" xmlns="http://www.w3.org/2000/svg" width="1994.774" height="335.054" viewBox="0 0 1994.774 335.054">
  <g id="cocotree" transform="translate(0 93.949) rotate(-9)" opacity="0.21">
    <path id="cocotree-2" data-name="cocotree" d="M1538.348,457.4s-11.054,17.667-6.687,34.608c0,0-.547-15.475,7.295-23.679a32.387,32.387,0,0,0,4.255,11.536s-2.744-12.312.608-16.393c0,0-.6,8.2,3.039,12.75,0,0-1.045-12.338.608-19.429,0,0-.11,9.191,2.432,11.536,0,0-1.138-13.3,2.431-19.429,0,0-.688,11.106,3.04,15.786,0,0-2.837-15.372,3.039-22.464,0,0-.667,8.983,1.216,12.75,0,0,.526-16.313,6.079-20.643,0,0-1.632,8.524-.608,12.75,0,0,2.024-12.753,6.687-18.214,0,0-1.1,7.771,0,12.75,0,0,.975-14.652,6.687-18.214,0,0-1.152,11.457.608,14.572,0,0,2.115-14.193,6.079-20.036,0,0,.246,11.466-12.158,36.429s-32.145,63.484-38.9,80.751-10.334,30.357-10.334,30.357l5.471,3.643s12.115-38.534,23.1-61.929,19.364-36.427,24.316-49.179,7.943-25.5,13.374-30.357c0,0,2.294,3.908-4.863,16.393a23.441,23.441,0,0,0,6.687-9.107s-.718,11.453-4.863,17.607c0,0,6.135-4.638,7.295-8.5,0,0-1.477,12.187-9.118,19.429,0,0,6.29-2.658,9.118-8.5,0,0-2.526,14.061-12.158,19.429a20,20,0,0,0,13.373-10.322s-7.88,13.8-10.334,15.786a17.975,17.975,0,0,0,9.118-8.5s-5.852,13.247-11.55,15.786c0,0,7.432-1.8,10.942-7.286,0,0-2.84,8.239-8.51,11.536,0,0,6.216-.175,9.118-4.25,0,0-1.125,12.859-9.118,22.465,0,0,13.682-7.169,15.805-30.357,0,0,2.619,2.164.608,12.143,0,0,6.047-4.582,5.471-22.465,0,0,5.649,7.144,4.863,13.357,0,0,4.589-9.135-1.216-21.857a22.3,22.3,0,0,1,4.863,8.5s3.384-9.332-7.9-19.429a10.835,10.835,0,0,1,7.9,4.857c-.623.1,2.946-4.961-12.157-15.786,0,0,4.37-.259,8.51,4.25,0,0,1.913-7.915-14.589-17.607,0,0,6.32.3,9.118,3.036,0,0-4.756-11.693-13.374-15.179,0,0,6.368.153,14.589,13.357v-3.643s2.1,4.958,3.04,7.893l1.216-4.25a45.834,45.834,0,0,0,2.431,8.5l1.216-3.643a34.86,34.86,0,0,0,1.824,7.893s-.155-3.4.608-4.25c0,0-.408,6.448.608,9.714a27.258,27.258,0,0,1,3.039-4.857s1.085,9.245,0,11.536a7.749,7.749,0,0,0,3.04-4.857c.568-3.242,0-.607,0-.607s.719,8.989-.608,11.536a17.924,17.924,0,0,0,2.431-5.464s-.374,7.518-1.823,10.322c0,0,3.574-2.5,3.647-4.857,0,0-.788,7.349-3.647,10.322,0,0,3.656-2.009,4.863-5.464,0,0-.754,8.3-6.079,11.536,0,0,5.147-.979,6.687-3.643,0,0-3,7.735-5.471,9.107,0,0,4.521-1.3,6.079-3.643,0,0-3.3,8.746-7.295,11.536,0,0,4.6-1.078,6.687-3.643,0,0-2.731,11.01-6.079,12.75,0,0,10.839-3.417,11.55-24.286a9.249,9.249,0,0,1,1.824,9.107s5.052-8.055-1.216-20.643c0,0,4.2.779,6.079,7.286,0,0,3.412-11.912-9.726-23.072,0,0,3.224-.911,5.471,3.036,0,0,.928-9.724-12.766-16.393,0,0,.461-2.485,5.471.607,0,0-2.644-10.2-18.845-12.75,0,0,.63-3.244,6.079-1.214,0,0-6.034-5.8-13.374-7.286,0,0,6.793-2.464,15.2,1.821,0,0,2.038-1.523-5.471-5.464,0,0,7.352-.227,13.981,6.679,0,0,3.421-3.17-5.471-7.286,0,0,7.093-2.354,15.2,8.5,0,0,1.395-5.717-6.687-9.714a28.055,28.055,0,0,1,16.413,12.143s2.664-4.544-5.471-10.929c0,0,10.055,5.172,14.589,14.572,0,0,4.229-3.248-3.647-10.928,0,0,9.589,5.686,10.334,14.571,0,0,3.794-1.989-1.216-10.321,0,0,12.812,7.915,17.021,19.429,0,0,.863-18.071-23.707-29.143s-45.413-4.951-51.063-3.643c0,0,1.773-4.567,20.06-4.857a52.042,52.042,0,0,0-10.942-1.821s7.517-4.939,23.708-2.429a30.4,30.4,0,0,0-13.981-3.036s7.845-4.351,27.355,0c0,0,1.077-5.037-11.55-6.678,0,0,12.475-1.757,26.747,6.678,0,0,1.331-4.577-12.766-9.714,0,0,14.076,1.772,21.884,5.464,0,0-1.7-5.106-12.157-7.286,0,0,14.576.754,23.1,7.286,0,0-1.042-5.373-10.334-7.893,0,0,6.749-1.13,17.021,5.465,0,0-.676-5.341-7.9-7.893,0,0,19.017-1.717,31,4.857,0,0-13.042-13.9-44.984-9.107,0,0,5.476-6.382,19.452-4.25,0,0-10.686-6.21-32.826,0,0,0,4.588-6.379,18.236-8.5,0,0-12.371-4.959-32.218,9.107a23.267,23.267,0,0,1,12.158-9.107s-12.2-4.109-27.355,16.393c0,0-2.353-4.324,6.687-12.143,0,0-11.939,1.752-20.668,20.643,0,0-2.458-3.238,3.648-10.322,0,0-9.923-.6-15.805,17.607l-1.824,8.548s-2.2-.474-.608-5.471,2.655-12.655,1.824-15.8c0,0-3.166,8.9-5.471,9.118,0,0,6.445-12.8,0-24.922,0,0,.286,8.666-3.647,9.726,0,0,3.53-17.706-10.334-26.745,0,0,3.608,7.609,3.647,11.549,0,0-6.572-18.367-21.276-24.922,0,0,10.562,11.4,10.334,16.412,0,0-10.568-16.618-33.434-21.275,0,0,15.859,6.543,20.06,15.2,0,0-17.686-15.944-36.473-15.8,0,0,15.336,5.233,19.452,9.726,0,0-7.914-2.015-15.2-.608,0,0,15.9.34,22.492,6.686,0,0-11.523-3.533-17.021-1.216,0,0,22.02,2.647,26.139,7.9,0,0-10.909-4.253-15.2-3.039,0,0,21.272,5.53,24.316,12.157,0,0-10.714-7.682-21.276-6.079,0,0,23.451,7.408,29.786,15.8,0,0-7.992-6.13-13.373-6.079,0,0,19.538,11.157,20.06,18.236,0,0-6.058-6.878-10.942-8.51,0,0,13.534,10.3,13.374,18.844,0,0-6.861-9.1-12.158-10.334,0,0,13.073,12.042,13.374,15.8s.344,5.511-2.432-.608a39.787,39.787,0,0,0-7.9-10.941,15.486,15.486,0,0,1,1.216,4.863s-9.962-21.34-31-25.53c0,0,7.28,3.026,9.118,7.294,0,0-16.592-12.283-32.218-9.726,0,0,10.852,1.022,12.766,3.647,0,0-22.733-3.728-39.513,9.726,0,0,20.97-2.04,31-.608a24.619,24.619,0,0,0-4.255,6.079s7.624-7.119,12.766-6.079c0,0-5.9,2.4-6.687,6.079,0,0,8.258-5.771,13.374-4.863,0,0-4.806,4.21-5.471,6.686,0,0,6.8-5.106,11.55-4.255,0,0-3.533.7-4.255,5.471,0,0,4.965-5.332,10.942-2.432,0,0-5.3-.78-7.295,4.255,0,0,9.518-4.837,13.373-.608,0,0-5.921.1-7.9,3.039,0,0,7.949-2.349,11.55.608,0,0-8.663-.469-10.334,1.216,0,0,11.992-.525,13.981,3.039,0,0-5.921,1.751-10.334,0,0,0,8.231,3.7,7.9,5.471a44.2,44.2,0,0,0-34.041-4.863s9.459,1.228,10.334,3.647c0,0-18.549-1.515-24.924,0,0,0,8.78-.016,10.334,1.824,0,0-17.923,6.18-25.531,15.2,0,0,7.835-4.338,10.942-4.863,0,0-10.26,15.2-12.766,27.353,0,0,15.072-18.675,26.747-23.1a19.693,19.693,0,0,0-1.824,8.51s2.68-9.472,7.9-10.942c0,0-3.465,5.365-3.04,10.942,0,0,3.546-9.966,7.9-12.157,0,0-2.47,7.158-1.216,10.334,0,0,1.781-8.815,5.471-10.334a17.592,17.592,0,0,0,0,8.51s1.177-9.237,6.079-10.334a12.5,12.5,0,0,0-1.824,9.726s2.126-8.816,7.9-9.118a12.372,12.372,0,0,0-3.04,7.9s2.279-7.1,7.9-7.9c0,0-4.383,5.841-5.471,9.726,0,0,6.02-7.137,8.51-7.9,0,0-3.1,4.249-2.431,7.9,0,0,3.566-6.4,7.295-7.9,0,0,.563,5.064-3.648,5.471,0,0,8.177,2.02,8.51,4.863,0,0-15.619-4.414-23.1,4.255,0,0,10.644-.679,10.942,1.823,0,0-15.687-1.4-21.276,4.863,0,0,9.607-.922,11.55.608,0,0-15.277.807-20.06,10.334,0,0,7.758-3.628,10.942-3.039,0,0-14.284,3.849-17.629,17.628,0,0,8.223-8.468,13.374-9.726,0,0-9.265,10.445-10.334,23.1C1529.229,468.46,1533.637,458.411,1538.348,457.4Z" transform="translate(-1498.835 -325.006)" fill="teal" fill-rule="evenodd"/>
  </g>
  <g id="dots" transform="translate(1942.774 27)">
    <circle id="dot" cx="6" cy="6" r="6" transform="translate(52) rotate(90)" fill="#e4509a"/>
    <circle id="dot-2" data-name="dot" cx="6" cy="6" r="6" transform="translate(52 27) rotate(90)" fill="#e4509a"/>
    <circle id="dot-3" data-name="dot" cx="6" cy="6" r="6" transform="translate(52 54) rotate(90)" fill="#e4509a"/>
    <circle id="dot-4" data-name="dot" cx="6" cy="6" r="6" transform="translate(32) rotate(90)" fill="#e4509a"/>
    <circle id="dot-5" data-name="dot" cx="6" cy="6" r="6" transform="translate(32 27) rotate(90)" fill="#e4509a"/>
    <circle id="dot-6" data-name="dot" cx="6" cy="6" r="6" transform="translate(32 54) rotate(90)" fill="#e4509a"/>
    <circle id="dot-7" data-name="dot" cx="6" cy="6" r="6" transform="translate(12) rotate(90)" fill="#e4509a"/>
    <circle id="dot-8" data-name="dot" cx="6" cy="6" r="6" transform="translate(12 27) rotate(90)" fill="#e4509a"/>
    <circle id="dot-9" data-name="dot" cx="6" cy="6" r="6" transform="translate(12 54) rotate(90)" fill="#e4509a"/>
  </g>
  <g id="dots-2" data-name="dots" transform="translate(1880.774)">
    <circle id="dot-10" data-name="dot" cx="6" cy="6" r="6" transform="translate(52) rotate(90)" fill="#e4509a"/>
    <circle id="dot-11" data-name="dot" cx="6" cy="6" r="6" transform="translate(52 27) rotate(90)" fill="#e4509a"/>
    <circle id="dot-12" data-name="dot" cx="6" cy="6" r="6" transform="translate(52 54) rotate(90)" fill="#e4509a"/>
    <circle id="dot-13" data-name="dot" cx="6" cy="6" r="6" transform="translate(32) rotate(90)" fill="#e4509a"/>
    <circle id="dot-14" data-name="dot" cx="6" cy="6" r="6" transform="translate(32 27) rotate(90)" fill="#e4509a"/>
    <circle id="dot-15" data-name="dot" cx="6" cy="6" r="6" transform="translate(32 54) rotate(90)" fill="#e4509a"/>
    <circle id="dot-16" data-name="dot" cx="6" cy="6" r="6" transform="translate(12) rotate(90)" fill="#e4509a"/>
    <circle id="dot-17" data-name="dot" cx="6" cy="6" r="6" transform="translate(12 27) rotate(90)" fill="#e4509a"/>
    <circle id="dot-18" data-name="dot" cx="6" cy="6" r="6" transform="translate(12 54) rotate(90)" fill="#e4509a"/>
  </g>
</svg>
