<svg xmlns="http://www.w3.org/2000/svg" width="412.75" height="464" viewBox="0 0 412.75 464">
  <g id="Group_640" data-name="Group 640" transform="translate(-1585.25 -2219)">
    <g id="cocotree" transform="translate(1585.25 2219)" opacity="0.21">
      <path id="cocotree-2" data-name="cocotree" d="M1836.434,576.66s21.025,33.58,12.718,65.781c0,0,1.04-29.414-13.874-45.008a61.534,61.534,0,0,1-8.093,21.927s5.219-23.4-1.156-31.16c0,0,1.146,15.594-5.78,24.235,0,0,1.988-23.452-1.156-36.93,0,0,.21,17.47-4.625,21.927,0,0,2.165-25.282-4.624-36.93,0,0,1.308,21.111-5.781,30.005,0,0,5.4-29.218-5.781-42.7,0,0,1.27,17.075-2.312,24.235,0,0-1-31.007-11.562-39.238,0,0,3.1,16.2,1.156,24.235,0,0-3.85-24.24-12.718-34.622,0,0,2.089,14.771,0,24.235,0,0-1.854-27.85-12.718-34.622,0,0,2.192,21.777-1.156,27.7,0,0-4.022-26.978-11.562-38.084,0,0-.468,21.794,23.123,69.243s61.138,120.669,73.994,153.489,19.654,57.7,19.654,57.7l-10.406,6.924s-23.041-73.245-43.934-117.713-36.83-69.239-46.247-93.478-15.107-48.466-25.435-57.7c0,0-4.363,7.429,9.25,31.16,0,0-7.591-5.534-12.718-17.311,0,0,1.366,21.77,9.25,33.467,0,0-11.669-8.815-13.874-16.156,0,0,2.808,23.165,17.342,36.929,0,0-11.963-5.053-17.342-16.157,0,0,4.805,26.727,23.123,36.93,0,0-17.01-2.924-25.436-19.619,0,0,14.988,26.238,19.655,30.005a34.183,34.183,0,0,1-17.342-16.157s11.13,25.18,21.966,30.005c0,0-14.134-3.427-20.81-13.848,0,0,5.4,15.66,16.186,21.927,0,0-11.823-.332-17.342-8.078,0,0,2.139,24.442,17.342,42.7,0,0-26.022-13.626-30.06-57.7,0,0-4.981,4.114-1.156,23.081,0,0-11.5-8.71-10.405-42.7,0,0-10.743,13.58-9.25,25.389,0,0-8.727-17.364,2.312-41.545,0,0-7.007,7.368-9.249,16.156,0,0-6.436-17.737,15.03-36.929a20.612,20.612,0,0,0-15.03,9.232c1.185.2-5.6-9.43,23.123-30.005,0,0-8.311-.492-16.186,8.078,0,0-3.639-15.045,27.748-33.467,0,0-12.021.578-17.342,5.771,0,0,9.047-22.226,25.436-28.852,0,0-12.112.291-27.748,25.389v-6.924s-3.992,9.423-5.781,15l-2.312-8.078s-2.037,10.786-4.624,16.157l-2.312-6.924a66.228,66.228,0,0,1-3.469,15s.3-6.471-1.156-8.078c0,0,.776,12.256-1.156,18.465,0,0-3.084-6.262-5.78-9.232,0,0-2.064,17.573,0,21.927a14.728,14.728,0,0,1-5.781-9.233c-1.081-6.162,0-1.154,0-1.154s-1.367,17.086,1.156,21.927c0,0-3.888-5.865-4.625-10.386,0,0,.712,14.29,3.468,19.619,0,0-6.8-4.759-6.937-9.233,0,0,1.5,13.97,6.937,19.619,0,0-6.953-3.818-9.25-10.386,0,0,1.434,15.773,11.562,21.927,0,0-9.79-1.86-12.718-6.924,0,0,5.713,14.7,10.406,17.31,0,0-8.6-2.478-11.562-6.924,0,0,6.279,16.625,13.874,21.927,0,0-8.747-2.049-12.718-6.924,0,0,5.194,20.927,11.562,24.235,0,0-20.616-6.5-21.967-46.162a17.573,17.573,0,0,0-3.469,17.31s-9.609-15.312,2.312-39.237c0,0-7.981,1.48-11.562,13.848,0,0-6.489-22.643,18.5-43.854,0,0-6.132-1.732-10.406,5.771,0,0-1.766-18.483,24.28-31.16,0,0-.877-4.723-10.406,1.154,0,0,5.029-19.391,35.841-24.235,0,0-1.2-6.166-11.562-2.308,0,0,11.477-11.033,25.436-13.849,0,0-12.921-4.684-28.9,3.462,0,0-3.877-2.9,10.406-10.386,0,0-13.983-.431-26.592,12.695,0,0-6.507-6.025,10.405-13.849,0,0-13.49-4.475-28.9,16.157,0,0-2.652-10.867,12.718-18.465,0,0-18.509,3.645-31.216,23.081,0,0-5.067-8.637,10.405-20.773,0,0-19.124,9.832-27.748,27.7,0,0-8.043-6.173,6.937-20.773,0,0-18.237,10.807-19.655,27.7,0,0-7.216-3.781,2.313-19.618,0,0-24.366,15.044-32.373,36.929,0,0-1.641-34.349,45.09-55.395s86.372-9.411,97.118-6.924c0,0-3.372-8.682-38.153-9.232a99.026,99.026,0,0,1,20.811-3.462s-14.3-9.388-45.091-4.616a57.845,57.845,0,0,1,26.592-5.771s-14.921-8.27-52.027,0c0,0-2.048-9.574,21.967-12.694,0,0-23.727-3.339-50.871,12.694,0,0-2.532-8.7,24.28-18.465,0,0-26.772,3.369-41.622,10.386,0,0,3.23-9.7,23.123-13.848,0,0-27.723,1.433-43.934,13.848,0,0,1.982-10.213,19.655-15,0,0-12.836-2.147-32.373,10.387,0,0,1.286-10.151,15.03-15,0,0-36.168-3.263-58.964,9.232,0,0,24.8-26.418,85.556-17.31,0,0-10.416-12.13-37-8.078,0,0,20.324-11.8,62.433,0,0,0-8.726-12.125-34.684-16.157,0,0,23.529-9.426,61.276,17.311a44.247,44.247,0,0,0-23.123-17.311s23.2-7.809,52.028,31.16c0,0,4.476-8.218-12.718-23.081,0,0,22.706,3.329,39.309,39.238,0,0,4.674-6.155-6.937-19.619,0,0,18.873-1.142,30.06,33.467l3.469,16.248s4.188-.9,1.156-10.4-5.048-24.054-3.468-30.04c0,0,6.022,16.911,10.405,17.331,0,0-12.258-24.334,0-47.371,0,0-.543,16.472,6.937,18.486,0,0-6.713-33.655,19.655-50.837,0,0-6.862,14.462-6.937,21.953,0,0,12.5-34.911,40.465-47.371,0,0-20.088,21.663-19.654,31.2,0,0,20.1-31.586,63.589-40.439,0,0-30.164,12.437-38.153,28.885,0,0,33.638-30.305,69.369-30.04,0,0-29.167,9.947-37,18.486,0,0,15.052-3.83,28.9-1.155,0,0-30.238.645-42.778,12.709,0,0,21.915-6.716,32.372-2.311,0,0-41.881,5.032-49.714,15.02,0,0,20.748-8.083,28.9-5.777,0,0-40.458,10.512-46.247,23.108,0,0,20.377-14.6,40.466-11.554,0,0-44.6,14.081-56.652,30.04,0,0,15.2-11.651,25.436-11.554,0,0-37.159,21.207-38.153,34.662,0,0,11.522-13.073,20.811-16.175,0,0-25.741,19.573-25.436,35.817,0,0,13.049-17.289,23.124-19.642,0,0-24.865,22.888-25.436,30.04s-.654,10.476,4.625-1.156,15.03-20.8,15.03-20.8-2.356,5.5-2.312,9.243c0,0,18.947-40.563,58.964-48.526,0,0-13.845,5.751-17.342,13.865,0,0,31.557-23.347,61.277-18.486,0,0-20.64,1.942-24.28,6.932,0,0,43.238-7.086,75.151,18.487,0,0-39.884-3.878-58.965-1.156,0,0,5.683,5.881,8.094,11.554,0,0-14.5-13.532-24.28-11.554,0,0,11.212,4.563,12.718,11.554,0,0-15.706-10.969-25.436-9.243,0,0,9.141,8,10.406,12.709,0,0-12.938-9.705-21.967-8.088,0,0,6.719,1.339,8.094,10.4,0,0-9.444-10.135-20.811-4.622,0,0,10.079-1.482,13.874,8.088,0,0-18.1-9.193-25.436-1.155,0,0,11.262.183,15.03,5.777,0,0-15.117-4.465-21.966,1.155,0,0,16.477-.891,19.654,2.311,0,0-22.808-1-26.592,5.777,0,0,11.261,3.328,19.655,0,0,0-15.655,7.036-15.03,10.4,0,0,27.669-18.947,64.744-9.243,0,0-17.99,2.333-19.655,6.932,0,0,35.279-2.879,47.4,0,0,0-16.7-.03-19.655,3.466,0,0,34.088,11.746,48.559,28.885,0,0-14.9-8.245-20.811-9.243,0,0,19.513,28.887,24.28,51.993,0,0-28.666-35.5-50.872-43.9,0,0,3.874,7.846,3.469,16.175,0,0-5.1-18-15.03-20.8,0,0,6.59,10.2,5.781,20.8,0,0-6.744-18.944-15.03-23.108,0,0,4.7,13.605,2.312,19.642,0,0-3.387-16.756-10.406-19.642,0,0,2.326,8.591,0,16.176,0,0-2.239-17.557-11.562-19.642a23.756,23.756,0,0,1,3.469,18.487s-4.044-16.757-15.03-17.331a23.509,23.509,0,0,1,5.781,15.021s-4.334-13.486-15.03-15.021c0,0,8.335,11.1,10.4,18.486,0,0-11.45-13.566-16.186-15.02,0,0,5.9,8.077,4.624,15.02,0,0-6.781-12.172-13.874-15.02,0,0-1.07,9.625,6.938,10.4,0,0-15.552,3.839-16.186,9.243,0,0,29.707-8.39,43.934,8.088,0,0-20.244-1.291-20.811,3.466,0,0,29.837-2.664,40.467,9.243,0,0-18.273-1.752-21.968,1.155,0,0,29.056,1.533,38.153,19.642,0,0-14.756-6.9-20.811-5.777,0,0,27.167,7.315,33.529,33.507,0,0-15.639-16.1-25.436-18.486,0,0,17.622,19.855,19.654,43.905C1853.776,597.68,1845.393,578.579,1836.434,576.66Z" transform="translate(-1498.835 -325.006)" fill="teal"/>
    </g>
  </g>
</svg>
