<svg xmlns="http://www.w3.org/2000/svg" width="30.239" height="34.506" viewBox="0 0 30.239 34.506">
  <path id="Icon_simple-tiktok" data-name="Icon simple-tiktok" d="M17.2.027C18.974,0,20.735.014,22.5,0a8.436,8.436,0,0,0,2.37,5.648,9.551,9.551,0,0,0,5.742,2.424V13.53a14.5,14.5,0,0,1-5.688-1.314,16.733,16.733,0,0,1-2.194-1.26c-.014,3.955.014,7.909-.027,11.851a10.345,10.345,0,0,1-1.828,5.336,10.09,10.09,0,0,1-8,4.347A9.875,9.875,0,0,1,7.34,31.1,10.213,10.213,0,0,1,2.4,23.363c-.027-.677-.041-1.354-.014-2.018A10.2,10.2,0,0,1,14.207,12.3c.027,2-.054,4.009-.054,6.013a4.647,4.647,0,0,0-5.932,2.871,5.373,5.373,0,0,0-.19,2.181,4.609,4.609,0,0,0,4.74,3.887,4.55,4.55,0,0,0,3.752-2.181,3.125,3.125,0,0,0,.555-1.436c.135-2.424.081-4.835.095-7.259.014-5.458-.014-10.9.027-16.347Z" transform="translate(-1.369 1)" fill="none" stroke="#007a70" stroke-linecap="round" stroke-linejoin="round" stroke-width="2"/>
</svg>
