<svg width="50" height="70" viewBox="0 0 50 70" fill="none" xmlns="http://www.w3.org/2000/svg">
<path fill-rule="evenodd" clip-rule="evenodd" d="M19.1074 26.6174C20.4417 25.7259 22.0103 25.25 23.6151 25.25C25.7669 25.2501 27.8305 26.105 29.3521 27.6266C30.8737 29.1481 31.7285 31.2117 31.7287 33.3635C31.7287 34.9683 31.2528 36.537 30.3613 37.8713C29.4697 39.2055 28.2026 40.2455 26.72 40.8596C25.2374 41.4737 23.6061 41.6344 22.0322 41.3213C20.4583 41.0082 19.0126 40.2355 17.8779 39.1008C16.7432 37.9661 15.9704 36.5204 15.6574 34.9465C15.3443 33.3726 15.505 31.7412 16.1191 30.2587C16.7332 28.7761 17.7731 27.5089 19.1074 26.6174ZM23.615 26.75C22.307 26.75 21.0283 27.1379 19.9407 27.8646C18.8531 28.5913 18.0055 29.6242 17.5049 30.8327C17.0043 32.0412 16.8734 33.3709 17.1285 34.6538C17.3837 35.9368 18.0136 37.1152 18.9385 38.0401C19.8635 38.965 21.0419 39.5949 22.3248 39.8501C23.6077 40.1053 24.9375 39.9743 26.146 39.4738C27.3545 38.9732 28.3874 38.1255 29.1141 37.0379C29.8408 35.9503 30.2286 34.6717 30.2287 33.3636M23.615 26.75C25.369 26.7501 27.0512 27.447 28.2914 28.6872C29.5317 29.9275 30.2285 31.6096 30.2287 33.3636" fill="#505558"/>
<path fill-rule="evenodd" clip-rule="evenodd" d="M28.5785 38.327C28.8714 38.0341 29.3462 38.0341 29.6391 38.327L34.7818 43.4697C35.0747 43.7626 35.0747 44.2374 34.7818 44.5303C34.4889 44.8232 34.014 44.8232 33.7211 44.5303L28.5785 39.3877C28.2856 39.0948 28.2856 38.6199 28.5785 38.327Z" fill="#505558"/>
</svg>
