<svg width="55" height="70" viewBox="0 0 55 70" fill="none" xmlns="http://www.w3.org/2000/svg">
<path d="M30.6248 42.5C30.6248 42.6658 30.5589 42.8247 30.4417 42.9419C30.3245 43.0592 30.1655 43.125 29.9998 43.125H24.9998C24.834 43.125 24.675 43.0592 24.5578 42.9419C24.4406 42.8247 24.3748 42.6658 24.3748 42.5C24.3748 42.3342 24.4406 42.1753 24.5578 42.0581C24.675 41.9408 24.834 41.875 24.9998 41.875H29.9998C30.1655 41.875 30.3245 41.9408 30.4417 42.0581C30.5589 42.1753 30.6248 42.3342 30.6248 42.5ZM34.8318 40C34.7234 40.191 34.5659 40.3497 34.3757 40.4595C34.1855 40.5694 33.9694 40.6265 33.7498 40.625H21.2498C21.03 40.6247 20.8143 40.5665 20.6242 40.4562C20.4341 40.346 20.2765 40.1875 20.1672 39.9969C20.0578 39.8063 20.0007 39.5903 20.0015 39.3705C20.0023 39.1508 20.061 38.9351 20.1717 38.7453C20.6052 37.9984 21.2498 35.8859 21.2498 33.125C21.2498 31.4674 21.9083 29.8777 23.0804 28.7056C24.2525 27.5335 25.8422 26.875 27.4998 26.875C29.1574 26.875 30.7471 27.5335 31.9192 28.7056C33.0913 29.8777 33.7498 31.4674 33.7498 33.125C33.7498 35.8852 34.3951 37.9984 34.8287 38.7453C34.9405 38.9354 34.9996 39.1518 35 39.3723C35.0004 39.5929 34.9421 39.8095 34.831 40H34.8318ZM33.7498 39.375C33.1459 38.3383 32.4998 35.9414 32.4998 33.125C32.4998 31.7989 31.973 30.5271 31.0353 29.5895C30.0976 28.6518 28.8259 28.125 27.4998 28.125C26.1737 28.125 24.9019 28.6518 23.9642 29.5895C23.0266 30.5271 22.4998 31.7989 22.4998 33.125C22.4998 35.9422 21.8529 38.3391 21.2498 39.375H33.7498Z" fill="#505558"/>
</svg>
