<svg width="22" height="22" viewBox="0 0 22 22" fill="none" xmlns="http://www.w3.org/2000/svg">
<path d="M11 2.0625C9.23233 2.0625 7.50436 2.58668 6.0346 3.56874C4.56483 4.55081 3.41929 5.94665 2.74283 7.57977C2.06637 9.21288 1.88938 11.0099 2.23424 12.7436C2.57909 14.4773 3.43031 16.0698 4.68024 17.3198C5.93017 18.5697 7.52268 19.4209 9.25638 19.7658C10.9901 20.1106 12.7871 19.9336 14.4202 19.2572C16.0534 18.5807 17.4492 17.4352 18.4313 15.9654C19.4133 14.4956 19.9375 12.7677 19.9375 11C19.935 8.6304 18.9926 6.35856 17.317 4.683C15.6414 3.00743 13.3696 2.065 11 2.0625ZM6.36625 16.9727C6.8636 16.1948 7.54876 15.5547 8.35856 15.1113C9.16836 14.6679 10.0768 14.4355 11 14.4355C11.9233 14.4355 12.8316 14.6679 13.6414 15.1113C14.4512 15.5547 15.1364 16.1948 15.6338 16.9727C14.3089 18.003 12.6784 18.5624 11 18.5624C9.32162 18.5624 7.69112 18.003 6.36625 16.9727ZM8.25 10.3125C8.25 9.7686 8.41129 9.23692 8.71346 8.78468C9.01564 8.33245 9.44513 7.97997 9.94762 7.77183C10.4501 7.56369 11.0031 7.50923 11.5365 7.61534C12.07 7.72145 12.56 7.98336 12.9445 8.36796C13.3291 8.75255 13.5911 9.24255 13.6972 9.776C13.8033 10.3094 13.7488 10.8624 13.5407 11.3649C13.3325 11.8674 12.9801 12.2969 12.5278 12.599C12.0756 12.9012 11.5439 13.0625 11 13.0625C10.2707 13.0625 9.57119 12.7728 9.05546 12.257C8.53974 11.7413 8.25 11.0418 8.25 10.3125ZM16.6513 16.0196C15.8845 14.9085 14.8063 14.0489 13.5523 13.5489C14.2259 13.0184 14.7175 12.2911 14.9586 11.4683C15.1997 10.6454 15.1784 9.76791 14.8976 8.95773C14.6169 8.14756 14.0906 7.44501 13.3921 6.94778C12.6936 6.45055 11.8574 6.18336 11 6.18336C10.1426 6.18336 9.30644 6.45055 8.6079 6.94778C7.90936 7.44501 7.38313 8.14756 7.10238 8.95773C6.82164 9.76791 6.80034 10.6454 7.04144 11.4683C7.28254 12.2911 7.77407 13.0184 8.44766 13.5489C7.19368 14.0489 6.11552 14.9085 5.34875 16.0196C4.37987 14.9301 3.7466 13.5837 3.5252 12.1425C3.3038 10.7014 3.50372 9.22702 4.10087 7.89688C4.69802 6.56675 5.66696 5.43759 6.89099 4.64538C8.11503 3.85318 9.54197 3.4317 11 3.4317C12.458 3.4317 13.885 3.85318 15.109 4.64538C16.3331 5.43759 17.302 6.56675 17.8991 7.89688C18.4963 9.22702 18.6962 10.7014 18.4748 12.1425C18.2534 13.5837 17.6201 14.9301 16.6513 16.0196Z" fill="#008080"/>
</svg>
