<svg width="24" height="24" viewBox="0 0 24 24" fill="none" xmlns="http://www.w3.org/2000/svg">
<path d="M16.5001 21.75C16.5001 21.9489 16.4211 22.1396 16.2805 22.2803C16.1398 22.4209 15.949 22.5 15.7501 22.5H8.25012C8.05121 22.5 7.86045 22.4209 7.71979 22.2803C7.57914 22.1396 7.50012 21.9489 7.50012 21.75C7.50012 21.551 7.57914 21.3603 7.71979 21.2196C7.86045 21.079 8.05121 21 8.25012 21H15.7501C15.949 21 16.1398 21.079 16.2805 21.2196C16.4211 21.3603 16.5001 21.551 16.5001 21.75ZM20.2501 9.74995C20.2534 11.0002 19.9709 12.2347 19.4243 13.3592C18.8778 14.4837 18.0815 15.4685 17.0964 16.2384C16.9122 16.3796 16.7627 16.561 16.6593 16.7688C16.556 16.9767 16.5015 17.2054 16.5001 17.4375V18C16.5001 18.3978 16.3421 18.7793 16.0608 19.0606C15.7795 19.3419 15.3979 19.5 15.0001 19.5H9.00012C8.6023 19.5 8.22077 19.3419 7.93946 19.0606C7.65816 18.7793 7.50012 18.3978 7.50012 18V17.4375C7.49997 17.2081 7.44724 16.9819 7.34599 16.7762C7.24474 16.5704 7.09766 16.3906 6.91606 16.2506C5.93337 15.4852 5.13767 14.5064 4.58916 13.3881C4.04066 12.2698 3.75374 11.0414 3.75012 9.79589C3.72575 5.32777 7.337 1.60683 11.8014 1.49995C12.9014 1.47345 13.9956 1.66725 15.0196 2.06997C16.0436 2.47269 16.9767 3.07617 17.7639 3.84491C18.5512 4.61365 19.1767 5.53211 19.6037 6.54622C20.0306 7.56034 20.2504 8.64962 20.2501 9.74995ZM17.2398 8.87433C17.0453 7.78804 16.5227 6.78742 15.7423 6.00717C14.9619 5.22692 13.9611 4.70451 12.8748 4.51027C12.7777 4.49389 12.6783 4.49681 12.5823 4.51886C12.4862 4.5409 12.3955 4.58164 12.3153 4.63875C12.235 4.69586 12.1668 4.76821 12.1145 4.85169C12.0622 4.93517 12.0268 5.02813 12.0104 5.12527C11.9941 5.2224 11.997 5.32181 12.019 5.41782C12.0411 5.51383 12.0818 5.60456 12.1389 5.68482C12.196 5.76509 12.2684 5.83332 12.3519 5.88562C12.4353 5.93792 12.5283 5.97327 12.6254 5.98964C14.1789 6.2512 15.497 7.56933 15.7604 9.12558C15.7901 9.30026 15.8807 9.45879 16.0161 9.57307C16.1515 9.68736 16.3229 9.75002 16.5001 9.74995C16.5425 9.7497 16.5848 9.74625 16.6267 9.73964C16.8227 9.70617 16.9974 9.59621 17.1124 9.43394C17.2274 9.27167 17.2732 9.07038 17.2398 8.87433Z" fill="#F5BC16"/>
</svg>
