<svg width="16" height="16" viewBox="0 0 16 16" fill="none" xmlns="http://www.w3.org/2000/svg">
<path d="M6.45641 2.98109L11.1439 7.66859C11.1875 7.71212 11.2221 7.76382 11.2457 7.82072C11.2692 7.87763 11.2814 7.93863 11.2814 8.00023C11.2814 8.06183 11.2692 8.12283 11.2457 8.17973C11.2221 8.23664 11.1875 8.28833 11.1439 8.33187L6.45641 13.0194C6.36846 13.1073 6.24916 13.1567 6.12477 13.1567C6.00038 13.1567 5.88109 13.1073 5.79313 13.0194C5.70517 12.9314 5.65576 12.8121 5.65576 12.6877C5.65576 12.5633 5.70517 12.444 5.79313 12.3561L10.1496 8.00023L5.79313 3.64437C5.74958 3.60082 5.71503 3.54911 5.69146 3.49221C5.66789 3.43531 5.65576 3.37432 5.65576 3.31273C5.65576 3.25113 5.66789 3.19015 5.69146 3.13324C5.71503 3.07634 5.74958 3.02464 5.79313 2.98109C5.83668 2.93753 5.88839 2.90299 5.94529 2.87942C6.00219 2.85585 6.06318 2.84372 6.12477 2.84372C6.18636 2.84372 6.24735 2.85585 6.30426 2.87942C6.36116 2.90299 6.41286 2.93753 6.45641 2.98109Z" fill="white"/>
</svg>
