<svg xmlns="http://www.w3.org/2000/svg" width="244.167" height="100.993" viewBox="0 0 244.167 100.993">
  <g id="icon_auto_excel_plus" data-name="icon auto excel plus" transform="translate(1.499 1.493)">
    <path id="Path_1710" data-name="Path 1710" class="cls-1" d="M323.741,711.219c-.112.305-.221.565-.3.832a24.222,24.222,0,0,1-16.773,16.073,27.022,27.022,0,0,1-6.83.931,24.83,24.83,0,0,1-9.336-1.808,23.98,23.98,0,0,1-14.1-14.915c-.061-.179-.11-.361-.172-.539-.208-.594-.257-.633-.87-.655-.253-.009-.507,0-.76,0H170.172c-.317,0-.633.006-.95.012a.564.564,0,0,0-.579.4c-.061.178-.123.356-.179.536a24.3,24.3,0,0,1-17.994,16.356,22.63,22.63,0,0,1-2.992.472c-.852.078-1.7.152-2.555.148a24.692,24.692,0,0,1-9.518-1.863,23.914,23.914,0,0,1-13.611-13.83c-.183-.468-.322-.953-.491-1.427-.083-.234-.187-.461-.262-.644a1.976,1.976,0,0,0-1.081-.156c-2-.01-3.991.007-5.986-.023a14.664,14.664,0,0,1-3.736-.568,6.561,6.561,0,0,1-.714-.255,4.493,4.493,0,0,1-3.007-4.192c-.014-.251-.007-.5-.007-.755,0-7.237-.012-14.475.009-21.712a21.91,21.91,0,0,1,.5-4.963,12.637,12.637,0,0,1,2.575-5.2,25.513,25.513,0,0,1,4.449-4.1,49.31,49.31,0,0,1,9.931-5.691,83.7,83.7,0,0,1,14.2-4.7c2.575-.622,5.171-1.166,7.772-1.673,1.733-.338,3.49-.554,5.237-.818,1.186-.179,2.371-.363,3.561-.515.814-.1,1.635-.149,2.452-.233,1.005-.1,2.009-.218,3.014-.328.063-.007.126-.019.189-.022,1.231-.07,2.461-.167,3.693-.2a3.307,3.307,0,0,0,1.775-.542q4.232-2.708,8.616-5.168a146.388,146.388,0,0,1,22.956-10.362,135.23,135.23,0,0,1,16.669-4.7c2.53-.537,5.074-1.017,7.621-1.465,1.522-.268,3.063-.428,4.6-.627,1.409-.182,2.817-.372,4.23-.519,1.037-.108,2.081-.137,3.12-.23,1.355-.122,2.713-.192,4.073-.228a7.854,7.854,0,0,0,1.018-.206,1.989,1.989,0,0,1,.829-.06,4.84,4.84,0,0,0,1.411.126c2.47,0,4.941,0,7.411.01.663,0,1.325.073,1.988.11.348.02.7.046,1.044.052,1.677.026,3.344.175,5.01.356.911.1,1.828.134,2.737.24,1.191.138,2.378.309,3.565.479.937.134,1.874.273,2.806.436,1.865.326,3.736.625,5.588,1.014a132.733,132.733,0,0,1,17.759,5.027,126.22,126.22,0,0,1,25.018,12.149c1.226.78,2.453,1.569,3.605,2.449a4.756,4.756,0,0,0,2.438.891c1.378.168,2.754.351,4.132.521,1.222.151,2.446.287,3.668.44.72.09,1.437.2,2.156.3q.892.122,1.784.24c1.909.251,3.818.495,5.726.752s3.815.514,5.719.8a8.033,8.033,0,0,1,1.56.389,3.958,3.958,0,0,1,2.591,2.8,7.256,7.256,0,0,1,.221,1.961q-.006,3.917.005,7.835c0,.436.082.872.115,1.309a1.9,1.9,0,0,1,0,.652,5.528,5.528,0,0,0-.121,1.593q-.01,9.345-.012,18.691a17.348,17.348,0,0,1-.365,3.368,10.975,10.975,0,0,1-2.231,4.738,17.334,17.334,0,0,1-5.381,4.419,64.622,64.622,0,0,1-8.018,3.645,51.064,51.064,0,0,1-6.035,1.959C324.938,710.964,324.382,711.076,323.741,711.219Zm-203.367-3.27a3.41,3.41,0,0,0,.038-.424c-.017-.88-.055-1.761-.063-2.641a20.229,20.229,0,0,1,.885-6.042,23.7,23.7,0,0,1,12.779-14.925,24.681,24.681,0,0,1,10.9-2.482c.824,0,1.639.069,2.459.144a21.835,21.835,0,0,1,3.544.6,24.109,24.109,0,0,1,16.758,14.105,21.259,21.259,0,0,1,1.736,7.116c.1,1.344,0,2.7-.01,4.055,0,.18.028.361.044.555a3.572,3.572,0,0,0,1.528.157q32.543,0,65.086,0c.317,0,.635.011.95-.016a4.864,4.864,0,0,0,.662-.151,4.2,4.2,0,0,0,.109-1.419q0-23.458,0-46.916c0-.315.008-.63-.015-.943a3.143,3.143,0,0,0-.126-.522,2.627,2.627,0,0,0-1.249-.129q-34.775-.006-69.551.006c-1.58,0-3.16.143-4.74.221-.095,0-.188.025-.283.034-1.037.1-2.074.2-3.111.3-.881.082-1.765.135-2.643.241-1.253.151-2.5.334-3.752.512-1.438.2-2.881.38-4.309.633-2.7.48-5.4,1-8.07,1.638a89.044,89.044,0,0,0-13.357,4.208,49.966,49.966,0,0,0-9.526,5.056,28.243,28.243,0,0,0-4.691,3.971,9.746,9.746,0,0,0-2.446,4.618,15.3,15.3,0,0,0-.338,3.275q.008,11.375,0,22.75c0,.22,0,.441.01.661a1.2,1.2,0,0,0,.586,1.021,2.609,2.609,0,0,0,.764.37,16.7,16.7,0,0,0,2.319.449c2.051.178,4.112.146,6.17.133A1.366,1.366,0,0,0,120.373,707.948Zm120.644-49.858a2.2,2.2,0,0,0-.246,1.391q-.009,5.8,0,11.608,0,17.649,0,35.3c0,.377-.007.756.021,1.132.034.463.169.591.658.628.347.026.7.02,1.044.02h31.253c.317,0,.635.011.949-.015a4.162,4.162,0,0,0,.6-.132,1.5,1.5,0,0,0,.092-.972,18.773,18.773,0,0,1,0-3.671,21.372,21.372,0,0,1,.509-3.35,23.385,23.385,0,0,1,8.139-12.967,24.91,24.91,0,0,1,14.517-5.6,23.57,23.57,0,0,1,6.407.511,24.14,24.14,0,0,1,14.292,8.649,22.618,22.618,0,0,1,5.134,16.153,2.247,2.247,0,0,0,.029,1,1.282,1.282,0,0,0,.951-.026,64.14,64.14,0,0,0,8.452-3.074,45.825,45.825,0,0,0,5.235-2.66,13.618,13.618,0,0,0,3.355-2.894,7.916,7.916,0,0,0,1.825-3.782,20.323,20.323,0,0,0,.332-3.657q.008-8.4,0-16.8a6.213,6.213,0,0,0-.034-.753.488.488,0,0,0-.489-.485c-.345-.035-.695-.039-1.042-.039q-6.269,0-12.539,0a10.057,10.057,0,0,1-1.043-.031,1.449,1.449,0,0,1-1.287-1.5,1.472,1.472,0,0,1,1.287-1.41c.377-.038.759-.03,1.139-.03q6.412,0,12.824,0c1.111,0,1.182-.075,1.186-1.181q.01-3.3,0-6.606a10.889,10.889,0,0,0-.116-1.122,1.189,1.189,0,0,0-1.021-1.087c-.153-.037-.306-.076-.461-.1-.558-.1-1.116-.212-1.677-.3-1.061-.159-2.123-.311-3.187-.45-1.158-.151-2.319-.279-3.477-.427-1.345-.172-2.69-.355-4.035-.533-.626-.083-1.252-.162-1.878-.245-1.251-.166-2.5-.34-3.753-.5-1.19-.15-2.382-.282-3.573-.428-.877-.107-1.751-.234-2.629-.336a3.756,3.756,0,0,1-2.342-.883,3.254,3.254,0,0,0-.383-.279,105.61,105.61,0,0,0-14.507-8.576c-.817-.408-.824-.4-1.48.215q-4.9,4.6-9.8,9.208c-1.328,1.257-1.334,1.068-2.677,1.069q-22.608,0-45.217,0C241.908,658.067,241.469,658.082,241.017,658.091Zm-96.162,67.916a17.5,17.5,0,0,0,4.622-.445,21.424,21.424,0,0,0,11.723-6.709,20.143,20.143,0,0,0,5.285-13.022,19.272,19.272,0,0,0-1.077-7.045,21.926,21.926,0,0,0-36.377-7.592,20.328,20.328,0,0,0-5.713,13.519,18.3,18.3,0,0,0,.409,4.5,19.988,19.988,0,0,0,5.283,10.066A21.583,21.583,0,0,0,144.855,726.006Zm154.923.007a17.694,17.694,0,0,0,4.721-.46,21.186,21.186,0,0,0,12.193-7.316,19.493,19.493,0,0,0,4.164-17.685c-1.639-6.789-5.914-11.484-12.28-14.31a20.853,20.853,0,0,0-8.662-1.761,22.482,22.482,0,0,0-4.613.452,21.115,21.115,0,0,0-10.178,5.176,19.944,19.944,0,0,0-6.613,17.849,19,19,0,0,0,3.916,9.482A21.547,21.547,0,0,0,299.778,726.014Zm-2.25-80.28c-.278-.144-.522-.285-.777-.4q-4.5-2.007-9.142-3.662a130.306,130.306,0,0,0-15.727-4.52c-1.939-.427-3.89-.812-5.848-1.141-1.9-.32-3.807-.555-5.715-.808-1.438-.191-2.878-.384-4.322-.517-1.289-.119-2.586-.156-3.879-.229-.126-.007-.252-.018-.378-.027-.725-.05-1.449-.125-2.175-.143-1.329-.032-2.663.032-3.987-.058-1.461-.1-2.909.064-4.363.061a1.024,1.024,0,0,0-.277.084,2.758,2.758,0,0,0-.166,1.388q-.006,8.869,0,17.737a7.257,7.257,0,0,0,.02.848,3.833,3.833,0,0,0,.18.618c.333.015.615.038.9.038q22.6,0,45.2.012a2.021,2.021,0,0,0,1.518-.588c2.788-2.654,5.6-5.283,8.406-7.921a3.6,3.6,0,0,0,.4-.4A1.482,1.482,0,0,0,297.528,645.734Zm-125.963,9.083c.068.071.109.15.149.15q32.623.025,65.245.037a5.775,5.775,0,0,0,.645-.07,2.143,2.143,0,0,0,.176-1.222q.006-9.059,0-18.117c0-.251,0-.5-.023-.754a.444.444,0,0,0-.5-.45c-.347.012-.693.051-1.04.071q-1.987.117-3.975.229c-.095.005-.188.025-.283.035-.909.1-1.818.206-2.728.3-.785.083-1.574.132-2.355.241-1.531.214-3.06.44-4.583.7-2.238.381-4.483.74-6.7,1.209a137.64,137.64,0,0,0-13.716,3.642,141.839,141.839,0,0,0-21.412,8.89q-4.217,2.167-8.284,4.6C171.949,654.447,171.671,654.544,171.565,654.816Z" transform="translate(-106.508 -631.057)"/>
    <path id="Path_1711" data-name="Path 1711" class="cls-1" d="M420.771,757.061q-3.371,0-6.741,0c-.316,0-.634,0-.949-.025a1.445,1.445,0,0,1-1.353-1.435,1.467,1.467,0,0,1,1.4-1.49c.283-.023.569-.019.854-.019H427.75c.285,0,.571,0,.854.022a1.478,1.478,0,0,1,1.356,1.443,1.444,1.444,0,0,1-1.31,1.476c-.314.031-.632.028-.948.028Q424.236,757.063,420.771,757.061Z" transform="translate(-312.919 -714.519)"/>
  </g>
</svg>
