<svg xmlns="http://www.w3.org/2000/svg" width="70.68" height="29.498" viewBox="0 0 70.68 29.498">
  <g id="icon_auto_excel_plus" data-name="icon auto excel plus" transform="translate(0.5 0.498)">
    <path id="Path_1710" data-name="Path 1710" d="M169.273,654.369c-.032.089-.064.164-.088.242a7.019,7.019,0,0,1-4.846,4.674,7.761,7.761,0,0,1-1.973.271,7.133,7.133,0,0,1-2.7-.526,6.965,6.965,0,0,1-4.074-4.337c-.018-.052-.032-.105-.05-.157-.06-.173-.074-.184-.251-.191-.073,0-.146,0-.22,0H124.9c-.091,0-.183,0-.274,0a.163.163,0,0,0-.167.116c-.018.052-.036.1-.052.156a7.04,7.04,0,0,1-5.2,4.757,6.5,6.5,0,0,1-.864.137c-.246.023-.491.044-.738.043a7.1,7.1,0,0,1-2.75-.542,6.933,6.933,0,0,1-3.932-4.022c-.053-.136-.093-.277-.142-.415-.024-.068-.054-.134-.076-.187a.567.567,0,0,0-.312-.045c-.576,0-1.153,0-1.729-.007a4.21,4.21,0,0,1-1.079-.165,1.9,1.9,0,0,1-.206-.074,1.306,1.306,0,0,1-.869-1.219c0-.073,0-.146,0-.22,0-2.1,0-4.209,0-6.314a6.411,6.411,0,0,1,.144-1.443,3.685,3.685,0,0,1,.744-1.512,7.389,7.389,0,0,1,1.285-1.192,14.224,14.224,0,0,1,2.869-1.655,24.072,24.072,0,0,1,4.1-1.366c.744-.181,1.494-.339,2.246-.487.5-.1,1.008-.161,1.513-.238.343-.052.685-.106,1.029-.15.235-.03.472-.043.708-.068.291-.03.581-.063.871-.1.018,0,.036-.005.055-.007.356-.02.711-.049,1.067-.057a.951.951,0,0,0,.513-.158q1.223-.788,2.489-1.5a42.158,42.158,0,0,1,6.633-3.013,38.874,38.874,0,0,1,4.816-1.368c.731-.156,1.466-.3,2.2-.426.44-.078.885-.125,1.328-.182.407-.053.814-.108,1.222-.151.3-.031.6-.04.9-.067.392-.035.784-.056,1.177-.066a2.265,2.265,0,0,0,.294-.06.572.572,0,0,1,.239-.018,1.389,1.389,0,0,0,.408.037c.714,0,1.428,0,2.141,0,.191,0,.383.021.574.032.1.006.2.013.3.015.484.008.966.051,1.448.1.263.029.528.039.791.07.344.04.687.09,1.03.139.271.039.541.079.811.127.539.095,1.079.182,1.615.295a38.16,38.16,0,0,1,5.131,1.462,36.371,36.371,0,0,1,7.228,3.533c.354.227.709.456,1.042.712a1.368,1.368,0,0,0,.7.259c.4.049.8.1,1.194.152.353.044.707.084,1.06.128.208.026.415.058.623.087l.515.07c.551.073,1.1.144,1.654.219s1.1.15,1.652.232a2.306,2.306,0,0,1,.451.113,1.148,1.148,0,0,1,.749.814,2.122,2.122,0,0,1,.064.57q0,1.139,0,2.279c0,.127.024.254.033.381a.554.554,0,0,1,0,.19,1.619,1.619,0,0,0-.035.463q0,2.718,0,5.436a5.077,5.077,0,0,1-.105.98,3.2,3.2,0,0,1-.645,1.378,5.016,5.016,0,0,1-1.555,1.285,18.623,18.623,0,0,1-2.317,1.06,14.674,14.674,0,0,1-1.744.57C169.619,654.3,169.458,654.328,169.273,654.369Zm-58.759-.951a1,1,0,0,0,.011-.123c-.005-.256-.016-.512-.018-.768a5.919,5.919,0,0,1,.256-1.757,6.88,6.88,0,0,1,3.692-4.341,7.093,7.093,0,0,1,3.15-.722c.238,0,.474.02.711.042a6.276,6.276,0,0,1,1.024.174,6.978,6.978,0,0,1,4.842,4.1,6.216,6.216,0,0,1,.5,2.069c.029.391,0,.786,0,1.179,0,.052.008.1.013.161a1.026,1.026,0,0,0,.442.046H143.94c.092,0,.183,0,.274,0a1.394,1.394,0,0,0,.191-.044,1.23,1.23,0,0,0,.031-.413q0-6.822,0-13.644c0-.091,0-.183,0-.274a.918.918,0,0,0-.036-.152.754.754,0,0,0-.361-.038q-10.048,0-20.1,0c-.457,0-.913.042-1.369.064-.027,0-.054.007-.082.01l-.9.087c-.255.024-.51.039-.764.07-.362.044-.723.1-1.084.149-.415.059-.832.11-1.245.184-.781.139-1.56.291-2.332.476a25.612,25.612,0,0,0-3.859,1.224,14.405,14.405,0,0,0-2.752,1.47A8.174,8.174,0,0,0,108.2,643.8a2.84,2.84,0,0,0-.707,1.343,4.478,4.478,0,0,0-.1.953q0,3.308,0,6.616c0,.064,0,.128,0,.192a.348.348,0,0,0,.169.3.753.753,0,0,0,.221.108,4.8,4.8,0,0,0,.67.13c.593.052,1.188.042,1.783.038A.392.392,0,0,0,110.514,653.418Zm34.858-14.5a.645.645,0,0,0-.071.4q0,1.688,0,3.376,0,5.133,0,10.265c0,.11,0,.22.006.329.01.135.049.172.19.183.1.008.2.006.3.006h9.03c.091,0,.183,0,.274,0a1.2,1.2,0,0,0,.174-.039.438.438,0,0,0,.027-.283,5.493,5.493,0,0,1,0-1.068,6.253,6.253,0,0,1,.147-.974,6.807,6.807,0,0,1,2.352-3.771,7.171,7.171,0,0,1,4.194-1.629,6.768,6.768,0,0,1,1.851.149,6.967,6.967,0,0,1,4.129,2.515,6.606,6.606,0,0,1,1.483,4.7.658.658,0,0,0,.008.291.368.368,0,0,0,.275-.008,18.461,18.461,0,0,0,2.442-.894,13.214,13.214,0,0,0,1.512-.774,3.943,3.943,0,0,0,.969-.842,2.309,2.309,0,0,0,.527-1.1,5.947,5.947,0,0,0,.1-1.063q0-2.443,0-4.885a1.819,1.819,0,0,0-.01-.219.141.141,0,0,0-.141-.141c-.1-.01-.2-.011-.3-.011h-3.623a2.884,2.884,0,0,1-.3-.009.42.42,0,0,1-.372-.435.427.427,0,0,1,.372-.41c.109-.011.219-.009.329-.009q1.853,0,3.705,0c.321,0,.342-.022.343-.344q0-.961,0-1.921a3.184,3.184,0,0,0-.034-.326.345.345,0,0,0-.3-.316c-.044-.011-.088-.022-.133-.03-.161-.03-.322-.062-.485-.086-.307-.046-.613-.091-.921-.131-.334-.044-.67-.081-1-.124-.389-.05-.777-.1-1.166-.155l-.543-.071c-.361-.048-.723-.1-1.084-.145-.344-.044-.688-.082-1.032-.125-.253-.031-.506-.068-.76-.1a1.081,1.081,0,0,1-.677-.257.936.936,0,0,0-.111-.081,30.47,30.47,0,0,0-4.191-2.494c-.236-.119-.238-.117-.428.062q-1.417,1.338-2.831,2.678c-.384.366-.385.311-.773.311H145.756C145.629,638.912,145.5,638.916,145.372,638.919ZM117.588,658.67a5.029,5.029,0,0,0,1.335-.13,6.181,6.181,0,0,0,3.387-1.951,5.878,5.878,0,0,0,1.527-3.787,5.638,5.638,0,0,0-.311-2.049,6.2,6.2,0,0,0-5.4-4.145,6.121,6.121,0,0,0-1.854.118,6.233,6.233,0,0,0-3.252,1.819,5.931,5.931,0,0,0-1.651,3.932,5.355,5.355,0,0,0,.118,1.308,5.826,5.826,0,0,0,1.526,2.927A6.217,6.217,0,0,0,117.588,658.67Zm44.762,0a5.079,5.079,0,0,0,1.364-.134,6.114,6.114,0,0,0,3.523-2.128,5.7,5.7,0,0,0,1.2-5.143,5.914,5.914,0,0,0-3.548-4.162,5.992,5.992,0,0,0-2.5-.512,6.452,6.452,0,0,0-1.333.131,6.086,6.086,0,0,0-2.941,1.505,5.821,5.821,0,0,0-1.911,5.191,5.546,5.546,0,0,0,1.131,2.757A6.212,6.212,0,0,0,162.349,658.672Zm-.65-23.347c-.08-.042-.151-.083-.224-.116q-1.3-.584-2.642-1.065a37.461,37.461,0,0,0-4.544-1.314c-.56-.124-1.124-.236-1.69-.332-.548-.093-1.1-.161-1.651-.235-.416-.055-.832-.112-1.249-.15-.372-.034-.747-.045-1.121-.067l-.109-.008c-.209-.014-.419-.036-.628-.042-.384-.009-.769.009-1.152-.017-.422-.029-.841.019-1.261.018a.3.3,0,0,0-.08.024.807.807,0,0,0-.048.4q0,2.579,0,5.158a2.128,2.128,0,0,0,.006.247,1.121,1.121,0,0,0,.052.18c.1,0,.178.011.259.011q6.53,0,13.06,0a.582.582,0,0,0,.439-.171c.806-.772,1.618-1.536,2.429-2.3a1.043,1.043,0,0,0,.115-.117A.432.432,0,0,0,161.7,635.325ZM125.3,637.966c.02.021.031.044.043.044q9.426.007,18.851.011a1.653,1.653,0,0,0,.186-.02.627.627,0,0,0,.051-.355q0-2.634,0-5.269c0-.073,0-.147-.007-.219a.129.129,0,0,0-.144-.131c-.1,0-.2.015-.3.021l-1.149.067c-.027,0-.054.007-.082.01-.263.029-.525.06-.788.088-.227.024-.455.038-.68.07-.442.062-.884.128-1.324.2-.647.111-1.3.215-1.937.352a39.565,39.565,0,0,0-3.963,1.059,40.833,40.833,0,0,0-6.187,2.585q-1.218.63-2.393,1.337C125.416,637.859,125.335,637.887,125.3,637.966Z" transform="translate(-106.508 -631.057)" fill="#fff" stroke="#fff" stroke-width="1"/>
    <path id="Path_1711" data-name="Path 1711" d="M414.341,754.955h-1.948c-.091,0-.183,0-.274-.007a.419.419,0,0,1-.391-.417.426.426,0,0,1,.4-.433c.082-.007.164-.005.247-.005h3.977c.082,0,.165,0,.247.006a.429.429,0,0,1,.392.419.419.419,0,0,1-.379.429c-.091.009-.183.008-.274.008Z" transform="translate(-383.18 -742.583)" fill="#fff" stroke="#fff" stroke-width="1"/>
  </g>
</svg>
