<svg id="icon_condo_excel_plus" data-name="icon condo excel plus" xmlns="http://www.w3.org/2000/svg" width="58.591" height="64.485" viewBox="0 0 58.591 64.485">
  <path id="Path_1703" data-name="Path 1703" d="M965.433,635.06c.01-.289.026-.555.026-.82q0-7.428,0-14.857c0-.206,0-.413,0-.619a.972.972,0,0,1,1.348-.964c.334.109.658.247.984.379l28.414,11.471c.364.147.731.289,1.1.435a1.1,1.1,0,0,1,.776,1.14c-.006.144,0,.289,0,.433q0,24.482,0,48.965c0,.206.011.414-.006.619a1.022,1.022,0,0,1-1.014.973c-.145.008-.29,0-.435,0H940.99c-.145,0-.29,0-.435,0a1.018,1.018,0,0,1-1.031-.888,3.959,3.959,0,0,1-.03-.678q0-5.509,0-11.019,0-11.112,0-22.223c0-.186,0-.371,0-.557a1.243,1.243,0,0,1,.867-1.281c1.325-.529,2.636-1.093,3.952-1.643l19.061-7.96c.5-.207.994-.411,1.488-.623C965.05,635.261,965.229,635.161,965.433,635.06Zm25,45.074a1.493,1.493,0,0,0,.114-.842q.006-3.621,0-7.243a6.39,6.39,0,0,1,.019-.68.893.893,0,0,1,.967-.838.917.917,0,0,1,.954.861c.018.2.011.412.011.618q0,3.59,0,7.181c0,.206-.007.414.011.619a2.214,2.214,0,0,0,.107.383c.383.006.753.014,1.124.017.394,0,.788.012,1.181,0a3.208,3.208,0,0,0,1.1-.071,2.642,2.642,0,0,0,.1-1.052q0-21.852,0-43.7c0-.949,0-1.9,0-2.848a1.637,1.637,0,0,0-.129-.822c-.571-.236-1.16-.485-1.753-.724q-11.5-4.641-23.009-9.28c-1.093-.441-2.188-.876-3.282-1.316-.152-.061-.3-.15-.48-.013a2.245,2.245,0,0,0-.07.9q-.005,14.268,0,28.537c0,.268.007.537-.015.8a.924.924,0,0,1-.929.89.944.944,0,0,1-.987-.9c-.017-.205-.008-.412-.008-.619q0-5.85,0-11.7c0-.206,0-.413-.01-.619a1.13,1.13,0,0,0-.076-.258.948.948,0,0,0-.686.151q-4.666,1.946-9.328,3.9-6.611,2.761-13.223,5.519a1.281,1.281,0,0,0-.62.375c-.005.223-.017.489-.017.755q0,11.792,0,23.585c0,.186-.006.372.006.557a2.672,2.672,0,0,0,.072.356,11.011,11.011,0,0,0,1.635.045c.538.01,1.078.014,1.616,0a7.54,7.54,0,0,0,1.58-.055,1.631,1.631,0,0,0,.118-.877q.006-3.807,0-7.614a5.47,5.47,0,0,1,.029-.741.858.858,0,0,1,.785-.753,5.688,5.688,0,0,1,.621-.02q5.47,0,10.94,0c.186,0,.373,0,.559.013a.852.852,0,0,1,.843.69,2.965,2.965,0,0,1,.08.733c.007,1.444,0,2.889,0,4.333,0,1.2,0,2.394,0,3.59a.988.988,0,0,0,.1.662,1.67,1.67,0,0,0,.244.037q2.176,0,4.351,0a1.842,1.842,0,0,0,.37-.083c.007-.249.018-.474.018-.7q0-2.383,0-4.766,0-3.5,0-6.995a2.974,2.974,0,0,1,.055-.675.956.956,0,0,1,1.042-.775.984.984,0,0,1,.9.937c.016.205.007.412.007.619q0,9.44,0,18.88c0,.227,0,.454.006.681a2.819,2.819,0,0,0,.054.344.752.752,0,0,0,.2.075c.808,0,1.616.005,2.424,0,.073,0,.145-.061.245-.107.006-.252.017-.5.017-.743q0-3.714,0-7.428a2.856,2.856,0,0,1,.017-.556.947.947,0,0,1,.871-.83.92.92,0,0,1,1.037.687,2.767,2.767,0,0,1,.082.732c.007,1.506,0,3.012,0,4.519,0,1.032,0,2.063,0,3.1,0,.2-.05.414.1.584a17.082,17.082,0,0,0,3.1-.011,1.391,1.391,0,0,0,.11-.834q.006-6.159,0-12.319a6.157,6.157,0,0,1,.016-.68.926.926,0,0,1,.859-.832c.165-.014.331-.007.5-.007h8.516c.145,0,.29,0,.435,0a.928.928,0,0,1,.919.9c.018.226.01.454.01.681q0,6.066,0,12.133c0,.206-.006.414.011.619a1.8,1.8,0,0,0,.09.335A18.064,18.064,0,0,0,990.43,680.134Zm-48.873.061c.332.006.6.014.865.014h22.112c.186,0,.373.008.559-.007a2.189,2.189,0,0,0,.356-.089c.011-.189.028-.352.03-.515,0-.392,0-.783,0-1.175,0-1.031,0-2.062,0-3.093a.7.7,0,0,0-.17-.626c-.239-.009-.525-.03-.811-.03q-10.994,0-21.988,0c-.145,0-.29,0-.435,0-.525.015-.571.051-.573.569q-.009,2.227,0,4.453A4.96,4.96,0,0,0,941.557,680.195Zm43.4-.043a.954.954,0,0,0,.13-.631q0-5.692,0-11.384c0-.655-.052-.7-.7-.717h-.124q-2.858,0-5.716,0a3.8,3.8,0,0,0-.5.029c-.21.028-.3.113-.316.316s-.019.412-.019.618q0,5.444,0,10.889a4.088,4.088,0,0,0,.011.494,2.559,2.559,0,0,0,.1.383C978.389,680.23,984.4,680.231,984.956,680.152Zm-26.622-7.54c.018-.215.046-.395.047-.574q0-3.4,0-6.807c0-.673-.022-.7-.7-.7q-4.256-.005-8.513,0c-.658,0-.693.041-.7.713,0,1.2,0,2.393,0,3.589,0,1.031,0,2.063,0,3.094a1.039,1.039,0,0,0,.095.651c.46.1,4.636.134,9.189.077C957.941,672.654,958.121,672.629,958.334,672.612Z" transform="translate(-939.492 -617.734)" fill="#fff"/>
  <path id="Path_1704" data-name="Path 1704" d="M979.58,765.141q-2.733,0-5.465,0a1.907,1.907,0,0,1-.791-.114.886.886,0,0,1-.6-.791c-.012-.185-.017-.371-.017-.556q0-3.432,0-6.865c0-.144.006-.288.006-.433a.984.984,0,0,1,.609-.927c.074-.037.149-.072.225-.105,2.38-1.056,4.761-2.107,7.137-3.172a3.356,3.356,0,0,1,1.5-.315c.931.025,1.863.007,2.795.007.124,0,.248,0,.373,0a1.119,1.119,0,0,1,1.217,1.19c.007.123,0,.247,0,.371q0,5.071,0,10.143a3.684,3.684,0,0,1-.03.616,1.052,1.052,0,0,1-1,.939,4.283,4.283,0,0,1-.5.008Zm4.9-11.211c-.207-.018-.388-.045-.569-.046-.579-.006-1.159.006-1.738-.006a1.892,1.892,0,0,0-.838.181c-.714.324-1.433.639-2.15.959-1.358.605-2.713,1.218-4.076,1.812a.626.626,0,0,0-.458.7,1.539,1.539,0,0,1,0,.185q0,2.318,0,4.636c0,.773,0,.776.806.776h8.318a3,3,0,0,0,.372-.007,3.376,3.376,0,0,0,.375-.091c.014-.2.035-.383.037-.565C984.62,758.43,984.588,754.522,984.482,753.931Z" transform="translate(-965.672 -723.57)" fill="#fff"/>
  <path id="Path_1705" data-name="Path 1705" d="M1085.529,678.675q0-3.5,0-6.995a5.241,5.241,0,0,1,.017-.618.908.908,0,0,1,.868-.819c.517-.021,1.036-.019,1.553,0a1.369,1.369,0,0,1,.528.155q2.922,1.437,5.838,2.887a2.383,2.383,0,0,1,.321.187.862.862,0,0,1,.393.67c.01.165.018.33.018.494q0,5.509,0,11.019c0,.185-.015.371-.021.556a.909.909,0,0,1-.823.791c-.186-.007-.373.013-.559.013h-6.714c-.145,0-.29,0-.435-.007a.932.932,0,0,1-.98-.97c-.009-.185,0-.371,0-.557Q1085.529,682.08,1085.529,678.675Zm7.567-3.752c-.2-.112-.371-.221-.554-.312q-2.167-1.077-4.338-2.147a3.728,3.728,0,0,0-.4-.175.22.22,0,0,0-.311.2,6.732,6.732,0,0,0-.031.679q0,5.477,0,10.955c0,.124,0,.248,0,.371.019.507.081.57.577.589.041,0,.083,0,.124,0,1.409,0,2.818,0,4.226,0,.7,0,.727-.033.727-.741q0-4.394,0-8.789C1093.122,675.349,1093.105,675.145,1093.1,674.923Z" transform="translate(-1054.594 -659.155)" fill="#fff"/>
  <path id="Path_1706" data-name="Path 1706" d="M1153.954,770.083q0,2.474,0,4.948a4.246,4.246,0,0,1-.01.494.974.974,0,0,1-.944.892c-.124.008-.249,0-.373,0h-6.893c-.083,0-.166,0-.249,0a1.024,1.024,0,0,1-1.121-1.052c-.011-.123-.006-.247-.006-.371q0-4.948,0-9.9a3.355,3.355,0,0,1,.014-.432,1.079,1.079,0,0,1,1.052-1.027,3.873,3.873,0,0,1,.434-.007q3.323,0,6.645,0a2.6,2.6,0,0,1,.614.053,1,1,0,0,1,.832,1.013c.008.144,0,.288,0,.433Zm-7.558,4.256a1.008,1.008,0,0,0,.208.092,3.053,3.053,0,0,0,.431.043c.415.006.829,0,1.244,0,.974,0,1.948,0,2.922,0a1.03,1.03,0,0,0,.755-.171c.014-.232.043-.5.044-.76q.006-2.446,0-4.891c0-.743,0-1.486,0-2.229a1.065,1.065,0,0,0-.152-.724,1.13,1.13,0,0,0-.23-.047q-2.425-.005-4.849,0a1.311,1.311,0,0,0-.331.086c-.1.54-.126,3.907-.072,8.07C1146.367,773.991,1146.386,774.172,1146.4,774.339Z" transform="translate(-1100.962 -732.856)" fill="#fff"/>
  <path id="Path_1707" data-name="Path 1707" d="M1085.53,770.083c0-1.713,0-3.425,0-5.138,0-.934.374-1.306,1.318-1.308,2.3-.005,4.6,0,6.9,0a1.765,1.765,0,0,1,.727.13.862.862,0,0,1,.568.747c.016.185.021.371.021.556q0,4.984,0,9.967a4.516,4.516,0,0,1-.021.556.913.913,0,0,1-.861.826c-.144.012-.29.007-.435.007h-6.9c-.145,0-.291,0-.435-.007a.923.923,0,0,1-.867-.822,4.7,4.7,0,0,1-.016-.556Q1085.529,772.559,1085.53,770.083Zm7.557,4.215c.01-.145.034-.327.034-.509q0-3.74,0-7.48a1.519,1.519,0,0,0-.037-.428.421.421,0,0,0-.2-.205.527.527,0,0,0-.243-.031q-2.359,0-4.718,0l-.062,0c-.269.024-.355.108-.385.384a2.219,2.219,0,0,0-.01.247q0,3.771,0,7.541c0,.573.07.646.644.65,1.448.01,2.9,0,4.345,0A.845.845,0,0,0,1093.088,774.3Z" transform="translate(-1054.595 -732.856)" fill="#fff"/>
  <path id="Path_1708" data-name="Path 1708" d="M1144.359,698.163c0-1.547,0-3.094,0-4.64a2.7,2.7,0,0,1,.061-.673.95.95,0,0,1,1.345-.675c1.227.493,2.447,1,3.668,1.512q1.747.726,3.49,1.457c.038.016.078.027.117.04a1.248,1.248,0,0,1,.92,1.36c-.024,2.145-.008,4.29-.009,6.434a1.518,1.518,0,0,1-.1.726.883.883,0,0,1-.766.545c-.186.011-.372.016-.559.016q-3.355,0-6.71,0c-.186,0-.373,0-.558-.016a.831.831,0,0,1-.805-.654,2.862,2.862,0,0,1-.089-.73C1144.355,701.3,1144.359,699.73,1144.359,698.163Zm2.03-3.419c-.009.222-.024.425-.024.628q0,1.76,0,3.521c0,.968,0,1.936,0,2.9,0,.443.07.5.492.528.041,0,.083,0,.124,0,1.468,0,2.937,0,4.4,0a3.65,3.65,0,0,0,.451-.053,1.1,1.1,0,0,0,.162-.751q.006-1.946,0-3.892c0-.144-.007-.288-.019-.432a.45.45,0,0,0-.3-.423c-.231-.088-.455-.194-.684-.289-1.295-.54-2.589-1.082-3.887-1.616A.894.894,0,0,0,1146.388,694.744Z" transform="translate(-1100.962 -676.402)" fill="#fff"/>
  <path id="Path_1709" data-name="Path 1709" d="M1064.06,790.492a.99.99,0,0,1-.937.966,1.053,1.053,0,0,1-.984-1,1.026,1.026,0,0,1,.992-.985A.959.959,0,0,1,1064.06,790.492Z" transform="translate(-1036.159 -753.243)" fill="#fff"/>
</svg>
