<svg id="icon_covid_19" data-name="icon covid 19" xmlns="http://www.w3.org/2000/svg" width="154.304" height="181.485" viewBox="0 0 154.304 181.485">
  <path id="Path_1688" data-name="Path 1688" d="M1396.746,717.956c.7-.3.971-.911,1.346-1.406,2.972-3.913,5.923-7.842,8.889-11.761a8.044,8.044,0,0,1,1.123-1.312,2.656,2.656,0,0,1,4.033.726,2.807,2.807,0,0,1-.012,2.82,10.524,10.524,0,0,1-.889,1.28q-18.01,23.888-36.024,47.772c-.209.276-.435.541-.636.823a2.855,2.855,0,0,1-4.382.125c-.786-1-1.664-1.925-2.441-2.93A76.735,76.735,0,0,1,1355,730.389a108.16,108.16,0,0,1-2.923-11.774c-.51-2.549-.966-5.113-1.306-7.69a46.033,46.033,0,0,1-.41-5.882c-.033-12.853-.015-25.706-.013-38.559,0-.174,0-.347,0-.521a3.044,3.044,0,0,1,2.883-3.286c.736-.121,1.481-.195,2.212-.34a37.592,37.592,0,0,0,17.459-8.666,41.83,41.83,0,0,0,10.942-15.218,52.987,52.987,0,0,0,2.865-8.356c.07-.28.162-.554.251-.83a3.062,3.062,0,0,1,3.011-2.394c.4-.03.807-.01,1.211-.01q24.313,0,48.626.011a21.468,21.468,0,0,1,2.742.256,4.9,4.9,0,0,1,3.793,2.951,12.9,12.9,0,0,1,.955,3.323,39.686,39.686,0,0,0,5.937,14.13,2.929,2.929,0,0,1-.054,3.971c-1.635,2.242-3.317,4.449-4.98,6.67q-14.71,19.643-29.421,39.285a12.544,12.544,0,0,1-.956,1.233c-1.262,1.308-2.438,1.425-3.683.573a2.766,2.766,0,0,1-.7-3.845c.3-.491.669-.942,1.015-1.4q4.576-6.107,9.154-12.213c.411-.548.793-1.118,1.144-1.616-.178-.581-.571-.664-.962-.779a25.835,25.835,0,0,0-15.278.753c-8.461,3.433-13.85,9.563-15.855,18.547a24.4,24.4,0,0,0,2.9,17.888C1395.844,717.085,1396.047,717.664,1396.746,717.956Zm-24.628,32.527a2.749,2.749,0,0,0,1.311-1.22q9.405-12.459,18.8-24.927c.209-.277.421-.553.608-.844a.888.888,0,0,0-.006-.983c-.117-.2-.255-.385-.39-.574a30.593,30.593,0,0,1-4.788-10.137,14.407,14.407,0,0,0-.581-1.5,48.051,48.051,0,0,0-6.83,1.146c-.221.565-.413,1.044-.6,1.527a9.256,9.256,0,0,1-10.393,5.965,9.5,9.5,0,1,1,9.458-14.651,7.5,7.5,0,0,1,.457.737,1.192,1.192,0,0,0,1.468.588c.562-.117,1.147-.134,1.7-.283,1.329-.358,2.764-.221,4.037-.863a1.818,1.818,0,0,0,.2-.481,14.825,14.825,0,0,0,.1-1.557,24.592,24.592,0,0,1,.558-4.642,30.487,30.487,0,0,1,3.333-9.08c.243-.441.438-.909.683-1.425a54.881,54.881,0,0,0-4.891-4c-.593.266-1.113.5-1.636.733a9.218,9.218,0,0,1-6.723.391,9.521,9.521,0,1,1,12.076-6.938c-.091.443-.126.9-.177,1.275a18.888,18.888,0,0,0,5.026,3.848,8.784,8.784,0,0,0,.773-.62,30.516,30.516,0,0,1,13.619-7.9,8.566,8.566,0,0,0,1.26-.583c-.058-.606-.089-1.12-.16-1.628-.161-1.144-.436-2.281-.49-3.429a2.673,2.673,0,0,0-1.767-2.635c-3.47-1.58-4.828-5.806-4.257-8.692a8.016,8.016,0,1,1,12.987,7.706c-.52.447-1.075.853-1.575,1.246a2.909,2.909,0,0,0-.065.6c.229,1.719.45,3.439.716,5.152.155,1,.425,1.193,1.527,1.235a28.3,28.3,0,0,1,3.109.1,33.113,33.113,0,0,1,6.719,1.527,7.732,7.732,0,0,0,1.255.259c1.335-1.362,18.429-24.265,19.086-25.583-.231-.446-.5-.953-.755-1.463a49.7,49.7,0,0,1-4.959-13.274c-.394-2.095-.421-2.1-2.581-2.1q-22.758,0-45.516,0c-1.95,0-1.977-.185-2.629,1.921a54.226,54.226,0,0,1-5.914,13.082,44.215,44.215,0,0,1-27.727,20.1c-.5.121-.976.309-1.412.449a4.8,4.8,0,0,0-.222,2.146q-.012,14.07-.012,28.141c0,1.851-.183,3.706-.113,5.554a71.207,71.207,0,0,0,.809,9.151,125.615,125.615,0,0,0,3.369,14.872,69.016,69.016,0,0,0,11.214,21.594A10.815,10.815,0,0,0,1372.118,750.483Zm12.718-75.154a3.984,3.984,0,0,0-7.967-.014,3.984,3.984,0,0,0,7.967.014Zm-13.962,38.07a3.759,3.759,0,0,0,3.9-3.793,3.959,3.959,0,1,0-7.918-.053A3.786,3.786,0,0,0,1370.874,713.4Zm38.414-54.7a2.548,2.548,0,0,0,2.43,2.465,2.657,2.657,0,0,0,2.545-2.566,2.624,2.624,0,0,0-2.473-2.447A2.509,2.509,0,0,0,1409.288,658.694Z" transform="translate(-1339.489 -616.087)" fill="teal"/>
  <path id="Path_1689" data-name="Path 1689" d="M1497.2,689.857a9.947,9.947,0,0,0-1.163-.457,48.968,48.968,0,0,1-11.917-5,5.37,5.37,0,0,0-2.31-1c-.331.39-.722.8-1.062,1.257q-8.123,10.817-16.231,21.645c-.274.365-.51.76-.8,1.2.778,1.621,1.616,3.2,2.3,4.837.663,1.588,1.169,3.242,1.774,4.953.525,0,.98.028,1.43-.005,1.262-.093,2.523-.209,3.783-.323a6.581,6.581,0,0,0,.854-.122,1.168,1.168,0,0,0,.9-.734c.145-.378.266-.765.425-1.136a8.267,8.267,0,0,1,5.446-4.964,8.848,8.848,0,0,1,5.676,16.753,8.545,8.545,0,0,1-9.924-2.864c-.914-1.246-1.77-1.828-3.293-1.336a7.047,7.047,0,0,1-1.892.1,5.978,5.978,0,0,0-2.528.478,2.29,2.29,0,0,0-.263,1.5,32.173,32.173,0,0,1-1.62,9.362,32.621,32.621,0,0,1-2.29,5.236c-.274.5-.537,1.008-.782,1.468a16.684,16.684,0,0,0,4.318,3.885c.488-.17,1.021-.375,1.567-.54a8.045,8.045,0,0,1,5.418.136,7.757,7.757,0,0,1,4.83,8.039,7.907,7.907,0,0,1-5.627,6.778,7.709,7.709,0,0,1-9.808-7.221,3.745,3.745,0,0,1,.015-.867,2.644,2.644,0,0,0-1.149-2.843c-.914-.7-1.759-1.5-2.643-2.238a2.123,2.123,0,0,0-.459-.227c-.708.1-1.06.681-1.512,1.1a30.3,30.3,0,0,1-11.856,6.917c-.823.253-1.646.5-2.541.777a5.339,5.339,0,0,0-.122,1c.106,1.558.25,3.113.367,4.669a1.032,1.032,0,0,0,.951,1.045,8.548,8.548,0,0,1,1.161.331,10.551,10.551,0,0,1,7.2,10.864,10.529,10.529,0,0,1-20.9.97,10.491,10.491,0,0,1,4.749-10.764c.374-.263.766-.5,1.2-.781a24.4,24.4,0,0,0-.21-4.657c-.292-2.079-.3-2.093-2.438-2.111a25.117,25.117,0,0,1-6.129-.907,1.6,1.6,0,0,0-1.922.69c-2.513,3.39-5.053,6.76-7.585,10.137q-6.45,8.6-12.9,17.206c-.445.594-.859,1.213-1.267,1.79a3.24,3.24,0,0,0,1.316,1.479q1.432,1.12,2.929,2.156a138.823,138.823,0,0,0,20.207,11.672c1.3.607,2.662,1.094,4.009,1.6a5.524,5.524,0,0,0,3.56.059,33.129,33.129,0,0,0,5.3-2.085,124.039,124.039,0,0,0,14.047-8.184c5.219-3.414,10.3-7.031,15.289-10.773a13.214,13.214,0,0,1,1.552-1.1,2.714,2.714,0,0,1,3.964,1.5,2.593,2.593,0,0,1-.6,2.729,5.414,5.414,0,0,1-.915.789,245.726,245.726,0,0,1-25.547,17.213,64.374,64.374,0,0,1-9.324,4.538,17.748,17.748,0,0,1-5,1.25,8.8,8.8,0,0,1-3.734-.537c-1.455-.546-2.938-1.037-4.345-1.69a139.686,139.686,0,0,1-23.687-13.931c-1.162-.85-2.237-1.822-3.344-2.749-.265-.221-.5-.484-.739-.731-1.843-1.879-1.866-3.3-.343-5.327q17.886-23.763,35.7-47.583,20.648-27.546,41.3-55.091a16.463,16.463,0,0,1,1.183-1.493,2.622,2.622,0,0,1,3.456-.523c1.258.7,2.465,1.5,3.722,2.206a46.411,46.411,0,0,0,10.093,4.473,14.277,14.277,0,0,0,3.385.611,2.732,2.732,0,0,1,2.846,2.839c.013.231.01.463.01.695-.008,13.663.111,27.328-.059,40.989a71.432,71.432,0,0,1-13.078,40.832c-1.223,1.753-2.568,3.42-3.869,5.116a2.952,2.952,0,0,1-1.967,1.3,2.567,2.567,0,0,1-2.679-1.2,2.823,2.823,0,0,1-.042-2.972,8.724,8.724,0,0,1,.929-1.248,69.365,69.365,0,0,0,10.781-18.511,65.372,65.372,0,0,0,3.669-14.061,87.455,87.455,0,0,0,.9-12.275c.043-11.347.021-22.695.017-34.042C1497.3,691.2,1497.238,690.576,1497.2,689.857Zm-37.223,22.98a3.4,3.4,0,0,0-1.4,1.4q-5.412,7.2-10.808,14.408-6.908,9.215-13.812,18.434a2.943,2.943,0,0,0-.91,1.694c1.259.928,2.779.585,4.152.637a23.409,23.409,0,0,0,10.094-1.856,25.624,25.624,0,0,0,9.1-6.441C1464.3,732.4,1464.318,719.92,1459.975,712.837Zm-21.7,58.718a5.031,5.031,0,0,0,10.061,0,5.031,5.031,0,1,0-10.061,0Zm44.918-49.771a3.339,3.339,0,0,0,.17-6.675,3.339,3.339,0,1,0-.17,6.675Zm-11.073,31.962a2.292,2.292,0,1,0-.1-4.581,2.292,2.292,0,0,0,.1,4.581Z" transform="translate(-1359.831 -636.41)" fill="teal"/>
  <path id="Path_1690" data-name="Path 1690" d="M1494.691,678.662c0,6.543-.018,13.086.008,19.63a70.623,70.623,0,0,1-.632,9.167,102.336,102.336,0,0,1-2.161,11.585,93.428,93.428,0,0,1-13.152,30.407,71.052,71.052,0,0,1-23.968,22.412q-12.194,6.92-24.475,13.687c-2.217,1.224-4.53,2.283-6.844,3.316a13.2,13.2,0,0,1-6.033,1.268,12.18,12.18,0,0,1-2.882-.5,66.861,66.861,0,0,1-10.176-3.843c-5.468-2.623-10.74-5.606-15.989-8.632-1.7-.979-3.369-2.017-5.09-2.956a65.77,65.77,0,0,1-16.537-13.3,112.1,112.1,0,0,1-13.471-18.035,4.457,4.457,0,0,1-.737-2.441,2.643,2.643,0,0,1,4.088-2.028,4.6,4.6,0,0,1,.955.984c.345.461.624.973.928,1.464a101.015,101.015,0,0,0,14.973,19.042,55.986,55.986,0,0,0,11.931,9.137c5.743,3.206,11.441,6.494,17.207,9.657a58.771,58.771,0,0,0,9.915,4.477c1.094.358,2.2.678,3.294,1.038a6.488,6.488,0,0,0,4.567-.121,53.3,53.3,0,0,0,5.049-2.254c4.383-2.326,8.731-4.718,13.068-7.128,4.136-2.3,8.221-4.689,12.364-6.974a67.708,67.708,0,0,0,26.407-26.352,92.189,92.189,0,0,0,10.018-26.869q1.044-4.926,1.6-9.925a57.945,57.945,0,0,0,.364-6.235q.047-20.151,0-40.3c0-1.326-.165-2.653-.273-3.977a2.647,2.647,0,0,0-2.181-2.57c-1.956-.475-3.909-.967-5.876-1.394a37.831,37.831,0,0,1-10.841-3.92,33.265,33.265,0,0,1-14.034-15.578,42.874,42.874,0,0,1-3.46-11.774c-.122-.858-.22-1.721-.373-2.573a1.932,1.932,0,0,0-2.062-1.914c-.573-.051-1.153-.031-1.729-.031q-17.394,0-34.788,0c-.52,0-1.04.021-1.557-.014a2.83,2.83,0,0,1-2.652-2.528,2.872,2.872,0,0,1,1.885-2.818,5.263,5.263,0,0,1,2.039-.278q8.394,0,16.788,0c6.057,0,12.115-.022,18.172.017a19.31,19.31,0,0,1,3.948.388,6.3,6.3,0,0,1,4.941,4.605,25.52,25.52,0,0,1,.71,3.741,37.735,37.735,0,0,0,4.2,12.963,27.14,27.14,0,0,0,17.5,13.667c2.5.668,5.045,1.154,7.557,1.776a17.309,17.309,0,0,1,2.77.951,7.074,7.074,0,0,1,4.018,4.519,13.035,13.035,0,0,1,.673,3.916q.023,4.777.031,9.555Q1494.7,671.713,1494.691,678.662Z" transform="translate(-1340.395 -608.66)" fill="teal"/>
  <path id="Path_1691" data-name="Path 1691" d="M1331.951,678.338q0-9.986,0-19.972c0-1.389.007-2.781.088-4.166a8.783,8.783,0,0,1,5.82-8.265,18.5,18.5,0,0,1,3.805-1.106,36.4,36.4,0,0,0,15.83-6.951,26.2,26.2,0,0,0,4.982-4.795,18.083,18.083,0,0,0,3.577-7.056c.635-2.64,1.308-5.272,1.977-7.9a23.535,23.535,0,0,1,1.684-4.727,7.78,7.78,0,0,1,6.346-4.475,32.427,32.427,0,0,1,4.306-.256c3.922,0,7.844.008,11.766-.007a5.269,5.269,0,0,1,2.2.369,2.658,2.658,0,0,1,1.537,3.146,2.619,2.619,0,0,1-2.416,2.112c-.459.035-.923.016-1.384.016q-6.661,0-13.323,0a15.827,15.827,0,0,0-1.728.053,2.872,2.872,0,0,0-2.538,1.812,19.479,19.479,0,0,0-.811,2.283c-.688,2.568-1.428,5.127-1.977,7.725a26.063,26.063,0,0,1-9.151,14.746,41.9,41.9,0,0,1-17.74,8.967c-.839.2-1.69.341-2.531.526-.561.123-1.119.26-1.671.417a3.848,3.848,0,0,0-3.116,3.681c-.046.693-.111,1.385-.111,2.079q-.009,21.274,0,42.549a48.829,48.829,0,0,0,.866,8.272,130.02,130.02,0,0,0,6.268,22.7,11.263,11.263,0,0,1,.527,1.827,2.67,2.67,0,0,1-.363,2,2.615,2.615,0,0,1-4.383.121,5.048,5.048,0,0,1-.626-1.229,139.208,139.208,0,0,1-6.493-22.458,64.371,64.371,0,0,1-1.231-12.93C1331.989,691.074,1331.951,684.705,1331.951,678.338Z" transform="translate(-1331.936 -608.659)" fill="teal"/>
</svg>
