<svg xmlns="http://www.w3.org/2000/svg" width="25.208" height="25.209" viewBox="0 0 25.208 25.209">
  <path id="Icon_ionic-ios-person" data-name="Icon ionic-ios-person" d="M29.7,29.072c-.473-2.088-3.171-3.105-4.1-3.433a30.591,30.591,0,0,0-3.42-.656,3.475,3.475,0,0,1-1.582-.729c-.263-.315-.105-3.236-.105-3.236a9.737,9.737,0,0,0,.748-1.425,18.375,18.375,0,0,0,.551-2.488s.538,0,.729-.945A9.3,9.3,0,0,0,23,13.96c-.039-.755-.453-.735-.453-.735a11.51,11.51,0,0,0,.446-3.368c.059-2.7-2.055-5.357-5.882-5.357-3.88,0-5.948,2.659-5.889,5.357a12.006,12.006,0,0,0,.44,3.368s-.414-.02-.453.735a9.3,9.3,0,0,0,.486,2.2c.184.945.729.945.729.945a18.375,18.375,0,0,0,.551,2.488,9.737,9.737,0,0,0,.748,1.425s.158,2.921-.105,3.236a3.475,3.475,0,0,1-1.582.729,30.591,30.591,0,0,0-3.42.656c-.932.328-3.63,1.346-4.1,3.433a.525.525,0,0,0,.519.637H29.184A.524.524,0,0,0,29.7,29.072Z" transform="translate(-4.501 -4.5)" fill="teal"/>
</svg>
