<svg id="icon_mobile_banking" data-name="icon mobile banking" xmlns="http://www.w3.org/2000/svg" width="63.825" height="122.713" viewBox="0 0 63.825 122.713">
  <defs>
    <style>
      .cls-1 {
        fill: #e4509a;
      }
    </style>
  </defs>
  <path id="Path_1720" data-name="Path 1720" class="cls-1" d="M611.8,644.73q0-24.91-.007-49.821a11.321,11.321,0,0,1,.625-3.938,11.014,11.014,0,0,1,8.372-7.365,10.5,10.5,0,0,1,2.343-.209q4.191,0,8.382,0,16.174,0,32.348,0a14.841,14.841,0,0,1,2.7.191,11.16,11.16,0,0,1,8.866,9.147,12.286,12.286,0,0,1,.18,1.754q.013,50.234-.011,100.469a10.806,10.806,0,0,1-5.466,9.6,9.934,9.934,0,0,1-5.14,1.53c-.472.008-.944.017-1.417.017q-19.893,0-39.786,0a14.834,14.834,0,0,1-3.285-.249,11.191,11.191,0,0,1-8.531-9.074,15.6,15.6,0,0,1-.174-2.347Q611.8,669.582,611.8,644.73Zm60.121,0q0-24.261,0-48.523c0-.472,0-.945-.01-1.417a7.662,7.662,0,0,0-2.539-5.766,7.909,7.909,0,0,0-5.535-1.957q-20.129.009-40.259.011a11.919,11.919,0,0,0-1.873.173,7.375,7.375,0,0,0-6.089,6.485c-.032.628-.115,1.255-.115,1.882q-.009,49.113,0,98.227c0,.627.074,1.255.112,1.882a7.444,7.444,0,0,0,5.915,6.529,11.712,11.712,0,0,0,2.229.169q19.952,0,39.9,0c.354,0,.709.013,1.063-.009a7.4,7.4,0,0,0,7.066-6.574c.059-.823.125-1.648.126-2.472Q671.924,669.047,671.919,644.727Z" transform="translate(-611.791 -583.394)"/>
  <path id="Path_1721" data-name="Path 1721" class="cls-1" d="M685.147,680.9q0,18.825,0,37.651c0,.59-.016,1.18-.016,1.77a7.655,7.655,0,0,1-5.419,7,6.178,6.178,0,0,1-2.088.327c-.432-.016-.865,0-1.3,0q-16.819,0-33.638,0a10.563,10.563,0,0,1-2.46-.191,7.808,7.808,0,0,1-5.977-7.555c-.006-.354,0-.708,0-1.062q0-38.182-.007-76.364a8.583,8.583,0,0,1,.589-3.459,7.5,7.5,0,0,1,6.109-4.771,15.4,15.4,0,0,1,2.231-.159q16.583-.015,33.166,0a16.83,16.83,0,0,1,2.347.179,7.6,7.6,0,0,1,6.442,7.1c.007.629.022,1.259.022,1.888Q685.148,662.074,685.147,680.9Zm-3.682.006q0-18.95,0-37.9c0-.433.015-.867-.014-1.3a4.043,4.043,0,0,0-3.925-3.818c-.354-.011-.708-.005-1.062-.005H642.932c-.315,0-.63,0-.945,0a3.939,3.939,0,0,0-3.909,3.407,15.121,15.121,0,0,0-.128,2.234q-.01,29.222-.005,58.443,0,8.324.005,16.648a12.131,12.131,0,0,0,.124,1.88,3.794,3.794,0,0,0,2.979,3.276,7.4,7.4,0,0,0,1.866.193q16.765.016,33.531.007c.354,0,.71.01,1.062-.021a4.13,4.13,0,0,0,3.87-3.384,8.3,8.3,0,0,0,.078-1.529Q681.468,699.973,681.465,680.906Z" transform="translate(-627.629 -619.151)"/>
  <path id="Path_1722" data-name="Path 1722" class="cls-1" d="M692.968,621.444q-4.953,0-9.906,0a7.8,7.8,0,0,1-1.056-.061.627.627,0,0,1,0-1.207,8.529,8.529,0,0,1,1.173-.076q4.363-.009,8.727,0,5.425,0,10.849,0a10.153,10.153,0,0,1,1.174.063.66.66,0,0,1,.541.548.688.688,0,0,1-.542.678,7.517,7.517,0,0,1-1.057.055Q697.921,621.447,692.968,621.444Z" transform="translate(-661.007 -609.286)"/>
  <path id="Path_1723" data-name="Path 1723" class="cls-1" d="M714.916,965.94a2.1,2.1,0,1,1,.08-4.184,2.093,2.093,0,1,1-.08,4.184Z" transform="translate(-683.011 -850.328)"/>
  <path id="Path_1724" data-name="Path 1724" class="cls-1" d="M660.116,657.947c1.765,0,3.53,0,5.295,0a2.962,2.962,0,0,1,.922.115c.128.043.234.3.25.469.011.116-.134.27-.245.364a.6.6,0,0,1-.333.089c-.274.017-.548.022-.823.022q-5.059,0-10.118,0a8.677,8.677,0,0,1-1.053-.064.438.438,0,0,1-.361-.516.7.7,0,0,1,.359-.4,3.721,3.721,0,0,1,.931-.077C656.664,657.944,658.39,657.947,660.116,657.947Z" transform="translate(-641.309 -635.99)"/>
  <path id="Path_1725" data-name="Path 1725" class="cls-1" d="M747.725,659.125c-.55,0-1.1,0-1.649,0a3.072,3.072,0,0,1-.585-.055.489.489,0,0,1-.436-.48.5.5,0,0,1,.421-.5,1.741,1.741,0,0,1,.466-.045q1.826,0,3.652,0a2.055,2.055,0,0,1,.467.039.53.53,0,0,1,.433.492.482.482,0,0,1-.417.491,5,5,0,0,1-.7.056c-.549.008-1.1,0-1.649,0Z" transform="translate(-705.808 -636.059)"/>
  <path id="Path_1726" data-name="Path 1726" class="cls-1" d="M723.407,659.123c-.587,0-1.175.009-1.762,0a2.194,2.194,0,0,1-.689-.1.46.46,0,0,1-.263-.336.712.712,0,0,1,.218-.492.945.945,0,0,1,.549-.14c1.292-.011,2.584-.015,3.875.006a1.3,1.3,0,0,1,.64.221.479.479,0,0,1,.155.4.5.5,0,0,1-.271.338,2.191,2.191,0,0,1-.69.1c-.587.013-1.174,0-1.761,0Z" transform="translate(-688.621 -636.057)"/>
  <path id="Path_1727" data-name="Path 1727" class="cls-1" d="M772.108,658.043c.666,0,1.331-.013,2,.009a1.066,1.066,0,0,1,.533.188.46.46,0,0,1-.1.774,1.979,1.979,0,0,1-.574.1q-1.879.013-3.758,0a1.518,1.518,0,0,1-.573-.093c-.125-.053-.288-.214-.285-.322a.661.661,0,0,1,.226-.484,1.356,1.356,0,0,1,.66-.166c.626-.021,1.253-.007,1.879-.007Z" transform="translate(-722.943 -636.053)"/>
</svg>
