<svg width="20" height="20" viewBox="0 0 20 20" fill="none" xmlns="http://www.w3.org/2000/svg">
<path d="M3.30746 12.058L9.55746 5.80795C9.61551 5.74984 9.68444 5.70374 9.76031 5.67229C9.83619 5.64084 9.91752 5.62465 9.99965 5.62465C10.0818 5.62465 10.1631 5.64084 10.239 5.67229C10.3149 5.70374 10.3838 5.74984 10.4418 5.80795L16.6918 12.058C16.8091 12.1752 16.875 12.3343 16.875 12.5001C16.875 12.666 16.8091 12.8251 16.6918 12.9423C16.5746 13.0596 16.4155 13.1255 16.2497 13.1255C16.0838 13.1255 15.9247 13.0596 15.8075 12.9423L9.99965 7.13373L4.19184 12.9423C4.13377 13.0004 4.06483 13.0465 3.98896 13.0779C3.91309 13.1093 3.83177 13.1255 3.74965 13.1255C3.66753 13.1255 3.58621 13.1093 3.51034 13.0779C3.43447 13.0465 3.36553 13.0004 3.30746 12.9423C3.2494 12.8843 3.20333 12.8153 3.17191 12.7395C3.14048 12.6636 3.1243 12.5823 3.1243 12.5001C3.1243 12.418 3.14048 12.3367 3.17191 12.2608C3.20333 12.185 3.2494 12.116 3.30746 12.058Z" fill="#217B7E"/>
</svg>
