<svg width="23" height="22" viewBox="0 0 23 22" fill="none" xmlns="http://www.w3.org/2000/svg">
<path d="M11.5 2.0625C9.73233 2.0625 8.00436 2.58668 6.5346 3.56874C5.06483 4.55081 3.91929 5.94665 3.24283 7.57977C2.56637 9.21288 2.38938 11.0099 2.73424 12.7436C3.07909 14.4773 3.93031 16.0698 5.18024 17.3198C6.43017 18.5697 8.02268 19.4209 9.75638 19.7658C11.4901 20.1106 13.2871 19.9336 14.9202 19.2572C16.5534 18.5807 17.9492 17.4352 18.9313 15.9654C19.9133 14.4956 20.4375 12.7677 20.4375 11C20.435 8.6304 19.4926 6.35856 17.817 4.683C16.1414 3.00743 13.8696 2.065 11.5 2.0625ZM6.86625 16.9727C7.3636 16.1948 8.04876 15.5547 8.85856 15.1113C9.66836 14.6679 10.5768 14.4355 11.5 14.4355C12.4233 14.4355 13.3316 14.6679 14.1414 15.1113C14.9512 15.5547 15.6364 16.1948 16.1338 16.9727C14.8089 18.003 13.1784 18.5624 11.5 18.5624C9.82162 18.5624 8.19112 18.003 6.86625 16.9727ZM8.75 10.3125C8.75 9.7686 8.91129 9.23692 9.21346 8.78468C9.51564 8.33245 9.94513 7.97997 10.4476 7.77183C10.9501 7.56369 11.5031 7.50923 12.0365 7.61534C12.57 7.72145 13.06 7.98336 13.4445 8.36796C13.8291 8.75255 14.0911 9.24255 14.1972 9.776C14.3033 10.3094 14.2488 10.8624 14.0407 11.3649C13.8325 11.8674 13.4801 12.2969 13.0278 12.599C12.5756 12.9012 12.0439 13.0625 11.5 13.0625C10.7707 13.0625 10.0712 12.7728 9.55546 12.257C9.03974 11.7413 8.75 11.0418 8.75 10.3125ZM17.1513 16.0196C16.3845 14.9085 15.3063 14.0489 14.0523 13.5489C14.7259 13.0184 15.2175 12.2911 15.4586 11.4683C15.6997 10.6454 15.6784 9.76791 15.3976 8.95773C15.1169 8.14756 14.5906 7.44501 13.8921 6.94778C13.1936 6.45055 12.3574 6.18336 11.5 6.18336C10.6426 6.18336 9.80644 6.45055 9.1079 6.94778C8.40936 7.44501 7.88313 8.14756 7.60238 8.95773C7.32164 9.76791 7.30034 10.6454 7.54144 11.4683C7.78254 12.2911 8.27407 13.0184 8.94766 13.5489C7.69368 14.0489 6.61552 14.9085 5.84875 16.0196C4.87987 14.9301 4.2466 13.5837 4.0252 12.1425C3.8038 10.7014 4.00372 9.22702 4.60087 7.89688C5.19802 6.56675 6.16696 5.43759 7.39099 4.64538C8.61503 3.85318 10.042 3.4317 11.5 3.4317C12.958 3.4317 14.385 3.85318 15.609 4.64538C16.8331 5.43759 17.802 6.56675 18.3991 7.89688C18.9963 9.22702 19.1962 10.7014 18.9748 12.1425C18.7534 13.5837 18.1201 14.9301 17.1513 16.0196Z" fill="#008080"/>
</svg>
