<svg width="56" height="70" viewBox="0 0 56 70" fill="none" xmlns="http://www.w3.org/2000/svg">
<path d="M31.1253 42.5C31.1253 42.6658 31.0594 42.8247 30.9422 42.9419C30.825 43.0592 30.666 43.125 30.5003 43.125H25.5003C25.3345 43.125 25.1755 43.0592 25.0583 42.9419C24.9411 42.8247 24.8753 42.6658 24.8753 42.5C24.8753 42.3342 24.9411 42.1753 25.0583 42.0581C25.1755 41.9408 25.3345 41.875 25.5003 41.875H30.5003C30.666 41.875 30.825 41.9408 30.9422 42.0581C31.0594 42.1753 31.1253 42.3342 31.1253 42.5ZM35.3323 40C35.2239 40.191 35.0664 40.3497 34.8762 40.4595C34.686 40.5694 34.4699 40.6265 34.2503 40.625H21.7503C21.5305 40.6247 21.3148 40.5665 21.1247 40.4562C20.9346 40.346 20.777 40.1875 20.6676 39.9969C20.5583 39.8063 20.5012 39.5903 20.502 39.3705C20.5027 39.1508 20.5614 38.9351 20.6721 38.7453C21.1057 37.9984 21.7503 35.8859 21.7503 33.125C21.7503 31.4674 22.4087 29.8777 23.5808 28.7056C24.753 27.5335 26.3427 26.875 28.0003 26.875C29.6579 26.875 31.2476 27.5335 32.4197 28.7056C33.5918 29.8777 34.2503 31.4674 34.2503 33.125C34.2503 35.8852 34.8956 37.9984 35.3292 38.7453C35.441 38.9354 35.5001 39.1518 35.5005 39.3723C35.5009 39.5929 35.4426 39.8095 35.3315 40H35.3323ZM34.2503 39.375C33.6464 38.3383 33.0003 35.9414 33.0003 33.125C33.0003 31.7989 32.4735 30.5271 31.5358 29.5895C30.5981 28.6518 29.3263 28.125 28.0003 28.125C26.6742 28.125 25.4024 28.6518 24.4647 29.5895C23.5271 30.5271 23.0003 31.7989 23.0003 33.125C23.0003 35.9422 22.3534 38.3391 21.7503 39.375H34.2503Z" fill="#505558"/>
</svg>
