<svg width="16" height="16" viewBox="0 0 16 16" fill="none" xmlns="http://www.w3.org/2000/svg">
<path d="M13.0194 6.4569L8.3319 11.1444C8.28837 11.188 8.23667 11.2226 8.17976 11.2461C8.12286 11.2697 8.06186 11.2819 8.00026 11.2819C7.93866 11.2819 7.87766 11.2697 7.82076 11.2461C7.76385 11.2226 7.71215 11.188 7.66862 11.1444L2.98112 6.4569C2.89316 6.36894 2.84375 6.24965 2.84375 6.12526C2.84375 6.00087 2.89316 5.88158 2.98112 5.79362C3.06908 5.70566 3.18837 5.65625 3.31276 5.65625C3.43715 5.65625 3.55644 5.70566 3.6444 5.79362L8.00026 10.1501L12.3561 5.79362C12.3997 5.75007 12.4514 5.71552 12.5083 5.69195C12.5652 5.66838 12.6262 5.65625 12.6878 5.65625C12.7494 5.65625 12.8103 5.66838 12.8672 5.69195C12.9241 5.71552 12.9759 5.75007 13.0194 5.79362C13.063 5.83717 13.0975 5.88887 13.1211 5.94578C13.1446 6.00268 13.1568 6.06367 13.1568 6.12526C13.1568 6.18685 13.1446 6.24784 13.1211 6.30474C13.0975 6.36165 13.063 6.41335 13.0194 6.4569Z" fill="#008080"/>
</svg>
