<svg width="21" height="20" viewBox="0 0 21 20" fill="none" xmlns="http://www.w3.org/2000/svg">
<path d="M10.5 1.875C8.89303 1.875 7.32214 2.35152 5.986 3.24431C4.64985 4.1371 3.60844 5.40605 2.99348 6.8907C2.37852 8.37535 2.21762 10.009 2.53112 11.5851C2.84463 13.1612 3.61846 14.6089 4.75476 15.7452C5.89106 16.8815 7.3388 17.6554 8.9149 17.9689C10.491 18.2824 12.1247 18.1215 13.6093 17.5065C15.094 16.8916 16.3629 15.8502 17.2557 14.514C18.1485 13.1779 18.625 11.607 18.625 10C18.6227 7.84581 17.766 5.78051 16.2427 4.25727C14.7195 2.73403 12.6542 1.87727 10.5 1.875ZM10.5 16.875C9.14026 16.875 7.81105 16.4718 6.68046 15.7164C5.54987 14.9609 4.66868 13.8872 4.14833 12.6309C3.62798 11.3747 3.49183 9.99237 3.7571 8.65875C4.02238 7.32513 4.67716 6.10013 5.63864 5.13864C6.60013 4.17716 7.82514 3.52237 9.15876 3.2571C10.4924 2.99183 11.8747 3.12798 13.131 3.64833C14.3872 4.16868 15.4609 5.04987 16.2164 6.18045C16.9718 7.31104 17.375 8.64025 17.375 10C17.3729 11.8227 16.6479 13.5702 15.3591 14.8591C14.0702 16.1479 12.3227 16.8729 10.5 16.875ZM9.875 10.625V6.25C9.875 6.08424 9.94085 5.92527 10.0581 5.80806C10.1753 5.69085 10.3342 5.625 10.5 5.625C10.6658 5.625 10.8247 5.69085 10.9419 5.80806C11.0592 5.92527 11.125 6.08424 11.125 6.25V10.625C11.125 10.7908 11.0592 10.9497 10.9419 11.0669C10.8247 11.1842 10.6658 11.25 10.5 11.25C10.3342 11.25 10.1753 11.1842 10.0581 11.0669C9.94085 10.9497 9.875 10.7908 9.875 10.625ZM11.4375 13.4375C11.4375 13.6229 11.3825 13.8042 11.2795 13.9583C11.1765 14.1125 11.0301 14.2327 10.8588 14.3036C10.6875 14.3746 10.499 14.3932 10.3171 14.357C10.1352 14.3208 9.9682 14.2315 9.83709 14.1004C9.70598 13.9693 9.61669 13.8023 9.58052 13.6204C9.54434 13.4385 9.56291 13.25 9.63387 13.0787C9.70482 12.9074 9.82499 12.761 9.97916 12.658C10.1333 12.555 10.3146 12.5 10.5 12.5C10.7486 12.5 10.9871 12.5988 11.1629 12.7746C11.3387 12.9504 11.4375 13.1889 11.4375 13.4375Z" fill="#EFF2F4"/>
</svg>
