<svg width="50" height="70" viewBox="0 0 50 70" fill="none" xmlns="http://www.w3.org/2000/svg">
<path fill-rule="evenodd" clip-rule="evenodd" d="M18.6079 26.6174C19.9422 25.7259 21.5108 25.25 23.1156 25.25C25.2674 25.2501 27.331 26.105 28.8526 27.6266C30.3741 29.1481 31.229 31.2117 31.2291 33.3635C31.2291 34.9683 30.7533 36.537 29.8618 37.8713C28.9702 39.2055 27.7031 40.2455 26.2205 40.8596C24.7379 41.4737 23.1066 41.6344 21.5327 41.3213C19.9588 41.0082 18.5131 40.2355 17.3784 39.1008C16.2437 37.9661 15.4709 36.5204 15.1579 34.9465C14.8448 33.3726 15.0055 31.7412 15.6196 30.2587C16.2337 28.7761 17.2736 27.5089 18.6079 26.6174ZM23.1155 26.75C21.8075 26.75 20.5288 27.1379 19.4412 27.8646C18.3536 28.5913 17.506 29.6242 17.0054 30.8327C16.5048 32.0412 16.3738 33.3709 16.629 34.6538C16.8842 35.9368 17.5141 37.1152 18.439 38.0401C19.364 38.965 20.5424 39.5949 21.8253 39.8501C23.1082 40.1053 24.438 39.9743 25.6465 39.4738C26.8549 38.9732 27.8878 38.1255 28.6146 37.0379C29.3413 35.9503 29.7291 34.6717 29.7291 33.3636M23.1155 26.75C24.8695 26.7501 26.5517 27.447 27.7919 28.6872C29.0322 29.9275 29.729 31.6096 29.7291 33.3636" fill="#505558"/>
<path fill-rule="evenodd" clip-rule="evenodd" d="M28.079 38.327C28.3719 38.0341 28.8467 38.0341 29.1396 38.327L34.2823 43.4697C34.5752 43.7626 34.5752 44.2374 34.2823 44.5303C33.9894 44.8232 33.5145 44.8232 33.2216 44.5303L28.079 39.3877C27.7861 39.0948 27.7861 38.6199 28.079 38.327Z" fill="#505558"/>
</svg>
