<svg width="16" height="16" viewBox="0 0 16 16" fill="none" xmlns="http://www.w3.org/2000/svg">
<path d="M6.4569 2.9806L11.1444 7.6681C11.188 7.71163 11.2226 7.76333 11.2461 7.82024C11.2697 7.87714 11.2819 7.93814 11.2819 7.99974C11.2819 8.06134 11.2697 8.12234 11.2461 8.17924C11.2226 8.23615 11.188 8.28785 11.1444 8.33138L6.4569 13.0189C6.36894 13.1068 6.24965 13.1562 6.12526 13.1562C6.00087 13.1562 5.88158 13.1068 5.79362 13.0189C5.70566 12.9309 5.65625 12.8116 5.65625 12.6872C5.65625 12.5628 5.70566 12.4436 5.79362 12.3556L10.1501 7.99974L5.79362 3.64388C5.75007 3.60033 5.71552 3.54862 5.69195 3.49172C5.66838 3.43482 5.65625 3.37383 5.65625 3.31224C5.65625 3.25065 5.66838 3.18966 5.69195 3.13276C5.71552 3.07585 5.75007 3.02415 5.79362 2.9806C5.83717 2.93705 5.88887 2.9025 5.94578 2.87893C6.00268 2.85536 6.06367 2.84323 6.12526 2.84323C6.18685 2.84323 6.24784 2.85536 6.30474 2.87893C6.36165 2.9025 6.41335 2.93705 6.4569 2.9806Z" fill="#C0E6E6"/>
</svg>
